<?xml version="1.0" encoding="UTF-8"?>
<svg xmlns="http://www.w3.org/2000/svg" viewBox="0 0 1600 900" role="img" aria-label="Ahmet Zakir Canik">
  <defs>
    <linearGradient id="bg" x1="0" y1="0" x2="0" y2="1">
      <stop offset="0%" stop-color="hsl(357 33% 23%)"/>
      <stop offset="100%" stop-color="hsl(275 37% 44%)"/>
    </linearGradient>
    <linearGradient id="fog" x1="0" y1="0" x2="1" y2="0">
      <stop offset="0%" stop-color="hsl(237 20% 84%)" stop-opacity="0.22"/>
      <stop offset="50%" stop-color="#ffffff" stop-opacity="0.08"/>
      <stop offset="100%" stop-color="hsl(237 20% 84%)" stop-opacity="0.22"/>
    </linearGradient>
    <radialGradient id="vignette" cx="50%" cy="45%" r="70%">
      <stop offset="65%" stop-color="rgba(0,0,0,0)"/>
      <stop offset="100%" stop-color="rgba(0,0,0,0.35)"/>
    </radialGradient>
  </defs>

  <rect width="1600" height="900" fill="url(#bg)"/>
  <circle cx="1112" cy="164" r="69" fill="#f4efd4" opacity="0.34"/>

  <path d="M0 430 Q115 368 229 290 Q343 407 457 375 Q572 369 686 300 Q800 389 914 371 Q1029 407 1143 375 Q1257 415 1371 381 Q1486 372 1600 302 L1600 900 L0 900 Z" fill="hsl(292 28% 21%)" opacity="0.48"/>
  <path d="M0 529 Q115 477 229 407 Q343 480 457 438 Q572 487 686 422 Q800 504 914 455 Q1029 455 1143 395 Q1257 474 1371 443 Q1486 462 1600 390 L1600 900 L0 900 Z" fill="hsl(279 26% 29%)" opacity="0.62"/>
  <path d="M0 637 Q115 605 229 575 Q343 564 457 490 Q572 581 686 508 Q800 557 914 457 Q1029 550 1143 449 Q1257 568 1371 521 Q1486 555 1600 458 L1600 900 L0 900 Z" fill="hsl(267 24% 43%)" opacity="0.78"/>

  <g>
    <polygon points="1245,473 1218,602 1272,602" fill="hsl(267 38% 26%)" opacity="0.83"/>
    <rect x="1242" y="579" width="6" height="30" fill="hsl(175 26% 24%)" opacity="0.72"/>
    <polygon points="686,455 652,614 720,614" fill="hsl(257 36% 33%)" opacity="0.81"/>
    <rect x="682" y="585" width="8" height="37" fill="hsl(175 26% 24%)" opacity="0.72"/>
    <polygon points="125,482 102,610 148,610" fill="hsl(257 36% 33%)" opacity="0.87"/>
    <rect x="122" y="587" width="6" height="29" fill="hsl(175 26% 24%)" opacity="0.72"/>
    <polygon points="287,512 264,611 310,611" fill="hsl(257 36% 33%)" opacity="0.82"/>
    <rect x="284" y="593" width="6" height="23" fill="hsl(175 26% 24%)" opacity="0.72"/>
    <polygon points="1225,488 1193,616 1257,616" fill="hsl(267 38% 26%)" opacity="0.81"/>
    <rect x="1221" y="593" width="8" height="29" fill="hsl(175 26% 24%)" opacity="0.72"/>
    <polygon points="1275,498 1242,644 1308,644" fill="hsl(257 36% 33%)" opacity="0.89"/>
    <rect x="1271" y="618" width="8" height="34" fill="hsl(175 26% 24%)" opacity="0.72"/>
    <polygon points="95,519 61,631 129,631" fill="hsl(267 38% 26%)" opacity="0.70"/>
    <rect x="91" y="611" width="8" height="26" fill="hsl(175 26% 24%)" opacity="0.72"/>
    <polygon points="305,518 283,637 327,637" fill="hsl(257 36% 33%)" opacity="0.88"/>
    <rect x="302" y="616" width="5" height="27" fill="hsl(175 26% 24%)" opacity="0.72"/>
    <polygon points="1559,478 1528,613 1590,613" fill="hsl(257 36% 33%)" opacity="0.86"/>
    <rect x="1555" y="589" width="7" height="31" fill="hsl(175 26% 24%)" opacity="0.72"/>
    <polygon points="1078,526 1047,650 1109,650" fill="hsl(267 38% 26%)" opacity="0.72"/>
    <rect x="1074" y="628" width="7" height="29" fill="hsl(175 26% 24%)" opacity="0.72"/>
    <polygon points="1029,511 1001,619 1057,619" fill="hsl(267 38% 26%)" opacity="0.76"/>
    <rect x="1026" y="600" width="7" height="25" fill="hsl(175 26% 24%)" opacity="0.72"/>
    <polygon points="645,510 624,664 666,664" fill="hsl(267 38% 26%)" opacity="0.86"/>
    <rect x="642" y="636" width="5" height="35" fill="hsl(175 26% 24%)" opacity="0.72"/>
    <polygon points="372,502 343,604 401,604" fill="hsl(257 36% 33%)" opacity="0.71"/>
    <rect x="369" y="586" width="7" height="23" fill="hsl(175 26% 24%)" opacity="0.72"/>
    <polygon points="1170,496 1142,648 1198,648" fill="hsl(257 36% 33%)" opacity="0.69"/>
    <rect x="1167" y="621" width="7" height="35" fill="hsl(175 26% 24%)" opacity="0.72"/>
    <polygon points="679,525 651,648 707,648" fill="hsl(257 36% 33%)" opacity="0.76"/>
    <rect x="676" y="626" width="7" height="28" fill="hsl(175 26% 24%)" opacity="0.72"/>
    <polygon points="558,519 525,652 591,652" fill="hsl(257 36% 33%)" opacity="0.87"/>
    <rect x="554" y="628" width="8" height="31" fill="hsl(175 26% 24%)" opacity="0.72"/>
    <polygon points="1039,506 1017,651 1061,651" fill="hsl(257 36% 33%)" opacity="0.76"/>
    <rect x="1036" y="625" width="5" height="33" fill="hsl(175 26% 24%)" opacity="0.72"/>
    <polygon points="846,522 824,658 868,658" fill="hsl(267 38% 26%)" opacity="0.73"/>
    <rect x="843" y="634" width="5" height="31" fill="hsl(175 26% 24%)" opacity="0.72"/>
  </g>

  <rect y="646" width="1600" height="254" fill="url(#fog)"/>

  <g>
    <polygon points="805,535 754,777 856,777" fill="hsl(267 38% 26%)" opacity="0.77"/>
    <rect x="799" y="733" width="12" height="56" fill="hsl(175 26% 24%)" opacity="0.72"/>
    <polygon points="1170,648 1124,799 1216,799" fill="hsl(257 36% 33%)" opacity="0.83"/>
    <rect x="1164" y="772" width="11" height="35" fill="hsl(175 26% 24%)" opacity="0.72"/>
    <polygon points="77,593 27,792 127,792" fill="hsl(267 38% 26%)" opacity="0.77"/>
    <rect x="71" y="756" width="12" height="46" fill="hsl(175 26% 24%)" opacity="0.72"/>
    <polygon points="990,601 960,800 1020,800" fill="hsl(257 36% 33%)" opacity="0.77"/>
    <rect x="986" y="764" width="7" height="46" fill="hsl(175 26% 24%)" opacity="0.72"/>
    <polygon points="461,502 431,742 491,742" fill="hsl(257 36% 33%)" opacity="0.68"/>
    <rect x="457" y="699" width="7" height="55" fill="hsl(175 26% 24%)" opacity="0.72"/>
    <polygon points="1090,532 1038,768 1142,768" fill="hsl(257 36% 33%)" opacity="0.82"/>
    <rect x="1084" y="726" width="12" height="54" fill="hsl(175 26% 24%)" opacity="0.72"/>
    <polygon points="1230,567 1195,801 1265,801" fill="hsl(267 38% 26%)" opacity="0.71"/>
    <rect x="1226" y="759" width="8" height="54" fill="hsl(175 26% 24%)" opacity="0.72"/>
    <polygon points="47,631 16,795 78,795" fill="hsl(257 36% 33%)" opacity="0.92"/>
    <rect x="43" y="765" width="7" height="38" fill="hsl(175 26% 24%)" opacity="0.72"/>
    <polygon points="353,565 325,746 381,746" fill="hsl(257 36% 33%)" opacity="0.89"/>
    <rect x="350" y="713" width="7" height="42" fill="hsl(175 26% 24%)" opacity="0.72"/>
    <polygon points="1062,552 1025,760 1099,760" fill="hsl(267 38% 26%)" opacity="0.73"/>
    <rect x="1058" y="723" width="9" height="48" fill="hsl(175 26% 24%)" opacity="0.72"/>
    <polygon points="1146,624 1108,805 1184,805" fill="hsl(267 38% 26%)" opacity="0.86"/>
    <rect x="1141" y="772" width="9" height="42" fill="hsl(175 26% 24%)" opacity="0.72"/>
    <polygon points="131,559 102,791 160,791" fill="hsl(257 36% 33%)" opacity="0.75"/>
    <rect x="128" y="749" width="7" height="53" fill="hsl(175 26% 24%)" opacity="0.72"/>
    <polygon points="583,584 530,733 636,733" fill="hsl(267 38% 26%)" opacity="0.76"/>
    <rect x="577" y="706" width="13" height="34" fill="hsl(175 26% 24%)" opacity="0.72"/>
    <polygon points="1165,600 1113,730 1217,730" fill="hsl(257 36% 33%)" opacity="0.75"/>
    <rect x="1159" y="707" width="12" height="30" fill="hsl(175 26% 24%)" opacity="0.72"/>
    <polygon points="776,546 737,791 815,791" fill="hsl(267 38% 26%)" opacity="0.80"/>
    <rect x="771" y="747" width="9" height="56" fill="hsl(175 26% 24%)" opacity="0.72"/>
    <polygon points="972,618 926,817 1018,817" fill="hsl(257 36% 33%)" opacity="0.82"/>
    <rect x="966" y="781" width="11" height="46" fill="hsl(175 26% 24%)" opacity="0.72"/>
  </g>

  <rect x="64" y="676" width="1472" height="184" rx="22" fill="#081517" opacity="0.54"/>
  <text x="118" y="726" fill="#d9e8c8" font-family="Poppins, Arial, sans-serif" font-size="28" font-weight="700">Diger Projeler</text>
  <text x="118" y="792" fill="#ffffff" font-family="Poppins, Arial, sans-serif" font-size="66.0" font-weight="800">Ahmet Zakir Canik</text>
  

  <rect width="1600" height="900" fill="url(#vignette)"/>
</svg>
