<?xml version="1.0" encoding="UTF-8"?>
<svg xmlns="http://www.w3.org/2000/svg" viewBox="0 0 1600 900" role="img" aria-label="Aksa Maden">
  <defs>
    <linearGradient id="bg" x1="0" y1="0" x2="0" y2="1">
      <stop offset="0%" stop-color="hsl(119 40% 20%)"/>
      <stop offset="100%" stop-color="hsl(37 30% 39%)"/>
    </linearGradient>
    <linearGradient id="fog" x1="0" y1="0" x2="1" y2="0">
      <stop offset="0%" stop-color="hsl(359 20% 84%)" stop-opacity="0.22"/>
      <stop offset="50%" stop-color="#ffffff" stop-opacity="0.08"/>
      <stop offset="100%" stop-color="hsl(359 20% 84%)" stop-opacity="0.22"/>
    </linearGradient>
    <radialGradient id="vignette" cx="50%" cy="45%" r="70%">
      <stop offset="65%" stop-color="rgba(0,0,0,0)"/>
      <stop offset="100%" stop-color="rgba(0,0,0,0.35)"/>
    </radialGradient>
  </defs>

  <rect width="1600" height="900" fill="url(#bg)"/>
  <circle cx="1110" cy="258" r="103" fill="#f4efd4" opacity="0.34"/>

  <path d="M0 444 Q115 378 229 311 Q343 403 457 344 Q572 409 686 394 Q800 379 914 317 Q1029 399 1143 369 Q1257 373 1371 322 Q1486 399 1600 362 L1600 900 L0 900 Z" fill="hsl(54 28% 21%)" opacity="0.48"/>
  <path d="M0 507 Q115 458 229 389 Q343 420 457 339 Q572 449 686 405 Q800 419 914 338 Q1029 429 1143 343 Q1257 463 1371 399 Q1486 452 1600 411 L1600 900 L0 900 Z" fill="hsl(41 26% 32%)" opacity="0.62"/>
  <path d="M0 618 Q115 531 229 441 Q343 585 457 550 Q572 548 686 469 Q800 540 914 476 Q1029 546 1143 488 Q1257 530 1371 457 Q1486 553 1600 471 L1600 900 L0 900 Z" fill="hsl(29 24% 45%)" opacity="0.78"/>

  <g>
    <polygon points="530,442 498,601 562,601" fill="hsl(19 36% 35%)" opacity="0.91"/>
    <rect x="526" y="572" width="8" height="37" fill="hsl(297 26% 24%)" opacity="0.72"/>
    <polygon points="1280,497 1251,647 1309,647" fill="hsl(29 38% 29%)" opacity="0.84"/>
    <rect x="1277" y="620" width="7" height="35" fill="hsl(297 26% 24%)" opacity="0.72"/>
    <polygon points="595,517 562,634 628,634" fill="hsl(19 36% 35%)" opacity="0.72"/>
    <rect x="591" y="613" width="8" height="27" fill="hsl(297 26% 24%)" opacity="0.72"/>
    <polygon points="1198,496 1170,621 1226,621" fill="hsl(19 36% 35%)" opacity="0.75"/>
    <rect x="1195" y="598" width="7" height="29" fill="hsl(297 26% 24%)" opacity="0.72"/>
    <polygon points="1571,505 1545,642 1597,642" fill="hsl(19 36% 35%)" opacity="0.69"/>
    <rect x="1568" y="617" width="6" height="32" fill="hsl(297 26% 24%)" opacity="0.72"/>
    <polygon points="217,457 190,617 244,617" fill="hsl(29 38% 29%)" opacity="0.71"/>
    <rect x="214" y="588" width="6" height="37" fill="hsl(297 26% 24%)" opacity="0.72"/>
    <polygon points="152,567 119,659 185,659" fill="hsl(29 38% 29%)" opacity="0.84"/>
    <rect x="148" y="642" width="8" height="21" fill="hsl(297 26% 24%)" opacity="0.72"/>
    <polygon points="1416,507 1396,632 1436,632" fill="hsl(19 36% 35%)" opacity="0.86"/>
    <rect x="1414" y="609" width="5" height="29" fill="hsl(297 26% 24%)" opacity="0.72"/>
    <polygon points="1522,480 1489,636 1555,636" fill="hsl(29 38% 29%)" opacity="0.79"/>
    <rect x="1518" y="608" width="8" height="36" fill="hsl(297 26% 24%)" opacity="0.72"/>
    <polygon points="111,498 86,611 136,611" fill="hsl(19 36% 35%)" opacity="0.81"/>
    <rect x="108" y="591" width="6" height="26" fill="hsl(297 26% 24%)" opacity="0.72"/>
    <polygon points="500,548 469,663 531,663" fill="hsl(29 38% 29%)" opacity="0.80"/>
    <rect x="496" y="642" width="7" height="26" fill="hsl(297 26% 24%)" opacity="0.72"/>
    <polygon points="250,505 218,654 282,654" fill="hsl(29 38% 29%)" opacity="0.82"/>
    <rect x="246" y="627" width="8" height="34" fill="hsl(297 26% 24%)" opacity="0.72"/>
    <polygon points="984,487 961,644 1007,644" fill="hsl(19 36% 35%)" opacity="0.81"/>
    <rect x="981" y="616" width="6" height="36" fill="hsl(297 26% 24%)" opacity="0.72"/>
    <polygon points="856,473 826,638 886,638" fill="hsl(29 38% 29%)" opacity="0.88"/>
    <rect x="852" y="608" width="7" height="38" fill="hsl(297 26% 24%)" opacity="0.72"/>
    <polygon points="1113,514 1091,638 1135,638" fill="hsl(29 38% 29%)" opacity="0.69"/>
    <rect x="1110" y="616" width="5" height="29" fill="hsl(297 26% 24%)" opacity="0.72"/>
    <polygon points="1168,521 1135,621 1201,621" fill="hsl(19 36% 35%)" opacity="0.78"/>
    <rect x="1164" y="603" width="8" height="23" fill="hsl(297 26% 24%)" opacity="0.72"/>
    <polygon points="857,505 831,600 883,600" fill="hsl(29 38% 29%)" opacity="0.71"/>
    <rect x="854" y="583" width="6" height="22" fill="hsl(297 26% 24%)" opacity="0.72"/>
    <polygon points="1355,448 1326,605 1384,605" fill="hsl(29 38% 29%)" opacity="0.87"/>
    <rect x="1352" y="577" width="7" height="36" fill="hsl(297 26% 24%)" opacity="0.72"/>
  </g>

  <rect y="646" width="1600" height="254" fill="url(#fog)"/>

  <g>
    <polygon points="923,534 874,753 972,753" fill="hsl(29 38% 29%)" opacity="0.87"/>
    <rect x="917" y="714" width="12" height="50" fill="hsl(297 26% 24%)" opacity="0.72"/>
    <polygon points="167,529 136,776 198,776" fill="hsl(19 36% 35%)" opacity="0.74"/>
    <rect x="163" y="732" width="7" height="57" fill="hsl(297 26% 24%)" opacity="0.72"/>
    <polygon points="1328,576 1298,777 1358,777" fill="hsl(29 38% 29%)" opacity="0.91"/>
    <rect x="1324" y="741" width="7" height="46" fill="hsl(297 26% 24%)" opacity="0.72"/>
    <polygon points="563,611 525,799 601,799" fill="hsl(29 38% 29%)" opacity="0.88"/>
    <rect x="558" y="765" width="9" height="43" fill="hsl(297 26% 24%)" opacity="0.72"/>
    <polygon points="706,623 652,786 760,786" fill="hsl(29 38% 29%)" opacity="0.71"/>
    <rect x="700" y="757" width="13" height="37" fill="hsl(297 26% 24%)" opacity="0.72"/>
    <polygon points="695,488 654,740 736,740" fill="hsl(19 36% 35%)" opacity="0.75"/>
    <rect x="690" y="695" width="10" height="58" fill="hsl(297 26% 24%)" opacity="0.72"/>
    <polygon points="356,508 307,756 405,756" fill="hsl(19 36% 35%)" opacity="0.88"/>
    <rect x="350" y="711" width="12" height="57" fill="hsl(297 26% 24%)" opacity="0.72"/>
    <polygon points="698,648 661,789 735,789" fill="hsl(19 36% 35%)" opacity="0.85"/>
    <rect x="694" y="764" width="9" height="32" fill="hsl(297 26% 24%)" opacity="0.72"/>
    <polygon points="236,630 206,813 266,813" fill="hsl(19 36% 35%)" opacity="0.91"/>
    <rect x="232" y="780" width="7" height="42" fill="hsl(297 26% 24%)" opacity="0.72"/>
    <polygon points="990,587 948,807 1032,807" fill="hsl(29 38% 29%)" opacity="0.84"/>
    <rect x="985" y="767" width="10" height="51" fill="hsl(297 26% 24%)" opacity="0.72"/>
    <polygon points="705,555 653,754 757,754" fill="hsl(19 36% 35%)" opacity="0.81"/>
    <rect x="699" y="718" width="12" height="46" fill="hsl(297 26% 24%)" opacity="0.72"/>
    <polygon points="1360,584 1314,769 1406,769" fill="hsl(19 36% 35%)" opacity="0.90"/>
    <rect x="1354" y="736" width="11" height="43" fill="hsl(297 26% 24%)" opacity="0.72"/>
    <polygon points="385,687 333,817 437,817" fill="hsl(19 36% 35%)" opacity="0.77"/>
    <rect x="379" y="794" width="12" height="30" fill="hsl(297 26% 24%)" opacity="0.72"/>
    <polygon points="206,609 163,778 249,778" fill="hsl(29 38% 29%)" opacity="0.85"/>
    <rect x="201" y="748" width="10" height="39" fill="hsl(297 26% 24%)" opacity="0.72"/>
    <polygon points="344,627 305,819 383,819" fill="hsl(19 36% 35%)" opacity="0.88"/>
    <rect x="339" y="784" width="9" height="44" fill="hsl(297 26% 24%)" opacity="0.72"/>
    <polygon points="1462,587 1433,786 1491,786" fill="hsl(29 38% 29%)" opacity="0.73"/>
    <rect x="1459" y="750" width="7" height="46" fill="hsl(297 26% 24%)" opacity="0.72"/>
  </g>

  <rect x="64" y="676" width="1472" height="184" rx="22" fill="#081517" opacity="0.54"/>
  <text x="118" y="726" fill="#d9e8c8" font-family="Poppins, Arial, sans-serif" font-size="28" font-weight="700">Maden Izinleri</text>
  <text x="118" y="792" fill="#ffffff" font-family="Poppins, Arial, sans-serif" font-size="66.0" font-weight="800">Aksa Maden</text>
  

  <rect width="1600" height="900" fill="url(#vignette)"/>
</svg>
