<?xml version="1.0" encoding="UTF-8"?>
<svg xmlns="http://www.w3.org/2000/svg" viewBox="0 0 1600 900" role="img" aria-label="Ali Karaca">
  <defs>
    <linearGradient id="bg" x1="0" y1="0" x2="0" y2="1">
      <stop offset="0%" stop-color="hsl(245 40% 20%)"/>
      <stop offset="100%" stop-color="hsl(163 38% 42%)"/>
    </linearGradient>
    <linearGradient id="fog" x1="0" y1="0" x2="1" y2="0">
      <stop offset="0%" stop-color="hsl(125 20% 84%)" stop-opacity="0.22"/>
      <stop offset="50%" stop-color="#ffffff" stop-opacity="0.08"/>
      <stop offset="100%" stop-color="hsl(125 20% 84%)" stop-opacity="0.22"/>
    </linearGradient>
    <radialGradient id="vignette" cx="50%" cy="45%" r="70%">
      <stop offset="65%" stop-color="rgba(0,0,0,0)"/>
      <stop offset="100%" stop-color="rgba(0,0,0,0.35)"/>
    </radialGradient>
  </defs>

  <rect width="1600" height="900" fill="url(#bg)"/>
  <circle cx="1230" cy="123" r="100" fill="#f4efd4" opacity="0.34"/>

  <path d="M0 426 Q115 386 229 324 Q343 373 457 328 Q572 380 686 349 Q800 353 914 291 Q1029 402 1143 362 Q1257 344 1371 279 Q1486 388 1600 357 L1600 900 L0 900 Z" fill="hsl(180 28% 25%)" opacity="0.48"/>
  <path d="M0 512 Q115 489 229 460 Q343 484 457 462 Q572 449 686 404 Q800 484 914 448 Q1029 454 1143 403 Q1257 465 1371 403 Q1486 485 1600 455 L1600 900 L0 900 Z" fill="hsl(167 26% 29%)" opacity="0.62"/>
  <path d="M0 648 Q115 566 229 484 Q343 579 457 503 Q572 557 686 471 Q800 589 914 522 Q1029 568 1143 467 Q1257 615 1371 568 Q1486 542 1600 448 L1600 900 L0 900 Z" fill="hsl(155 24% 44%)" opacity="0.78"/>

  <g>
    <polygon points="117,514 93,615 141,615" fill="hsl(145 36% 35%)" opacity="0.83"/>
    <rect x="114" y="597" width="6" height="23" fill="hsl(63 26% 24%)" opacity="0.72"/>
    <polygon points="323,502 304,635 342,635" fill="hsl(145 36% 35%)" opacity="0.70"/>
    <rect x="321" y="611" width="5" height="31" fill="hsl(63 26% 24%)" opacity="0.72"/>
    <polygon points="1378,487 1358,632 1398,632" fill="hsl(155 38% 25%)" opacity="0.76"/>
    <rect x="1376" y="606" width="5" height="33" fill="hsl(63 26% 24%)" opacity="0.72"/>
    <polygon points="803,518 777,657 829,657" fill="hsl(155 38% 25%)" opacity="0.87"/>
    <rect x="800" y="632" width="6" height="32" fill="hsl(63 26% 24%)" opacity="0.72"/>
    <polygon points="624,505 597,655 651,655" fill="hsl(155 38% 25%)" opacity="0.69"/>
    <rect x="621" y="628" width="6" height="35" fill="hsl(63 26% 24%)" opacity="0.72"/>
    <polygon points="600,504 570,626 630,626" fill="hsl(145 36% 35%)" opacity="0.89"/>
    <rect x="596" y="604" width="7" height="28" fill="hsl(63 26% 24%)" opacity="0.72"/>
    <polygon points="190,532 161,658 219,658" fill="hsl(155 38% 25%)" opacity="0.75"/>
    <rect x="187" y="635" width="7" height="29" fill="hsl(63 26% 24%)" opacity="0.72"/>
    <polygon points="268,502 247,654 289,654" fill="hsl(155 38% 25%)" opacity="0.87"/>
    <rect x="265" y="627" width="5" height="35" fill="hsl(63 26% 24%)" opacity="0.72"/>
    <polygon points="440,476 417,641 463,641" fill="hsl(145 36% 35%)" opacity="0.70"/>
    <rect x="437" y="611" width="6" height="38" fill="hsl(63 26% 24%)" opacity="0.72"/>
    <polygon points="677,524 646,642 708,642" fill="hsl(155 38% 25%)" opacity="0.90"/>
    <rect x="673" y="621" width="7" height="27" fill="hsl(63 26% 24%)" opacity="0.72"/>
    <polygon points="576,503 553,640 599,640" fill="hsl(155 38% 25%)" opacity="0.89"/>
    <rect x="573" y="615" width="6" height="32" fill="hsl(63 26% 24%)" opacity="0.72"/>
    <polygon points="680,540 661,653 699,653" fill="hsl(155 38% 25%)" opacity="0.82"/>
    <rect x="678" y="633" width="5" height="26" fill="hsl(63 26% 24%)" opacity="0.72"/>
    <polygon points="201,515 168,658 234,658" fill="hsl(155 38% 25%)" opacity="0.81"/>
    <rect x="197" y="632" width="8" height="33" fill="hsl(63 26% 24%)" opacity="0.72"/>
    <polygon points="783,524 756,641 810,641" fill="hsl(145 36% 35%)" opacity="0.82"/>
    <rect x="780" y="620" width="6" height="27" fill="hsl(63 26% 24%)" opacity="0.72"/>
    <polygon points="853,504 822,664 884,664" fill="hsl(145 36% 35%)" opacity="0.86"/>
    <rect x="849" y="635" width="7" height="37" fill="hsl(63 26% 24%)" opacity="0.72"/>
    <polygon points="1327,528 1299,654 1355,654" fill="hsl(155 38% 25%)" opacity="0.76"/>
    <rect x="1324" y="631" width="7" height="29" fill="hsl(63 26% 24%)" opacity="0.72"/>
    <polygon points="228,482 198,607 258,607" fill="hsl(145 36% 35%)" opacity="0.69"/>
    <rect x="224" y="584" width="7" height="29" fill="hsl(63 26% 24%)" opacity="0.72"/>
    <polygon points="625,519 601,626 649,626" fill="hsl(145 36% 35%)" opacity="0.80"/>
    <rect x="622" y="607" width="6" height="25" fill="hsl(63 26% 24%)" opacity="0.72"/>
  </g>

  <rect y="646" width="1600" height="254" fill="url(#fog)"/>

  <g>
    <polygon points="537,539 507,748 567,748" fill="hsl(155 38% 25%)" opacity="0.72"/>
    <rect x="533" y="710" width="7" height="48" fill="hsl(63 26% 24%)" opacity="0.72"/>
    <polygon points="205,649 157,809 253,809" fill="hsl(155 38% 25%)" opacity="0.83"/>
    <rect x="199" y="780" width="12" height="37" fill="hsl(63 26% 24%)" opacity="0.72"/>
    <polygon points="1346,498 1304,742 1388,742" fill="hsl(145 36% 35%)" opacity="0.90"/>
    <rect x="1341" y="698" width="10" height="56" fill="hsl(63 26% 24%)" opacity="0.72"/>
    <polygon points="529,649 479,811 579,811" fill="hsl(155 38% 25%)" opacity="0.71"/>
    <rect x="523" y="782" width="12" height="37" fill="hsl(63 26% 24%)" opacity="0.72"/>
    <polygon points="22,581 -15,808 59,808" fill="hsl(155 38% 25%)" opacity="0.75"/>
    <rect x="18" y="767" width="9" height="52" fill="hsl(63 26% 24%)" opacity="0.72"/>
    <polygon points="1302,600 1251,745 1353,745" fill="hsl(145 36% 35%)" opacity="0.82"/>
    <rect x="1296" y="719" width="12" height="33" fill="hsl(63 26% 24%)" opacity="0.72"/>
    <polygon points="1052,507 1003,756 1101,756" fill="hsl(155 38% 25%)" opacity="0.71"/>
    <rect x="1046" y="711" width="12" height="57" fill="hsl(63 26% 24%)" opacity="0.72"/>
    <polygon points="196,649 164,800 228,800" fill="hsl(155 38% 25%)" opacity="0.85"/>
    <rect x="192" y="773" width="8" height="35" fill="hsl(63 26% 24%)" opacity="0.72"/>
    <polygon points="823,571 795,795 851,795" fill="hsl(155 38% 25%)" opacity="0.84"/>
    <rect x="820" y="755" width="7" height="52" fill="hsl(63 26% 24%)" opacity="0.72"/>
    <polygon points="710,521 678,744 742,744" fill="hsl(145 36% 35%)" opacity="0.87"/>
    <rect x="706" y="704" width="8" height="51" fill="hsl(63 26% 24%)" opacity="0.72"/>
    <polygon points="794,628 745,811 843,811" fill="hsl(145 36% 35%)" opacity="0.77"/>
    <rect x="788" y="778" width="12" height="42" fill="hsl(63 26% 24%)" opacity="0.72"/>
    <polygon points="1412,540 1377,772 1447,772" fill="hsl(145 36% 35%)" opacity="0.86"/>
    <rect x="1408" y="730" width="8" height="53" fill="hsl(63 26% 24%)" opacity="0.72"/>
    <polygon points="47,562 11,743 83,743" fill="hsl(145 36% 35%)" opacity="0.75"/>
    <rect x="43" y="710" width="9" height="42" fill="hsl(63 26% 24%)" opacity="0.72"/>
    <polygon points="572,575 519,812 625,812" fill="hsl(155 38% 25%)" opacity="0.89"/>
    <rect x="566" y="769" width="13" height="55" fill="hsl(63 26% 24%)" opacity="0.72"/>
    <polygon points="1051,627 1018,773 1084,773" fill="hsl(145 36% 35%)" opacity="0.80"/>
    <rect x="1047" y="747" width="8" height="34" fill="hsl(63 26% 24%)" opacity="0.72"/>
    <polygon points="997,597 956,792 1038,792" fill="hsl(155 38% 25%)" opacity="0.76"/>
    <rect x="992" y="757" width="10" height="45" fill="hsl(63 26% 24%)" opacity="0.72"/>
  </g>

  <rect x="64" y="676" width="1472" height="184" rx="22" fill="#081517" opacity="0.54"/>
  <text x="118" y="726" fill="#d9e8c8" font-family="Poppins, Arial, sans-serif" font-size="28" font-weight="700">Maden Izinleri</text>
  <text x="118" y="792" fill="#ffffff" font-family="Poppins, Arial, sans-serif" font-size="66.0" font-weight="800">Ali Karaca</text>
  

  <rect width="1600" height="900" fill="url(#vignette)"/>
</svg>
