<?xml version="1.0" encoding="UTF-8"?>
<svg xmlns="http://www.w3.org/2000/svg" viewBox="0 0 1600 900" role="img" aria-label="Arda Madencilik">
  <defs>
    <linearGradient id="bg" x1="0" y1="0" x2="0" y2="1">
      <stop offset="0%" stop-color="hsl(81 43% 25%)"/>
      <stop offset="100%" stop-color="hsl(359 37% 41%)"/>
    </linearGradient>
    <linearGradient id="fog" x1="0" y1="0" x2="1" y2="0">
      <stop offset="0%" stop-color="hsl(321 20% 84%)" stop-opacity="0.22"/>
      <stop offset="50%" stop-color="#ffffff" stop-opacity="0.08"/>
      <stop offset="100%" stop-color="hsl(321 20% 84%)" stop-opacity="0.22"/>
    </linearGradient>
    <radialGradient id="vignette" cx="50%" cy="45%" r="70%">
      <stop offset="65%" stop-color="rgba(0,0,0,0)"/>
      <stop offset="100%" stop-color="rgba(0,0,0,0.35)"/>
    </radialGradient>
  </defs>

  <rect width="1600" height="900" fill="url(#bg)"/>
  <circle cx="1166" cy="163" r="76" fill="#f4efd4" opacity="0.34"/>

  <path d="M0 416 Q115 360 229 295 Q343 380 457 333 Q572 353 686 284 Q800 391 914 364 Q1029 350 1143 280 Q1257 380 1371 352 Q1486 357 1600 278 L1600 900 L0 900 Z" fill="hsl(16 28% 26%)" opacity="0.48"/>
  <path d="M0 540 Q115 467 229 400 Q343 493 457 424 Q572 510 686 465 Q800 467 914 389 Q1029 492 1143 432 Q1257 493 1371 461 Q1486 472 1600 403 L1600 900 L0 900 Z" fill="hsl(3 26% 29%)" opacity="0.62"/>
  <path d="M0 645 Q115 596 229 543 Q343 577 457 529 Q572 557 686 480 Q800 571 914 487 Q1029 560 1143 495 Q1257 586 1371 513 Q1486 609 1600 560 L1600 900 L0 900 Z" fill="hsl(351 24% 41%)" opacity="0.78"/>

  <g>
    <polygon points="599,518 571,626 627,626" fill="hsl(351 38% 28%)" opacity="0.77"/>
    <rect x="596" y="607" width="7" height="25" fill="hsl(259 26% 24%)" opacity="0.72"/>
    <polygon points="633,549 612,649 654,649" fill="hsl(341 36% 34%)" opacity="0.85"/>
    <rect x="630" y="631" width="5" height="23" fill="hsl(259 26% 24%)" opacity="0.72"/>
    <polygon points="1194,543 1167,646 1221,646" fill="hsl(341 36% 34%)" opacity="0.77"/>
    <rect x="1191" y="627" width="6" height="24" fill="hsl(259 26% 24%)" opacity="0.72"/>
    <polygon points="695,539 671,632 719,632" fill="hsl(351 38% 28%)" opacity="0.72"/>
    <rect x="692" y="615" width="6" height="21" fill="hsl(259 26% 24%)" opacity="0.72"/>
    <polygon points="739,518 713,654 765,654" fill="hsl(341 36% 34%)" opacity="0.89"/>
    <rect x="736" y="630" width="6" height="31" fill="hsl(259 26% 24%)" opacity="0.72"/>
    <polygon points="806,551 780,653 832,653" fill="hsl(351 38% 28%)" opacity="0.88"/>
    <rect x="803" y="635" width="6" height="23" fill="hsl(259 26% 24%)" opacity="0.72"/>
    <polygon points="545,490 520,640 570,640" fill="hsl(351 38% 28%)" opacity="0.87"/>
    <rect x="542" y="613" width="6" height="35" fill="hsl(259 26% 24%)" opacity="0.72"/>
    <polygon points="991,538 968,637 1014,637" fill="hsl(341 36% 34%)" opacity="0.89"/>
    <rect x="988" y="619" width="6" height="23" fill="hsl(259 26% 24%)" opacity="0.72"/>
    <polygon points="56,452 31,601 81,601" fill="hsl(351 38% 28%)" opacity="0.69"/>
    <rect x="53" y="574" width="6" height="34" fill="hsl(259 26% 24%)" opacity="0.72"/>
    <polygon points="1328,543 1296,646 1360,646" fill="hsl(351 38% 28%)" opacity="0.86"/>
    <rect x="1324" y="627" width="8" height="24" fill="hsl(259 26% 24%)" opacity="0.72"/>
    <polygon points="106,556 88,652 124,652" fill="hsl(351 38% 28%)" opacity="0.85"/>
    <rect x="104" y="635" width="4" height="22" fill="hsl(259 26% 24%)" opacity="0.72"/>
    <polygon points="69,531 39,662 99,662" fill="hsl(351 38% 28%)" opacity="0.79"/>
    <rect x="65" y="638" width="7" height="30" fill="hsl(259 26% 24%)" opacity="0.72"/>
    <polygon points="908,514 881,628 935,628" fill="hsl(341 36% 34%)" opacity="0.79"/>
    <rect x="905" y="607" width="6" height="26" fill="hsl(259 26% 24%)" opacity="0.72"/>
    <polygon points="1009,508 975,618 1043,618" fill="hsl(351 38% 28%)" opacity="0.85"/>
    <rect x="1005" y="598" width="8" height="25" fill="hsl(259 26% 24%)" opacity="0.72"/>
    <polygon points="548,526 517,646 579,646" fill="hsl(351 38% 28%)" opacity="0.71"/>
    <rect x="544" y="624" width="7" height="28" fill="hsl(259 26% 24%)" opacity="0.72"/>
    <polygon points="533,515 515,652 551,652" fill="hsl(351 38% 28%)" opacity="0.80"/>
    <rect x="531" y="627" width="4" height="32" fill="hsl(259 26% 24%)" opacity="0.72"/>
    <polygon points="1356,494 1323,601 1389,601" fill="hsl(341 36% 34%)" opacity="0.70"/>
    <rect x="1352" y="582" width="8" height="25" fill="hsl(259 26% 24%)" opacity="0.72"/>
    <polygon points="921,533 895,628 947,628" fill="hsl(351 38% 28%)" opacity="0.90"/>
    <rect x="918" y="611" width="6" height="22" fill="hsl(259 26% 24%)" opacity="0.72"/>
  </g>

  <rect y="646" width="1600" height="254" fill="url(#fog)"/>

  <g>
    <polygon points="42,511 -1,740 85,740" fill="hsl(351 38% 28%)" opacity="0.82"/>
    <rect x="37" y="699" width="10" height="53" fill="hsl(259 26% 24%)" opacity="0.72"/>
    <polygon points="648,556 615,780 681,780" fill="hsl(351 38% 28%)" opacity="0.89"/>
    <rect x="644" y="740" width="8" height="52" fill="hsl(259 26% 24%)" opacity="0.72"/>
    <polygon points="320,582 278,802 362,802" fill="hsl(341 36% 34%)" opacity="0.86"/>
    <rect x="315" y="762" width="10" height="51" fill="hsl(259 26% 24%)" opacity="0.72"/>
    <polygon points="885,545 843,773 927,773" fill="hsl(351 38% 28%)" opacity="0.69"/>
    <rect x="880" y="732" width="10" height="52" fill="hsl(259 26% 24%)" opacity="0.72"/>
    <polygon points="522,604 476,789 568,789" fill="hsl(351 38% 28%)" opacity="0.77"/>
    <rect x="516" y="756" width="11" height="43" fill="hsl(259 26% 24%)" opacity="0.72"/>
    <polygon points="327,557 275,798 379,798" fill="hsl(341 36% 34%)" opacity="0.83"/>
    <rect x="321" y="755" width="12" height="55" fill="hsl(259 26% 24%)" opacity="0.72"/>
    <polygon points="1037,574 995,796 1079,796" fill="hsl(341 36% 34%)" opacity="0.88"/>
    <rect x="1032" y="756" width="10" height="51" fill="hsl(259 26% 24%)" opacity="0.72"/>
    <polygon points="366,601 338,738 394,738" fill="hsl(351 38% 28%)" opacity="0.78"/>
    <rect x="363" y="713" width="7" height="32" fill="hsl(259 26% 24%)" opacity="0.72"/>
    <polygon points="896,536 859,762 933,762" fill="hsl(351 38% 28%)" opacity="0.78"/>
    <rect x="892" y="721" width="9" height="52" fill="hsl(259 26% 24%)" opacity="0.72"/>
    <polygon points="1163,591 1130,747 1196,747" fill="hsl(351 38% 28%)" opacity="0.90"/>
    <rect x="1159" y="719" width="8" height="36" fill="hsl(259 26% 24%)" opacity="0.72"/>
    <polygon points="201,602 161,761 241,761" fill="hsl(341 36% 34%)" opacity="0.72"/>
    <rect x="196" y="732" width="10" height="37" fill="hsl(259 26% 24%)" opacity="0.72"/>
    <polygon points="121,566 70,751 172,751" fill="hsl(341 36% 34%)" opacity="0.85"/>
    <rect x="115" y="718" width="12" height="43" fill="hsl(259 26% 24%)" opacity="0.72"/>
    <polygon points="43,678 0,811 86,811" fill="hsl(341 36% 34%)" opacity="0.87"/>
    <rect x="38" y="787" width="10" height="31" fill="hsl(259 26% 24%)" opacity="0.72"/>
    <polygon points="368,660 318,800 418,800" fill="hsl(351 38% 28%)" opacity="0.89"/>
    <rect x="362" y="775" width="12" height="32" fill="hsl(259 26% 24%)" opacity="0.72"/>
    <polygon points="110,652 61,815 159,815" fill="hsl(341 36% 34%)" opacity="0.87"/>
    <rect x="104" y="786" width="12" height="37" fill="hsl(259 26% 24%)" opacity="0.72"/>
    <polygon points="37,559 7,792 67,792" fill="hsl(351 38% 28%)" opacity="0.68"/>
    <rect x="33" y="750" width="7" height="54" fill="hsl(259 26% 24%)" opacity="0.72"/>
  </g>

  <rect x="64" y="676" width="1472" height="184" rx="22" fill="#081517" opacity="0.54"/>
  <text x="118" y="726" fill="#d9e8c8" font-family="Poppins, Arial, sans-serif" font-size="28" font-weight="700">Maden Izinleri</text>
  <text x="118" y="792" fill="#ffffff" font-family="Poppins, Arial, sans-serif" font-size="66.0" font-weight="800">Arda Madencilik</text>
  

  <rect width="1600" height="900" fill="url(#vignette)"/>
</svg>
