<?xml version="1.0" encoding="UTF-8"?>
<svg xmlns="http://www.w3.org/2000/svg" viewBox="0 0 1600 900" role="img" aria-label="Arikanlar Kumas Tekstil Ins. Taah. San. ve Tic. A.S.">
  <defs>
    <linearGradient id="bg" x1="0" y1="0" x2="0" y2="1">
      <stop offset="0%" stop-color="hsl(294 42% 22%)"/>
      <stop offset="100%" stop-color="hsl(212 40% 43%)"/>
    </linearGradient>
    <linearGradient id="fog" x1="0" y1="0" x2="1" y2="0">
      <stop offset="0%" stop-color="hsl(174 20% 84%)" stop-opacity="0.22"/>
      <stop offset="50%" stop-color="#ffffff" stop-opacity="0.08"/>
      <stop offset="100%" stop-color="hsl(174 20% 84%)" stop-opacity="0.22"/>
    </linearGradient>
    <radialGradient id="vignette" cx="50%" cy="45%" r="70%">
      <stop offset="65%" stop-color="rgba(0,0,0,0)"/>
      <stop offset="100%" stop-color="rgba(0,0,0,0.35)"/>
    </radialGradient>
  </defs>

  <rect width="1600" height="900" fill="url(#bg)"/>
  <circle cx="1098" cy="204" r="68" fill="#f4efd4" opacity="0.34"/>

  <path d="M0 437 Q115 374 229 313 Q343 374 457 316 Q572 382 686 309 Q800 394 914 330 Q1029 395 1143 367 Q1257 357 1371 281 Q1486 406 1600 355 L1600 900 L0 900 Z" fill="hsl(229 28% 27%)" opacity="0.48"/>
  <path d="M0 530 Q115 456 229 392 Q343 477 457 427 Q572 461 686 391 Q800 464 914 408 Q1029 449 1143 366 Q1257 439 1371 369 Q1486 486 1600 438 L1600 900 L0 900 Z" fill="hsl(216 26% 33%)" opacity="0.62"/>
  <path d="M0 621 Q115 566 229 487 Q343 547 457 486 Q572 568 686 509 Q800 567 914 516 Q1029 561 1143 504 Q1257 560 1371 491 Q1486 571 1600 511 L1600 900 L0 900 Z" fill="hsl(204 24% 42%)" opacity="0.78"/>

  <g>
    <polygon points="724,459 693,600 755,600" fill="hsl(194 36% 37%)" opacity="0.79"/>
    <rect x="720" y="575" width="7" height="32" fill="hsl(112 26% 24%)" opacity="0.72"/>
    <polygon points="84,460 58,617 110,617" fill="hsl(204 38% 29%)" opacity="0.86"/>
    <rect x="81" y="589" width="6" height="36" fill="hsl(112 26% 24%)" opacity="0.72"/>
    <polygon points="427,520 397,616 457,616" fill="hsl(204 38% 29%)" opacity="0.71"/>
    <rect x="423" y="599" width="7" height="22" fill="hsl(112 26% 24%)" opacity="0.72"/>
    <polygon points="1068,525 1044,620 1092,620" fill="hsl(204 38% 29%)" opacity="0.70"/>
    <rect x="1065" y="603" width="6" height="22" fill="hsl(112 26% 24%)" opacity="0.72"/>
    <polygon points="1315,493 1285,631 1345,631" fill="hsl(204 38% 29%)" opacity="0.80"/>
    <rect x="1311" y="606" width="7" height="32" fill="hsl(112 26% 24%)" opacity="0.72"/>
    <polygon points="1000,522 966,660 1034,660" fill="hsl(204 38% 29%)" opacity="0.69"/>
    <rect x="996" y="635" width="8" height="32" fill="hsl(112 26% 24%)" opacity="0.72"/>
    <polygon points="1432,476 1399,617 1465,617" fill="hsl(204 38% 29%)" opacity="0.92"/>
    <rect x="1428" y="592" width="8" height="32" fill="hsl(112 26% 24%)" opacity="0.72"/>
    <polygon points="1530,478 1511,630 1549,630" fill="hsl(194 36% 37%)" opacity="0.75"/>
    <rect x="1528" y="603" width="5" height="35" fill="hsl(112 26% 24%)" opacity="0.72"/>
    <polygon points="204,527 179,644 229,644" fill="hsl(194 36% 37%)" opacity="0.86"/>
    <rect x="201" y="623" width="6" height="27" fill="hsl(112 26% 24%)" opacity="0.72"/>
    <polygon points="882,485 863,633 901,633" fill="hsl(194 36% 37%)" opacity="0.86"/>
    <rect x="880" y="606" width="5" height="34" fill="hsl(112 26% 24%)" opacity="0.72"/>
    <polygon points="786,479 753,612 819,612" fill="hsl(194 36% 37%)" opacity="0.79"/>
    <rect x="782" y="588" width="8" height="31" fill="hsl(112 26% 24%)" opacity="0.72"/>
    <polygon points="1270,510 1242,627 1298,627" fill="hsl(194 36% 37%)" opacity="0.82"/>
    <rect x="1267" y="606" width="7" height="27" fill="hsl(112 26% 24%)" opacity="0.72"/>
    <polygon points="1226,490 1198,637 1254,637" fill="hsl(204 38% 29%)" opacity="0.85"/>
    <rect x="1223" y="611" width="7" height="34" fill="hsl(112 26% 24%)" opacity="0.72"/>
    <polygon points="20,524 -1,645 41,645" fill="hsl(194 36% 37%)" opacity="0.70"/>
    <rect x="17" y="623" width="5" height="28" fill="hsl(112 26% 24%)" opacity="0.72"/>
    <polygon points="940,508 916,657 964,657" fill="hsl(194 36% 37%)" opacity="0.70"/>
    <rect x="937" y="630" width="6" height="34" fill="hsl(112 26% 24%)" opacity="0.72"/>
    <polygon points="1142,498 1115,621 1169,621" fill="hsl(204 38% 29%)" opacity="0.83"/>
    <rect x="1139" y="599" width="6" height="28" fill="hsl(112 26% 24%)" opacity="0.72"/>
    <polygon points="1309,495 1291,611 1327,611" fill="hsl(194 36% 37%)" opacity="0.89"/>
    <rect x="1307" y="590" width="4" height="27" fill="hsl(112 26% 24%)" opacity="0.72"/>
    <polygon points="1496,490 1476,619 1516,619" fill="hsl(204 38% 29%)" opacity="0.76"/>
    <rect x="1494" y="596" width="5" height="30" fill="hsl(112 26% 24%)" opacity="0.72"/>
  </g>

  <rect y="646" width="1600" height="254" fill="url(#fog)"/>

  <g>
    <polygon points="1124,546 1082,761 1166,761" fill="hsl(204 38% 29%)" opacity="0.82"/>
    <rect x="1119" y="722" width="10" height="49" fill="hsl(112 26% 24%)" opacity="0.72"/>
    <polygon points="515,588 465,758 565,758" fill="hsl(204 38% 29%)" opacity="0.70"/>
    <rect x="509" y="727" width="12" height="39" fill="hsl(112 26% 24%)" opacity="0.72"/>
    <polygon points="334,620 304,803 364,803" fill="hsl(194 36% 37%)" opacity="0.72"/>
    <rect x="330" y="770" width="7" height="42" fill="hsl(112 26% 24%)" opacity="0.72"/>
    <polygon points="1345,574 1303,731 1387,731" fill="hsl(194 36% 37%)" opacity="0.82"/>
    <rect x="1340" y="703" width="10" height="36" fill="hsl(112 26% 24%)" opacity="0.72"/>
    <polygon points="1302,603 1248,818 1356,818" fill="hsl(194 36% 37%)" opacity="0.86"/>
    <rect x="1296" y="779" width="13" height="49" fill="hsl(112 26% 24%)" opacity="0.72"/>
    <polygon points="1299,553 1257,787 1341,787" fill="hsl(194 36% 37%)" opacity="0.82"/>
    <rect x="1294" y="745" width="10" height="54" fill="hsl(112 26% 24%)" opacity="0.72"/>
    <polygon points="1077,531 1042,737 1112,737" fill="hsl(194 36% 37%)" opacity="0.86"/>
    <rect x="1073" y="700" width="8" height="47" fill="hsl(112 26% 24%)" opacity="0.72"/>
    <polygon points="890,638 850,793 930,793" fill="hsl(204 38% 29%)" opacity="0.91"/>
    <rect x="885" y="765" width="10" height="36" fill="hsl(112 26% 24%)" opacity="0.72"/>
    <polygon points="358,577 326,732 390,732" fill="hsl(194 36% 37%)" opacity="0.85"/>
    <rect x="354" y="704" width="8" height="36" fill="hsl(112 26% 24%)" opacity="0.72"/>
    <polygon points="429,592 387,773 471,773" fill="hsl(204 38% 29%)" opacity="0.82"/>
    <rect x="424" y="740" width="10" height="42" fill="hsl(112 26% 24%)" opacity="0.72"/>
    <polygon points="772,635 737,787 807,787" fill="hsl(204 38% 29%)" opacity="0.86"/>
    <rect x="768" y="760" width="8" height="35" fill="hsl(112 26% 24%)" opacity="0.72"/>
    <polygon points="301,585 263,768 339,768" fill="hsl(204 38% 29%)" opacity="0.82"/>
    <rect x="296" y="735" width="9" height="42" fill="hsl(112 26% 24%)" opacity="0.72"/>
    <polygon points="326,562 291,744 361,744" fill="hsl(194 36% 37%)" opacity="0.91"/>
    <rect x="322" y="711" width="8" height="42" fill="hsl(112 26% 24%)" opacity="0.72"/>
    <polygon points="265,520 222,736 308,736" fill="hsl(194 36% 37%)" opacity="0.89"/>
    <rect x="260" y="697" width="10" height="50" fill="hsl(112 26% 24%)" opacity="0.72"/>
    <polygon points="629,580 585,773 673,773" fill="hsl(204 38% 29%)" opacity="0.76"/>
    <rect x="624" y="738" width="11" height="44" fill="hsl(112 26% 24%)" opacity="0.72"/>
    <polygon points="1291,599 1239,740 1343,740" fill="hsl(204 38% 29%)" opacity="0.74"/>
    <rect x="1285" y="715" width="12" height="32" fill="hsl(112 26% 24%)" opacity="0.72"/>
  </g>

  <rect x="64" y="676" width="1472" height="184" rx="22" fill="#081517" opacity="0.54"/>
  <text x="118" y="726" fill="#d9e8c8" font-family="Poppins, Arial, sans-serif" font-size="28" font-weight="700">Diger Projeler</text>
  <text x="118" y="768" fill="#ffffff" font-family="Poppins, Arial, sans-serif" font-size="42.2" font-weight="800">Arikanlar Kumas Tekstil Ins.</text>
  <text x="118" y="828" fill="#ffffff" font-family="Poppins, Arial, sans-serif" font-size="42.2" font-weight="800">Taah. San. ve Tic. A.S.</text>

  <rect width="1600" height="900" fill="url(#vignette)"/>
</svg>
