<?xml version="1.0" encoding="UTF-8"?>
<svg xmlns="http://www.w3.org/2000/svg" viewBox="0 0 1600 900" role="img" aria-label="AYGM-GULERMAK">
  <defs>
    <linearGradient id="bg" x1="0" y1="0" x2="0" y2="1">
      <stop offset="0%" stop-color="hsl(46 40% 20%)"/>
      <stop offset="100%" stop-color="hsl(324 41% 41%)"/>
    </linearGradient>
    <linearGradient id="fog" x1="0" y1="0" x2="1" y2="0">
      <stop offset="0%" stop-color="hsl(286 20% 84%)" stop-opacity="0.22"/>
      <stop offset="50%" stop-color="#ffffff" stop-opacity="0.08"/>
      <stop offset="100%" stop-color="hsl(286 20% 84%)" stop-opacity="0.22"/>
    </linearGradient>
    <radialGradient id="vignette" cx="50%" cy="45%" r="70%">
      <stop offset="65%" stop-color="rgba(0,0,0,0)"/>
      <stop offset="100%" stop-color="rgba(0,0,0,0.35)"/>
    </radialGradient>
  </defs>

  <rect width="1600" height="900" fill="url(#bg)"/>
  <circle cx="1313" cy="121" r="91" fill="#f4efd4" opacity="0.34"/>

  <path d="M0 442 Q115 413 229 380 Q343 381 457 318 Q572 385 686 317 Q800 415 914 400 Q1029 412 1143 396 Q1257 390 1371 351 Q1486 395 1600 344 L1600 900 L0 900 Z" fill="hsl(341 28% 22%)" opacity="0.48"/>
  <path d="M0 526 Q115 473 229 438 Q343 477 457 426 Q572 494 686 449 Q800 427 914 344 Q1029 490 1143 454 Q1257 465 1371 423 Q1486 485 1600 438 L1600 900 L0 900 Z" fill="hsl(328 26% 29%)" opacity="0.62"/>
  <path d="M0 610 Q115 546 229 497 Q343 563 457 518 Q572 561 686 517 Q800 546 914 472 Q1029 524 1143 443 Q1257 548 1371 477 Q1486 531 1600 450 L1600 900 L0 900 Z" fill="hsl(316 24% 45%)" opacity="0.78"/>

  <g>
    <polygon points="240,489 209,642 271,642" fill="hsl(316 38% 28%)" opacity="0.77"/>
    <rect x="236" y="614" width="7" height="35" fill="hsl(224 26% 24%)" opacity="0.72"/>
    <polygon points="139,527 112,651 166,651" fill="hsl(316 38% 28%)" opacity="0.78"/>
    <rect x="136" y="629" width="6" height="29" fill="hsl(224 26% 24%)" opacity="0.72"/>
    <polygon points="907,490 888,638 926,638" fill="hsl(316 38% 28%)" opacity="0.76"/>
    <rect x="905" y="611" width="5" height="34" fill="hsl(224 26% 24%)" opacity="0.72"/>
    <polygon points="89,487 66,613 112,613" fill="hsl(316 38% 28%)" opacity="0.84"/>
    <rect x="86" y="590" width="6" height="29" fill="hsl(224 26% 24%)" opacity="0.72"/>
    <polygon points="103,564 79,658 127,658" fill="hsl(316 38% 28%)" opacity="0.68"/>
    <rect x="100" y="641" width="6" height="22" fill="hsl(224 26% 24%)" opacity="0.72"/>
    <polygon points="1377,513 1345,652 1409,652" fill="hsl(306 36% 35%)" opacity="0.88"/>
    <rect x="1373" y="627" width="8" height="32" fill="hsl(224 26% 24%)" opacity="0.72"/>
    <polygon points="1223,454 1199,619 1247,619" fill="hsl(306 36% 35%)" opacity="0.87"/>
    <rect x="1220" y="589" width="6" height="38" fill="hsl(224 26% 24%)" opacity="0.72"/>
    <polygon points="1091,501 1061,620 1121,620" fill="hsl(316 38% 28%)" opacity="0.91"/>
    <rect x="1087" y="599" width="7" height="27" fill="hsl(224 26% 24%)" opacity="0.72"/>
    <polygon points="1233,498 1204,626 1262,626" fill="hsl(306 36% 35%)" opacity="0.90"/>
    <rect x="1230" y="603" width="7" height="29" fill="hsl(224 26% 24%)" opacity="0.72"/>
    <polygon points="462,454 440,603 484,603" fill="hsl(316 38% 28%)" opacity="0.82"/>
    <rect x="459" y="576" width="5" height="34" fill="hsl(224 26% 24%)" opacity="0.72"/>
    <polygon points="352,517 319,663 385,663" fill="hsl(316 38% 28%)" opacity="0.72"/>
    <rect x="348" y="637" width="8" height="34" fill="hsl(224 26% 24%)" opacity="0.72"/>
    <polygon points="1540,521 1509,625 1571,625" fill="hsl(316 38% 28%)" opacity="0.88"/>
    <rect x="1536" y="606" width="7" height="24" fill="hsl(224 26% 24%)" opacity="0.72"/>
    <polygon points="209,477 181,617 237,617" fill="hsl(306 36% 35%)" opacity="0.73"/>
    <rect x="206" y="592" width="7" height="32" fill="hsl(224 26% 24%)" opacity="0.72"/>
    <polygon points="57,463 34,623 80,623" fill="hsl(316 38% 28%)" opacity="0.79"/>
    <rect x="54" y="594" width="6" height="37" fill="hsl(224 26% 24%)" opacity="0.72"/>
    <polygon points="609,511 582,609 636,609" fill="hsl(306 36% 35%)" opacity="0.80"/>
    <rect x="606" y="591" width="6" height="23" fill="hsl(224 26% 24%)" opacity="0.72"/>
    <polygon points="709,499 691,620 727,620" fill="hsl(306 36% 35%)" opacity="0.79"/>
    <rect x="707" y="598" width="4" height="28" fill="hsl(224 26% 24%)" opacity="0.72"/>
    <polygon points="1275,521 1251,646 1299,646" fill="hsl(306 36% 35%)" opacity="0.73"/>
    <rect x="1272" y="623" width="6" height="29" fill="hsl(224 26% 24%)" opacity="0.72"/>
    <polygon points="1015,526 986,625 1044,625" fill="hsl(316 38% 28%)" opacity="0.89"/>
    <rect x="1012" y="607" width="7" height="23" fill="hsl(224 26% 24%)" opacity="0.72"/>
  </g>

  <rect y="646" width="1600" height="254" fill="url(#fog)"/>

  <g>
    <polygon points="335,506 301,751 369,751" fill="hsl(316 38% 28%)" opacity="0.70"/>
    <rect x="331" y="707" width="8" height="56" fill="hsl(224 26% 24%)" opacity="0.72"/>
    <polygon points="872,633 844,800 900,800" fill="hsl(306 36% 35%)" opacity="0.70"/>
    <rect x="869" y="770" width="7" height="38" fill="hsl(224 26% 24%)" opacity="0.72"/>
    <polygon points="1395,680 1360,812 1430,812" fill="hsl(316 38% 28%)" opacity="0.87"/>
    <rect x="1391" y="788" width="8" height="30" fill="hsl(224 26% 24%)" opacity="0.72"/>
    <polygon points="496,553 451,762 541,762" fill="hsl(306 36% 35%)" opacity="0.74"/>
    <rect x="491" y="724" width="11" height="48" fill="hsl(224 26% 24%)" opacity="0.72"/>
    <polygon points="1207,588 1167,756 1247,756" fill="hsl(306 36% 35%)" opacity="0.80"/>
    <rect x="1202" y="726" width="10" height="39" fill="hsl(224 26% 24%)" opacity="0.72"/>
    <polygon points="732,651 693,818 771,818" fill="hsl(306 36% 35%)" opacity="0.70"/>
    <rect x="727" y="788" width="9" height="38" fill="hsl(224 26% 24%)" opacity="0.72"/>
    <polygon points="154,544 111,755 197,755" fill="hsl(306 36% 35%)" opacity="0.75"/>
    <rect x="149" y="717" width="10" height="49" fill="hsl(224 26% 24%)" opacity="0.72"/>
    <polygon points="712,560 681,744 743,744" fill="hsl(316 38% 28%)" opacity="0.89"/>
    <rect x="708" y="711" width="7" height="42" fill="hsl(224 26% 24%)" opacity="0.72"/>
    <polygon points="348,661 304,808 392,808" fill="hsl(306 36% 35%)" opacity="0.89"/>
    <rect x="343" y="782" width="11" height="34" fill="hsl(224 26% 24%)" opacity="0.72"/>
    <polygon points="268,512 222,731 314,731" fill="hsl(306 36% 35%)" opacity="0.71"/>
    <rect x="262" y="692" width="11" height="50" fill="hsl(224 26% 24%)" opacity="0.72"/>
    <polygon points="1127,608 1095,740 1159,740" fill="hsl(306 36% 35%)" opacity="0.77"/>
    <rect x="1123" y="716" width="8" height="30" fill="hsl(224 26% 24%)" opacity="0.72"/>
    <polygon points="570,530 531,736 609,736" fill="hsl(316 38% 28%)" opacity="0.83"/>
    <rect x="565" y="699" width="9" height="47" fill="hsl(224 26% 24%)" opacity="0.72"/>
    <polygon points="119,556 70,750 168,750" fill="hsl(306 36% 35%)" opacity="0.91"/>
    <rect x="113" y="715" width="12" height="45" fill="hsl(224 26% 24%)" opacity="0.72"/>
    <polygon points="664,608 625,815 703,815" fill="hsl(316 38% 28%)" opacity="0.80"/>
    <rect x="659" y="778" width="9" height="48" fill="hsl(224 26% 24%)" opacity="0.72"/>
    <polygon points="1364,592 1319,750 1409,750" fill="hsl(306 36% 35%)" opacity="0.80"/>
    <rect x="1359" y="722" width="11" height="36" fill="hsl(224 26% 24%)" opacity="0.72"/>
    <polygon points="1221,588 1176,811 1266,811" fill="hsl(306 36% 35%)" opacity="0.75"/>
    <rect x="1216" y="771" width="11" height="51" fill="hsl(224 26% 24%)" opacity="0.72"/>
  </g>

  <rect x="64" y="676" width="1472" height="184" rx="22" fill="#081517" opacity="0.54"/>
  <text x="118" y="726" fill="#d9e8c8" font-family="Poppins, Arial, sans-serif" font-size="28" font-weight="700">Devlet</text>
  <text x="118" y="792" fill="#ffffff" font-family="Poppins, Arial, sans-serif" font-size="66.0" font-weight="800">AYGM-GULERMAK</text>
  

  <rect width="1600" height="900" fill="url(#vignette)"/>
</svg>
