<?xml version="1.0" encoding="UTF-8"?>
<svg xmlns="http://www.w3.org/2000/svg" viewBox="0 0 1600 900" role="img" aria-label="Beltas Celik Gida Oto. Ins. Nak. San. ve Tic. Ltd. Sti.">
  <defs>
    <linearGradient id="bg" x1="0" y1="0" x2="0" y2="1">
      <stop offset="0%" stop-color="hsl(157 38% 24%)"/>
      <stop offset="100%" stop-color="hsl(75 36% 42%)"/>
    </linearGradient>
    <linearGradient id="fog" x1="0" y1="0" x2="1" y2="0">
      <stop offset="0%" stop-color="hsl(37 20% 84%)" stop-opacity="0.22"/>
      <stop offset="50%" stop-color="#ffffff" stop-opacity="0.08"/>
      <stop offset="100%" stop-color="hsl(37 20% 84%)" stop-opacity="0.22"/>
    </linearGradient>
    <radialGradient id="vignette" cx="50%" cy="45%" r="70%">
      <stop offset="65%" stop-color="rgba(0,0,0,0)"/>
      <stop offset="100%" stop-color="rgba(0,0,0,0.35)"/>
    </radialGradient>
  </defs>

  <rect width="1600" height="900" fill="url(#bg)"/>
  <circle cx="1295" cy="181" r="73" fill="#f4efd4" opacity="0.34"/>

  <path d="M0 420 Q115 362 229 305 Q343 361 457 321 Q572 366 686 314 Q800 360 914 318 Q1029 381 1143 321 Q1257 396 1371 354 Q1486 367 1600 315 L1600 900 L0 900 Z" fill="hsl(92 28% 24%)" opacity="0.48"/>
  <path d="M0 540 Q115 435 229 343 Q343 482 457 414 Q572 459 686 362 Q800 473 914 406 Q1029 485 1143 421 Q1257 486 1371 422 Q1486 495 1600 444 L1600 900 L0 900 Z" fill="hsl(79 26% 35%)" opacity="0.62"/>
  <path d="M0 658 Q115 557 229 474 Q343 581 457 512 Q572 626 686 589 Q800 602 914 530 Q1029 598 1143 554 Q1257 576 1371 474 Q1486 569 1600 467 L1600 900 L0 900 Z" fill="hsl(67 24% 45%)" opacity="0.78"/>

  <g>
    <polygon points="933,504 900,615 966,615" fill="hsl(57 36% 33%)" opacity="0.73"/>
    <rect x="929" y="595" width="8" height="26" fill="hsl(335 26% 24%)" opacity="0.72"/>
    <polygon points="533,485 513,601 553,601" fill="hsl(57 36% 33%)" opacity="0.85"/>
    <rect x="531" y="580" width="5" height="27" fill="hsl(335 26% 24%)" opacity="0.72"/>
    <polygon points="1375,484 1344,613 1406,613" fill="hsl(67 38% 29%)" opacity="0.72"/>
    <rect x="1371" y="590" width="7" height="30" fill="hsl(335 26% 24%)" opacity="0.72"/>
    <polygon points="344,467 318,622 370,622" fill="hsl(57 36% 33%)" opacity="0.76"/>
    <rect x="341" y="594" width="6" height="36" fill="hsl(335 26% 24%)" opacity="0.72"/>
    <polygon points="1405,492 1375,634 1435,634" fill="hsl(67 38% 29%)" opacity="0.80"/>
    <rect x="1401" y="608" width="7" height="33" fill="hsl(335 26% 24%)" opacity="0.72"/>
    <polygon points="754,486 722,636 786,636" fill="hsl(57 36% 33%)" opacity="0.89"/>
    <rect x="750" y="609" width="8" height="35" fill="hsl(335 26% 24%)" opacity="0.72"/>
    <polygon points="534,538 516,640 552,640" fill="hsl(67 38% 29%)" opacity="0.85"/>
    <rect x="532" y="622" width="4" height="23" fill="hsl(335 26% 24%)" opacity="0.72"/>
    <polygon points="283,529 263,638 303,638" fill="hsl(67 38% 29%)" opacity="0.74"/>
    <rect x="281" y="618" width="5" height="25" fill="hsl(335 26% 24%)" opacity="0.72"/>
    <polygon points="956,515 932,631 980,631" fill="hsl(57 36% 33%)" opacity="0.79"/>
    <rect x="953" y="610" width="6" height="27" fill="hsl(335 26% 24%)" opacity="0.72"/>
    <polygon points="1013,534 988,661 1038,661" fill="hsl(57 36% 33%)" opacity="0.77"/>
    <rect x="1010" y="638" width="6" height="29" fill="hsl(335 26% 24%)" opacity="0.72"/>
    <polygon points="678,489 648,611 708,611" fill="hsl(57 36% 33%)" opacity="0.68"/>
    <rect x="674" y="589" width="7" height="28" fill="hsl(335 26% 24%)" opacity="0.72"/>
    <polygon points="131,555 106,659 156,659" fill="hsl(57 36% 33%)" opacity="0.86"/>
    <rect x="128" y="640" width="6" height="24" fill="hsl(335 26% 24%)" opacity="0.72"/>
    <polygon points="1541,469 1520,623 1562,623" fill="hsl(57 36% 33%)" opacity="0.90"/>
    <rect x="1538" y="595" width="5" height="35" fill="hsl(335 26% 24%)" opacity="0.72"/>
    <polygon points="25,472 3,637 47,637" fill="hsl(67 38% 29%)" opacity="0.89"/>
    <rect x="22" y="607" width="5" height="38" fill="hsl(335 26% 24%)" opacity="0.72"/>
    <polygon points="415,505 397,633 433,633" fill="hsl(67 38% 29%)" opacity="0.92"/>
    <rect x="413" y="610" width="4" height="29" fill="hsl(335 26% 24%)" opacity="0.72"/>
    <polygon points="441,534 423,645 459,645" fill="hsl(57 36% 33%)" opacity="0.72"/>
    <rect x="439" y="625" width="4" height="26" fill="hsl(335 26% 24%)" opacity="0.72"/>
    <polygon points="736,479 707,606 765,606" fill="hsl(67 38% 29%)" opacity="0.86"/>
    <rect x="733" y="583" width="7" height="29" fill="hsl(335 26% 24%)" opacity="0.72"/>
    <polygon points="138,505 117,650 159,650" fill="hsl(67 38% 29%)" opacity="0.75"/>
    <rect x="135" y="624" width="5" height="33" fill="hsl(335 26% 24%)" opacity="0.72"/>
  </g>

  <rect y="646" width="1600" height="254" fill="url(#fog)"/>

  <g>
    <polygon points="516,651 465,806 567,806" fill="hsl(57 36% 33%)" opacity="0.82"/>
    <rect x="510" y="778" width="12" height="36" fill="hsl(335 26% 24%)" opacity="0.72"/>
    <polygon points="822,582 782,775 862,775" fill="hsl(67 38% 29%)" opacity="0.70"/>
    <rect x="817" y="740" width="10" height="44" fill="hsl(335 26% 24%)" opacity="0.72"/>
    <polygon points="775,645 726,799 824,799" fill="hsl(67 38% 29%)" opacity="0.83"/>
    <rect x="769" y="771" width="12" height="35" fill="hsl(335 26% 24%)" opacity="0.72"/>
    <polygon points="760,539 722,740 798,740" fill="hsl(67 38% 29%)" opacity="0.83"/>
    <rect x="755" y="704" width="9" height="46" fill="hsl(335 26% 24%)" opacity="0.72"/>
    <polygon points="674,495 626,736 722,736" fill="hsl(67 38% 29%)" opacity="0.84"/>
    <rect x="668" y="693" width="12" height="55" fill="hsl(335 26% 24%)" opacity="0.72"/>
    <polygon points="383,629 336,814 430,814" fill="hsl(57 36% 33%)" opacity="0.90"/>
    <rect x="377" y="781" width="11" height="43" fill="hsl(335 26% 24%)" opacity="0.72"/>
    <polygon points="1531,648 1477,800 1585,800" fill="hsl(57 36% 33%)" opacity="0.72"/>
    <rect x="1525" y="773" width="13" height="35" fill="hsl(335 26% 24%)" opacity="0.72"/>
    <polygon points="120,613 91,760 149,760" fill="hsl(67 38% 29%)" opacity="0.89"/>
    <rect x="117" y="734" width="7" height="34" fill="hsl(335 26% 24%)" opacity="0.72"/>
    <polygon points="35,672 1,807 69,807" fill="hsl(67 38% 29%)" opacity="0.90"/>
    <rect x="31" y="783" width="8" height="31" fill="hsl(335 26% 24%)" opacity="0.72"/>
    <polygon points="1066,640 1020,776 1112,776" fill="hsl(67 38% 29%)" opacity="0.70"/>
    <rect x="1060" y="752" width="11" height="31" fill="hsl(335 26% 24%)" opacity="0.72"/>
    <polygon points="1375,536 1327,766 1423,766" fill="hsl(67 38% 29%)" opacity="0.73"/>
    <rect x="1369" y="725" width="12" height="53" fill="hsl(335 26% 24%)" opacity="0.72"/>
    <polygon points="978,593 936,796 1020,796" fill="hsl(67 38% 29%)" opacity="0.86"/>
    <rect x="973" y="759" width="10" height="47" fill="hsl(335 26% 24%)" opacity="0.72"/>
    <polygon points="766,525 736,758 796,758" fill="hsl(67 38% 29%)" opacity="0.70"/>
    <rect x="762" y="716" width="7" height="54" fill="hsl(335 26% 24%)" opacity="0.72"/>
    <polygon points="794,589 747,769 841,769" fill="hsl(67 38% 29%)" opacity="0.71"/>
    <rect x="788" y="737" width="11" height="41" fill="hsl(335 26% 24%)" opacity="0.72"/>
    <polygon points="1397,600 1354,749 1440,749" fill="hsl(57 36% 33%)" opacity="0.87"/>
    <rect x="1392" y="722" width="10" height="34" fill="hsl(335 26% 24%)" opacity="0.72"/>
    <polygon points="1246,609 1197,799 1295,799" fill="hsl(57 36% 33%)" opacity="0.83"/>
    <rect x="1240" y="765" width="12" height="44" fill="hsl(335 26% 24%)" opacity="0.72"/>
  </g>

  <rect x="64" y="676" width="1472" height="184" rx="22" fill="#081517" opacity="0.54"/>
  <text x="118" y="726" fill="#d9e8c8" font-family="Poppins, Arial, sans-serif" font-size="28" font-weight="700">Diger Projeler</text>
  <text x="118" y="768" fill="#ffffff" font-family="Poppins, Arial, sans-serif" font-size="40.1" font-weight="800">Beltas Celik Gida Oto. Ins.</text>
  <text x="118" y="828" fill="#ffffff" font-family="Poppins, Arial, sans-serif" font-size="40.1" font-weight="800">Nak. San. ve Tic. Ltd. Sti.</text>

  <rect width="1600" height="900" fill="url(#vignette)"/>
</svg>
