<?xml version="1.0" encoding="UTF-8"?>
<svg xmlns="http://www.w3.org/2000/svg" viewBox="0 0 1600 900" role="img" aria-label="Burhanettin Sogancilar">
  <defs>
    <linearGradient id="bg" x1="0" y1="0" x2="0" y2="1">
      <stop offset="0%" stop-color="hsl(81 33% 21%)"/>
      <stop offset="100%" stop-color="hsl(359 33% 43%)"/>
    </linearGradient>
    <linearGradient id="fog" x1="0" y1="0" x2="1" y2="0">
      <stop offset="0%" stop-color="hsl(321 20% 84%)" stop-opacity="0.22"/>
      <stop offset="50%" stop-color="#ffffff" stop-opacity="0.08"/>
      <stop offset="100%" stop-color="hsl(321 20% 84%)" stop-opacity="0.22"/>
    </linearGradient>
    <radialGradient id="vignette" cx="50%" cy="45%" r="70%">
      <stop offset="65%" stop-color="rgba(0,0,0,0)"/>
      <stop offset="100%" stop-color="rgba(0,0,0,0.35)"/>
    </radialGradient>
  </defs>

  <rect width="1600" height="900" fill="url(#bg)"/>
  <circle cx="1098" cy="197" r="73" fill="#f4efd4" opacity="0.34"/>

  <path d="M0 436 Q115 391 229 339 Q343 399 457 362 Q572 377 686 324 Q800 364 914 302 Q1029 394 1143 333 Q1257 416 1371 384 Q1486 369 1600 313 L1600 900 L0 900 Z" fill="hsl(16 28% 27%)" opacity="0.48"/>
  <path d="M0 510 Q115 437 229 359 Q343 474 457 435 Q572 452 686 377 Q800 456 914 416 Q1029 451 1143 387 Q1257 450 1371 385 Q1486 482 1600 455 L1600 900 L0 900 Z" fill="hsl(3 26% 30%)" opacity="0.62"/>
  <path d="M0 617 Q115 548 229 456 Q343 536 457 437 Q572 514 686 419 Q800 568 914 527 Q1029 526 1143 456 Q1257 572 1371 503 Q1486 523 1600 440 L1600 900 L0 900 Z" fill="hsl(351 24% 43%)" opacity="0.78"/>

  <g>
    <polygon points="133,487 107,635 159,635" fill="hsl(351 38% 27%)" opacity="0.76"/>
    <rect x="130" y="608" width="6" height="34" fill="hsl(259 26% 24%)" opacity="0.72"/>
    <polygon points="1130,548 1106,664 1154,664" fill="hsl(351 38% 27%)" opacity="0.74"/>
    <rect x="1127" y="643" width="6" height="27" fill="hsl(259 26% 24%)" opacity="0.72"/>
    <polygon points="1095,511 1066,621 1124,621" fill="hsl(341 36% 37%)" opacity="0.84"/>
    <rect x="1092" y="601" width="7" height="25" fill="hsl(259 26% 24%)" opacity="0.72"/>
    <polygon points="1013,491 981,652 1045,652" fill="hsl(351 38% 27%)" opacity="0.80"/>
    <rect x="1009" y="623" width="8" height="37" fill="hsl(259 26% 24%)" opacity="0.72"/>
    <polygon points="1533,507 1509,602 1557,602" fill="hsl(351 38% 27%)" opacity="0.69"/>
    <rect x="1530" y="585" width="6" height="22" fill="hsl(259 26% 24%)" opacity="0.72"/>
    <polygon points="1072,488 1045,623 1099,623" fill="hsl(341 36% 37%)" opacity="0.72"/>
    <rect x="1069" y="599" width="6" height="31" fill="hsl(259 26% 24%)" opacity="0.72"/>
    <polygon points="1144,542 1123,649 1165,649" fill="hsl(341 36% 37%)" opacity="0.72"/>
    <rect x="1141" y="630" width="5" height="25" fill="hsl(259 26% 24%)" opacity="0.72"/>
    <polygon points="665,482 641,625 689,625" fill="hsl(351 38% 27%)" opacity="0.91"/>
    <rect x="662" y="599" width="6" height="33" fill="hsl(259 26% 24%)" opacity="0.72"/>
    <polygon points="676,509 656,609 696,609" fill="hsl(351 38% 27%)" opacity="0.73"/>
    <rect x="674" y="591" width="5" height="23" fill="hsl(259 26% 24%)" opacity="0.72"/>
    <polygon points="1080,461 1061,613 1099,613" fill="hsl(351 38% 27%)" opacity="0.69"/>
    <rect x="1078" y="586" width="5" height="35" fill="hsl(259 26% 24%)" opacity="0.72"/>
    <polygon points="583,483 558,632 608,632" fill="hsl(351 38% 27%)" opacity="0.86"/>
    <rect x="580" y="605" width="6" height="34" fill="hsl(259 26% 24%)" opacity="0.72"/>
    <polygon points="1218,491 1199,653 1237,653" fill="hsl(351 38% 27%)" opacity="0.90"/>
    <rect x="1216" y="624" width="5" height="37" fill="hsl(259 26% 24%)" opacity="0.72"/>
    <polygon points="140,487 112,622 168,622" fill="hsl(341 36% 37%)" opacity="0.80"/>
    <rect x="137" y="598" width="7" height="31" fill="hsl(259 26% 24%)" opacity="0.72"/>
    <polygon points="872,535 845,634 899,634" fill="hsl(351 38% 27%)" opacity="0.89"/>
    <rect x="869" y="616" width="6" height="23" fill="hsl(259 26% 24%)" opacity="0.72"/>
    <polygon points="981,489 958,650 1004,650" fill="hsl(351 38% 27%)" opacity="0.91"/>
    <rect x="978" y="621" width="6" height="37" fill="hsl(259 26% 24%)" opacity="0.72"/>
    <polygon points="117,497 95,653 139,653" fill="hsl(351 38% 27%)" opacity="0.87"/>
    <rect x="114" y="625" width="5" height="36" fill="hsl(259 26% 24%)" opacity="0.72"/>
    <polygon points="1366,486 1333,629 1399,629" fill="hsl(351 38% 27%)" opacity="0.90"/>
    <rect x="1362" y="603" width="8" height="33" fill="hsl(259 26% 24%)" opacity="0.72"/>
    <polygon points="1108,488 1081,605 1135,605" fill="hsl(341 36% 37%)" opacity="0.78"/>
    <rect x="1105" y="584" width="6" height="27" fill="hsl(259 26% 24%)" opacity="0.72"/>
  </g>

  <rect y="646" width="1600" height="254" fill="url(#fog)"/>

  <g>
    <polygon points="690,586 655,740 725,740" fill="hsl(341 36% 37%)" opacity="0.84"/>
    <rect x="686" y="712" width="8" height="35" fill="hsl(259 26% 24%)" opacity="0.72"/>
    <polygon points="1560,631 1518,765 1602,765" fill="hsl(341 36% 37%)" opacity="0.89"/>
    <rect x="1555" y="741" width="10" height="31" fill="hsl(259 26% 24%)" opacity="0.72"/>
    <polygon points="200,609 151,777 249,777" fill="hsl(341 36% 37%)" opacity="0.81"/>
    <rect x="194" y="747" width="12" height="39" fill="hsl(259 26% 24%)" opacity="0.72"/>
    <polygon points="473,496 420,746 526,746" fill="hsl(351 38% 27%)" opacity="0.91"/>
    <rect x="467" y="701" width="13" height="58" fill="hsl(259 26% 24%)" opacity="0.72"/>
    <polygon points="608,653 564,800 652,800" fill="hsl(341 36% 37%)" opacity="0.73"/>
    <rect x="603" y="774" width="11" height="34" fill="hsl(259 26% 24%)" opacity="0.72"/>
    <polygon points="1021,526 968,731 1074,731" fill="hsl(351 38% 27%)" opacity="0.92"/>
    <rect x="1015" y="694" width="13" height="47" fill="hsl(259 26% 24%)" opacity="0.72"/>
    <polygon points="1479,517 1444,740 1514,740" fill="hsl(351 38% 27%)" opacity="0.90"/>
    <rect x="1475" y="700" width="8" height="51" fill="hsl(259 26% 24%)" opacity="0.72"/>
    <polygon points="223,629 171,817 275,817" fill="hsl(351 38% 27%)" opacity="0.88"/>
    <rect x="217" y="783" width="12" height="43" fill="hsl(259 26% 24%)" opacity="0.72"/>
    <polygon points="826,651 774,794 878,794" fill="hsl(351 38% 27%)" opacity="0.81"/>
    <rect x="820" y="768" width="12" height="33" fill="hsl(259 26% 24%)" opacity="0.72"/>
    <polygon points="723,505 683,736 763,736" fill="hsl(351 38% 27%)" opacity="0.81"/>
    <rect x="718" y="694" width="10" height="53" fill="hsl(259 26% 24%)" opacity="0.72"/>
    <polygon points="352,594 323,756 381,756" fill="hsl(341 36% 37%)" opacity="0.86"/>
    <rect x="349" y="727" width="7" height="37" fill="hsl(259 26% 24%)" opacity="0.72"/>
    <polygon points="1474,561 1445,788 1503,788" fill="hsl(351 38% 27%)" opacity="0.78"/>
    <rect x="1471" y="747" width="7" height="52" fill="hsl(259 26% 24%)" opacity="0.72"/>
    <polygon points="398,626 354,818 442,818" fill="hsl(341 36% 37%)" opacity="0.85"/>
    <rect x="393" y="783" width="11" height="44" fill="hsl(259 26% 24%)" opacity="0.72"/>
    <polygon points="955,631 918,786 992,786" fill="hsl(341 36% 37%)" opacity="0.89"/>
    <rect x="951" y="758" width="9" height="36" fill="hsl(259 26% 24%)" opacity="0.72"/>
    <polygon points="1069,550 1033,756 1105,756" fill="hsl(341 36% 37%)" opacity="0.72"/>
    <rect x="1065" y="719" width="9" height="47" fill="hsl(259 26% 24%)" opacity="0.72"/>
    <polygon points="1405,565 1354,776 1456,776" fill="hsl(351 38% 27%)" opacity="0.86"/>
    <rect x="1399" y="738" width="12" height="49" fill="hsl(259 26% 24%)" opacity="0.72"/>
  </g>

  <rect x="64" y="676" width="1472" height="184" rx="22" fill="#081517" opacity="0.54"/>
  <text x="118" y="726" fill="#d9e8c8" font-family="Poppins, Arial, sans-serif" font-size="28" font-weight="700">Maden Izinleri</text>
  <text x="118" y="792" fill="#ffffff" font-family="Poppins, Arial, sans-serif" font-size="63.2" font-weight="800">Burhanettin Sogancilar</text>
  

  <rect width="1600" height="900" fill="url(#vignette)"/>
</svg>
