<?xml version="1.0" encoding="UTF-8"?>
<svg xmlns="http://www.w3.org/2000/svg" viewBox="0 0 1600 900" role="img" aria-label="BYS Maden">
  <defs>
    <linearGradient id="bg" x1="0" y1="0" x2="0" y2="1">
      <stop offset="0%" stop-color="hsl(79 40% 20%)"/>
      <stop offset="100%" stop-color="hsl(357 36% 41%)"/>
    </linearGradient>
    <linearGradient id="fog" x1="0" y1="0" x2="1" y2="0">
      <stop offset="0%" stop-color="hsl(319 20% 84%)" stop-opacity="0.22"/>
      <stop offset="50%" stop-color="#ffffff" stop-opacity="0.08"/>
      <stop offset="100%" stop-color="hsl(319 20% 84%)" stop-opacity="0.22"/>
    </linearGradient>
    <radialGradient id="vignette" cx="50%" cy="45%" r="70%">
      <stop offset="65%" stop-color="rgba(0,0,0,0)"/>
      <stop offset="100%" stop-color="rgba(0,0,0,0.35)"/>
    </radialGradient>
  </defs>

  <rect width="1600" height="900" fill="url(#bg)"/>
  <circle cx="1416" cy="209" r="103" fill="#f4efd4" opacity="0.34"/>

  <path d="M0 432 Q115 364 229 317 Q343 386 457 320 Q572 379 686 323 Q800 390 914 327 Q1029 390 1143 362 Q1257 348 1371 273 Q1486 389 1600 355 L1600 900 L0 900 Z" fill="hsl(14 28% 22%)" opacity="0.48"/>
  <path d="M0 529 Q115 502 229 462 Q343 483 457 447 Q572 470 686 390 Q800 490 914 446 Q1029 473 1143 402 Q1257 486 1371 464 Q1486 488 1600 427 L1600 900 L0 900 Z" fill="hsl(1 26% 31%)" opacity="0.62"/>
  <path d="M0 624 Q115 591 229 560 Q343 553 457 492 Q572 563 686 513 Q800 560 914 502 Q1029 552 1143 475 Q1257 563 1371 496 Q1486 551 1600 481 L1600 900 L0 900 Z" fill="hsl(349 24% 43%)" opacity="0.78"/>

  <g>
    <polygon points="236,501 207,617 265,617" fill="hsl(339 36% 35%)" opacity="0.81"/>
    <rect x="233" y="596" width="7" height="27" fill="hsl(257 26% 24%)" opacity="0.72"/>
    <polygon points="1417,447 1391,609 1443,609" fill="hsl(339 36% 35%)" opacity="0.87"/>
    <rect x="1414" y="580" width="6" height="37" fill="hsl(257 26% 24%)" opacity="0.72"/>
    <polygon points="642,457 617,607 667,607" fill="hsl(349 38% 26%)" opacity="0.73"/>
    <rect x="639" y="580" width="6" height="35" fill="hsl(257 26% 24%)" opacity="0.72"/>
    <polygon points="117,455 93,616 141,616" fill="hsl(339 36% 35%)" opacity="0.80"/>
    <rect x="114" y="587" width="6" height="37" fill="hsl(257 26% 24%)" opacity="0.72"/>
    <polygon points="1466,474 1436,613 1496,613" fill="hsl(349 38% 26%)" opacity="0.70"/>
    <rect x="1462" y="588" width="7" height="32" fill="hsl(257 26% 24%)" opacity="0.72"/>
    <polygon points="945,536 924,630 966,630" fill="hsl(349 38% 26%)" opacity="0.86"/>
    <rect x="942" y="613" width="5" height="22" fill="hsl(257 26% 24%)" opacity="0.72"/>
    <polygon points="209,459 181,623 237,623" fill="hsl(339 36% 35%)" opacity="0.92"/>
    <rect x="206" y="593" width="7" height="38" fill="hsl(257 26% 24%)" opacity="0.72"/>
    <polygon points="488,527 465,656 511,656" fill="hsl(349 38% 26%)" opacity="0.84"/>
    <rect x="485" y="633" width="6" height="30" fill="hsl(257 26% 24%)" opacity="0.72"/>
    <polygon points="804,494 775,629 833,629" fill="hsl(349 38% 26%)" opacity="0.76"/>
    <rect x="801" y="605" width="7" height="31" fill="hsl(257 26% 24%)" opacity="0.72"/>
    <polygon points="1233,533 1207,652 1259,652" fill="hsl(339 36% 35%)" opacity="0.90"/>
    <rect x="1230" y="631" width="6" height="27" fill="hsl(257 26% 24%)" opacity="0.72"/>
    <polygon points="338,461 307,608 369,608" fill="hsl(339 36% 35%)" opacity="0.75"/>
    <rect x="334" y="582" width="7" height="34" fill="hsl(257 26% 24%)" opacity="0.72"/>
    <polygon points="369,511 344,606 394,606" fill="hsl(349 38% 26%)" opacity="0.86"/>
    <rect x="366" y="589" width="6" height="22" fill="hsl(257 26% 24%)" opacity="0.72"/>
    <polygon points="1547,458 1526,606 1568,606" fill="hsl(349 38% 26%)" opacity="0.85"/>
    <rect x="1544" y="579" width="5" height="34" fill="hsl(257 26% 24%)" opacity="0.72"/>
    <polygon points="1577,482 1553,603 1601,603" fill="hsl(339 36% 35%)" opacity="0.90"/>
    <rect x="1574" y="581" width="6" height="28" fill="hsl(257 26% 24%)" opacity="0.72"/>
    <polygon points="1477,509 1443,611 1511,611" fill="hsl(339 36% 35%)" opacity="0.72"/>
    <rect x="1473" y="593" width="8" height="23" fill="hsl(257 26% 24%)" opacity="0.72"/>
    <polygon points="142,491 114,644 170,644" fill="hsl(339 36% 35%)" opacity="0.84"/>
    <rect x="139" y="616" width="7" height="35" fill="hsl(257 26% 24%)" opacity="0.72"/>
    <polygon points="893,523 860,646 926,646" fill="hsl(339 36% 35%)" opacity="0.68"/>
    <rect x="889" y="624" width="8" height="28" fill="hsl(257 26% 24%)" opacity="0.72"/>
    <polygon points="1464,486 1440,611 1488,611" fill="hsl(339 36% 35%)" opacity="0.88"/>
    <rect x="1461" y="588" width="6" height="29" fill="hsl(257 26% 24%)" opacity="0.72"/>
  </g>

  <rect y="646" width="1600" height="254" fill="url(#fog)"/>

  <g>
    <polygon points="1422,517 1387,748 1457,748" fill="hsl(339 36% 35%)" opacity="0.83"/>
    <rect x="1418" y="706" width="8" height="53" fill="hsl(257 26% 24%)" opacity="0.72"/>
    <polygon points="1405,542 1368,737 1442,737" fill="hsl(339 36% 35%)" opacity="0.76"/>
    <rect x="1401" y="702" width="9" height="45" fill="hsl(257 26% 24%)" opacity="0.72"/>
    <polygon points="1572,630 1537,786 1607,786" fill="hsl(339 36% 35%)" opacity="0.89"/>
    <rect x="1568" y="758" width="8" height="36" fill="hsl(257 26% 24%)" opacity="0.72"/>
    <polygon points="449,617 421,814 477,814" fill="hsl(339 36% 35%)" opacity="0.83"/>
    <rect x="446" y="779" width="7" height="45" fill="hsl(257 26% 24%)" opacity="0.72"/>
    <polygon points="532,626 496,817 568,817" fill="hsl(349 38% 26%)" opacity="0.74"/>
    <rect x="528" y="783" width="9" height="44" fill="hsl(257 26% 24%)" opacity="0.72"/>
    <polygon points="1177,644 1148,794 1206,794" fill="hsl(339 36% 35%)" opacity="0.68"/>
    <rect x="1174" y="767" width="7" height="35" fill="hsl(257 26% 24%)" opacity="0.72"/>
    <polygon points="1278,560 1241,764 1315,764" fill="hsl(349 38% 26%)" opacity="0.87"/>
    <rect x="1274" y="727" width="9" height="47" fill="hsl(257 26% 24%)" opacity="0.72"/>
    <polygon points="268,633 217,793 319,793" fill="hsl(349 38% 26%)" opacity="0.83"/>
    <rect x="262" y="764" width="12" height="37" fill="hsl(257 26% 24%)" opacity="0.72"/>
    <polygon points="243,582 191,763 295,763" fill="hsl(349 38% 26%)" opacity="0.86"/>
    <rect x="237" y="730" width="12" height="42" fill="hsl(257 26% 24%)" opacity="0.72"/>
    <polygon points="1119,556 1078,779 1160,779" fill="hsl(339 36% 35%)" opacity="0.74"/>
    <rect x="1114" y="739" width="10" height="51" fill="hsl(257 26% 24%)" opacity="0.72"/>
    <polygon points="569,590 530,814 608,814" fill="hsl(339 36% 35%)" opacity="0.80"/>
    <rect x="564" y="774" width="9" height="52" fill="hsl(257 26% 24%)" opacity="0.72"/>
    <polygon points="715,553 664,773 766,773" fill="hsl(349 38% 26%)" opacity="0.90"/>
    <rect x="709" y="733" width="12" height="51" fill="hsl(257 26% 24%)" opacity="0.72"/>
    <polygon points="666,539 638,763 694,763" fill="hsl(349 38% 26%)" opacity="0.80"/>
    <rect x="663" y="723" width="7" height="52" fill="hsl(257 26% 24%)" opacity="0.72"/>
    <polygon points="1081,584 1031,791 1131,791" fill="hsl(339 36% 35%)" opacity="0.83"/>
    <rect x="1075" y="754" width="12" height="48" fill="hsl(257 26% 24%)" opacity="0.72"/>
    <polygon points="1069,584 1030,759 1108,759" fill="hsl(349 38% 26%)" opacity="0.75"/>
    <rect x="1064" y="727" width="9" height="40" fill="hsl(257 26% 24%)" opacity="0.72"/>
    <polygon points="384,665 347,819 421,819" fill="hsl(349 38% 26%)" opacity="0.80"/>
    <rect x="380" y="791" width="9" height="35" fill="hsl(257 26% 24%)" opacity="0.72"/>
  </g>

  <rect x="64" y="676" width="1472" height="184" rx="22" fill="#081517" opacity="0.54"/>
  <text x="118" y="726" fill="#d9e8c8" font-family="Poppins, Arial, sans-serif" font-size="28" font-weight="700">Maden Izinleri</text>
  <text x="118" y="792" fill="#ffffff" font-family="Poppins, Arial, sans-serif" font-size="66.0" font-weight="800">BYS Maden</text>
  

  <rect width="1600" height="900" fill="url(#vignette)"/>
</svg>
