<?xml version="1.0" encoding="UTF-8"?>
<svg xmlns="http://www.w3.org/2000/svg" viewBox="0 0 1600 900" role="img" aria-label="Camlibel">
  <defs>
    <linearGradient id="bg" x1="0" y1="0" x2="0" y2="1">
      <stop offset="0%" stop-color="hsl(10 38% 24%)"/>
      <stop offset="100%" stop-color="hsl(288 36% 40%)"/>
    </linearGradient>
    <linearGradient id="fog" x1="0" y1="0" x2="1" y2="0">
      <stop offset="0%" stop-color="hsl(250 20% 84%)" stop-opacity="0.22"/>
      <stop offset="50%" stop-color="#ffffff" stop-opacity="0.08"/>
      <stop offset="100%" stop-color="hsl(250 20% 84%)" stop-opacity="0.22"/>
    </linearGradient>
    <radialGradient id="vignette" cx="50%" cy="45%" r="70%">
      <stop offset="65%" stop-color="rgba(0,0,0,0)"/>
      <stop offset="100%" stop-color="rgba(0,0,0,0.35)"/>
    </radialGradient>
  </defs>

  <rect width="1600" height="900" fill="url(#bg)"/>
  <circle cx="1418" cy="233" r="104" fill="#f4efd4" opacity="0.34"/>

  <path d="M0 436 Q115 405 229 376 Q343 402 457 358 Q572 396 686 343 Q800 383 914 328 Q1029 387 1143 323 Q1257 405 1371 357 Q1486 361 1600 276 L1600 900 L0 900 Z" fill="hsl(305 28% 21%)" opacity="0.48"/>
  <path d="M0 502 Q115 447 229 384 Q343 417 457 355 Q572 433 686 367 Q800 433 914 361 Q1029 454 1143 391 Q1257 446 1371 372 Q1486 481 1600 438 L1600 900 L0 900 Z" fill="hsl(292 26% 34%)" opacity="0.62"/>
  <path d="M0 653 Q115 609 229 547 Q343 590 457 516 Q572 599 686 568 Q800 580 914 510 Q1029 592 1143 545 Q1257 629 1371 587 Q1486 569 1600 491 L1600 900 L0 900 Z" fill="hsl(280 24% 45%)" opacity="0.78"/>

  <g>
    <polygon points="222,504 188,614 256,614" fill="hsl(280 38% 29%)" opacity="0.71"/>
    <rect x="218" y="594" width="8" height="25" fill="hsl(188 26% 24%)" opacity="0.72"/>
    <polygon points="79,480 57,624 101,624" fill="hsl(280 38% 29%)" opacity="0.72"/>
    <rect x="76" y="598" width="5" height="33" fill="hsl(188 26% 24%)" opacity="0.72"/>
    <polygon points="56,509 23,607 89,607" fill="hsl(270 36% 35%)" opacity="0.80"/>
    <rect x="52" y="589" width="8" height="23" fill="hsl(188 26% 24%)" opacity="0.72"/>
    <polygon points="897,461 873,612 921,612" fill="hsl(270 36% 35%)" opacity="0.79"/>
    <rect x="894" y="585" width="6" height="35" fill="hsl(188 26% 24%)" opacity="0.72"/>
    <polygon points="961,482 937,627 985,627" fill="hsl(280 38% 29%)" opacity="0.87"/>
    <rect x="958" y="601" width="6" height="33" fill="hsl(188 26% 24%)" opacity="0.72"/>
    <polygon points="262,492 229,620 295,620" fill="hsl(270 36% 35%)" opacity="0.80"/>
    <rect x="258" y="597" width="8" height="29" fill="hsl(188 26% 24%)" opacity="0.72"/>
    <polygon points="541,490 510,651 572,651" fill="hsl(270 36% 35%)" opacity="0.86"/>
    <rect x="537" y="622" width="7" height="37" fill="hsl(188 26% 24%)" opacity="0.72"/>
    <polygon points="426,527 398,647 454,647" fill="hsl(280 38% 29%)" opacity="0.85"/>
    <rect x="423" y="625" width="7" height="28" fill="hsl(188 26% 24%)" opacity="0.72"/>
    <polygon points="729,503 696,638 762,638" fill="hsl(270 36% 35%)" opacity="0.78"/>
    <rect x="725" y="614" width="8" height="31" fill="hsl(188 26% 24%)" opacity="0.72"/>
    <polygon points="189,453 167,618 211,618" fill="hsl(280 38% 29%)" opacity="0.70"/>
    <rect x="186" y="588" width="5" height="38" fill="hsl(188 26% 24%)" opacity="0.72"/>
    <polygon points="949,536 926,652 972,652" fill="hsl(280 38% 29%)" opacity="0.83"/>
    <rect x="946" y="631" width="6" height="27" fill="hsl(188 26% 24%)" opacity="0.72"/>
    <polygon points="415,523 381,659 449,659" fill="hsl(270 36% 35%)" opacity="0.84"/>
    <rect x="411" y="635" width="8" height="31" fill="hsl(188 26% 24%)" opacity="0.72"/>
    <polygon points="869,539 847,634 891,634" fill="hsl(280 38% 29%)" opacity="0.89"/>
    <rect x="866" y="617" width="5" height="22" fill="hsl(188 26% 24%)" opacity="0.72"/>
    <polygon points="830,511 798,654 862,654" fill="hsl(270 36% 35%)" opacity="0.81"/>
    <rect x="826" y="628" width="8" height="33" fill="hsl(188 26% 24%)" opacity="0.72"/>
    <polygon points="594,467 574,627 614,627" fill="hsl(270 36% 35%)" opacity="0.91"/>
    <rect x="592" y="598" width="5" height="37" fill="hsl(188 26% 24%)" opacity="0.72"/>
    <polygon points="184,523 155,651 213,651" fill="hsl(280 38% 29%)" opacity="0.74"/>
    <rect x="181" y="628" width="7" height="29" fill="hsl(188 26% 24%)" opacity="0.72"/>
    <polygon points="936,509 903,616 969,616" fill="hsl(270 36% 35%)" opacity="0.79"/>
    <rect x="932" y="597" width="8" height="25" fill="hsl(188 26% 24%)" opacity="0.72"/>
    <polygon points="368,503 342,650 394,650" fill="hsl(280 38% 29%)" opacity="0.75"/>
    <rect x="365" y="624" width="6" height="34" fill="hsl(188 26% 24%)" opacity="0.72"/>
  </g>

  <rect y="646" width="1600" height="254" fill="url(#fog)"/>

  <g>
    <polygon points="936,543 891,742 981,742" fill="hsl(270 36% 35%)" opacity="0.80"/>
    <rect x="931" y="706" width="11" height="46" fill="hsl(188 26% 24%)" opacity="0.72"/>
    <polygon points="606,598 569,819 643,819" fill="hsl(280 38% 29%)" opacity="0.80"/>
    <rect x="602" y="779" width="9" height="51" fill="hsl(188 26% 24%)" opacity="0.72"/>
    <polygon points="84,603 49,769 119,769" fill="hsl(280 38% 29%)" opacity="0.72"/>
    <rect x="80" y="739" width="8" height="38" fill="hsl(188 26% 24%)" opacity="0.72"/>
    <polygon points="664,527 614,745 714,745" fill="hsl(280 38% 29%)" opacity="0.73"/>
    <rect x="658" y="706" width="12" height="50" fill="hsl(188 26% 24%)" opacity="0.72"/>
    <polygon points="1397,578 1364,748 1430,748" fill="hsl(270 36% 35%)" opacity="0.70"/>
    <rect x="1393" y="717" width="8" height="39" fill="hsl(188 26% 24%)" opacity="0.72"/>
    <polygon points="531,618 496,783 566,783" fill="hsl(270 36% 35%)" opacity="0.71"/>
    <rect x="527" y="753" width="8" height="38" fill="hsl(188 26% 24%)" opacity="0.72"/>
    <polygon points="423,588 375,791 471,791" fill="hsl(280 38% 29%)" opacity="0.73"/>
    <rect x="417" y="754" width="12" height="47" fill="hsl(188 26% 24%)" opacity="0.72"/>
    <polygon points="127,640 88,796 166,796" fill="hsl(270 36% 35%)" opacity="0.79"/>
    <rect x="122" y="768" width="9" height="36" fill="hsl(188 26% 24%)" opacity="0.72"/>
    <polygon points="680,659 640,797 720,797" fill="hsl(280 38% 29%)" opacity="0.75"/>
    <rect x="675" y="772" width="10" height="32" fill="hsl(188 26% 24%)" opacity="0.72"/>
    <polygon points="365,559 327,744 403,744" fill="hsl(270 36% 35%)" opacity="0.72"/>
    <rect x="360" y="711" width="9" height="43" fill="hsl(188 26% 24%)" opacity="0.72"/>
    <polygon points="1025,558 994,807 1056,807" fill="hsl(280 38% 29%)" opacity="0.75"/>
    <rect x="1021" y="762" width="7" height="57" fill="hsl(188 26% 24%)" opacity="0.72"/>
    <polygon points="67,547 32,749 102,749" fill="hsl(270 36% 35%)" opacity="0.71"/>
    <rect x="63" y="713" width="8" height="46" fill="hsl(188 26% 24%)" opacity="0.72"/>
    <polygon points="456,535 408,747 504,747" fill="hsl(280 38% 29%)" opacity="0.92"/>
    <rect x="450" y="709" width="12" height="49" fill="hsl(188 26% 24%)" opacity="0.72"/>
    <polygon points="860,603 821,765 899,765" fill="hsl(270 36% 35%)" opacity="0.74"/>
    <rect x="855" y="736" width="9" height="37" fill="hsl(188 26% 24%)" opacity="0.72"/>
    <polygon points="1057,594 1016,782 1098,782" fill="hsl(270 36% 35%)" opacity="0.73"/>
    <rect x="1052" y="748" width="10" height="43" fill="hsl(188 26% 24%)" opacity="0.72"/>
    <polygon points="1573,614 1534,767 1612,767" fill="hsl(270 36% 35%)" opacity="0.82"/>
    <rect x="1568" y="739" width="9" height="35" fill="hsl(188 26% 24%)" opacity="0.72"/>
  </g>

  <rect x="64" y="676" width="1472" height="184" rx="22" fill="#081517" opacity="0.54"/>
  <text x="118" y="726" fill="#d9e8c8" font-family="Poppins, Arial, sans-serif" font-size="28" font-weight="700">Su Izinleri</text>
  <text x="118" y="792" fill="#ffffff" font-family="Poppins, Arial, sans-serif" font-size="66.0" font-weight="800">Camlibel</text>
  

  <rect width="1600" height="900" fill="url(#vignette)"/>
</svg>
