<?xml version="1.0" encoding="UTF-8"?>
<svg xmlns="http://www.w3.org/2000/svg" viewBox="0 0 1600 900" role="img" aria-label="Cemil Danis">
  <defs>
    <linearGradient id="bg" x1="0" y1="0" x2="0" y2="1">
      <stop offset="0%" stop-color="hsl(174 47% 25%)"/>
      <stop offset="100%" stop-color="hsl(92 35% 38%)"/>
    </linearGradient>
    <linearGradient id="fog" x1="0" y1="0" x2="1" y2="0">
      <stop offset="0%" stop-color="hsl(54 20% 84%)" stop-opacity="0.22"/>
      <stop offset="50%" stop-color="#ffffff" stop-opacity="0.08"/>
      <stop offset="100%" stop-color="hsl(54 20% 84%)" stop-opacity="0.22"/>
    </linearGradient>
    <radialGradient id="vignette" cx="50%" cy="45%" r="70%">
      <stop offset="65%" stop-color="rgba(0,0,0,0)"/>
      <stop offset="100%" stop-color="rgba(0,0,0,0.35)"/>
    </radialGradient>
  </defs>

  <rect width="1600" height="900" fill="url(#bg)"/>
  <circle cx="1388" cy="238" r="88" fill="#f4efd4" opacity="0.34"/>

  <path d="M0 433 Q115 380 229 333 Q343 384 457 347 Q572 376 686 319 Q800 393 914 370 Q1029 359 1143 292 Q1257 383 1371 324 Q1486 395 1600 375 L1600 900 L0 900 Z" fill="hsl(109 28% 21%)" opacity="0.48"/>
  <path d="M0 506 Q115 443 229 374 Q343 457 457 399 Q572 471 686 429 Q800 438 914 372 Q1029 445 1143 385 Q1257 448 1371 410 Q1486 460 1600 413 L1600 900 L0 900 Z" fill="hsl(96 26% 31%)" opacity="0.62"/>
  <path d="M0 628 Q115 544 229 466 Q343 555 457 477 Q572 529 686 428 Q800 572 914 535 Q1029 595 1143 562 Q1257 586 1371 529 Q1486 570 1600 492 L1600 900 L0 900 Z" fill="hsl(84 24% 38%)" opacity="0.78"/>

  <g>
    <polygon points="925,500 898,647 952,647" fill="hsl(84 38% 27%)" opacity="0.70"/>
    <rect x="922" y="621" width="6" height="34" fill="hsl(352 26% 24%)" opacity="0.72"/>
    <polygon points="1490,513 1464,607 1516,607" fill="hsl(74 36% 37%)" opacity="0.73"/>
    <rect x="1487" y="590" width="6" height="22" fill="hsl(352 26% 24%)" opacity="0.72"/>
    <polygon points="470,545 445,660 495,660" fill="hsl(84 38% 27%)" opacity="0.87"/>
    <rect x="467" y="639" width="6" height="26" fill="hsl(352 26% 24%)" opacity="0.72"/>
    <polygon points="434,548 401,654 467,654" fill="hsl(74 36% 37%)" opacity="0.83"/>
    <rect x="430" y="635" width="8" height="24" fill="hsl(352 26% 24%)" opacity="0.72"/>
    <polygon points="1272,508 1238,619 1306,619" fill="hsl(84 38% 27%)" opacity="0.73"/>
    <rect x="1268" y="599" width="8" height="26" fill="hsl(352 26% 24%)" opacity="0.72"/>
    <polygon points="681,519 651,654 711,654" fill="hsl(84 38% 27%)" opacity="0.71"/>
    <rect x="677" y="630" width="7" height="31" fill="hsl(352 26% 24%)" opacity="0.72"/>
    <polygon points="257,524 230,628 284,628" fill="hsl(84 38% 27%)" opacity="0.89"/>
    <rect x="254" y="609" width="6" height="24" fill="hsl(352 26% 24%)" opacity="0.72"/>
    <polygon points="140,532 117,642 163,642" fill="hsl(74 36% 37%)" opacity="0.81"/>
    <rect x="137" y="622" width="6" height="25" fill="hsl(352 26% 24%)" opacity="0.72"/>
    <polygon points="1024,490 999,626 1049,626" fill="hsl(84 38% 27%)" opacity="0.76"/>
    <rect x="1021" y="602" width="6" height="31" fill="hsl(352 26% 24%)" opacity="0.72"/>
    <polygon points="707,497 678,641 736,641" fill="hsl(84 38% 27%)" opacity="0.85"/>
    <rect x="704" y="615" width="7" height="33" fill="hsl(352 26% 24%)" opacity="0.72"/>
    <polygon points="110,520 81,634 139,634" fill="hsl(84 38% 27%)" opacity="0.78"/>
    <rect x="107" y="613" width="7" height="26" fill="hsl(352 26% 24%)" opacity="0.72"/>
    <polygon points="796,542 771,642 821,642" fill="hsl(84 38% 27%)" opacity="0.77"/>
    <rect x="793" y="624" width="6" height="23" fill="hsl(352 26% 24%)" opacity="0.72"/>
    <polygon points="1166,544 1133,656 1199,656" fill="hsl(74 36% 37%)" opacity="0.84"/>
    <rect x="1162" y="636" width="8" height="26" fill="hsl(352 26% 24%)" opacity="0.72"/>
    <polygon points="333,537 310,644 356,644" fill="hsl(74 36% 37%)" opacity="0.91"/>
    <rect x="330" y="625" width="6" height="25" fill="hsl(352 26% 24%)" opacity="0.72"/>
    <polygon points="476,514 443,608 509,608" fill="hsl(84 38% 27%)" opacity="0.87"/>
    <rect x="472" y="591" width="8" height="22" fill="hsl(352 26% 24%)" opacity="0.72"/>
    <polygon points="797,479 770,620 824,620" fill="hsl(84 38% 27%)" opacity="0.75"/>
    <rect x="794" y="595" width="6" height="32" fill="hsl(352 26% 24%)" opacity="0.72"/>
    <polygon points="713,506 684,646 742,646" fill="hsl(84 38% 27%)" opacity="0.82"/>
    <rect x="710" y="621" width="7" height="32" fill="hsl(352 26% 24%)" opacity="0.72"/>
    <polygon points="1204,444 1176,607 1232,607" fill="hsl(74 36% 37%)" opacity="0.89"/>
    <rect x="1201" y="578" width="7" height="37" fill="hsl(352 26% 24%)" opacity="0.72"/>
  </g>

  <rect y="646" width="1600" height="254" fill="url(#fog)"/>

  <g>
    <polygon points="392,537 344,745 440,745" fill="hsl(74 36% 37%)" opacity="0.73"/>
    <rect x="386" y="708" width="12" height="48" fill="hsl(352 26% 24%)" opacity="0.72"/>
    <polygon points="940,532 894,772 986,772" fill="hsl(84 38% 27%)" opacity="0.92"/>
    <rect x="934" y="729" width="11" height="55" fill="hsl(352 26% 24%)" opacity="0.72"/>
    <polygon points="1229,527 1192,761 1266,761" fill="hsl(84 38% 27%)" opacity="0.85"/>
    <rect x="1225" y="719" width="9" height="54" fill="hsl(352 26% 24%)" opacity="0.72"/>
    <polygon points="641,547 596,790 686,790" fill="hsl(84 38% 27%)" opacity="0.76"/>
    <rect x="636" y="746" width="11" height="56" fill="hsl(352 26% 24%)" opacity="0.72"/>
    <polygon points="658,568 606,797 710,797" fill="hsl(84 38% 27%)" opacity="0.73"/>
    <rect x="652" y="756" width="12" height="53" fill="hsl(352 26% 24%)" opacity="0.72"/>
    <polygon points="724,520 671,745 777,745" fill="hsl(84 38% 27%)" opacity="0.81"/>
    <rect x="718" y="704" width="13" height="52" fill="hsl(352 26% 24%)" opacity="0.72"/>
    <polygon points="1242,553 1204,759 1280,759" fill="hsl(84 38% 27%)" opacity="0.83"/>
    <rect x="1237" y="722" width="9" height="47" fill="hsl(352 26% 24%)" opacity="0.72"/>
    <polygon points="262,564 228,796 296,796" fill="hsl(74 36% 37%)" opacity="0.88"/>
    <rect x="258" y="754" width="8" height="53" fill="hsl(352 26% 24%)" opacity="0.72"/>
    <polygon points="1131,602 1101,737 1161,737" fill="hsl(84 38% 27%)" opacity="0.87"/>
    <rect x="1127" y="713" width="7" height="31" fill="hsl(352 26% 24%)" opacity="0.72"/>
    <polygon points="828,543 780,730 876,730" fill="hsl(74 36% 37%)" opacity="0.89"/>
    <rect x="822" y="696" width="12" height="43" fill="hsl(352 26% 24%)" opacity="0.72"/>
    <polygon points="609,579 564,741 654,741" fill="hsl(84 38% 27%)" opacity="0.84"/>
    <rect x="604" y="712" width="11" height="37" fill="hsl(352 26% 24%)" opacity="0.72"/>
    <polygon points="950,606 900,756 1000,756" fill="hsl(84 38% 27%)" opacity="0.81"/>
    <rect x="944" y="729" width="12" height="35" fill="hsl(352 26% 24%)" opacity="0.72"/>
    <polygon points="1271,624 1232,790 1310,790" fill="hsl(84 38% 27%)" opacity="0.89"/>
    <rect x="1266" y="760" width="9" height="38" fill="hsl(352 26% 24%)" opacity="0.72"/>
    <polygon points="594,561 562,737 626,737" fill="hsl(84 38% 27%)" opacity="0.78"/>
    <rect x="590" y="705" width="8" height="40" fill="hsl(352 26% 24%)" opacity="0.72"/>
    <polygon points="226,525 182,759 270,759" fill="hsl(74 36% 37%)" opacity="0.92"/>
    <rect x="221" y="717" width="11" height="54" fill="hsl(352 26% 24%)" opacity="0.72"/>
    <polygon points="1036,535 1006,765 1066,765" fill="hsl(74 36% 37%)" opacity="0.84"/>
    <rect x="1032" y="724" width="7" height="53" fill="hsl(352 26% 24%)" opacity="0.72"/>
  </g>

  <rect x="64" y="676" width="1472" height="184" rx="22" fill="#081517" opacity="0.54"/>
  <text x="118" y="726" fill="#d9e8c8" font-family="Poppins, Arial, sans-serif" font-size="28" font-weight="700">Diger Projeler</text>
  <text x="118" y="792" fill="#ffffff" font-family="Poppins, Arial, sans-serif" font-size="66.0" font-weight="800">Cemil Danis</text>
  

  <rect width="1600" height="900" fill="url(#vignette)"/>
</svg>
