<?xml version="1.0" encoding="UTF-8"?>
<svg xmlns="http://www.w3.org/2000/svg" viewBox="0 0 1600 900" role="img" aria-label="Danis Micir">
  <defs>
    <linearGradient id="bg" x1="0" y1="0" x2="0" y2="1">
      <stop offset="0%" stop-color="hsl(79 46% 23%)"/>
      <stop offset="100%" stop-color="hsl(357 42% 46%)"/>
    </linearGradient>
    <linearGradient id="fog" x1="0" y1="0" x2="1" y2="0">
      <stop offset="0%" stop-color="hsl(319 20% 84%)" stop-opacity="0.22"/>
      <stop offset="50%" stop-color="#ffffff" stop-opacity="0.08"/>
      <stop offset="100%" stop-color="hsl(319 20% 84%)" stop-opacity="0.22"/>
    </linearGradient>
    <radialGradient id="vignette" cx="50%" cy="45%" r="70%">
      <stop offset="65%" stop-color="rgba(0,0,0,0)"/>
      <stop offset="100%" stop-color="rgba(0,0,0,0.35)"/>
    </radialGradient>
  </defs>

  <rect width="1600" height="900" fill="url(#bg)"/>
  <circle cx="1086" cy="265" r="92" fill="#f4efd4" opacity="0.34"/>

  <path d="M0 412 Q115 358 229 284 Q343 351 457 304 Q572 368 686 302 Q800 361 914 290 Q1029 376 1143 354 Q1257 381 1371 361 Q1486 348 1600 284 L1600 900 L0 900 Z" fill="hsl(14 28% 27%)" opacity="0.48"/>
  <path d="M0 521 Q115 447 229 369 Q343 441 457 373 Q572 428 686 353 Q800 474 914 444 Q1029 471 1143 435 Q1257 464 1371 404 Q1486 489 1600 444 L1600 900 L0 900 Z" fill="hsl(1 26% 33%)" opacity="0.62"/>
  <path d="M0 644 Q115 593 229 543 Q343 611 457 584 Q572 593 686 562 Q800 574 914 501 Q1029 569 1143 492 Q1257 596 1371 567 Q1486 552 1600 468 L1600 900 L0 900 Z" fill="hsl(349 24% 38%)" opacity="0.78"/>

  <g>
    <polygon points="731,552 710,645 752,645" fill="hsl(349 38% 27%)" opacity="0.90"/>
    <rect x="728" y="628" width="5" height="21" fill="hsl(257 26% 24%)" opacity="0.72"/>
    <polygon points="427,470 399,608 455,608" fill="hsl(339 36% 35%)" opacity="0.89"/>
    <rect x="424" y="583" width="7" height="32" fill="hsl(257 26% 24%)" opacity="0.72"/>
    <polygon points="730,495 701,611 759,611" fill="hsl(339 36% 35%)" opacity="0.77"/>
    <rect x="727" y="590" width="7" height="27" fill="hsl(257 26% 24%)" opacity="0.72"/>
    <polygon points="491,442 467,602 515,602" fill="hsl(339 36% 35%)" opacity="0.85"/>
    <rect x="488" y="573" width="6" height="37" fill="hsl(257 26% 24%)" opacity="0.72"/>
    <polygon points="443,537 413,638 473,638" fill="hsl(339 36% 35%)" opacity="0.84"/>
    <rect x="439" y="620" width="7" height="23" fill="hsl(257 26% 24%)" opacity="0.72"/>
    <polygon points="268,496 238,626 298,626" fill="hsl(349 38% 27%)" opacity="0.79"/>
    <rect x="264" y="603" width="7" height="30" fill="hsl(257 26% 24%)" opacity="0.72"/>
    <polygon points="803,509 779,637 827,637" fill="hsl(349 38% 27%)" opacity="0.91"/>
    <rect x="800" y="614" width="6" height="29" fill="hsl(257 26% 24%)" opacity="0.72"/>
    <polygon points="1096,504 1068,630 1124,630" fill="hsl(349 38% 27%)" opacity="0.84"/>
    <rect x="1093" y="607" width="7" height="29" fill="hsl(257 26% 24%)" opacity="0.72"/>
    <polygon points="273,510 253,655 293,655" fill="hsl(349 38% 27%)" opacity="0.78"/>
    <rect x="271" y="629" width="5" height="33" fill="hsl(257 26% 24%)" opacity="0.72"/>
    <polygon points="386,482 365,642 407,642" fill="hsl(339 36% 35%)" opacity="0.74"/>
    <rect x="383" y="613" width="5" height="37" fill="hsl(257 26% 24%)" opacity="0.72"/>
    <polygon points="1529,465 1495,611 1563,611" fill="hsl(339 36% 35%)" opacity="0.74"/>
    <rect x="1525" y="585" width="8" height="34" fill="hsl(257 26% 24%)" opacity="0.72"/>
    <polygon points="1563,463 1532,618 1594,618" fill="hsl(339 36% 35%)" opacity="0.89"/>
    <rect x="1559" y="590" width="7" height="36" fill="hsl(257 26% 24%)" opacity="0.72"/>
    <polygon points="1246,479 1223,617 1269,617" fill="hsl(339 36% 35%)" opacity="0.77"/>
    <rect x="1243" y="592" width="6" height="32" fill="hsl(257 26% 24%)" opacity="0.72"/>
    <polygon points="1399,470 1377,634 1421,634" fill="hsl(339 36% 35%)" opacity="0.85"/>
    <rect x="1396" y="604" width="5" height="38" fill="hsl(257 26% 24%)" opacity="0.72"/>
    <polygon points="484,480 450,638 518,638" fill="hsl(339 36% 35%)" opacity="0.71"/>
    <rect x="480" y="610" width="8" height="36" fill="hsl(257 26% 24%)" opacity="0.72"/>
    <polygon points="979,463 949,605 1009,605" fill="hsl(349 38% 27%)" opacity="0.84"/>
    <rect x="975" y="579" width="7" height="33" fill="hsl(257 26% 24%)" opacity="0.72"/>
    <polygon points="564,464 540,616 588,616" fill="hsl(339 36% 35%)" opacity="0.73"/>
    <rect x="561" y="589" width="6" height="35" fill="hsl(257 26% 24%)" opacity="0.72"/>
    <polygon points="1058,489 1035,629 1081,629" fill="hsl(339 36% 35%)" opacity="0.77"/>
    <rect x="1055" y="604" width="6" height="32" fill="hsl(257 26% 24%)" opacity="0.72"/>
  </g>

  <rect y="646" width="1600" height="254" fill="url(#fog)"/>

  <g>
    <polygon points="190,641 149,774 231,774" fill="hsl(339 36% 35%)" opacity="0.84"/>
    <rect x="185" y="750" width="10" height="31" fill="hsl(257 26% 24%)" opacity="0.72"/>
    <polygon points="1267,595 1215,775 1319,775" fill="hsl(339 36% 35%)" opacity="0.87"/>
    <rect x="1261" y="743" width="12" height="41" fill="hsl(257 26% 24%)" opacity="0.72"/>
    <polygon points="103,552 58,775 148,775" fill="hsl(349 38% 27%)" opacity="0.80"/>
    <rect x="98" y="735" width="11" height="51" fill="hsl(257 26% 24%)" opacity="0.72"/>
    <polygon points="1396,515 1350,749 1442,749" fill="hsl(349 38% 27%)" opacity="0.79"/>
    <rect x="1390" y="707" width="11" height="54" fill="hsl(257 26% 24%)" opacity="0.72"/>
    <polygon points="50,591 -2,795 102,795" fill="hsl(339 36% 35%)" opacity="0.79"/>
    <rect x="44" y="758" width="12" height="47" fill="hsl(257 26% 24%)" opacity="0.72"/>
    <polygon points="1141,641 1090,819 1192,819" fill="hsl(349 38% 27%)" opacity="0.92"/>
    <rect x="1135" y="787" width="12" height="41" fill="hsl(257 26% 24%)" opacity="0.72"/>
    <polygon points="684,633 635,777 733,777" fill="hsl(349 38% 27%)" opacity="0.85"/>
    <rect x="678" y="751" width="12" height="33" fill="hsl(257 26% 24%)" opacity="0.72"/>
    <polygon points="1446,622 1393,757 1499,757" fill="hsl(339 36% 35%)" opacity="0.69"/>
    <rect x="1440" y="733" width="13" height="31" fill="hsl(257 26% 24%)" opacity="0.72"/>
    <polygon points="777,494 745,734 809,734" fill="hsl(339 36% 35%)" opacity="0.72"/>
    <rect x="773" y="691" width="8" height="55" fill="hsl(257 26% 24%)" opacity="0.72"/>
    <polygon points="215,592 162,778 268,778" fill="hsl(339 36% 35%)" opacity="0.72"/>
    <rect x="209" y="745" width="13" height="43" fill="hsl(257 26% 24%)" opacity="0.72"/>
    <polygon points="1219,636 1177,804 1261,804" fill="hsl(339 36% 35%)" opacity="0.71"/>
    <rect x="1214" y="774" width="10" height="39" fill="hsl(257 26% 24%)" opacity="0.72"/>
    <polygon points="421,664 381,813 461,813" fill="hsl(339 36% 35%)" opacity="0.80"/>
    <rect x="416" y="786" width="10" height="34" fill="hsl(257 26% 24%)" opacity="0.72"/>
    <polygon points="238,530 210,736 266,736" fill="hsl(349 38% 27%)" opacity="0.81"/>
    <rect x="235" y="699" width="7" height="47" fill="hsl(257 26% 24%)" opacity="0.72"/>
    <polygon points="380,611 351,756 409,756" fill="hsl(339 36% 35%)" opacity="0.78"/>
    <rect x="377" y="730" width="7" height="33" fill="hsl(257 26% 24%)" opacity="0.72"/>
    <polygon points="313,594 281,733 345,733" fill="hsl(349 38% 27%)" opacity="0.83"/>
    <rect x="309" y="708" width="8" height="32" fill="hsl(257 26% 24%)" opacity="0.72"/>
    <polygon points="643,570 591,735 695,735" fill="hsl(349 38% 27%)" opacity="0.86"/>
    <rect x="637" y="705" width="12" height="38" fill="hsl(257 26% 24%)" opacity="0.72"/>
  </g>

  <rect x="64" y="676" width="1472" height="184" rx="22" fill="#081517" opacity="0.54"/>
  <text x="118" y="726" fill="#d9e8c8" font-family="Poppins, Arial, sans-serif" font-size="28" font-weight="700">Maden Izinleri</text>
  <text x="118" y="792" fill="#ffffff" font-family="Poppins, Arial, sans-serif" font-size="66.0" font-weight="800">Danis Micir</text>
  

  <rect width="1600" height="900" fill="url(#vignette)"/>
</svg>
