<?xml version="1.0" encoding="UTF-8"?>
<svg xmlns="http://www.w3.org/2000/svg" viewBox="0 0 1600 900" role="img" aria-label="Demir RES">
  <defs>
    <linearGradient id="bg" x1="0" y1="0" x2="0" y2="1">
      <stop offset="0%" stop-color="hsl(126 48% 25%)"/>
      <stop offset="100%" stop-color="hsl(44 35% 42%)"/>
    </linearGradient>
    <linearGradient id="fog" x1="0" y1="0" x2="1" y2="0">
      <stop offset="0%" stop-color="hsl(6 20% 84%)" stop-opacity="0.22"/>
      <stop offset="50%" stop-color="#ffffff" stop-opacity="0.08"/>
      <stop offset="100%" stop-color="hsl(6 20% 84%)" stop-opacity="0.22"/>
    </linearGradient>
    <radialGradient id="vignette" cx="50%" cy="45%" r="70%">
      <stop offset="65%" stop-color="rgba(0,0,0,0)"/>
      <stop offset="100%" stop-color="rgba(0,0,0,0.35)"/>
    </radialGradient>
  </defs>

  <rect width="1600" height="900" fill="url(#bg)"/>
  <circle cx="1391" cy="156" r="79" fill="#f4efd4" opacity="0.34"/>

  <path d="M0 440 Q115 376 229 326 Q343 373 457 324 Q572 383 686 332 Q800 391 914 351 Q1029 379 1143 298 Q1257 373 1371 301 Q1486 372 1600 297 L1600 900 L0 900 Z" fill="hsl(61 28% 22%)" opacity="0.48"/>
  <path d="M0 536 Q115 472 229 425 Q343 483 457 434 Q572 475 686 432 Q800 508 914 475 Q1029 458 1143 404 Q1257 466 1371 398 Q1486 507 1600 470 L1600 900 L0 900 Z" fill="hsl(48 26% 35%)" opacity="0.62"/>
  <path d="M0 617 Q115 535 229 454 Q343 573 457 536 Q572 563 686 516 Q800 527 914 452 Q1029 539 1143 482 Q1257 541 1371 472 Q1486 582 1600 527 L1600 900 L0 900 Z" fill="hsl(36 24% 45%)" opacity="0.78"/>

  <g>
    <polygon points="560,479 541,633 579,633" fill="hsl(36 38% 27%)" opacity="0.79"/>
    <rect x="558" y="605" width="5" height="35" fill="hsl(304 26% 24%)" opacity="0.72"/>
    <polygon points="1168,518 1136,643 1200,643" fill="hsl(36 38% 27%)" opacity="0.79"/>
    <rect x="1164" y="620" width="8" height="29" fill="hsl(304 26% 24%)" opacity="0.72"/>
    <polygon points="1554,558 1530,652 1578,652" fill="hsl(26 36% 34%)" opacity="0.81"/>
    <rect x="1551" y="635" width="6" height="22" fill="hsl(304 26% 24%)" opacity="0.72"/>
    <polygon points="485,540 455,634 515,634" fill="hsl(36 38% 27%)" opacity="0.90"/>
    <rect x="481" y="617" width="7" height="22" fill="hsl(304 26% 24%)" opacity="0.72"/>
    <polygon points="306,527 277,655 335,655" fill="hsl(36 38% 27%)" opacity="0.90"/>
    <rect x="303" y="632" width="7" height="29" fill="hsl(304 26% 24%)" opacity="0.72"/>
    <polygon points="452,511 427,645 477,645" fill="hsl(36 38% 27%)" opacity="0.85"/>
    <rect x="449" y="621" width="6" height="31" fill="hsl(304 26% 24%)" opacity="0.72"/>
    <polygon points="56,507 33,647 79,647" fill="hsl(36 38% 27%)" opacity="0.83"/>
    <rect x="53" y="622" width="6" height="32" fill="hsl(304 26% 24%)" opacity="0.72"/>
    <polygon points="1084,487 1057,601 1111,601" fill="hsl(36 38% 27%)" opacity="0.84"/>
    <rect x="1081" y="580" width="6" height="26" fill="hsl(304 26% 24%)" opacity="0.72"/>
    <polygon points="123,464 103,615 143,615" fill="hsl(26 36% 34%)" opacity="0.78"/>
    <rect x="121" y="588" width="5" height="35" fill="hsl(304 26% 24%)" opacity="0.72"/>
    <polygon points="1070,453 1040,607 1100,607" fill="hsl(26 36% 34%)" opacity="0.82"/>
    <rect x="1066" y="579" width="7" height="35" fill="hsl(304 26% 24%)" opacity="0.72"/>
    <polygon points="942,504 917,602 967,602" fill="hsl(36 38% 27%)" opacity="0.81"/>
    <rect x="939" y="584" width="6" height="23" fill="hsl(304 26% 24%)" opacity="0.72"/>
    <polygon points="1576,447 1543,600 1609,600" fill="hsl(26 36% 34%)" opacity="0.80"/>
    <rect x="1572" y="572" width="8" height="35" fill="hsl(304 26% 24%)" opacity="0.72"/>
    <polygon points="1416,505 1396,600 1436,600" fill="hsl(36 38% 27%)" opacity="0.74"/>
    <rect x="1414" y="583" width="5" height="22" fill="hsl(304 26% 24%)" opacity="0.72"/>
    <polygon points="513,512 491,662 535,662" fill="hsl(26 36% 34%)" opacity="0.71"/>
    <rect x="510" y="635" width="5" height="35" fill="hsl(304 26% 24%)" opacity="0.72"/>
    <polygon points="1203,501 1177,634 1229,634" fill="hsl(36 38% 27%)" opacity="0.70"/>
    <rect x="1200" y="610" width="6" height="31" fill="hsl(304 26% 24%)" opacity="0.72"/>
    <polygon points="1530,484 1501,606 1559,606" fill="hsl(26 36% 34%)" opacity="0.86"/>
    <rect x="1527" y="584" width="7" height="28" fill="hsl(304 26% 24%)" opacity="0.72"/>
    <polygon points="669,492 651,622 687,622" fill="hsl(36 38% 27%)" opacity="0.76"/>
    <rect x="667" y="599" width="4" height="30" fill="hsl(304 26% 24%)" opacity="0.72"/>
    <polygon points="459,524 430,627 488,627" fill="hsl(26 36% 34%)" opacity="0.73"/>
    <rect x="456" y="608" width="7" height="24" fill="hsl(304 26% 24%)" opacity="0.72"/>
  </g>

  <rect y="646" width="1600" height="254" fill="url(#fog)"/>

  <g>
    <polygon points="864,593 817,781 911,781" fill="hsl(36 38% 27%)" opacity="0.89"/>
    <rect x="858" y="747" width="11" height="43" fill="hsl(304 26% 24%)" opacity="0.72"/>
    <polygon points="480,550 447,762 513,762" fill="hsl(26 36% 34%)" opacity="0.75"/>
    <rect x="476" y="724" width="8" height="49" fill="hsl(304 26% 24%)" opacity="0.72"/>
    <polygon points="196,564 156,764 236,764" fill="hsl(26 36% 34%)" opacity="0.88"/>
    <rect x="191" y="728" width="10" height="46" fill="hsl(304 26% 24%)" opacity="0.72"/>
    <polygon points="1081,563 1040,768 1122,768" fill="hsl(26 36% 34%)" opacity="0.76"/>
    <rect x="1076" y="731" width="10" height="47" fill="hsl(304 26% 24%)" opacity="0.72"/>
    <polygon points="918,643 867,804 969,804" fill="hsl(36 38% 27%)" opacity="0.92"/>
    <rect x="912" y="775" width="12" height="37" fill="hsl(304 26% 24%)" opacity="0.72"/>
    <polygon points="1534,528 1492,769 1576,769" fill="hsl(26 36% 34%)" opacity="0.71"/>
    <rect x="1529" y="726" width="10" height="55" fill="hsl(304 26% 24%)" opacity="0.72"/>
    <polygon points="1513,542 1474,778 1552,778" fill="hsl(36 38% 27%)" opacity="0.74"/>
    <rect x="1508" y="736" width="9" height="54" fill="hsl(304 26% 24%)" opacity="0.72"/>
    <polygon points="1321,548 1279,733 1363,733" fill="hsl(36 38% 27%)" opacity="0.78"/>
    <rect x="1316" y="700" width="10" height="43" fill="hsl(304 26% 24%)" opacity="0.72"/>
    <polygon points="1431,596 1383,818 1479,818" fill="hsl(26 36% 34%)" opacity="0.79"/>
    <rect x="1425" y="778" width="12" height="51" fill="hsl(304 26% 24%)" opacity="0.72"/>
    <polygon points="766,610 733,757 799,757" fill="hsl(36 38% 27%)" opacity="0.74"/>
    <rect x="762" y="731" width="8" height="34" fill="hsl(304 26% 24%)" opacity="0.72"/>
    <polygon points="212,558 176,753 248,753" fill="hsl(36 38% 27%)" opacity="0.79"/>
    <rect x="208" y="718" width="9" height="45" fill="hsl(304 26% 24%)" opacity="0.72"/>
    <polygon points="176,639 146,811 206,811" fill="hsl(26 36% 34%)" opacity="0.84"/>
    <rect x="172" y="780" width="7" height="40" fill="hsl(304 26% 24%)" opacity="0.72"/>
    <polygon points="577,564 541,733 613,733" fill="hsl(36 38% 27%)" opacity="0.81"/>
    <rect x="573" y="703" width="9" height="39" fill="hsl(304 26% 24%)" opacity="0.72"/>
    <polygon points="306,541 262,769 350,769" fill="hsl(26 36% 34%)" opacity="0.80"/>
    <rect x="301" y="728" width="11" height="52" fill="hsl(304 26% 24%)" opacity="0.72"/>
    <polygon points="976,555 940,732 1012,732" fill="hsl(36 38% 27%)" opacity="0.69"/>
    <rect x="972" y="700" width="9" height="41" fill="hsl(304 26% 24%)" opacity="0.72"/>
    <polygon points="1220,605 1169,777 1271,777" fill="hsl(36 38% 27%)" opacity="0.81"/>
    <rect x="1214" y="746" width="12" height="40" fill="hsl(304 26% 24%)" opacity="0.72"/>
  </g>

  <rect x="64" y="676" width="1472" height="184" rx="22" fill="#081517" opacity="0.54"/>
  <text x="118" y="726" fill="#d9e8c8" font-family="Poppins, Arial, sans-serif" font-size="28" font-weight="700">RES</text>
  <text x="118" y="792" fill="#ffffff" font-family="Poppins, Arial, sans-serif" font-size="66.0" font-weight="800">Demir RES</text>
  

  <rect width="1600" height="900" fill="url(#vignette)"/>
</svg>
