<?xml version="1.0" encoding="UTF-8"?>
<svg xmlns="http://www.w3.org/2000/svg" viewBox="0 0 1600 900" role="img" aria-label="Derince Belediye Baskanligi">
  <defs>
    <linearGradient id="bg" x1="0" y1="0" x2="0" y2="1">
      <stop offset="0%" stop-color="hsl(82 37% 24%)"/>
      <stop offset="100%" stop-color="hsl(0 31% 38%)"/>
    </linearGradient>
    <linearGradient id="fog" x1="0" y1="0" x2="1" y2="0">
      <stop offset="0%" stop-color="hsl(322 20% 84%)" stop-opacity="0.22"/>
      <stop offset="50%" stop-color="#ffffff" stop-opacity="0.08"/>
      <stop offset="100%" stop-color="hsl(322 20% 84%)" stop-opacity="0.22"/>
    </linearGradient>
    <radialGradient id="vignette" cx="50%" cy="45%" r="70%">
      <stop offset="65%" stop-color="rgba(0,0,0,0)"/>
      <stop offset="100%" stop-color="rgba(0,0,0,0.35)"/>
    </radialGradient>
  </defs>

  <rect width="1600" height="900" fill="url(#bg)"/>
  <circle cx="1449" cy="191" r="89" fill="#f4efd4" opacity="0.34"/>

  <path d="M0 411 Q115 343 229 295 Q343 376 457 332 Q572 350 686 306 Q800 346 914 299 Q1029 348 1143 292 Q1257 371 1371 326 Q1486 378 1600 330 L1600 900 L0 900 Z" fill="hsl(17 28% 26%)" opacity="0.48"/>
  <path d="M0 522 Q115 452 229 366 Q343 479 457 451 Q572 460 686 401 Q800 429 914 328 Q1029 425 1143 327 Q1257 437 1371 347 Q1486 415 1600 329 L1600 900 L0 900 Z" fill="hsl(4 26% 36%)" opacity="0.62"/>
  <path d="M0 650 Q115 545 229 463 Q343 622 457 573 Q572 555 686 459 Q800 555 914 477 Q1029 566 1143 477 Q1257 576 1371 524 Q1486 575 1600 478 L1600 900 L0 900 Z" fill="hsl(352 24% 44%)" opacity="0.78"/>

  <g>
    <polygon points="182,484 160,623 204,623" fill="hsl(342 36% 34%)" opacity="0.70"/>
    <rect x="179" y="598" width="5" height="32" fill="hsl(260 26% 24%)" opacity="0.72"/>
    <polygon points="691,494 660,658 722,658" fill="hsl(352 38% 26%)" opacity="0.83"/>
    <rect x="687" y="628" width="7" height="38" fill="hsl(260 26% 24%)" opacity="0.72"/>
    <polygon points="1519,505 1498,653 1540,653" fill="hsl(352 38% 26%)" opacity="0.68"/>
    <rect x="1516" y="626" width="5" height="34" fill="hsl(260 26% 24%)" opacity="0.72"/>
    <polygon points="397,523 364,636 430,636" fill="hsl(342 36% 34%)" opacity="0.85"/>
    <rect x="393" y="616" width="8" height="26" fill="hsl(260 26% 24%)" opacity="0.72"/>
    <polygon points="804,524 784,616 824,616" fill="hsl(342 36% 34%)" opacity="0.78"/>
    <rect x="802" y="599" width="5" height="21" fill="hsl(260 26% 24%)" opacity="0.72"/>
    <polygon points="864,495 838,638 890,638" fill="hsl(352 38% 26%)" opacity="0.88"/>
    <rect x="861" y="612" width="6" height="33" fill="hsl(260 26% 24%)" opacity="0.72"/>
    <polygon points="776,494 750,628 802,628" fill="hsl(352 38% 26%)" opacity="0.73"/>
    <rect x="773" y="604" width="6" height="31" fill="hsl(260 26% 24%)" opacity="0.72"/>
    <polygon points="1332,516 1311,651 1353,651" fill="hsl(352 38% 26%)" opacity="0.84"/>
    <rect x="1329" y="627" width="5" height="31" fill="hsl(260 26% 24%)" opacity="0.72"/>
    <polygon points="1206,450 1176,615 1236,615" fill="hsl(352 38% 26%)" opacity="0.87"/>
    <rect x="1202" y="585" width="7" height="38" fill="hsl(260 26% 24%)" opacity="0.72"/>
    <polygon points="598,446 576,602 620,602" fill="hsl(352 38% 26%)" opacity="0.85"/>
    <rect x="595" y="574" width="5" height="36" fill="hsl(260 26% 24%)" opacity="0.72"/>
    <polygon points="406,481 375,625 437,625" fill="hsl(342 36% 34%)" opacity="0.71"/>
    <rect x="402" y="599" width="7" height="33" fill="hsl(260 26% 24%)" opacity="0.72"/>
    <polygon points="477,503 459,634 495,634" fill="hsl(342 36% 34%)" opacity="0.77"/>
    <rect x="475" y="610" width="4" height="30" fill="hsl(260 26% 24%)" opacity="0.72"/>
    <polygon points="122,477 96,630 148,630" fill="hsl(352 38% 26%)" opacity="0.76"/>
    <rect x="119" y="602" width="6" height="35" fill="hsl(260 26% 24%)" opacity="0.72"/>
    <polygon points="1321,506 1299,658 1343,658" fill="hsl(352 38% 26%)" opacity="0.72"/>
    <rect x="1318" y="631" width="5" height="35" fill="hsl(260 26% 24%)" opacity="0.72"/>
    <polygon points="1079,438 1061,604 1097,604" fill="hsl(352 38% 26%)" opacity="0.90"/>
    <rect x="1077" y="574" width="4" height="38" fill="hsl(260 26% 24%)" opacity="0.72"/>
    <polygon points="841,487 818,608 864,608" fill="hsl(342 36% 34%)" opacity="0.80"/>
    <rect x="838" y="586" width="6" height="28" fill="hsl(260 26% 24%)" opacity="0.72"/>
    <polygon points="635,548 611,656 659,656" fill="hsl(342 36% 34%)" opacity="0.81"/>
    <rect x="632" y="637" width="6" height="25" fill="hsl(260 26% 24%)" opacity="0.72"/>
    <polygon points="307,523 280,630 334,630" fill="hsl(352 38% 26%)" opacity="0.91"/>
    <rect x="304" y="611" width="6" height="25" fill="hsl(260 26% 24%)" opacity="0.72"/>
  </g>

  <rect y="646" width="1600" height="254" fill="url(#fog)"/>

  <g>
    <polygon points="458,620 408,793 508,793" fill="hsl(342 36% 34%)" opacity="0.79"/>
    <rect x="452" y="762" width="12" height="40" fill="hsl(260 26% 24%)" opacity="0.72"/>
    <polygon points="933,584 895,791 971,791" fill="hsl(352 38% 26%)" opacity="0.71"/>
    <rect x="928" y="754" width="9" height="48" fill="hsl(260 26% 24%)" opacity="0.72"/>
    <polygon points="257,619 205,761 309,761" fill="hsl(342 36% 34%)" opacity="0.84"/>
    <rect x="251" y="735" width="12" height="33" fill="hsl(260 26% 24%)" opacity="0.72"/>
    <polygon points="1179,589 1138,808 1220,808" fill="hsl(352 38% 26%)" opacity="0.85"/>
    <rect x="1174" y="769" width="10" height="50" fill="hsl(260 26% 24%)" opacity="0.72"/>
    <polygon points="100,575 64,738 136,738" fill="hsl(352 38% 26%)" opacity="0.77"/>
    <rect x="96" y="709" width="9" height="37" fill="hsl(260 26% 24%)" opacity="0.72"/>
    <polygon points="88,537 45,785 131,785" fill="hsl(342 36% 34%)" opacity="0.76"/>
    <rect x="83" y="740" width="10" height="57" fill="hsl(260 26% 24%)" opacity="0.72"/>
    <polygon points="162,552 114,734 210,734" fill="hsl(352 38% 26%)" opacity="0.77"/>
    <rect x="156" y="701" width="12" height="42" fill="hsl(260 26% 24%)" opacity="0.72"/>
    <polygon points="718,585 671,770 765,770" fill="hsl(342 36% 34%)" opacity="0.91"/>
    <rect x="712" y="737" width="11" height="43" fill="hsl(260 26% 24%)" opacity="0.72"/>
    <polygon points="1059,606 1019,799 1099,799" fill="hsl(342 36% 34%)" opacity="0.84"/>
    <rect x="1054" y="764" width="10" height="44" fill="hsl(260 26% 24%)" opacity="0.72"/>
    <polygon points="779,592 725,820 833,820" fill="hsl(342 36% 34%)" opacity="0.80"/>
    <rect x="773" y="779" width="13" height="52" fill="hsl(260 26% 24%)" opacity="0.72"/>
    <polygon points="178,533 128,778 228,778" fill="hsl(342 36% 34%)" opacity="0.89"/>
    <rect x="172" y="734" width="12" height="56" fill="hsl(260 26% 24%)" opacity="0.72"/>
    <polygon points="755,632 701,785 809,785" fill="hsl(352 38% 26%)" opacity="0.78"/>
    <rect x="749" y="757" width="13" height="35" fill="hsl(260 26% 24%)" opacity="0.72"/>
    <polygon points="1275,579 1230,778 1320,778" fill="hsl(342 36% 34%)" opacity="0.72"/>
    <rect x="1270" y="742" width="11" height="46" fill="hsl(260 26% 24%)" opacity="0.72"/>
    <polygon points="1256,585 1202,772 1310,772" fill="hsl(352 38% 26%)" opacity="0.70"/>
    <rect x="1250" y="738" width="13" height="43" fill="hsl(260 26% 24%)" opacity="0.72"/>
    <polygon points="1416,571 1380,763 1452,763" fill="hsl(352 38% 26%)" opacity="0.74"/>
    <rect x="1412" y="728" width="9" height="44" fill="hsl(260 26% 24%)" opacity="0.72"/>
    <polygon points="812,559 772,761 852,761" fill="hsl(342 36% 34%)" opacity="0.79"/>
    <rect x="807" y="725" width="10" height="46" fill="hsl(260 26% 24%)" opacity="0.72"/>
  </g>

  <rect x="64" y="676" width="1472" height="184" rx="22" fill="#081517" opacity="0.54"/>
  <text x="118" y="726" fill="#d9e8c8" font-family="Poppins, Arial, sans-serif" font-size="28" font-weight="700">Devlet</text>
  <text x="118" y="792" fill="#ffffff" font-family="Poppins, Arial, sans-serif" font-size="59.7" font-weight="800">Derince Belediye Baskanligi</text>
  

  <rect width="1600" height="900" fill="url(#vignette)"/>
</svg>
