<?xml version="1.0" encoding="UTF-8"?>
<svg xmlns="http://www.w3.org/2000/svg" viewBox="0 0 1600 900" role="img" aria-label="Devin Su">
  <defs>
    <linearGradient id="bg" x1="0" y1="0" x2="0" y2="1">
      <stop offset="0%" stop-color="hsl(25 35% 20%)"/>
      <stop offset="100%" stop-color="hsl(303 31% 45%)"/>
    </linearGradient>
    <linearGradient id="fog" x1="0" y1="0" x2="1" y2="0">
      <stop offset="0%" stop-color="hsl(265 20% 84%)" stop-opacity="0.22"/>
      <stop offset="50%" stop-color="#ffffff" stop-opacity="0.08"/>
      <stop offset="100%" stop-color="hsl(265 20% 84%)" stop-opacity="0.22"/>
    </linearGradient>
    <radialGradient id="vignette" cx="50%" cy="45%" r="70%">
      <stop offset="65%" stop-color="rgba(0,0,0,0)"/>
      <stop offset="100%" stop-color="rgba(0,0,0,0.35)"/>
    </radialGradient>
  </defs>

  <rect width="1600" height="900" fill="url(#bg)"/>
  <circle cx="1283" cy="270" r="70" fill="#f4efd4" opacity="0.34"/>

  <path d="M0 440 Q115 387 229 343 Q343 392 457 349 Q572 420 686 388 Q800 383 914 314 Q1029 410 1143 396 Q1257 413 1371 367 Q1486 401 1600 351 L1600 900 L0 900 Z" fill="hsl(320 28% 23%)" opacity="0.48"/>
  <path d="M0 535 Q115 461 229 378 Q343 503 457 470 Q572 509 686 466 Q800 514 914 471 Q1029 428 1143 345 Q1257 469 1371 419 Q1486 464 1600 378 L1600 900 L0 900 Z" fill="hsl(307 26% 32%)" opacity="0.62"/>
  <path d="M0 616 Q115 547 229 474 Q343 547 457 469 Q572 537 686 477 Q800 577 914 544 Q1029 555 1143 478 Q1257 545 1371 472 Q1486 549 1600 496 L1600 900 L0 900 Z" fill="hsl(295 24% 42%)" opacity="0.78"/>

  <g>
    <polygon points="703,557 676,651 730,651" fill="hsl(285 36% 34%)" opacity="0.73"/>
    <rect x="700" y="634" width="6" height="22" fill="hsl(203 26% 24%)" opacity="0.72"/>
    <polygon points="1464,500 1441,626 1487,626" fill="hsl(295 38% 25%)" opacity="0.82"/>
    <rect x="1461" y="603" width="6" height="29" fill="hsl(203 26% 24%)" opacity="0.72"/>
    <polygon points="804,506 781,662 827,662" fill="hsl(285 36% 34%)" opacity="0.78"/>
    <rect x="801" y="634" width="6" height="36" fill="hsl(203 26% 24%)" opacity="0.72"/>
    <polygon points="1430,491 1398,622 1462,622" fill="hsl(295 38% 25%)" opacity="0.79"/>
    <rect x="1426" y="598" width="8" height="30" fill="hsl(203 26% 24%)" opacity="0.72"/>
    <polygon points="166,448 139,608 193,608" fill="hsl(295 38% 25%)" opacity="0.86"/>
    <rect x="163" y="579" width="6" height="37" fill="hsl(203 26% 24%)" opacity="0.72"/>
    <polygon points="879,504 848,625 910,625" fill="hsl(285 36% 34%)" opacity="0.77"/>
    <rect x="875" y="603" width="7" height="28" fill="hsl(203 26% 24%)" opacity="0.72"/>
    <polygon points="516,493 483,637 549,637" fill="hsl(285 36% 34%)" opacity="0.76"/>
    <rect x="512" y="611" width="8" height="33" fill="hsl(203 26% 24%)" opacity="0.72"/>
    <polygon points="271,477 251,607 291,607" fill="hsl(295 38% 25%)" opacity="0.76"/>
    <rect x="269" y="584" width="5" height="30" fill="hsl(203 26% 24%)" opacity="0.72"/>
    <polygon points="744,487 721,641 767,641" fill="hsl(295 38% 25%)" opacity="0.71"/>
    <rect x="741" y="613" width="6" height="35" fill="hsl(203 26% 24%)" opacity="0.72"/>
    <polygon points="1543,519 1521,644 1565,644" fill="hsl(295 38% 25%)" opacity="0.72"/>
    <rect x="1540" y="621" width="5" height="29" fill="hsl(203 26% 24%)" opacity="0.72"/>
    <polygon points="187,508 155,642 219,642" fill="hsl(295 38% 25%)" opacity="0.87"/>
    <rect x="183" y="618" width="8" height="31" fill="hsl(203 26% 24%)" opacity="0.72"/>
    <polygon points="365,552 343,644 387,644" fill="hsl(295 38% 25%)" opacity="0.88"/>
    <rect x="362" y="627" width="5" height="21" fill="hsl(203 26% 24%)" opacity="0.72"/>
    <polygon points="1104,523 1081,635 1127,635" fill="hsl(295 38% 25%)" opacity="0.75"/>
    <rect x="1101" y="615" width="6" height="26" fill="hsl(203 26% 24%)" opacity="0.72"/>
    <polygon points="1409,532 1376,624 1442,624" fill="hsl(285 36% 34%)" opacity="0.74"/>
    <rect x="1405" y="607" width="8" height="21" fill="hsl(203 26% 24%)" opacity="0.72"/>
    <polygon points="1553,562 1523,662 1583,662" fill="hsl(295 38% 25%)" opacity="0.76"/>
    <rect x="1549" y="644" width="7" height="23" fill="hsl(203 26% 24%)" opacity="0.72"/>
    <polygon points="721,485 700,624 742,624" fill="hsl(295 38% 25%)" opacity="0.79"/>
    <rect x="718" y="599" width="5" height="32" fill="hsl(203 26% 24%)" opacity="0.72"/>
    <polygon points="1167,542 1138,642 1196,642" fill="hsl(285 36% 34%)" opacity="0.91"/>
    <rect x="1164" y="624" width="7" height="23" fill="hsl(203 26% 24%)" opacity="0.72"/>
    <polygon points="543,471 523,631 563,631" fill="hsl(295 38% 25%)" opacity="0.81"/>
    <rect x="541" y="602" width="5" height="37" fill="hsl(203 26% 24%)" opacity="0.72"/>
  </g>

  <rect y="646" width="1600" height="254" fill="url(#fog)"/>

  <g>
    <polygon points="1235,588 1200,742 1270,742" fill="hsl(285 36% 34%)" opacity="0.79"/>
    <rect x="1231" y="714" width="8" height="35" fill="hsl(203 26% 24%)" opacity="0.72"/>
    <polygon points="956,536 909,763 1003,763" fill="hsl(295 38% 25%)" opacity="0.73"/>
    <rect x="950" y="722" width="11" height="52" fill="hsl(203 26% 24%)" opacity="0.72"/>
    <polygon points="747,627 713,810 781,810" fill="hsl(295 38% 25%)" opacity="0.73"/>
    <rect x="743" y="777" width="8" height="42" fill="hsl(203 26% 24%)" opacity="0.72"/>
    <polygon points="927,617 880,817 974,817" fill="hsl(295 38% 25%)" opacity="0.69"/>
    <rect x="921" y="781" width="11" height="46" fill="hsl(203 26% 24%)" opacity="0.72"/>
    <polygon points="877,618 845,787 909,787" fill="hsl(295 38% 25%)" opacity="0.70"/>
    <rect x="873" y="757" width="8" height="39" fill="hsl(203 26% 24%)" opacity="0.72"/>
    <polygon points="374,543 328,785 420,785" fill="hsl(285 36% 34%)" opacity="0.73"/>
    <rect x="368" y="741" width="11" height="56" fill="hsl(203 26% 24%)" opacity="0.72"/>
    <polygon points="683,562 630,778 736,778" fill="hsl(285 36% 34%)" opacity="0.79"/>
    <rect x="677" y="739" width="13" height="50" fill="hsl(203 26% 24%)" opacity="0.72"/>
    <polygon points="1013,552 961,789 1065,789" fill="hsl(295 38% 25%)" opacity="0.71"/>
    <rect x="1007" y="746" width="12" height="55" fill="hsl(203 26% 24%)" opacity="0.72"/>
    <polygon points="200,556 159,766 241,766" fill="hsl(285 36% 34%)" opacity="0.78"/>
    <rect x="195" y="728" width="10" height="48" fill="hsl(203 26% 24%)" opacity="0.72"/>
    <polygon points="1216,588 1177,738 1255,738" fill="hsl(295 38% 25%)" opacity="0.85"/>
    <rect x="1211" y="711" width="9" height="35" fill="hsl(203 26% 24%)" opacity="0.72"/>
    <polygon points="531,632 488,802 574,802" fill="hsl(295 38% 25%)" opacity="0.78"/>
    <rect x="526" y="771" width="10" height="39" fill="hsl(203 26% 24%)" opacity="0.72"/>
    <polygon points="1253,639 1201,797 1305,797" fill="hsl(285 36% 34%)" opacity="0.87"/>
    <rect x="1247" y="769" width="12" height="36" fill="hsl(203 26% 24%)" opacity="0.72"/>
    <polygon points="1434,589 1387,786 1481,786" fill="hsl(295 38% 25%)" opacity="0.82"/>
    <rect x="1428" y="751" width="11" height="45" fill="hsl(203 26% 24%)" opacity="0.72"/>
    <polygon points="1509,531 1458,731 1560,731" fill="hsl(285 36% 34%)" opacity="0.80"/>
    <rect x="1503" y="695" width="12" height="46" fill="hsl(203 26% 24%)" opacity="0.72"/>
    <polygon points="832,500 790,740 874,740" fill="hsl(295 38% 25%)" opacity="0.68"/>
    <rect x="827" y="697" width="10" height="55" fill="hsl(203 26% 24%)" opacity="0.72"/>
    <polygon points="1526,545 1484,757 1568,757" fill="hsl(285 36% 34%)" opacity="0.83"/>
    <rect x="1521" y="719" width="10" height="49" fill="hsl(203 26% 24%)" opacity="0.72"/>
  </g>

  <rect x="64" y="676" width="1472" height="184" rx="22" fill="#081517" opacity="0.54"/>
  <text x="118" y="726" fill="#d9e8c8" font-family="Poppins, Arial, sans-serif" font-size="28" font-weight="700">Su Izinleri</text>
  <text x="118" y="792" fill="#ffffff" font-family="Poppins, Arial, sans-serif" font-size="66.0" font-weight="800">Devin Su</text>
  

  <rect width="1600" height="900" fill="url(#vignette)"/>
</svg>
