<?xml version="1.0" encoding="UTF-8"?>
<svg xmlns="http://www.w3.org/2000/svg" viewBox="0 0 1600 900" role="img" aria-label="DSI">
  <defs>
    <linearGradient id="bg" x1="0" y1="0" x2="0" y2="1">
      <stop offset="0%" stop-color="hsl(248 35% 21%)"/>
      <stop offset="100%" stop-color="hsl(166 36% 38%)"/>
    </linearGradient>
    <linearGradient id="fog" x1="0" y1="0" x2="1" y2="0">
      <stop offset="0%" stop-color="hsl(128 20% 84%)" stop-opacity="0.22"/>
      <stop offset="50%" stop-color="#ffffff" stop-opacity="0.08"/>
      <stop offset="100%" stop-color="hsl(128 20% 84%)" stop-opacity="0.22"/>
    </linearGradient>
    <radialGradient id="vignette" cx="50%" cy="45%" r="70%">
      <stop offset="65%" stop-color="rgba(0,0,0,0)"/>
      <stop offset="100%" stop-color="rgba(0,0,0,0.35)"/>
    </radialGradient>
  </defs>

  <rect width="1600" height="900" fill="url(#bg)"/>
  <circle cx="1168" cy="114" r="81" fill="#f4efd4" opacity="0.34"/>

  <path d="M0 411 Q115 319 229 248 Q343 338 457 274 Q572 380 686 333 Q800 366 914 335 Q1029 335 1143 278 Q1257 386 1371 358 Q1486 385 1600 342 L1600 900 L0 900 Z" fill="hsl(183 28% 27%)" opacity="0.48"/>
  <path d="M0 540 Q115 514 229 477 Q343 490 457 447 Q572 504 686 445 Q800 470 914 388 Q1029 497 1143 444 Q1257 485 1371 435 Q1486 494 1600 433 L1600 900 L0 900 Z" fill="hsl(170 26% 34%)" opacity="0.62"/>
  <path d="M0 622 Q115 561 229 514 Q343 547 457 478 Q572 529 686 456 Q800 535 914 455 Q1029 537 1143 472 Q1257 579 1371 556 Q1486 578 1600 521 L1600 900 L0 900 Z" fill="hsl(158 24% 37%)" opacity="0.78"/>

  <g>
    <polygon points="407,460 386,622 428,622" fill="hsl(158 38% 28%)" opacity="0.82"/>
    <rect x="404" y="593" width="5" height="37" fill="hsl(66 26% 24%)" opacity="0.72"/>
    <polygon points="499,527 472,625 526,625" fill="hsl(158 38% 28%)" opacity="0.76"/>
    <rect x="496" y="607" width="6" height="23" fill="hsl(66 26% 24%)" opacity="0.72"/>
    <polygon points="764,501 735,630 793,630" fill="hsl(158 38% 28%)" opacity="0.75"/>
    <rect x="761" y="607" width="7" height="30" fill="hsl(66 26% 24%)" opacity="0.72"/>
    <polygon points="1049,516 1022,613 1076,613" fill="hsl(158 38% 28%)" opacity="0.68"/>
    <rect x="1046" y="596" width="6" height="22" fill="hsl(66 26% 24%)" opacity="0.72"/>
    <polygon points="1339,558 1305,663 1373,663" fill="hsl(148 36% 35%)" opacity="0.76"/>
    <rect x="1335" y="644" width="8" height="24" fill="hsl(66 26% 24%)" opacity="0.72"/>
    <polygon points="708,478 689,617 727,617" fill="hsl(158 38% 28%)" opacity="0.79"/>
    <rect x="706" y="592" width="5" height="32" fill="hsl(66 26% 24%)" opacity="0.72"/>
    <polygon points="1379,529 1347,621 1411,621" fill="hsl(148 36% 35%)" opacity="0.84"/>
    <rect x="1375" y="604" width="8" height="21" fill="hsl(66 26% 24%)" opacity="0.72"/>
    <polygon points="1183,502 1153,620 1213,620" fill="hsl(158 38% 28%)" opacity="0.74"/>
    <rect x="1179" y="599" width="7" height="27" fill="hsl(66 26% 24%)" opacity="0.72"/>
    <polygon points="912,526 881,633 943,633" fill="hsl(148 36% 35%)" opacity="0.88"/>
    <rect x="908" y="614" width="7" height="25" fill="hsl(66 26% 24%)" opacity="0.72"/>
    <polygon points="891,525 872,645 910,645" fill="hsl(158 38% 28%)" opacity="0.78"/>
    <rect x="889" y="623" width="5" height="28" fill="hsl(66 26% 24%)" opacity="0.72"/>
    <polygon points="251,507 219,637 283,637" fill="hsl(158 38% 28%)" opacity="0.88"/>
    <rect x="247" y="614" width="8" height="30" fill="hsl(66 26% 24%)" opacity="0.72"/>
    <polygon points="1451,493 1429,629 1473,629" fill="hsl(148 36% 35%)" opacity="0.82"/>
    <rect x="1448" y="605" width="5" height="31" fill="hsl(66 26% 24%)" opacity="0.72"/>
    <polygon points="1235,520 1204,663 1266,663" fill="hsl(148 36% 35%)" opacity="0.89"/>
    <rect x="1231" y="637" width="7" height="33" fill="hsl(66 26% 24%)" opacity="0.72"/>
    <polygon points="402,526 375,645 429,645" fill="hsl(148 36% 35%)" opacity="0.78"/>
    <rect x="399" y="624" width="6" height="27" fill="hsl(66 26% 24%)" opacity="0.72"/>
    <polygon points="791,479 769,642 813,642" fill="hsl(148 36% 35%)" opacity="0.74"/>
    <rect x="788" y="613" width="5" height="37" fill="hsl(66 26% 24%)" opacity="0.72"/>
    <polygon points="262,477 233,635 291,635" fill="hsl(148 36% 35%)" opacity="0.73"/>
    <rect x="259" y="607" width="7" height="36" fill="hsl(66 26% 24%)" opacity="0.72"/>
    <polygon points="1357,548 1336,662 1378,662" fill="hsl(158 38% 28%)" opacity="0.78"/>
    <rect x="1354" y="641" width="5" height="26" fill="hsl(66 26% 24%)" opacity="0.72"/>
    <polygon points="914,497 883,655 945,655" fill="hsl(148 36% 35%)" opacity="0.89"/>
    <rect x="910" y="627" width="7" height="36" fill="hsl(66 26% 24%)" opacity="0.72"/>
  </g>

  <rect y="646" width="1600" height="254" fill="url(#fog)"/>

  <g>
    <polygon points="198,519 155,751 241,751" fill="hsl(158 38% 28%)" opacity="0.92"/>
    <rect x="193" y="709" width="10" height="53" fill="hsl(66 26% 24%)" opacity="0.72"/>
    <polygon points="1344,626 1296,792 1392,792" fill="hsl(148 36% 35%)" opacity="0.70"/>
    <rect x="1338" y="762" width="12" height="38" fill="hsl(66 26% 24%)" opacity="0.72"/>
    <polygon points="190,604 161,809 219,809" fill="hsl(158 38% 28%)" opacity="0.71"/>
    <rect x="187" y="772" width="7" height="47" fill="hsl(66 26% 24%)" opacity="0.72"/>
    <polygon points="852,650 798,815 906,815" fill="hsl(148 36% 35%)" opacity="0.72"/>
    <rect x="846" y="785" width="13" height="38" fill="hsl(66 26% 24%)" opacity="0.72"/>
    <polygon points="246,602 200,795 292,795" fill="hsl(148 36% 35%)" opacity="0.72"/>
    <rect x="240" y="760" width="11" height="44" fill="hsl(66 26% 24%)" opacity="0.72"/>
    <polygon points="208,589 155,769 261,769" fill="hsl(158 38% 28%)" opacity="0.90"/>
    <rect x="202" y="737" width="13" height="41" fill="hsl(66 26% 24%)" opacity="0.72"/>
    <polygon points="1029,636 989,780 1069,780" fill="hsl(148 36% 35%)" opacity="0.79"/>
    <rect x="1024" y="754" width="10" height="33" fill="hsl(66 26% 24%)" opacity="0.72"/>
    <polygon points="452,535 418,755 486,755" fill="hsl(148 36% 35%)" opacity="0.82"/>
    <rect x="448" y="715" width="8" height="51" fill="hsl(66 26% 24%)" opacity="0.72"/>
    <polygon points="623,488 593,731 653,731" fill="hsl(158 38% 28%)" opacity="0.92"/>
    <rect x="619" y="687" width="7" height="56" fill="hsl(66 26% 24%)" opacity="0.72"/>
    <polygon points="523,560 474,770 572,770" fill="hsl(158 38% 28%)" opacity="0.76"/>
    <rect x="517" y="732" width="12" height="48" fill="hsl(66 26% 24%)" opacity="0.72"/>
    <polygon points="279,627 247,770 311,770" fill="hsl(158 38% 28%)" opacity="0.72"/>
    <rect x="275" y="744" width="8" height="33" fill="hsl(66 26% 24%)" opacity="0.72"/>
    <polygon points="182,553 152,737 212,737" fill="hsl(148 36% 35%)" opacity="0.81"/>
    <rect x="178" y="704" width="7" height="42" fill="hsl(66 26% 24%)" opacity="0.72"/>
    <polygon points="141,619 98,781 184,781" fill="hsl(158 38% 28%)" opacity="0.91"/>
    <rect x="136" y="752" width="10" height="37" fill="hsl(66 26% 24%)" opacity="0.72"/>
    <polygon points="794,583 742,754 846,754" fill="hsl(158 38% 28%)" opacity="0.81"/>
    <rect x="788" y="723" width="12" height="39" fill="hsl(66 26% 24%)" opacity="0.72"/>
    <polygon points="647,604 596,748 698,748" fill="hsl(148 36% 35%)" opacity="0.92"/>
    <rect x="641" y="722" width="12" height="33" fill="hsl(66 26% 24%)" opacity="0.72"/>
    <polygon points="1524,565 1472,804 1576,804" fill="hsl(148 36% 35%)" opacity="0.77"/>
    <rect x="1518" y="761" width="12" height="55" fill="hsl(66 26% 24%)" opacity="0.72"/>
  </g>

  <rect x="64" y="676" width="1472" height="184" rx="22" fill="#081517" opacity="0.54"/>
  <text x="118" y="726" fill="#d9e8c8" font-family="Poppins, Arial, sans-serif" font-size="28" font-weight="700">Devlet</text>
  <text x="118" y="792" fill="#ffffff" font-family="Poppins, Arial, sans-serif" font-size="66.0" font-weight="800">DSI</text>
  

  <rect width="1600" height="900" fill="url(#vignette)"/>
</svg>
