<?xml version="1.0" encoding="UTF-8"?>
<svg xmlns="http://www.w3.org/2000/svg" viewBox="0 0 1600 900" role="img" aria-label="EGM">
  <defs>
    <linearGradient id="bg" x1="0" y1="0" x2="0" y2="1">
      <stop offset="0%" stop-color="hsl(334 35% 25%)"/>
      <stop offset="100%" stop-color="hsl(252 37% 39%)"/>
    </linearGradient>
    <linearGradient id="fog" x1="0" y1="0" x2="1" y2="0">
      <stop offset="0%" stop-color="hsl(214 20% 84%)" stop-opacity="0.22"/>
      <stop offset="50%" stop-color="#ffffff" stop-opacity="0.08"/>
      <stop offset="100%" stop-color="hsl(214 20% 84%)" stop-opacity="0.22"/>
    </linearGradient>
    <radialGradient id="vignette" cx="50%" cy="45%" r="70%">
      <stop offset="65%" stop-color="rgba(0,0,0,0)"/>
      <stop offset="100%" stop-color="rgba(0,0,0,0.35)"/>
    </radialGradient>
  </defs>

  <rect width="1600" height="900" fill="url(#bg)"/>
  <circle cx="1149" cy="176" r="83" fill="#f4efd4" opacity="0.34"/>

  <path d="M0 433 Q115 409 229 373 Q343 361 457 277 Q572 363 686 276 Q800 356 914 280 Q1029 369 1143 299 Q1257 357 1371 281 Q1486 403 1600 358 L1600 900 L0 900 Z" fill="hsl(269 28% 27%)" opacity="0.48"/>
  <path d="M0 519 Q115 449 229 388 Q343 490 457 444 Q572 471 686 410 Q800 469 914 423 Q1029 456 1143 381 Q1257 494 1371 472 Q1486 460 1600 399 L1600 900 L0 900 Z" fill="hsl(256 26% 34%)" opacity="0.62"/>
  <path d="M0 655 Q115 580 229 494 Q343 555 457 476 Q572 605 686 557 Q800 589 914 517 Q1029 583 1143 510 Q1257 600 1371 523 Q1486 621 1600 577 L1600 900 L0 900 Z" fill="hsl(244 24% 42%)" opacity="0.78"/>

  <g>
    <polygon points="847,534 818,649 876,649" fill="hsl(234 36% 32%)" opacity="0.68"/>
    <rect x="844" y="628" width="7" height="26" fill="hsl(152 26% 24%)" opacity="0.72"/>
    <polygon points="829,478 809,634 849,634" fill="hsl(234 36% 32%)" opacity="0.90"/>
    <rect x="827" y="606" width="5" height="36" fill="hsl(152 26% 24%)" opacity="0.72"/>
    <polygon points="1131,513 1112,652 1150,652" fill="hsl(244 38% 25%)" opacity="0.91"/>
    <rect x="1129" y="627" width="5" height="32" fill="hsl(152 26% 24%)" opacity="0.72"/>
    <polygon points="486,493 457,600 515,600" fill="hsl(234 36% 32%)" opacity="0.87"/>
    <rect x="483" y="581" width="7" height="25" fill="hsl(152 26% 24%)" opacity="0.72"/>
    <polygon points="1510,524 1484,622 1536,622" fill="hsl(234 36% 32%)" opacity="0.73"/>
    <rect x="1507" y="604" width="6" height="23" fill="hsl(152 26% 24%)" opacity="0.72"/>
    <polygon points="602,483 579,605 625,605" fill="hsl(244 38% 25%)" opacity="0.88"/>
    <rect x="599" y="583" width="6" height="28" fill="hsl(152 26% 24%)" opacity="0.72"/>
    <polygon points="337,525 304,621 370,621" fill="hsl(234 36% 32%)" opacity="0.71"/>
    <rect x="333" y="604" width="8" height="22" fill="hsl(152 26% 24%)" opacity="0.72"/>
    <polygon points="927,491 908,645 946,645" fill="hsl(244 38% 25%)" opacity="0.85"/>
    <rect x="925" y="617" width="5" height="35" fill="hsl(152 26% 24%)" opacity="0.72"/>
    <polygon points="81,498 51,651 111,651" fill="hsl(234 36% 32%)" opacity="0.70"/>
    <rect x="77" y="623" width="7" height="35" fill="hsl(152 26% 24%)" opacity="0.72"/>
    <polygon points="1174,558 1143,653 1205,653" fill="hsl(244 38% 25%)" opacity="0.83"/>
    <rect x="1170" y="636" width="7" height="22" fill="hsl(152 26% 24%)" opacity="0.72"/>
    <polygon points="739,485 709,614 769,614" fill="hsl(244 38% 25%)" opacity="0.68"/>
    <rect x="735" y="591" width="7" height="30" fill="hsl(152 26% 24%)" opacity="0.72"/>
    <polygon points="1089,523 1059,636 1119,636" fill="hsl(244 38% 25%)" opacity="0.76"/>
    <rect x="1085" y="616" width="7" height="26" fill="hsl(152 26% 24%)" opacity="0.72"/>
    <polygon points="1065,506 1031,626 1099,626" fill="hsl(234 36% 32%)" opacity="0.75"/>
    <rect x="1061" y="604" width="8" height="28" fill="hsl(152 26% 24%)" opacity="0.72"/>
    <polygon points="172,460 144,625 200,625" fill="hsl(234 36% 32%)" opacity="0.76"/>
    <rect x="169" y="595" width="7" height="38" fill="hsl(152 26% 24%)" opacity="0.72"/>
    <polygon points="112,517 91,617 133,617" fill="hsl(244 38% 25%)" opacity="0.72"/>
    <rect x="109" y="599" width="5" height="23" fill="hsl(152 26% 24%)" opacity="0.72"/>
    <polygon points="1226,482 1201,639 1251,639" fill="hsl(244 38% 25%)" opacity="0.73"/>
    <rect x="1223" y="611" width="6" height="36" fill="hsl(152 26% 24%)" opacity="0.72"/>
    <polygon points="266,529 247,647 285,647" fill="hsl(234 36% 32%)" opacity="0.86"/>
    <rect x="264" y="626" width="5" height="27" fill="hsl(152 26% 24%)" opacity="0.72"/>
    <polygon points="1160,528 1133,650 1187,650" fill="hsl(244 38% 25%)" opacity="0.84"/>
    <rect x="1157" y="628" width="6" height="28" fill="hsl(152 26% 24%)" opacity="0.72"/>
  </g>

  <rect y="646" width="1600" height="254" fill="url(#fog)"/>

  <g>
    <polygon points="224,521 184,751 264,751" fill="hsl(234 36% 32%)" opacity="0.89"/>
    <rect x="219" y="710" width="10" height="53" fill="hsl(152 26% 24%)" opacity="0.72"/>
    <polygon points="1548,571 1513,771 1583,771" fill="hsl(244 38% 25%)" opacity="0.91"/>
    <rect x="1544" y="735" width="8" height="46" fill="hsl(152 26% 24%)" opacity="0.72"/>
    <polygon points="150,647 112,807 188,807" fill="hsl(234 36% 32%)" opacity="0.72"/>
    <rect x="145" y="778" width="9" height="37" fill="hsl(152 26% 24%)" opacity="0.72"/>
    <polygon points="1115,618 1064,769 1166,769" fill="hsl(234 36% 32%)" opacity="0.84"/>
    <rect x="1109" y="742" width="12" height="35" fill="hsl(152 26% 24%)" opacity="0.72"/>
    <polygon points="587,657 539,790 635,790" fill="hsl(244 38% 25%)" opacity="0.71"/>
    <rect x="581" y="766" width="12" height="31" fill="hsl(152 26% 24%)" opacity="0.72"/>
    <polygon points="726,588 695,809 757,809" fill="hsl(244 38% 25%)" opacity="0.91"/>
    <rect x="722" y="769" width="7" height="51" fill="hsl(152 26% 24%)" opacity="0.72"/>
    <polygon points="1553,597 1511,763 1595,763" fill="hsl(234 36% 32%)" opacity="0.91"/>
    <rect x="1548" y="733" width="10" height="38" fill="hsl(152 26% 24%)" opacity="0.72"/>
    <polygon points="435,545 398,756 472,756" fill="hsl(244 38% 25%)" opacity="0.72"/>
    <rect x="431" y="718" width="9" height="49" fill="hsl(152 26% 24%)" opacity="0.72"/>
    <polygon points="40,642 -9,817 89,817" fill="hsl(234 36% 32%)" opacity="0.79"/>
    <rect x="34" y="785" width="12" height="40" fill="hsl(152 26% 24%)" opacity="0.72"/>
    <polygon points="253,570 216,778 290,778" fill="hsl(244 38% 25%)" opacity="0.86"/>
    <rect x="249" y="741" width="9" height="48" fill="hsl(152 26% 24%)" opacity="0.72"/>
    <polygon points="1048,587 1009,809 1087,809" fill="hsl(244 38% 25%)" opacity="0.70"/>
    <rect x="1043" y="769" width="9" height="51" fill="hsl(152 26% 24%)" opacity="0.72"/>
    <polygon points="932,615 885,788 979,788" fill="hsl(244 38% 25%)" opacity="0.88"/>
    <rect x="926" y="757" width="11" height="40" fill="hsl(152 26% 24%)" opacity="0.72"/>
    <polygon points="434,590 387,799 481,799" fill="hsl(234 36% 32%)" opacity="0.78"/>
    <rect x="428" y="761" width="11" height="48" fill="hsl(152 26% 24%)" opacity="0.72"/>
    <polygon points="642,535 591,781 693,781" fill="hsl(244 38% 25%)" opacity="0.74"/>
    <rect x="636" y="737" width="12" height="57" fill="hsl(152 26% 24%)" opacity="0.72"/>
    <polygon points="945,591 894,800 996,800" fill="hsl(244 38% 25%)" opacity="0.77"/>
    <rect x="939" y="762" width="12" height="48" fill="hsl(152 26% 24%)" opacity="0.72"/>
    <polygon points="39,587 -14,734 92,734" fill="hsl(234 36% 32%)" opacity="0.87"/>
    <rect x="33" y="708" width="13" height="34" fill="hsl(152 26% 24%)" opacity="0.72"/>
  </g>

  <rect x="64" y="676" width="1472" height="184" rx="22" fill="#081517" opacity="0.54"/>
  <text x="118" y="726" fill="#d9e8c8" font-family="Poppins, Arial, sans-serif" font-size="28" font-weight="700">Devlet</text>
  <text x="118" y="792" fill="#ffffff" font-family="Poppins, Arial, sans-serif" font-size="66.0" font-weight="800">EGM</text>
  

  <rect width="1600" height="900" fill="url(#vignette)"/>
</svg>
