<?xml version="1.0" encoding="UTF-8"?>
<svg xmlns="http://www.w3.org/2000/svg" viewBox="0 0 1600 900" role="img" aria-label="Ekol Maden">
  <defs>
    <linearGradient id="bg" x1="0" y1="0" x2="0" y2="1">
      <stop offset="0%" stop-color="hsl(103 48% 20%)"/>
      <stop offset="100%" stop-color="hsl(21 37% 40%)"/>
    </linearGradient>
    <linearGradient id="fog" x1="0" y1="0" x2="1" y2="0">
      <stop offset="0%" stop-color="hsl(343 20% 84%)" stop-opacity="0.22"/>
      <stop offset="50%" stop-color="#ffffff" stop-opacity="0.08"/>
      <stop offset="100%" stop-color="hsl(343 20% 84%)" stop-opacity="0.22"/>
    </linearGradient>
    <radialGradient id="vignette" cx="50%" cy="45%" r="70%">
      <stop offset="65%" stop-color="rgba(0,0,0,0)"/>
      <stop offset="100%" stop-color="rgba(0,0,0,0.35)"/>
    </radialGradient>
  </defs>

  <rect width="1600" height="900" fill="url(#bg)"/>
  <circle cx="1331" cy="197" r="104" fill="#f4efd4" opacity="0.34"/>

  <path d="M0 432 Q115 399 229 342 Q343 413 457 377 Q572 379 686 342 Q800 390 914 337 Q1029 398 1143 363 Q1257 398 1371 361 Q1486 369 1600 323 L1600 900 L0 900 Z" fill="hsl(38 28% 26%)" opacity="0.48"/>
  <path d="M0 502 Q115 418 229 330 Q343 435 457 348 Q572 452 686 397 Q800 449 914 402 Q1029 445 1143 396 Q1257 446 1371 391 Q1486 415 1600 335 L1600 900 L0 900 Z" fill="hsl(25 26% 31%)" opacity="0.62"/>
  <path d="M0 612 Q115 560 229 494 Q343 512 457 421 Q572 517 686 426 Q800 530 914 456 Q1029 542 1143 475 Q1257 538 1371 471 Q1486 531 1600 446 L1600 900 L0 900 Z" fill="hsl(13 24% 38%)" opacity="0.78"/>

  <g>
    <polygon points="637,489 606,636 668,636" fill="hsl(13 38% 25%)" opacity="0.78"/>
    <rect x="633" y="610" width="7" height="34" fill="hsl(281 26% 24%)" opacity="0.72"/>
    <polygon points="578,546 550,652 606,652" fill="hsl(13 38% 25%)" opacity="0.71"/>
    <rect x="575" y="633" width="7" height="24" fill="hsl(281 26% 24%)" opacity="0.72"/>
    <polygon points="1551,471 1527,625 1575,625" fill="hsl(13 38% 25%)" opacity="0.79"/>
    <rect x="1548" y="597" width="6" height="35" fill="hsl(281 26% 24%)" opacity="0.72"/>
    <polygon points="276,546 244,651 308,651" fill="hsl(13 38% 25%)" opacity="0.69"/>
    <rect x="272" y="632" width="8" height="24" fill="hsl(281 26% 24%)" opacity="0.72"/>
    <polygon points="990,489 971,641 1009,641" fill="hsl(13 38% 25%)" opacity="0.84"/>
    <rect x="988" y="614" width="5" height="35" fill="hsl(281 26% 24%)" opacity="0.72"/>
    <polygon points="837,463 805,603 869,603" fill="hsl(13 38% 25%)" opacity="0.75"/>
    <rect x="833" y="578" width="8" height="32" fill="hsl(281 26% 24%)" opacity="0.72"/>
    <polygon points="1113,523 1090,615 1136,615" fill="hsl(13 38% 25%)" opacity="0.91"/>
    <rect x="1110" y="598" width="6" height="21" fill="hsl(281 26% 24%)" opacity="0.72"/>
    <polygon points="621,484 597,641 645,641" fill="hsl(13 38% 25%)" opacity="0.86"/>
    <rect x="618" y="613" width="6" height="36" fill="hsl(281 26% 24%)" opacity="0.72"/>
    <polygon points="623,483 596,609 650,609" fill="hsl(3 36% 35%)" opacity="0.79"/>
    <rect x="620" y="586" width="6" height="29" fill="hsl(281 26% 24%)" opacity="0.72"/>
    <polygon points="1539,481 1517,627 1561,627" fill="hsl(3 36% 35%)" opacity="0.69"/>
    <rect x="1536" y="601" width="5" height="34" fill="hsl(281 26% 24%)" opacity="0.72"/>
    <polygon points="1162,472 1131,602 1193,602" fill="hsl(3 36% 35%)" opacity="0.83"/>
    <rect x="1158" y="579" width="7" height="30" fill="hsl(281 26% 24%)" opacity="0.72"/>
    <polygon points="1542,491 1511,625 1573,625" fill="hsl(13 38% 25%)" opacity="0.82"/>
    <rect x="1538" y="601" width="7" height="31" fill="hsl(281 26% 24%)" opacity="0.72"/>
    <polygon points="360,487 335,614 385,614" fill="hsl(13 38% 25%)" opacity="0.70"/>
    <rect x="357" y="591" width="6" height="29" fill="hsl(281 26% 24%)" opacity="0.72"/>
    <polygon points="679,482 660,603 698,603" fill="hsl(13 38% 25%)" opacity="0.85"/>
    <rect x="677" y="581" width="5" height="28" fill="hsl(281 26% 24%)" opacity="0.72"/>
    <polygon points="843,531 824,633 862,633" fill="hsl(3 36% 35%)" opacity="0.78"/>
    <rect x="841" y="615" width="5" height="23" fill="hsl(281 26% 24%)" opacity="0.72"/>
    <polygon points="142,490 111,615 173,615" fill="hsl(13 38% 25%)" opacity="0.78"/>
    <rect x="138" y="592" width="7" height="29" fill="hsl(281 26% 24%)" opacity="0.72"/>
    <polygon points="451,499 428,634 474,634" fill="hsl(13 38% 25%)" opacity="0.80"/>
    <rect x="448" y="610" width="6" height="31" fill="hsl(281 26% 24%)" opacity="0.72"/>
    <polygon points="1490,499 1457,604 1523,604" fill="hsl(3 36% 35%)" opacity="0.72"/>
    <rect x="1486" y="585" width="8" height="24" fill="hsl(281 26% 24%)" opacity="0.72"/>
  </g>

  <rect y="646" width="1600" height="254" fill="url(#fog)"/>

  <g>
    <polygon points="333,672 302,813 364,813" fill="hsl(3 36% 35%)" opacity="0.70"/>
    <rect x="329" y="788" width="7" height="32" fill="hsl(281 26% 24%)" opacity="0.72"/>
    <polygon points="351,535 310,781 392,781" fill="hsl(13 38% 25%)" opacity="0.87"/>
    <rect x="346" y="737" width="10" height="57" fill="hsl(281 26% 24%)" opacity="0.72"/>
    <polygon points="1457,586 1405,803 1509,803" fill="hsl(13 38% 25%)" opacity="0.80"/>
    <rect x="1451" y="764" width="12" height="50" fill="hsl(281 26% 24%)" opacity="0.72"/>
    <polygon points="440,541 395,778 485,778" fill="hsl(13 38% 25%)" opacity="0.81"/>
    <rect x="435" y="735" width="11" height="55" fill="hsl(281 26% 24%)" opacity="0.72"/>
    <polygon points="609,587 555,752 663,752" fill="hsl(13 38% 25%)" opacity="0.85"/>
    <rect x="603" y="722" width="13" height="38" fill="hsl(281 26% 24%)" opacity="0.72"/>
    <polygon points="953,569 915,786 991,786" fill="hsl(13 38% 25%)" opacity="0.70"/>
    <rect x="948" y="747" width="9" height="50" fill="hsl(281 26% 24%)" opacity="0.72"/>
    <polygon points="728,599 693,797 763,797" fill="hsl(3 36% 35%)" opacity="0.87"/>
    <rect x="724" y="761" width="8" height="46" fill="hsl(281 26% 24%)" opacity="0.72"/>
    <polygon points="1448,633 1403,781 1493,781" fill="hsl(3 36% 35%)" opacity="0.79"/>
    <rect x="1443" y="754" width="11" height="34" fill="hsl(281 26% 24%)" opacity="0.72"/>
    <polygon points="1198,638 1154,796 1242,796" fill="hsl(13 38% 25%)" opacity="0.88"/>
    <rect x="1193" y="768" width="11" height="36" fill="hsl(281 26% 24%)" opacity="0.72"/>
    <polygon points="228,683 182,818 274,818" fill="hsl(3 36% 35%)" opacity="0.88"/>
    <rect x="222" y="794" width="11" height="31" fill="hsl(281 26% 24%)" opacity="0.72"/>
    <polygon points="1422,585 1386,740 1458,740" fill="hsl(13 38% 25%)" opacity="0.91"/>
    <rect x="1418" y="712" width="9" height="36" fill="hsl(281 26% 24%)" opacity="0.72"/>
    <polygon points="885,516 839,750 931,750" fill="hsl(3 36% 35%)" opacity="0.72"/>
    <rect x="879" y="708" width="11" height="54" fill="hsl(281 26% 24%)" opacity="0.72"/>
    <polygon points="477,531 425,749 529,749" fill="hsl(3 36% 35%)" opacity="0.90"/>
    <rect x="471" y="710" width="12" height="50" fill="hsl(281 26% 24%)" opacity="0.72"/>
    <polygon points="158,588 112,753 204,753" fill="hsl(13 38% 25%)" opacity="0.81"/>
    <rect x="152" y="723" width="11" height="38" fill="hsl(281 26% 24%)" opacity="0.72"/>
    <polygon points="1396,542 1353,760 1439,760" fill="hsl(13 38% 25%)" opacity="0.71"/>
    <rect x="1391" y="721" width="10" height="50" fill="hsl(281 26% 24%)" opacity="0.72"/>
    <polygon points="1412,511 1366,742 1458,742" fill="hsl(13 38% 25%)" opacity="0.78"/>
    <rect x="1406" y="700" width="11" height="53" fill="hsl(281 26% 24%)" opacity="0.72"/>
  </g>

  <rect x="64" y="676" width="1472" height="184" rx="22" fill="#081517" opacity="0.54"/>
  <text x="118" y="726" fill="#d9e8c8" font-family="Poppins, Arial, sans-serif" font-size="28" font-weight="700">Maden Izinleri</text>
  <text x="118" y="792" fill="#ffffff" font-family="Poppins, Arial, sans-serif" font-size="66.0" font-weight="800">Ekol Maden</text>
  

  <rect width="1600" height="900" fill="url(#vignette)"/>
</svg>
