<?xml version="1.0" encoding="UTF-8"?>
<svg xmlns="http://www.w3.org/2000/svg" viewBox="0 0 1600 900" role="img" aria-label="Ento Madencilik">
  <defs>
    <linearGradient id="bg" x1="0" y1="0" x2="0" y2="1">
      <stop offset="0%" stop-color="hsl(93 43% 21%)"/>
      <stop offset="100%" stop-color="hsl(11 36% 45%)"/>
    </linearGradient>
    <linearGradient id="fog" x1="0" y1="0" x2="1" y2="0">
      <stop offset="0%" stop-color="hsl(333 20% 84%)" stop-opacity="0.22"/>
      <stop offset="50%" stop-color="#ffffff" stop-opacity="0.08"/>
      <stop offset="100%" stop-color="hsl(333 20% 84%)" stop-opacity="0.22"/>
    </linearGradient>
    <radialGradient id="vignette" cx="50%" cy="45%" r="70%">
      <stop offset="65%" stop-color="rgba(0,0,0,0)"/>
      <stop offset="100%" stop-color="rgba(0,0,0,0.35)"/>
    </radialGradient>
  </defs>

  <rect width="1600" height="900" fill="url(#bg)"/>
  <circle cx="1452" cy="211" r="88" fill="#f4efd4" opacity="0.34"/>

  <path d="M0 410 Q115 347 229 300 Q343 372 457 321 Q572 359 686 329 Q800 365 914 301 Q1029 344 1143 270 Q1257 338 1371 286 Q1486 351 1600 311 L1600 900 L0 900 Z" fill="hsl(28 28% 22%)" opacity="0.48"/>
  <path d="M0 532 Q115 488 229 453 Q343 448 457 385 Q572 478 686 427 Q800 495 914 470 Q1029 485 1143 440 Q1257 486 1371 428 Q1486 463 1600 398 L1600 900 L0 900 Z" fill="hsl(15 26% 34%)" opacity="0.62"/>
  <path d="M0 657 Q115 624 229 592 Q343 613 457 548 Q572 622 686 567 Q800 584 914 520 Q1029 562 1143 481 Q1257 576 1371 485 Q1486 583 1600 528 L1600 900 L0 900 Z" fill="hsl(3 24% 45%)" opacity="0.78"/>

  <g>
    <polygon points="1224,466 1205,619 1243,619" fill="hsl(353 36% 36%)" opacity="0.77"/>
    <rect x="1222" y="591" width="5" height="35" fill="hsl(271 26% 24%)" opacity="0.72"/>
    <polygon points="161,474 141,625 181,625" fill="hsl(3 38% 25%)" opacity="0.86"/>
    <rect x="159" y="598" width="5" height="35" fill="hsl(271 26% 24%)" opacity="0.72"/>
    <polygon points="1344,520 1321,634 1367,634" fill="hsl(353 36% 36%)" opacity="0.78"/>
    <rect x="1341" y="613" width="6" height="26" fill="hsl(271 26% 24%)" opacity="0.72"/>
    <polygon points="83,522 65,618 101,618" fill="hsl(3 38% 25%)" opacity="0.78"/>
    <rect x="81" y="601" width="4" height="22" fill="hsl(271 26% 24%)" opacity="0.72"/>
    <polygon points="1406,477 1373,633 1439,633" fill="hsl(3 38% 25%)" opacity="0.80"/>
    <rect x="1402" y="605" width="8" height="36" fill="hsl(271 26% 24%)" opacity="0.72"/>
    <polygon points="195,475 173,620 217,620" fill="hsl(3 38% 25%)" opacity="0.74"/>
    <rect x="192" y="594" width="5" height="33" fill="hsl(271 26% 24%)" opacity="0.72"/>
    <polygon points="701,525 672,625 730,625" fill="hsl(3 38% 25%)" opacity="0.82"/>
    <rect x="698" y="607" width="7" height="23" fill="hsl(271 26% 24%)" opacity="0.72"/>
    <polygon points="1431,470 1402,628 1460,628" fill="hsl(3 38% 25%)" opacity="0.90"/>
    <rect x="1428" y="600" width="7" height="36" fill="hsl(271 26% 24%)" opacity="0.72"/>
    <polygon points="1224,464 1200,605 1248,605" fill="hsl(3 38% 25%)" opacity="0.69"/>
    <rect x="1221" y="580" width="6" height="32" fill="hsl(271 26% 24%)" opacity="0.72"/>
    <polygon points="249,533 220,637 278,637" fill="hsl(353 36% 36%)" opacity="0.77"/>
    <rect x="246" y="618" width="7" height="24" fill="hsl(271 26% 24%)" opacity="0.72"/>
    <polygon points="161,511 128,642 194,642" fill="hsl(3 38% 25%)" opacity="0.81"/>
    <rect x="157" y="618" width="8" height="30" fill="hsl(271 26% 24%)" opacity="0.72"/>
    <polygon points="1294,490 1265,603 1323,603" fill="hsl(3 38% 25%)" opacity="0.78"/>
    <rect x="1291" y="583" width="7" height="26" fill="hsl(271 26% 24%)" opacity="0.72"/>
    <polygon points="862,523 833,647 891,647" fill="hsl(3 38% 25%)" opacity="0.79"/>
    <rect x="859" y="625" width="7" height="29" fill="hsl(271 26% 24%)" opacity="0.72"/>
    <polygon points="1434,490 1416,643 1452,643" fill="hsl(353 36% 36%)" opacity="0.89"/>
    <rect x="1432" y="615" width="4" height="35" fill="hsl(271 26% 24%)" opacity="0.72"/>
    <polygon points="1569,494 1539,658 1599,658" fill="hsl(353 36% 36%)" opacity="0.89"/>
    <rect x="1565" y="628" width="7" height="38" fill="hsl(271 26% 24%)" opacity="0.72"/>
    <polygon points="1156,493 1127,630 1185,630" fill="hsl(3 38% 25%)" opacity="0.90"/>
    <rect x="1153" y="605" width="7" height="32" fill="hsl(271 26% 24%)" opacity="0.72"/>
    <polygon points="466,506 445,610 487,610" fill="hsl(353 36% 36%)" opacity="0.69"/>
    <rect x="463" y="591" width="5" height="24" fill="hsl(271 26% 24%)" opacity="0.72"/>
    <polygon points="1443,485 1415,603 1471,603" fill="hsl(353 36% 36%)" opacity="0.80"/>
    <rect x="1440" y="582" width="7" height="27" fill="hsl(271 26% 24%)" opacity="0.72"/>
  </g>

  <rect y="646" width="1600" height="254" fill="url(#fog)"/>

  <g>
    <polygon points="1405,500 1368,738 1442,738" fill="hsl(353 36% 36%)" opacity="0.73"/>
    <rect x="1401" y="695" width="9" height="55" fill="hsl(271 26% 24%)" opacity="0.72"/>
    <polygon points="495,499 447,751 543,751" fill="hsl(3 38% 25%)" opacity="0.88"/>
    <rect x="489" y="706" width="12" height="58" fill="hsl(271 26% 24%)" opacity="0.72"/>
    <polygon points="1368,586 1316,738 1420,738" fill="hsl(353 36% 36%)" opacity="0.92"/>
    <rect x="1362" y="711" width="12" height="35" fill="hsl(271 26% 24%)" opacity="0.72"/>
    <polygon points="878,576 844,780 912,780" fill="hsl(353 36% 36%)" opacity="0.75"/>
    <rect x="874" y="743" width="8" height="47" fill="hsl(271 26% 24%)" opacity="0.72"/>
    <polygon points="783,575 754,754 812,754" fill="hsl(3 38% 25%)" opacity="0.76"/>
    <rect x="780" y="722" width="7" height="41" fill="hsl(271 26% 24%)" opacity="0.72"/>
    <polygon points="1147,588 1098,759 1196,759" fill="hsl(3 38% 25%)" opacity="0.77"/>
    <rect x="1141" y="728" width="12" height="39" fill="hsl(271 26% 24%)" opacity="0.72"/>
    <polygon points="151,637 122,797 180,797" fill="hsl(353 36% 36%)" opacity="0.76"/>
    <rect x="148" y="768" width="7" height="37" fill="hsl(271 26% 24%)" opacity="0.72"/>
    <polygon points="604,533 563,783 645,783" fill="hsl(353 36% 36%)" opacity="0.74"/>
    <rect x="599" y="738" width="10" height="58" fill="hsl(271 26% 24%)" opacity="0.72"/>
    <polygon points="1342,615 1294,764 1390,764" fill="hsl(353 36% 36%)" opacity="0.71"/>
    <rect x="1336" y="737" width="12" height="34" fill="hsl(271 26% 24%)" opacity="0.72"/>
    <polygon points="1150,587 1115,760 1185,760" fill="hsl(353 36% 36%)" opacity="0.83"/>
    <rect x="1146" y="729" width="8" height="40" fill="hsl(271 26% 24%)" opacity="0.72"/>
    <polygon points="293,607 241,770 345,770" fill="hsl(353 36% 36%)" opacity="0.82"/>
    <rect x="287" y="741" width="12" height="37" fill="hsl(271 26% 24%)" opacity="0.72"/>
    <polygon points="162,585 116,814 208,814" fill="hsl(353 36% 36%)" opacity="0.69"/>
    <rect x="156" y="773" width="11" height="53" fill="hsl(271 26% 24%)" opacity="0.72"/>
    <polygon points="743,652 695,814 791,814" fill="hsl(3 38% 25%)" opacity="0.81"/>
    <rect x="737" y="785" width="12" height="37" fill="hsl(271 26% 24%)" opacity="0.72"/>
    <polygon points="609,504 565,743 653,743" fill="hsl(353 36% 36%)" opacity="0.86"/>
    <rect x="604" y="700" width="11" height="55" fill="hsl(271 26% 24%)" opacity="0.72"/>
    <polygon points="1327,592 1280,737 1374,737" fill="hsl(353 36% 36%)" opacity="0.91"/>
    <rect x="1321" y="711" width="11" height="33" fill="hsl(271 26% 24%)" opacity="0.72"/>
    <polygon points="693,555 645,746 741,746" fill="hsl(3 38% 25%)" opacity="0.71"/>
    <rect x="687" y="712" width="12" height="44" fill="hsl(271 26% 24%)" opacity="0.72"/>
  </g>

  <rect x="64" y="676" width="1472" height="184" rx="22" fill="#081517" opacity="0.54"/>
  <text x="118" y="726" fill="#d9e8c8" font-family="Poppins, Arial, sans-serif" font-size="28" font-weight="700">Maden Izinleri</text>
  <text x="118" y="792" fill="#ffffff" font-family="Poppins, Arial, sans-serif" font-size="66.0" font-weight="800">Ento Madencilik</text>
  

  <rect width="1600" height="900" fill="url(#vignette)"/>
</svg>
