<?xml version="1.0" encoding="UTF-8"?>
<svg xmlns="http://www.w3.org/2000/svg" viewBox="0 0 1600 900" role="img" aria-label="Ento Maden Global">
  <defs>
    <linearGradient id="bg" x1="0" y1="0" x2="0" y2="1">
      <stop offset="0%" stop-color="hsl(160 42% 25%)"/>
      <stop offset="100%" stop-color="hsl(78 42% 42%)"/>
    </linearGradient>
    <linearGradient id="fog" x1="0" y1="0" x2="1" y2="0">
      <stop offset="0%" stop-color="hsl(40 20% 84%)" stop-opacity="0.22"/>
      <stop offset="50%" stop-color="#ffffff" stop-opacity="0.08"/>
      <stop offset="100%" stop-color="hsl(40 20% 84%)" stop-opacity="0.22"/>
    </linearGradient>
    <radialGradient id="vignette" cx="50%" cy="45%" r="70%">
      <stop offset="65%" stop-color="rgba(0,0,0,0)"/>
      <stop offset="100%" stop-color="rgba(0,0,0,0.35)"/>
    </radialGradient>
  </defs>

  <rect width="1600" height="900" fill="url(#bg)"/>
  <circle cx="1165" cy="162" r="86" fill="#f4efd4" opacity="0.34"/>

  <path d="M0 416 Q115 382 229 353 Q343 388 457 362 Q572 371 686 349 Q800 385 914 335 Q1029 357 1143 298 Q1257 391 1371 356 Q1486 389 1600 369 L1600 900 L0 900 Z" fill="hsl(95 28% 24%)" opacity="0.48"/>
  <path d="M0 529 Q115 471 229 403 Q343 484 457 441 Q572 449 686 383 Q800 480 914 418 Q1029 474 1143 397 Q1257 498 1371 446 Q1486 491 1600 450 L1600 900 L0 900 Z" fill="hsl(82 26% 35%)" opacity="0.62"/>
  <path d="M0 650 Q115 606 229 584 Q343 559 457 475 Q572 607 686 564 Q800 548 914 461 Q1029 602 1143 561 Q1257 579 1371 503 Q1486 596 1600 522 L1600 900 L0 900 Z" fill="hsl(70 24% 40%)" opacity="0.78"/>

  <g>
    <polygon points="181,499 152,606 210,606" fill="hsl(70 38% 29%)" opacity="0.76"/>
    <rect x="178" y="587" width="7" height="25" fill="hsl(338 26% 24%)" opacity="0.72"/>
    <polygon points="887,517 856,622 918,622" fill="hsl(70 38% 29%)" opacity="0.80"/>
    <rect x="883" y="603" width="7" height="24" fill="hsl(338 26% 24%)" opacity="0.72"/>
    <polygon points="770,500 744,609 796,609" fill="hsl(60 36% 32%)" opacity="0.83"/>
    <rect x="767" y="589" width="6" height="25" fill="hsl(338 26% 24%)" opacity="0.72"/>
    <polygon points="702,511 675,612 729,612" fill="hsl(60 36% 32%)" opacity="0.73"/>
    <rect x="699" y="594" width="6" height="23" fill="hsl(338 26% 24%)" opacity="0.72"/>
    <polygon points="571,481 545,646 597,646" fill="hsl(70 38% 29%)" opacity="0.75"/>
    <rect x="568" y="616" width="6" height="38" fill="hsl(338 26% 24%)" opacity="0.72"/>
    <polygon points="354,480 327,641 381,641" fill="hsl(70 38% 29%)" opacity="0.90"/>
    <rect x="351" y="612" width="6" height="37" fill="hsl(338 26% 24%)" opacity="0.72"/>
    <polygon points="713,466 680,603 746,603" fill="hsl(70 38% 29%)" opacity="0.73"/>
    <rect x="709" y="578" width="8" height="32" fill="hsl(338 26% 24%)" opacity="0.72"/>
    <polygon points="353,439 322,601 384,601" fill="hsl(60 36% 32%)" opacity="0.82"/>
    <rect x="349" y="572" width="7" height="37" fill="hsl(338 26% 24%)" opacity="0.72"/>
    <polygon points="793,516 770,610 816,610" fill="hsl(60 36% 32%)" opacity="0.70"/>
    <rect x="790" y="593" width="6" height="22" fill="hsl(338 26% 24%)" opacity="0.72"/>
    <polygon points="1474,557 1443,664 1505,664" fill="hsl(60 36% 32%)" opacity="0.75"/>
    <rect x="1470" y="645" width="7" height="25" fill="hsl(338 26% 24%)" opacity="0.72"/>
    <polygon points="1121,559 1096,661 1146,661" fill="hsl(60 36% 32%)" opacity="0.84"/>
    <rect x="1118" y="643" width="6" height="23" fill="hsl(338 26% 24%)" opacity="0.72"/>
    <polygon points="1082,510 1063,603 1101,603" fill="hsl(60 36% 32%)" opacity="0.75"/>
    <rect x="1080" y="586" width="5" height="21" fill="hsl(338 26% 24%)" opacity="0.72"/>
    <polygon points="772,439 739,604 805,604" fill="hsl(60 36% 32%)" opacity="0.76"/>
    <rect x="768" y="574" width="8" height="38" fill="hsl(338 26% 24%)" opacity="0.72"/>
    <polygon points="215,449 182,610 248,610" fill="hsl(70 38% 29%)" opacity="0.74"/>
    <rect x="211" y="581" width="8" height="37" fill="hsl(338 26% 24%)" opacity="0.72"/>
    <polygon points="960,446 937,608 983,608" fill="hsl(70 38% 29%)" opacity="0.77"/>
    <rect x="957" y="579" width="6" height="37" fill="hsl(338 26% 24%)" opacity="0.72"/>
    <polygon points="47,494 24,612 70,612" fill="hsl(60 36% 32%)" opacity="0.87"/>
    <rect x="44" y="591" width="6" height="27" fill="hsl(338 26% 24%)" opacity="0.72"/>
    <polygon points="62,525 39,625 85,625" fill="hsl(70 38% 29%)" opacity="0.83"/>
    <rect x="59" y="607" width="6" height="23" fill="hsl(338 26% 24%)" opacity="0.72"/>
    <polygon points="133,554 110,651 156,651" fill="hsl(70 38% 29%)" opacity="0.81"/>
    <rect x="130" y="634" width="6" height="22" fill="hsl(338 26% 24%)" opacity="0.72"/>
  </g>

  <rect y="646" width="1600" height="254" fill="url(#fog)"/>

  <g>
    <polygon points="1257,529 1211,773 1303,773" fill="hsl(60 36% 32%)" opacity="0.75"/>
    <rect x="1251" y="729" width="11" height="56" fill="hsl(338 26% 24%)" opacity="0.72"/>
    <polygon points="192,552 147,735 237,735" fill="hsl(60 36% 32%)" opacity="0.69"/>
    <rect x="187" y="702" width="11" height="42" fill="hsl(338 26% 24%)" opacity="0.72"/>
    <polygon points="467,619 433,812 501,812" fill="hsl(60 36% 32%)" opacity="0.76"/>
    <rect x="463" y="777" width="8" height="44" fill="hsl(338 26% 24%)" opacity="0.72"/>
    <polygon points="552,535 502,761 602,761" fill="hsl(60 36% 32%)" opacity="0.70"/>
    <rect x="546" y="720" width="12" height="52" fill="hsl(338 26% 24%)" opacity="0.72"/>
    <polygon points="1315,594 1264,796 1366,796" fill="hsl(70 38% 29%)" opacity="0.71"/>
    <rect x="1309" y="760" width="12" height="46" fill="hsl(338 26% 24%)" opacity="0.72"/>
    <polygon points="250,540 215,752 285,752" fill="hsl(60 36% 32%)" opacity="0.76"/>
    <rect x="246" y="714" width="8" height="49" fill="hsl(338 26% 24%)" opacity="0.72"/>
    <polygon points="430,511 382,742 478,742" fill="hsl(70 38% 29%)" opacity="0.82"/>
    <rect x="424" y="700" width="12" height="53" fill="hsl(338 26% 24%)" opacity="0.72"/>
    <polygon points="108,559 72,748 144,748" fill="hsl(70 38% 29%)" opacity="0.70"/>
    <rect x="104" y="714" width="9" height="43" fill="hsl(338 26% 24%)" opacity="0.72"/>
    <polygon points="324,610 274,766 374,766" fill="hsl(60 36% 32%)" opacity="0.68"/>
    <rect x="318" y="738" width="12" height="36" fill="hsl(338 26% 24%)" opacity="0.72"/>
    <polygon points="235,602 185,790 285,790" fill="hsl(60 36% 32%)" opacity="0.80"/>
    <rect x="229" y="756" width="12" height="43" fill="hsl(338 26% 24%)" opacity="0.72"/>
    <polygon points="419,586 387,809 451,809" fill="hsl(60 36% 32%)" opacity="0.90"/>
    <rect x="415" y="769" width="8" height="51" fill="hsl(338 26% 24%)" opacity="0.72"/>
    <polygon points="65,500 12,740 118,740" fill="hsl(70 38% 29%)" opacity="0.73"/>
    <rect x="59" y="697" width="13" height="55" fill="hsl(338 26% 24%)" opacity="0.72"/>
    <polygon points="393,614 350,802 436,802" fill="hsl(60 36% 32%)" opacity="0.71"/>
    <rect x="388" y="768" width="10" height="43" fill="hsl(338 26% 24%)" opacity="0.72"/>
    <polygon points="1107,528 1068,772 1146,772" fill="hsl(60 36% 32%)" opacity="0.80"/>
    <rect x="1102" y="728" width="9" height="56" fill="hsl(338 26% 24%)" opacity="0.72"/>
    <polygon points="381,616 338,767 424,767" fill="hsl(70 38% 29%)" opacity="0.84"/>
    <rect x="376" y="740" width="10" height="35" fill="hsl(338 26% 24%)" opacity="0.72"/>
    <polygon points="765,620 733,808 797,808" fill="hsl(60 36% 32%)" opacity="0.71"/>
    <rect x="761" y="774" width="8" height="43" fill="hsl(338 26% 24%)" opacity="0.72"/>
  </g>

  <rect x="64" y="676" width="1472" height="184" rx="22" fill="#081517" opacity="0.54"/>
  <text x="118" y="726" fill="#d9e8c8" font-family="Poppins, Arial, sans-serif" font-size="28" font-weight="700">Maden Izinleri</text>
  <text x="118" y="792" fill="#ffffff" font-family="Poppins, Arial, sans-serif" font-size="66.0" font-weight="800">Ento Maden Global</text>
  

  <rect width="1600" height="900" fill="url(#vignette)"/>
</svg>
