<?xml version="1.0" encoding="UTF-8"?>
<svg xmlns="http://www.w3.org/2000/svg" viewBox="0 0 1600 900" role="img" aria-label="Erkan Ozkan">
  <defs>
    <linearGradient id="bg" x1="0" y1="0" x2="0" y2="1">
      <stop offset="0%" stop-color="hsl(316 45% 22%)"/>
      <stop offset="100%" stop-color="hsl(234 40% 46%)"/>
    </linearGradient>
    <linearGradient id="fog" x1="0" y1="0" x2="1" y2="0">
      <stop offset="0%" stop-color="hsl(196 20% 84%)" stop-opacity="0.22"/>
      <stop offset="50%" stop-color="#ffffff" stop-opacity="0.08"/>
      <stop offset="100%" stop-color="hsl(196 20% 84%)" stop-opacity="0.22"/>
    </linearGradient>
    <radialGradient id="vignette" cx="50%" cy="45%" r="70%">
      <stop offset="65%" stop-color="rgba(0,0,0,0)"/>
      <stop offset="100%" stop-color="rgba(0,0,0,0.35)"/>
    </radialGradient>
  </defs>

  <rect width="1600" height="900" fill="url(#bg)"/>
  <circle cx="1180" cy="261" r="63" fill="#f4efd4" opacity="0.34"/>

  <path d="M0 431 Q115 356 229 289 Q343 360 457 272 Q572 359 686 311 Q800 406 914 363 Q1029 366 1143 316 Q1257 395 1371 345 Q1486 388 1600 344 L1600 900 L0 900 Z" fill="hsl(251 28% 27%)" opacity="0.48"/>
  <path d="M0 534 Q115 478 229 433 Q343 486 457 450 Q572 494 686 458 Q800 456 914 390 Q1029 443 1143 360 Q1257 493 1371 462 Q1486 495 1600 465 L1600 900 L0 900 Z" fill="hsl(238 26% 35%)" opacity="0.62"/>
  <path d="M0 641 Q115 585 229 510 Q343 596 457 546 Q572 591 686 559 Q800 584 914 549 Q1029 584 1143 512 Q1257 623 1371 581 Q1486 577 1600 500 L1600 900 L0 900 Z" fill="hsl(226 24% 42%)" opacity="0.78"/>

  <g>
    <polygon points="335,480 309,605 361,605" fill="hsl(226 38% 28%)" opacity="0.76"/>
    <rect x="332" y="582" width="6" height="29" fill="hsl(134 26% 24%)" opacity="0.72"/>
    <polygon points="1096,444 1071,602 1121,602" fill="hsl(216 36% 36%)" opacity="0.77"/>
    <rect x="1093" y="574" width="6" height="36" fill="hsl(134 26% 24%)" opacity="0.72"/>
    <polygon points="1529,465 1503,626 1555,626" fill="hsl(216 36% 36%)" opacity="0.88"/>
    <rect x="1526" y="597" width="6" height="37" fill="hsl(134 26% 24%)" opacity="0.72"/>
    <polygon points="909,502 884,602 934,602" fill="hsl(216 36% 36%)" opacity="0.81"/>
    <rect x="906" y="584" width="6" height="23" fill="hsl(134 26% 24%)" opacity="0.72"/>
    <polygon points="1287,545 1265,650 1309,650" fill="hsl(226 38% 28%)" opacity="0.90"/>
    <rect x="1284" y="631" width="5" height="24" fill="hsl(134 26% 24%)" opacity="0.72"/>
    <polygon points="293,473 263,625 323,625" fill="hsl(226 38% 28%)" opacity="0.86"/>
    <rect x="289" y="598" width="7" height="35" fill="hsl(134 26% 24%)" opacity="0.72"/>
    <polygon points="161,516 138,630 184,630" fill="hsl(216 36% 36%)" opacity="0.76"/>
    <rect x="158" y="609" width="6" height="26" fill="hsl(134 26% 24%)" opacity="0.72"/>
    <polygon points="1353,473 1322,608 1384,608" fill="hsl(216 36% 36%)" opacity="0.74"/>
    <rect x="1349" y="584" width="7" height="31" fill="hsl(134 26% 24%)" opacity="0.72"/>
    <polygon points="813,463 781,615 845,615" fill="hsl(216 36% 36%)" opacity="0.86"/>
    <rect x="809" y="588" width="8" height="35" fill="hsl(134 26% 24%)" opacity="0.72"/>
    <polygon points="978,496 946,604 1010,604" fill="hsl(226 38% 28%)" opacity="0.69"/>
    <rect x="974" y="585" width="8" height="25" fill="hsl(134 26% 24%)" opacity="0.72"/>
    <polygon points="461,461 433,619 489,619" fill="hsl(226 38% 28%)" opacity="0.79"/>
    <rect x="458" y="591" width="7" height="36" fill="hsl(134 26% 24%)" opacity="0.72"/>
    <polygon points="336,526 309,662 363,662" fill="hsl(226 38% 28%)" opacity="0.82"/>
    <rect x="333" y="638" width="6" height="31" fill="hsl(134 26% 24%)" opacity="0.72"/>
    <polygon points="1165,481 1144,635 1186,635" fill="hsl(216 36% 36%)" opacity="0.88"/>
    <rect x="1162" y="607" width="5" height="35" fill="hsl(134 26% 24%)" opacity="0.72"/>
    <polygon points="356,559 324,653 388,653" fill="hsl(226 38% 28%)" opacity="0.88"/>
    <rect x="352" y="636" width="8" height="22" fill="hsl(134 26% 24%)" opacity="0.72"/>
    <polygon points="526,524 501,660 551,660" fill="hsl(216 36% 36%)" opacity="0.68"/>
    <rect x="523" y="636" width="6" height="31" fill="hsl(134 26% 24%)" opacity="0.72"/>
    <polygon points="1527,477 1494,629 1560,629" fill="hsl(226 38% 28%)" opacity="0.73"/>
    <rect x="1523" y="602" width="8" height="35" fill="hsl(134 26% 24%)" opacity="0.72"/>
    <polygon points="184,517 165,634 203,634" fill="hsl(226 38% 28%)" opacity="0.69"/>
    <rect x="182" y="613" width="5" height="27" fill="hsl(134 26% 24%)" opacity="0.72"/>
    <polygon points="497,478 466,638 528,638" fill="hsl(216 36% 36%)" opacity="0.75"/>
    <rect x="493" y="609" width="7" height="37" fill="hsl(134 26% 24%)" opacity="0.72"/>
  </g>

  <rect y="646" width="1600" height="254" fill="url(#fog)"/>

  <g>
    <polygon points="1162,527 1128,766 1196,766" fill="hsl(216 36% 36%)" opacity="0.76"/>
    <rect x="1158" y="723" width="8" height="55" fill="hsl(134 26% 24%)" opacity="0.72"/>
    <polygon points="1208,591 1157,789 1259,789" fill="hsl(226 38% 28%)" opacity="0.76"/>
    <rect x="1202" y="753" width="12" height="46" fill="hsl(134 26% 24%)" opacity="0.72"/>
    <polygon points="629,509 581,753 677,753" fill="hsl(226 38% 28%)" opacity="0.70"/>
    <rect x="623" y="709" width="12" height="56" fill="hsl(134 26% 24%)" opacity="0.72"/>
    <polygon points="1301,504 1273,752 1329,752" fill="hsl(226 38% 28%)" opacity="0.72"/>
    <rect x="1298" y="707" width="7" height="57" fill="hsl(134 26% 24%)" opacity="0.72"/>
    <polygon points="1141,587 1110,766 1172,766" fill="hsl(226 38% 28%)" opacity="0.86"/>
    <rect x="1137" y="734" width="7" height="41" fill="hsl(134 26% 24%)" opacity="0.72"/>
    <polygon points="1308,540 1258,736 1358,736" fill="hsl(216 36% 36%)" opacity="0.78"/>
    <rect x="1302" y="701" width="12" height="45" fill="hsl(134 26% 24%)" opacity="0.72"/>
    <polygon points="1329,655 1295,808 1363,808" fill="hsl(226 38% 28%)" opacity="0.88"/>
    <rect x="1325" y="780" width="8" height="35" fill="hsl(134 26% 24%)" opacity="0.72"/>
    <polygon points="666,577 635,775 697,775" fill="hsl(226 38% 28%)" opacity="0.69"/>
    <rect x="662" y="739" width="7" height="46" fill="hsl(134 26% 24%)" opacity="0.72"/>
    <polygon points="116,568 82,783 150,783" fill="hsl(216 36% 36%)" opacity="0.90"/>
    <rect x="112" y="744" width="8" height="49" fill="hsl(134 26% 24%)" opacity="0.72"/>
    <polygon points="701,555 654,804 748,804" fill="hsl(226 38% 28%)" opacity="0.84"/>
    <rect x="695" y="759" width="11" height="57" fill="hsl(134 26% 24%)" opacity="0.72"/>
    <polygon points="1080,651 1033,784 1127,784" fill="hsl(216 36% 36%)" opacity="0.82"/>
    <rect x="1074" y="760" width="11" height="31" fill="hsl(134 26% 24%)" opacity="0.72"/>
    <polygon points="1197,587 1152,790 1242,790" fill="hsl(216 36% 36%)" opacity="0.91"/>
    <rect x="1192" y="753" width="11" height="47" fill="hsl(134 26% 24%)" opacity="0.72"/>
    <polygon points="1353,567 1306,747 1400,747" fill="hsl(216 36% 36%)" opacity="0.81"/>
    <rect x="1347" y="715" width="11" height="41" fill="hsl(134 26% 24%)" opacity="0.72"/>
    <polygon points="1376,533 1325,736 1427,736" fill="hsl(226 38% 28%)" opacity="0.82"/>
    <rect x="1370" y="699" width="12" height="47" fill="hsl(134 26% 24%)" opacity="0.72"/>
    <polygon points="923,571 891,772 955,772" fill="hsl(216 36% 36%)" opacity="0.91"/>
    <rect x="919" y="736" width="8" height="46" fill="hsl(134 26% 24%)" opacity="0.72"/>
    <polygon points="1090,623 1060,803 1120,803" fill="hsl(216 36% 36%)" opacity="0.86"/>
    <rect x="1086" y="771" width="7" height="41" fill="hsl(134 26% 24%)" opacity="0.72"/>
  </g>

  <rect x="64" y="676" width="1472" height="184" rx="22" fill="#081517" opacity="0.54"/>
  <text x="118" y="726" fill="#d9e8c8" font-family="Poppins, Arial, sans-serif" font-size="28" font-weight="700">Diger Projeler</text>
  <text x="118" y="792" fill="#ffffff" font-family="Poppins, Arial, sans-serif" font-size="66.0" font-weight="800">Erkan Ozkan</text>
  

  <rect width="1600" height="900" fill="url(#vignette)"/>
</svg>
