<?xml version="1.0" encoding="UTF-8"?>
<svg xmlns="http://www.w3.org/2000/svg" viewBox="0 0 1600 900" role="img" aria-label="Huseyin Koyuncu">
  <defs>
    <linearGradient id="bg" x1="0" y1="0" x2="0" y2="1">
      <stop offset="0%" stop-color="hsl(150 34% 24%)"/>
      <stop offset="100%" stop-color="hsl(68 41% 46%)"/>
    </linearGradient>
    <linearGradient id="fog" x1="0" y1="0" x2="1" y2="0">
      <stop offset="0%" stop-color="hsl(30 20% 84%)" stop-opacity="0.22"/>
      <stop offset="50%" stop-color="#ffffff" stop-opacity="0.08"/>
      <stop offset="100%" stop-color="hsl(30 20% 84%)" stop-opacity="0.22"/>
    </linearGradient>
    <radialGradient id="vignette" cx="50%" cy="45%" r="70%">
      <stop offset="65%" stop-color="rgba(0,0,0,0)"/>
      <stop offset="100%" stop-color="rgba(0,0,0,0.35)"/>
    </radialGradient>
  </defs>

  <rect width="1600" height="900" fill="url(#bg)"/>
  <circle cx="1380" cy="170" r="74" fill="#f4efd4" opacity="0.34"/>

  <path d="M0 414 Q115 369 229 336 Q343 361 457 316 Q572 365 686 320 Q800 394 914 361 Q1029 376 1143 357 Q1257 378 1371 348 Q1486 378 1600 329 L1600 900 L0 900 Z" fill="hsl(85 28% 25%)" opacity="0.48"/>
  <path d="M0 535 Q115 473 229 396 Q343 503 457 471 Q572 437 686 346 Q800 454 914 354 Q1029 473 1143 404 Q1257 499 1371 462 Q1486 492 1600 448 L1600 900 L0 900 Z" fill="hsl(72 26% 30%)" opacity="0.62"/>
  <path d="M0 658 Q115 604 229 541 Q343 611 457 541 Q572 562 686 466 Q800 608 914 563 Q1029 598 1143 526 Q1257 613 1371 571 Q1486 587 1600 535 L1600 900 L0 900 Z" fill="hsl(60 24% 42%)" opacity="0.78"/>

  <g>
    <polygon points="1016,485 985,605 1047,605" fill="hsl(50 36% 33%)" opacity="0.92"/>
    <rect x="1012" y="583" width="7" height="28" fill="hsl(328 26% 24%)" opacity="0.72"/>
    <polygon points="755,448 735,602 775,602" fill="hsl(50 36% 33%)" opacity="0.72"/>
    <rect x="753" y="574" width="5" height="35" fill="hsl(328 26% 24%)" opacity="0.72"/>
    <polygon points="20,477 -7,621 47,621" fill="hsl(50 36% 33%)" opacity="0.81"/>
    <rect x="17" y="595" width="6" height="33" fill="hsl(328 26% 24%)" opacity="0.72"/>
    <polygon points="456,444 432,608 480,608" fill="hsl(50 36% 33%)" opacity="0.86"/>
    <rect x="453" y="578" width="6" height="38" fill="hsl(328 26% 24%)" opacity="0.72"/>
    <polygon points="694,500 663,653 725,653" fill="hsl(50 36% 33%)" opacity="0.80"/>
    <rect x="690" y="625" width="7" height="35" fill="hsl(328 26% 24%)" opacity="0.72"/>
    <polygon points="370,474 347,630 393,630" fill="hsl(60 38% 27%)" opacity="0.90"/>
    <rect x="367" y="602" width="6" height="36" fill="hsl(328 26% 24%)" opacity="0.72"/>
    <polygon points="57,471 34,602 80,602" fill="hsl(60 38% 27%)" opacity="0.74"/>
    <rect x="54" y="578" width="6" height="30" fill="hsl(328 26% 24%)" opacity="0.72"/>
    <polygon points="1062,491 1044,609 1080,609" fill="hsl(50 36% 33%)" opacity="0.78"/>
    <rect x="1060" y="588" width="4" height="27" fill="hsl(328 26% 24%)" opacity="0.72"/>
    <polygon points="1363,484 1341,604 1385,604" fill="hsl(50 36% 33%)" opacity="0.91"/>
    <rect x="1360" y="582" width="5" height="28" fill="hsl(328 26% 24%)" opacity="0.72"/>
    <polygon points="571,512 541,613 601,613" fill="hsl(50 36% 33%)" opacity="0.86"/>
    <rect x="567" y="595" width="7" height="23" fill="hsl(328 26% 24%)" opacity="0.72"/>
    <polygon points="528,514 505,651 551,651" fill="hsl(50 36% 33%)" opacity="0.70"/>
    <rect x="525" y="626" width="6" height="32" fill="hsl(328 26% 24%)" opacity="0.72"/>
    <polygon points="1459,502 1428,620 1490,620" fill="hsl(50 36% 33%)" opacity="0.71"/>
    <rect x="1455" y="599" width="7" height="27" fill="hsl(328 26% 24%)" opacity="0.72"/>
    <polygon points="59,455 35,609 83,609" fill="hsl(60 38% 27%)" opacity="0.69"/>
    <rect x="56" y="581" width="6" height="35" fill="hsl(328 26% 24%)" opacity="0.72"/>
    <polygon points="299,522 274,621 324,621" fill="hsl(50 36% 33%)" opacity="0.80"/>
    <rect x="296" y="603" width="6" height="23" fill="hsl(328 26% 24%)" opacity="0.72"/>
    <polygon points="1328,508 1299,609 1357,609" fill="hsl(50 36% 33%)" opacity="0.80"/>
    <rect x="1325" y="591" width="7" height="23" fill="hsl(328 26% 24%)" opacity="0.72"/>
    <polygon points="1294,524 1270,632 1318,632" fill="hsl(50 36% 33%)" opacity="0.73"/>
    <rect x="1291" y="613" width="6" height="25" fill="hsl(328 26% 24%)" opacity="0.72"/>
    <polygon points="863,490 833,619 893,619" fill="hsl(60 38% 27%)" opacity="0.91"/>
    <rect x="859" y="596" width="7" height="30" fill="hsl(328 26% 24%)" opacity="0.72"/>
    <polygon points="1440,525 1407,624 1473,624" fill="hsl(60 38% 27%)" opacity="0.73"/>
    <rect x="1436" y="606" width="8" height="23" fill="hsl(328 26% 24%)" opacity="0.72"/>
  </g>

  <rect y="646" width="1600" height="254" fill="url(#fog)"/>

  <g>
    <polygon points="486,680 444,814 528,814" fill="hsl(60 38% 27%)" opacity="0.85"/>
    <rect x="481" y="790" width="10" height="31" fill="hsl(328 26% 24%)" opacity="0.72"/>
    <polygon points="1045,542 1006,738 1084,738" fill="hsl(60 38% 27%)" opacity="0.75"/>
    <rect x="1040" y="703" width="9" height="45" fill="hsl(328 26% 24%)" opacity="0.72"/>
    <polygon points="676,561 626,806 726,806" fill="hsl(50 36% 33%)" opacity="0.88"/>
    <rect x="670" y="762" width="12" height="56" fill="hsl(328 26% 24%)" opacity="0.72"/>
    <polygon points="1273,617 1243,789 1303,789" fill="hsl(50 36% 33%)" opacity="0.70"/>
    <rect x="1269" y="758" width="7" height="40" fill="hsl(328 26% 24%)" opacity="0.72"/>
    <polygon points="1011,584 967,819 1055,819" fill="hsl(50 36% 33%)" opacity="0.83"/>
    <rect x="1006" y="777" width="11" height="54" fill="hsl(328 26% 24%)" opacity="0.72"/>
    <polygon points="189,527 142,773 236,773" fill="hsl(60 38% 27%)" opacity="0.69"/>
    <rect x="183" y="729" width="11" height="57" fill="hsl(328 26% 24%)" opacity="0.72"/>
    <polygon points="1296,532 1256,754 1336,754" fill="hsl(50 36% 33%)" opacity="0.86"/>
    <rect x="1291" y="714" width="10" height="51" fill="hsl(328 26% 24%)" opacity="0.72"/>
    <polygon points="749,641 721,807 777,807" fill="hsl(60 38% 27%)" opacity="0.83"/>
    <rect x="746" y="777" width="7" height="38" fill="hsl(328 26% 24%)" opacity="0.72"/>
    <polygon points="705,624 654,801 756,801" fill="hsl(60 38% 27%)" opacity="0.70"/>
    <rect x="699" y="769" width="12" height="41" fill="hsl(328 26% 24%)" opacity="0.72"/>
    <polygon points="625,555 581,751 669,751" fill="hsl(50 36% 33%)" opacity="0.70"/>
    <rect x="620" y="716" width="11" height="45" fill="hsl(328 26% 24%)" opacity="0.72"/>
    <polygon points="1209,607 1158,753 1260,753" fill="hsl(60 38% 27%)" opacity="0.82"/>
    <rect x="1203" y="727" width="12" height="34" fill="hsl(328 26% 24%)" opacity="0.72"/>
    <polygon points="203,559 169,781 237,781" fill="hsl(50 36% 33%)" opacity="0.75"/>
    <rect x="199" y="741" width="8" height="51" fill="hsl(328 26% 24%)" opacity="0.72"/>
    <polygon points="312,496 282,740 342,740" fill="hsl(50 36% 33%)" opacity="0.70"/>
    <rect x="308" y="696" width="7" height="56" fill="hsl(328 26% 24%)" opacity="0.72"/>
    <polygon points="222,571 177,756 267,756" fill="hsl(50 36% 33%)" opacity="0.68"/>
    <rect x="217" y="723" width="11" height="43" fill="hsl(328 26% 24%)" opacity="0.72"/>
    <polygon points="1086,514 1032,733 1140,733" fill="hsl(50 36% 33%)" opacity="0.72"/>
    <rect x="1080" y="694" width="13" height="50" fill="hsl(328 26% 24%)" opacity="0.72"/>
    <polygon points="1420,553 1385,762 1455,762" fill="hsl(50 36% 33%)" opacity="0.86"/>
    <rect x="1416" y="724" width="8" height="48" fill="hsl(328 26% 24%)" opacity="0.72"/>
  </g>

  <rect x="64" y="676" width="1472" height="184" rx="22" fill="#081517" opacity="0.54"/>
  <text x="118" y="726" fill="#d9e8c8" font-family="Poppins, Arial, sans-serif" font-size="28" font-weight="700">Diger Projeler</text>
  <text x="118" y="792" fill="#ffffff" font-family="Poppins, Arial, sans-serif" font-size="66.0" font-weight="800">Huseyin Koyuncu</text>
  

  <rect width="1600" height="900" fill="url(#vignette)"/>
</svg>
