<?xml version="1.0" encoding="UTF-8"?>
<svg xmlns="http://www.w3.org/2000/svg" viewBox="0 0 1600 900" role="img" aria-label="IBB (ISTAC)">
  <defs>
    <linearGradient id="bg" x1="0" y1="0" x2="0" y2="1">
      <stop offset="0%" stop-color="hsl(246 42% 23%)"/>
      <stop offset="100%" stop-color="hsl(164 34% 41%)"/>
    </linearGradient>
    <linearGradient id="fog" x1="0" y1="0" x2="1" y2="0">
      <stop offset="0%" stop-color="hsl(126 20% 84%)" stop-opacity="0.22"/>
      <stop offset="50%" stop-color="#ffffff" stop-opacity="0.08"/>
      <stop offset="100%" stop-color="hsl(126 20% 84%)" stop-opacity="0.22"/>
    </linearGradient>
    <radialGradient id="vignette" cx="50%" cy="45%" r="70%">
      <stop offset="65%" stop-color="rgba(0,0,0,0)"/>
      <stop offset="100%" stop-color="rgba(0,0,0,0.35)"/>
    </radialGradient>
  </defs>

  <rect width="1600" height="900" fill="url(#bg)"/>
  <circle cx="1258" cy="155" r="90" fill="#f4efd4" opacity="0.34"/>

  <path d="M0 423 Q115 368 229 335 Q343 366 457 290 Q572 368 686 324 Q800 380 914 320 Q1029 394 1143 353 Q1257 374 1371 320 Q1486 381 1600 326 L1600 900 L0 900 Z" fill="hsl(181 28% 25%)" opacity="0.48"/>
  <path d="M0 509 Q115 464 229 425 Q343 493 457 455 Q572 424 686 362 Q800 452 914 390 Q1029 461 1143 402 Q1257 486 1371 440 Q1486 467 1600 415 L1600 900 L0 900 Z" fill="hsl(168 26% 35%)" opacity="0.62"/>
  <path d="M0 648 Q115 626 229 587 Q343 600 457 560 Q572 561 686 491 Q800 612 914 574 Q1029 577 1143 496 Q1257 619 1371 588 Q1486 572 1600 498 L1600 900 L0 900 Z" fill="hsl(156 24% 45%)" opacity="0.78"/>

  <g>
    <polygon points="771,517 743,624 799,624" fill="hsl(156 38% 27%)" opacity="0.73"/>
    <rect x="768" y="605" width="7" height="25" fill="hsl(64 26% 24%)" opacity="0.72"/>
    <polygon points="1161,524 1137,619 1185,619" fill="hsl(156 38% 27%)" opacity="0.86"/>
    <rect x="1158" y="602" width="6" height="22" fill="hsl(64 26% 24%)" opacity="0.72"/>
    <polygon points="21,504 -1,625 43,625" fill="hsl(146 36% 37%)" opacity="0.82"/>
    <rect x="18" y="603" width="5" height="28" fill="hsl(64 26% 24%)" opacity="0.72"/>
    <polygon points="226,500 205,630 247,630" fill="hsl(156 38% 27%)" opacity="0.82"/>
    <rect x="223" y="607" width="5" height="30" fill="hsl(64 26% 24%)" opacity="0.72"/>
    <polygon points="1032,542 1010,652 1054,652" fill="hsl(156 38% 27%)" opacity="0.90"/>
    <rect x="1029" y="632" width="5" height="25" fill="hsl(64 26% 24%)" opacity="0.72"/>
    <polygon points="953,516 927,625 979,625" fill="hsl(156 38% 27%)" opacity="0.75"/>
    <rect x="950" y="605" width="6" height="25" fill="hsl(64 26% 24%)" opacity="0.72"/>
    <polygon points="348,505 315,601 381,601" fill="hsl(156 38% 27%)" opacity="0.71"/>
    <rect x="344" y="584" width="8" height="22" fill="hsl(64 26% 24%)" opacity="0.72"/>
    <polygon points="804,498 779,613 829,613" fill="hsl(146 36% 37%)" opacity="0.87"/>
    <rect x="801" y="592" width="6" height="26" fill="hsl(64 26% 24%)" opacity="0.72"/>
    <polygon points="1023,486 996,608 1050,608" fill="hsl(156 38% 27%)" opacity="0.75"/>
    <rect x="1020" y="586" width="6" height="28" fill="hsl(64 26% 24%)" opacity="0.72"/>
    <polygon points="887,500 864,643 910,643" fill="hsl(146 36% 37%)" opacity="0.73"/>
    <rect x="884" y="617" width="6" height="33" fill="hsl(64 26% 24%)" opacity="0.72"/>
    <polygon points="160,464 141,603 179,603" fill="hsl(146 36% 37%)" opacity="0.83"/>
    <rect x="158" y="578" width="5" height="32" fill="hsl(64 26% 24%)" opacity="0.72"/>
    <polygon points="963,502 937,650 989,650" fill="hsl(146 36% 37%)" opacity="0.72"/>
    <rect x="960" y="623" width="6" height="34" fill="hsl(64 26% 24%)" opacity="0.72"/>
    <polygon points="1247,518 1225,626 1269,626" fill="hsl(146 36% 37%)" opacity="0.80"/>
    <rect x="1244" y="607" width="5" height="25" fill="hsl(64 26% 24%)" opacity="0.72"/>
    <polygon points="1577,468 1548,613 1606,613" fill="hsl(146 36% 37%)" opacity="0.86"/>
    <rect x="1574" y="587" width="7" height="33" fill="hsl(64 26% 24%)" opacity="0.72"/>
    <polygon points="644,495 611,622 677,622" fill="hsl(156 38% 27%)" opacity="0.89"/>
    <rect x="640" y="599" width="8" height="29" fill="hsl(64 26% 24%)" opacity="0.72"/>
    <polygon points="1140,491 1121,622 1159,622" fill="hsl(146 36% 37%)" opacity="0.83"/>
    <rect x="1138" y="598" width="5" height="30" fill="hsl(64 26% 24%)" opacity="0.72"/>
    <polygon points="543,504 518,655 568,655" fill="hsl(156 38% 27%)" opacity="0.71"/>
    <rect x="540" y="628" width="6" height="35" fill="hsl(64 26% 24%)" opacity="0.72"/>
    <polygon points="507,529 478,638 536,638" fill="hsl(156 38% 27%)" opacity="0.73"/>
    <rect x="504" y="618" width="7" height="25" fill="hsl(64 26% 24%)" opacity="0.72"/>
  </g>

  <rect y="646" width="1600" height="254" fill="url(#fog)"/>

  <g>
    <polygon points="1066,587 1014,738 1118,738" fill="hsl(156 38% 27%)" opacity="0.79"/>
    <rect x="1060" y="711" width="12" height="35" fill="hsl(64 26% 24%)" opacity="0.72"/>
    <polygon points="652,641 611,791 693,791" fill="hsl(146 36% 37%)" opacity="0.82"/>
    <rect x="647" y="764" width="10" height="35" fill="hsl(64 26% 24%)" opacity="0.72"/>
    <polygon points="236,595 184,740 288,740" fill="hsl(146 36% 37%)" opacity="0.88"/>
    <rect x="230" y="714" width="12" height="33" fill="hsl(64 26% 24%)" opacity="0.72"/>
    <polygon points="1362,521 1309,768 1415,768" fill="hsl(156 38% 27%)" opacity="0.79"/>
    <rect x="1356" y="724" width="13" height="57" fill="hsl(64 26% 24%)" opacity="0.72"/>
    <polygon points="82,555 54,793 110,793" fill="hsl(156 38% 27%)" opacity="0.68"/>
    <rect x="79" y="750" width="7" height="55" fill="hsl(64 26% 24%)" opacity="0.72"/>
    <polygon points="50,566 14,787 86,787" fill="hsl(156 38% 27%)" opacity="0.89"/>
    <rect x="46" y="747" width="9" height="51" fill="hsl(64 26% 24%)" opacity="0.72"/>
    <polygon points="973,657 937,812 1009,812" fill="hsl(156 38% 27%)" opacity="0.88"/>
    <rect x="969" y="784" width="9" height="36" fill="hsl(64 26% 24%)" opacity="0.72"/>
    <polygon points="289,589 242,770 336,770" fill="hsl(156 38% 27%)" opacity="0.88"/>
    <rect x="283" y="737" width="11" height="42" fill="hsl(64 26% 24%)" opacity="0.72"/>
    <polygon points="82,512 49,737 115,737" fill="hsl(146 36% 37%)" opacity="0.77"/>
    <rect x="78" y="696" width="8" height="52" fill="hsl(64 26% 24%)" opacity="0.72"/>
    <polygon points="1509,564 1466,739 1552,739" fill="hsl(146 36% 37%)" opacity="0.91"/>
    <rect x="1504" y="707" width="10" height="40" fill="hsl(64 26% 24%)" opacity="0.72"/>
    <polygon points="1254,532 1216,755 1292,755" fill="hsl(146 36% 37%)" opacity="0.76"/>
    <rect x="1249" y="715" width="9" height="51" fill="hsl(64 26% 24%)" opacity="0.72"/>
    <polygon points="476,607 440,817 512,817" fill="hsl(146 36% 37%)" opacity="0.79"/>
    <rect x="472" y="779" width="9" height="48" fill="hsl(64 26% 24%)" opacity="0.72"/>
    <polygon points="1319,662 1270,818 1368,818" fill="hsl(156 38% 27%)" opacity="0.90"/>
    <rect x="1313" y="790" width="12" height="36" fill="hsl(64 26% 24%)" opacity="0.72"/>
    <polygon points="157,583 124,790 190,790" fill="hsl(146 36% 37%)" opacity="0.75"/>
    <rect x="153" y="753" width="8" height="48" fill="hsl(64 26% 24%)" opacity="0.72"/>
    <polygon points="560,574 513,786 607,786" fill="hsl(156 38% 27%)" opacity="0.85"/>
    <rect x="554" y="748" width="11" height="49" fill="hsl(64 26% 24%)" opacity="0.72"/>
    <polygon points="39,631 8,771 70,771" fill="hsl(146 36% 37%)" opacity="0.91"/>
    <rect x="35" y="746" width="7" height="32" fill="hsl(64 26% 24%)" opacity="0.72"/>
  </g>

  <rect x="64" y="676" width="1472" height="184" rx="22" fill="#081517" opacity="0.54"/>
  <text x="118" y="726" fill="#d9e8c8" font-family="Poppins, Arial, sans-serif" font-size="28" font-weight="700">Devlet</text>
  <text x="118" y="792" fill="#ffffff" font-family="Poppins, Arial, sans-serif" font-size="66.0" font-weight="800">IBB (ISTAC)</text>
  

  <rect width="1600" height="900" fill="url(#vignette)"/>
</svg>
