<?xml version="1.0" encoding="UTF-8"?>
<svg xmlns="http://www.w3.org/2000/svg" viewBox="0 0 1600 900" role="img" aria-label="IGDAS">
  <defs>
    <linearGradient id="bg" x1="0" y1="0" x2="0" y2="1">
      <stop offset="0%" stop-color="hsl(16 36% 24%)"/>
      <stop offset="100%" stop-color="hsl(294 42% 46%)"/>
    </linearGradient>
    <linearGradient id="fog" x1="0" y1="0" x2="1" y2="0">
      <stop offset="0%" stop-color="hsl(256 20% 84%)" stop-opacity="0.22"/>
      <stop offset="50%" stop-color="#ffffff" stop-opacity="0.08"/>
      <stop offset="100%" stop-color="hsl(256 20% 84%)" stop-opacity="0.22"/>
    </linearGradient>
    <radialGradient id="vignette" cx="50%" cy="45%" r="70%">
      <stop offset="65%" stop-color="rgba(0,0,0,0)"/>
      <stop offset="100%" stop-color="rgba(0,0,0,0.35)"/>
    </radialGradient>
  </defs>

  <rect width="1600" height="900" fill="url(#bg)"/>
  <circle cx="1309" cy="191" r="73" fill="#f4efd4" opacity="0.34"/>

  <path d="M0 436 Q115 407 229 387 Q343 390 457 354 Q572 351 686 287 Q800 361 914 304 Q1029 370 1143 319 Q1257 367 1371 321 Q1486 402 1600 362 L1600 900 L0 900 Z" fill="hsl(311 28% 23%)" opacity="0.48"/>
  <path d="M0 503 Q115 450 229 415 Q343 447 457 402 Q572 460 686 412 Q800 468 914 421 Q1029 469 1143 443 Q1257 437 1371 382 Q1486 461 1600 426 L1600 900 L0 900 Z" fill="hsl(298 26% 30%)" opacity="0.62"/>
  <path d="M0 628 Q115 555 229 464 Q343 562 457 485 Q572 580 686 538 Q800 590 914 535 Q1029 575 1143 505 Q1257 553 1371 488 Q1486 556 1600 500 L1600 900 L0 900 Z" fill="hsl(286 24% 37%)" opacity="0.78"/>

  <g>
    <polygon points="1203,526 1176,659 1230,659" fill="hsl(276 36% 37%)" opacity="0.74"/>
    <rect x="1200" y="635" width="6" height="31" fill="hsl(194 26% 24%)" opacity="0.72"/>
    <polygon points="171,497 151,615 191,615" fill="hsl(276 36% 37%)" opacity="0.77"/>
    <rect x="169" y="594" width="5" height="27" fill="hsl(194 26% 24%)" opacity="0.72"/>
    <polygon points="743,509 720,641 766,641" fill="hsl(286 38% 25%)" opacity="0.81"/>
    <rect x="740" y="617" width="6" height="30" fill="hsl(194 26% 24%)" opacity="0.72"/>
    <polygon points="212,493 193,612 231,612" fill="hsl(276 36% 37%)" opacity="0.72"/>
    <rect x="210" y="591" width="5" height="27" fill="hsl(194 26% 24%)" opacity="0.72"/>
    <polygon points="572,499 541,614 603,614" fill="hsl(286 38% 25%)" opacity="0.88"/>
    <rect x="568" y="593" width="7" height="26" fill="hsl(194 26% 24%)" opacity="0.72"/>
    <polygon points="1353,490 1324,611 1382,611" fill="hsl(276 36% 37%)" opacity="0.84"/>
    <rect x="1350" y="589" width="7" height="28" fill="hsl(194 26% 24%)" opacity="0.72"/>
    <polygon points="462,460 437,605 487,605" fill="hsl(286 38% 25%)" opacity="0.75"/>
    <rect x="459" y="579" width="6" height="33" fill="hsl(194 26% 24%)" opacity="0.72"/>
    <polygon points="1142,508 1120,662 1164,662" fill="hsl(286 38% 25%)" opacity="0.74"/>
    <rect x="1139" y="634" width="5" height="35" fill="hsl(194 26% 24%)" opacity="0.72"/>
    <polygon points="417,538 385,635 449,635" fill="hsl(276 36% 37%)" opacity="0.77"/>
    <rect x="413" y="618" width="8" height="22" fill="hsl(194 26% 24%)" opacity="0.72"/>
    <polygon points="791,470 761,604 821,604" fill="hsl(276 36% 37%)" opacity="0.80"/>
    <rect x="787" y="580" width="7" height="31" fill="hsl(194 26% 24%)" opacity="0.72"/>
    <polygon points="1556,518 1526,642 1586,642" fill="hsl(286 38% 25%)" opacity="0.71"/>
    <rect x="1552" y="620" width="7" height="29" fill="hsl(194 26% 24%)" opacity="0.72"/>
    <polygon points="101,503 68,653 134,653" fill="hsl(286 38% 25%)" opacity="0.73"/>
    <rect x="97" y="626" width="8" height="35" fill="hsl(194 26% 24%)" opacity="0.72"/>
    <polygon points="1550,512 1528,607 1572,607" fill="hsl(286 38% 25%)" opacity="0.83"/>
    <rect x="1547" y="590" width="5" height="22" fill="hsl(194 26% 24%)" opacity="0.72"/>
    <polygon points="189,493 157,656 221,656" fill="hsl(276 36% 37%)" opacity="0.91"/>
    <rect x="185" y="627" width="8" height="37" fill="hsl(194 26% 24%)" opacity="0.72"/>
    <polygon points="233,465 210,610 256,610" fill="hsl(276 36% 37%)" opacity="0.92"/>
    <rect x="230" y="584" width="6" height="33" fill="hsl(194 26% 24%)" opacity="0.72"/>
    <polygon points="1428,506 1410,622 1446,622" fill="hsl(286 38% 25%)" opacity="0.82"/>
    <rect x="1426" y="601" width="4" height="27" fill="hsl(194 26% 24%)" opacity="0.72"/>
    <polygon points="251,481 220,617 282,617" fill="hsl(276 36% 37%)" opacity="0.71"/>
    <rect x="247" y="593" width="7" height="31" fill="hsl(194 26% 24%)" opacity="0.72"/>
    <polygon points="826,480 793,639 859,639" fill="hsl(276 36% 37%)" opacity="0.68"/>
    <rect x="822" y="610" width="8" height="37" fill="hsl(194 26% 24%)" opacity="0.72"/>
  </g>

  <rect y="646" width="1600" height="254" fill="url(#fog)"/>

  <g>
    <polygon points="1187,523 1149,754 1225,754" fill="hsl(276 36% 37%)" opacity="0.80"/>
    <rect x="1182" y="712" width="9" height="53" fill="hsl(194 26% 24%)" opacity="0.72"/>
    <polygon points="774,593 726,804 822,804" fill="hsl(276 36% 37%)" opacity="0.72"/>
    <rect x="768" y="766" width="12" height="49" fill="hsl(194 26% 24%)" opacity="0.72"/>
    <polygon points="491,578 462,786 520,786" fill="hsl(286 38% 25%)" opacity="0.73"/>
    <rect x="488" y="749" width="7" height="48" fill="hsl(194 26% 24%)" opacity="0.72"/>
    <polygon points="824,586 788,748 860,748" fill="hsl(286 38% 25%)" opacity="0.89"/>
    <rect x="820" y="719" width="9" height="37" fill="hsl(194 26% 24%)" opacity="0.72"/>
    <polygon points="1484,575 1434,796 1534,796" fill="hsl(276 36% 37%)" opacity="0.89"/>
    <rect x="1478" y="756" width="12" height="51" fill="hsl(194 26% 24%)" opacity="0.72"/>
    <polygon points="647,502 612,734 682,734" fill="hsl(276 36% 37%)" opacity="0.69"/>
    <rect x="643" y="692" width="8" height="53" fill="hsl(194 26% 24%)" opacity="0.72"/>
    <polygon points="96,627 58,802 134,802" fill="hsl(286 38% 25%)" opacity="0.74"/>
    <rect x="91" y="770" width="9" height="40" fill="hsl(194 26% 24%)" opacity="0.72"/>
    <polygon points="1115,626 1066,803 1164,803" fill="hsl(286 38% 25%)" opacity="0.72"/>
    <rect x="1109" y="771" width="12" height="41" fill="hsl(194 26% 24%)" opacity="0.72"/>
    <polygon points="1056,670 1013,801 1099,801" fill="hsl(276 36% 37%)" opacity="0.89"/>
    <rect x="1051" y="777" width="10" height="30" fill="hsl(194 26% 24%)" opacity="0.72"/>
    <polygon points="1189,609 1140,784 1238,784" fill="hsl(286 38% 25%)" opacity="0.75"/>
    <rect x="1183" y="752" width="12" height="40" fill="hsl(194 26% 24%)" opacity="0.72"/>
    <polygon points="787,605 752,792 822,792" fill="hsl(276 36% 37%)" opacity="0.72"/>
    <rect x="783" y="758" width="8" height="43" fill="hsl(194 26% 24%)" opacity="0.72"/>
    <polygon points="1077,541 1048,783 1106,783" fill="hsl(286 38% 25%)" opacity="0.82"/>
    <rect x="1074" y="739" width="7" height="56" fill="hsl(194 26% 24%)" opacity="0.72"/>
    <polygon points="1118,598 1085,778 1151,778" fill="hsl(286 38% 25%)" opacity="0.74"/>
    <rect x="1114" y="746" width="8" height="41" fill="hsl(194 26% 24%)" opacity="0.72"/>
    <polygon points="1425,558 1383,780 1467,780" fill="hsl(276 36% 37%)" opacity="0.88"/>
    <rect x="1420" y="740" width="10" height="51" fill="hsl(194 26% 24%)" opacity="0.72"/>
    <polygon points="1298,548 1254,758 1342,758" fill="hsl(286 38% 25%)" opacity="0.90"/>
    <rect x="1293" y="720" width="11" height="48" fill="hsl(194 26% 24%)" opacity="0.72"/>
    <polygon points="1322,661 1282,802 1362,802" fill="hsl(276 36% 37%)" opacity="0.83"/>
    <rect x="1317" y="777" width="10" height="32" fill="hsl(194 26% 24%)" opacity="0.72"/>
  </g>

  <rect x="64" y="676" width="1472" height="184" rx="22" fill="#081517" opacity="0.54"/>
  <text x="118" y="726" fill="#d9e8c8" font-family="Poppins, Arial, sans-serif" font-size="28" font-weight="700">Devlet</text>
  <text x="118" y="792" fill="#ffffff" font-family="Poppins, Arial, sans-serif" font-size="66.0" font-weight="800">IGDAS</text>
  

  <rect width="1600" height="900" fill="url(#vignette)"/>
</svg>
