<?xml version="1.0" encoding="UTF-8"?>
<svg xmlns="http://www.w3.org/2000/svg" viewBox="0 0 1600 900" role="img" aria-label="Ilkdal">
  <defs>
    <linearGradient id="bg" x1="0" y1="0" x2="0" y2="1">
      <stop offset="0%" stop-color="hsl(186 46% 22%)"/>
      <stop offset="100%" stop-color="hsl(104 43% 44%)"/>
    </linearGradient>
    <linearGradient id="fog" x1="0" y1="0" x2="1" y2="0">
      <stop offset="0%" stop-color="hsl(66 20% 84%)" stop-opacity="0.22"/>
      <stop offset="50%" stop-color="#ffffff" stop-opacity="0.08"/>
      <stop offset="100%" stop-color="hsl(66 20% 84%)" stop-opacity="0.22"/>
    </linearGradient>
    <radialGradient id="vignette" cx="50%" cy="45%" r="70%">
      <stop offset="65%" stop-color="rgba(0,0,0,0)"/>
      <stop offset="100%" stop-color="rgba(0,0,0,0.35)"/>
    </radialGradient>
  </defs>

  <rect width="1600" height="900" fill="url(#bg)"/>
  <circle cx="1339" cy="263" r="90" fill="#f4efd4" opacity="0.34"/>

  <path d="M0 411 Q115 378 229 364 Q343 383 457 371 Q572 380 686 335 Q800 382 914 369 Q1029 382 1143 362 Q1257 384 1371 354 Q1486 372 1600 318 L1600 900 L0 900 Z" fill="hsl(121 28% 24%)" opacity="0.48"/>
  <path d="M0 536 Q115 462 229 410 Q343 512 457 477 Q572 448 686 383 Q800 502 914 477 Q1029 481 1143 416 Q1257 445 1371 369 Q1486 460 1600 385 L1600 900 L0 900 Z" fill="hsl(108 26% 31%)" opacity="0.62"/>
  <path d="M0 646 Q115 602 229 566 Q343 599 457 570 Q572 587 686 520 Q800 590 914 515 Q1029 614 1143 594 Q1257 572 1371 513 Q1486 582 1600 525 L1600 900 L0 900 Z" fill="hsl(96 24% 44%)" opacity="0.78"/>

  <g>
    <polygon points="1189,526 1156,644 1222,644" fill="hsl(96 38% 28%)" opacity="0.80"/>
    <rect x="1185" y="623" width="8" height="27" fill="hsl(4 26% 24%)" opacity="0.72"/>
    <polygon points="1282,549 1253,647 1311,647" fill="hsl(86 36% 32%)" opacity="0.82"/>
    <rect x="1279" y="629" width="7" height="23" fill="hsl(4 26% 24%)" opacity="0.72"/>
    <polygon points="279,455 256,616 302,616" fill="hsl(86 36% 32%)" opacity="0.83"/>
    <rect x="276" y="587" width="6" height="37" fill="hsl(4 26% 24%)" opacity="0.72"/>
    <polygon points="242,482 209,613 275,613" fill="hsl(86 36% 32%)" opacity="0.82"/>
    <rect x="238" y="589" width="8" height="30" fill="hsl(4 26% 24%)" opacity="0.72"/>
    <polygon points="1013,526 989,628 1037,628" fill="hsl(96 38% 28%)" opacity="0.81"/>
    <rect x="1010" y="610" width="6" height="23" fill="hsl(4 26% 24%)" opacity="0.72"/>
    <polygon points="1293,546 1275,661 1311,661" fill="hsl(86 36% 32%)" opacity="0.73"/>
    <rect x="1291" y="640" width="4" height="26" fill="hsl(4 26% 24%)" opacity="0.72"/>
    <polygon points="1095,477 1070,613 1120,613" fill="hsl(86 36% 32%)" opacity="0.86"/>
    <rect x="1092" y="589" width="6" height="31" fill="hsl(4 26% 24%)" opacity="0.72"/>
    <polygon points="63,495 43,623 83,623" fill="hsl(86 36% 32%)" opacity="0.89"/>
    <rect x="61" y="600" width="5" height="29" fill="hsl(4 26% 24%)" opacity="0.72"/>
    <polygon points="180,571 151,663 209,663" fill="hsl(96 38% 28%)" opacity="0.68"/>
    <rect x="177" y="646" width="7" height="21" fill="hsl(4 26% 24%)" opacity="0.72"/>
    <polygon points="50,467 31,615 69,615" fill="hsl(96 38% 28%)" opacity="0.70"/>
    <rect x="48" y="588" width="5" height="34" fill="hsl(4 26% 24%)" opacity="0.72"/>
    <polygon points="25,490 4,642 46,642" fill="hsl(86 36% 32%)" opacity="0.87"/>
    <rect x="22" y="615" width="5" height="35" fill="hsl(4 26% 24%)" opacity="0.72"/>
    <polygon points="1174,528 1147,648 1201,648" fill="hsl(96 38% 28%)" opacity="0.73"/>
    <rect x="1171" y="626" width="6" height="28" fill="hsl(4 26% 24%)" opacity="0.72"/>
    <polygon points="1537,474 1511,607 1563,607" fill="hsl(86 36% 32%)" opacity="0.74"/>
    <rect x="1534" y="583" width="6" height="31" fill="hsl(4 26% 24%)" opacity="0.72"/>
    <polygon points="1357,522 1331,642 1383,642" fill="hsl(86 36% 32%)" opacity="0.83"/>
    <rect x="1354" y="620" width="6" height="28" fill="hsl(4 26% 24%)" opacity="0.72"/>
    <polygon points="147,519 114,613 180,613" fill="hsl(96 38% 28%)" opacity="0.75"/>
    <rect x="143" y="596" width="8" height="22" fill="hsl(4 26% 24%)" opacity="0.72"/>
    <polygon points="1548,458 1519,609 1577,609" fill="hsl(86 36% 32%)" opacity="0.84"/>
    <rect x="1545" y="582" width="7" height="35" fill="hsl(4 26% 24%)" opacity="0.72"/>
    <polygon points="1525,525 1497,619 1553,619" fill="hsl(86 36% 32%)" opacity="0.87"/>
    <rect x="1522" y="602" width="7" height="22" fill="hsl(4 26% 24%)" opacity="0.72"/>
    <polygon points="1487,524 1463,642 1511,642" fill="hsl(96 38% 28%)" opacity="0.81"/>
    <rect x="1484" y="621" width="6" height="27" fill="hsl(4 26% 24%)" opacity="0.72"/>
  </g>

  <rect y="646" width="1600" height="254" fill="url(#fog)"/>

  <g>
    <polygon points="884,653 856,789 912,789" fill="hsl(86 36% 32%)" opacity="0.86"/>
    <rect x="881" y="765" width="7" height="31" fill="hsl(4 26% 24%)" opacity="0.72"/>
    <polygon points="328,648 295,807 361,807" fill="hsl(96 38% 28%)" opacity="0.69"/>
    <rect x="324" y="778" width="8" height="37" fill="hsl(4 26% 24%)" opacity="0.72"/>
    <polygon points="395,518 352,738 438,738" fill="hsl(86 36% 32%)" opacity="0.91"/>
    <rect x="390" y="698" width="10" height="51" fill="hsl(4 26% 24%)" opacity="0.72"/>
    <polygon points="1425,564 1386,785 1464,785" fill="hsl(96 38% 28%)" opacity="0.84"/>
    <rect x="1420" y="745" width="9" height="51" fill="hsl(4 26% 24%)" opacity="0.72"/>
    <polygon points="630,588 591,789 669,789" fill="hsl(96 38% 28%)" opacity="0.76"/>
    <rect x="625" y="753" width="9" height="46" fill="hsl(4 26% 24%)" opacity="0.72"/>
    <polygon points="1499,596 1446,749 1552,749" fill="hsl(96 38% 28%)" opacity="0.88"/>
    <rect x="1493" y="721" width="13" height="35" fill="hsl(4 26% 24%)" opacity="0.72"/>
    <polygon points="1578,597 1524,772 1632,772" fill="hsl(96 38% 28%)" opacity="0.69"/>
    <rect x="1572" y="740" width="13" height="40" fill="hsl(4 26% 24%)" opacity="0.72"/>
    <polygon points="381,550 330,799 432,799" fill="hsl(86 36% 32%)" opacity="0.90"/>
    <rect x="375" y="754" width="12" height="57" fill="hsl(4 26% 24%)" opacity="0.72"/>
    <polygon points="309,542 275,776 343,776" fill="hsl(86 36% 32%)" opacity="0.84"/>
    <rect x="305" y="734" width="8" height="54" fill="hsl(4 26% 24%)" opacity="0.72"/>
    <polygon points="1499,628 1451,769 1547,769" fill="hsl(96 38% 28%)" opacity="0.80"/>
    <rect x="1493" y="744" width="12" height="32" fill="hsl(4 26% 24%)" opacity="0.72"/>
    <polygon points="65,551 15,732 115,732" fill="hsl(86 36% 32%)" opacity="0.79"/>
    <rect x="59" y="699" width="12" height="42" fill="hsl(4 26% 24%)" opacity="0.72"/>
    <polygon points="1352,489 1319,732 1385,732" fill="hsl(96 38% 28%)" opacity="0.71"/>
    <rect x="1348" y="688" width="8" height="56" fill="hsl(4 26% 24%)" opacity="0.72"/>
    <polygon points="1250,630 1218,793 1282,793" fill="hsl(96 38% 28%)" opacity="0.73"/>
    <rect x="1246" y="764" width="8" height="37" fill="hsl(4 26% 24%)" opacity="0.72"/>
    <polygon points="877,556 847,794 907,794" fill="hsl(86 36% 32%)" opacity="0.89"/>
    <rect x="873" y="751" width="7" height="55" fill="hsl(4 26% 24%)" opacity="0.72"/>
    <polygon points="90,538 54,730 126,730" fill="hsl(96 38% 28%)" opacity="0.74"/>
    <rect x="86" y="695" width="9" height="44" fill="hsl(4 26% 24%)" opacity="0.72"/>
    <polygon points="388,569 342,797 434,797" fill="hsl(96 38% 28%)" opacity="0.86"/>
    <rect x="382" y="756" width="11" height="52" fill="hsl(4 26% 24%)" opacity="0.72"/>
  </g>

  <rect x="64" y="676" width="1472" height="184" rx="22" fill="#081517" opacity="0.54"/>
  <text x="118" y="726" fill="#d9e8c8" font-family="Poppins, Arial, sans-serif" font-size="28" font-weight="700">Maden Izinleri</text>
  <text x="118" y="792" fill="#ffffff" font-family="Poppins, Arial, sans-serif" font-size="66.0" font-weight="800">Ilkdal</text>
  

  <rect width="1600" height="900" fill="url(#vignette)"/>
</svg>
