<?xml version="1.0" encoding="UTF-8"?>
<svg xmlns="http://www.w3.org/2000/svg" viewBox="0 0 1600 900" role="img" aria-label="ISKI">
  <defs>
    <linearGradient id="bg" x1="0" y1="0" x2="0" y2="1">
      <stop offset="0%" stop-color="hsl(18 35% 25%)"/>
      <stop offset="100%" stop-color="hsl(296 32% 45%)"/>
    </linearGradient>
    <linearGradient id="fog" x1="0" y1="0" x2="1" y2="0">
      <stop offset="0%" stop-color="hsl(258 20% 84%)" stop-opacity="0.22"/>
      <stop offset="50%" stop-color="#ffffff" stop-opacity="0.08"/>
      <stop offset="100%" stop-color="hsl(258 20% 84%)" stop-opacity="0.22"/>
    </linearGradient>
    <radialGradient id="vignette" cx="50%" cy="45%" r="70%">
      <stop offset="65%" stop-color="rgba(0,0,0,0)"/>
      <stop offset="100%" stop-color="rgba(0,0,0,0.35)"/>
    </radialGradient>
  </defs>

  <rect width="1600" height="900" fill="url(#bg)"/>
  <circle cx="1158" cy="209" r="85" fill="#f4efd4" opacity="0.34"/>

  <path d="M0 425 Q115 349 229 296 Q343 398 457 354 Q572 371 686 325 Q800 366 914 289 Q1029 358 1143 289 Q1257 374 1371 334 Q1486 388 1600 349 L1600 900 L0 900 Z" fill="hsl(313 28% 24%)" opacity="0.48"/>
  <path d="M0 510 Q115 462 229 395 Q343 432 457 355 Q572 475 686 420 Q800 467 914 438 Q1029 476 1143 443 Q1257 465 1371 425 Q1486 471 1600 427 L1600 900 L0 900 Z" fill="hsl(300 26% 30%)" opacity="0.62"/>
  <path d="M0 626 Q115 589 229 554 Q343 595 457 560 Q572 571 686 535 Q800 581 914 552 Q1029 572 1143 514 Q1257 594 1371 570 Q1486 558 1600 476 L1600 900 L0 900 Z" fill="hsl(288 24% 38%)" opacity="0.78"/>

  <g>
    <polygon points="646,528 627,655 665,655" fill="hsl(288 38% 26%)" opacity="0.91"/>
    <rect x="644" y="632" width="5" height="29" fill="hsl(196 26% 24%)" opacity="0.72"/>
    <polygon points="205,499 181,608 229,608" fill="hsl(278 36% 37%)" opacity="0.88"/>
    <rect x="202" y="588" width="6" height="25" fill="hsl(196 26% 24%)" opacity="0.72"/>
    <polygon points="208,513 188,630 228,630" fill="hsl(288 38% 26%)" opacity="0.85"/>
    <rect x="206" y="609" width="5" height="27" fill="hsl(196 26% 24%)" opacity="0.72"/>
    <polygon points="964,511 944,612 984,612" fill="hsl(288 38% 26%)" opacity="0.82"/>
    <rect x="962" y="594" width="5" height="23" fill="hsl(196 26% 24%)" opacity="0.72"/>
    <polygon points="730,499 708,661 752,661" fill="hsl(288 38% 26%)" opacity="0.89"/>
    <rect x="727" y="632" width="5" height="37" fill="hsl(196 26% 24%)" opacity="0.72"/>
    <polygon points="880,490 860,630 900,630" fill="hsl(278 36% 37%)" opacity="0.80"/>
    <rect x="878" y="605" width="5" height="32" fill="hsl(196 26% 24%)" opacity="0.72"/>
    <polygon points="268,496 241,609 295,609" fill="hsl(278 36% 37%)" opacity="0.84"/>
    <rect x="265" y="589" width="6" height="26" fill="hsl(196 26% 24%)" opacity="0.72"/>
    <polygon points="1221,533 1190,640 1252,640" fill="hsl(278 36% 37%)" opacity="0.81"/>
    <rect x="1217" y="621" width="7" height="25" fill="hsl(196 26% 24%)" opacity="0.72"/>
    <polygon points="836,472 804,634 868,634" fill="hsl(288 38% 26%)" opacity="0.90"/>
    <rect x="832" y="605" width="8" height="37" fill="hsl(196 26% 24%)" opacity="0.72"/>
    <polygon points="506,466 477,632 535,632" fill="hsl(278 36% 37%)" opacity="0.73"/>
    <rect x="503" y="602" width="7" height="38" fill="hsl(196 26% 24%)" opacity="0.72"/>
    <polygon points="1502,483 1476,604 1528,604" fill="hsl(288 38% 26%)" opacity="0.89"/>
    <rect x="1499" y="582" width="6" height="28" fill="hsl(196 26% 24%)" opacity="0.72"/>
    <polygon points="1123,552 1100,646 1146,646" fill="hsl(278 36% 37%)" opacity="0.75"/>
    <rect x="1120" y="629" width="6" height="22" fill="hsl(196 26% 24%)" opacity="0.72"/>
    <polygon points="553,536 522,654 584,654" fill="hsl(288 38% 26%)" opacity="0.83"/>
    <rect x="549" y="633" width="7" height="27" fill="hsl(196 26% 24%)" opacity="0.72"/>
    <polygon points="1556,472 1534,635 1578,635" fill="hsl(278 36% 37%)" opacity="0.73"/>
    <rect x="1553" y="606" width="5" height="37" fill="hsl(196 26% 24%)" opacity="0.72"/>
    <polygon points="1488,470 1458,622 1518,622" fill="hsl(278 36% 37%)" opacity="0.88"/>
    <rect x="1484" y="595" width="7" height="35" fill="hsl(196 26% 24%)" opacity="0.72"/>
    <polygon points="499,476 473,601 525,601" fill="hsl(278 36% 37%)" opacity="0.82"/>
    <rect x="496" y="578" width="6" height="29" fill="hsl(196 26% 24%)" opacity="0.72"/>
    <polygon points="1298,538 1271,630 1325,630" fill="hsl(278 36% 37%)" opacity="0.78"/>
    <rect x="1295" y="613" width="6" height="21" fill="hsl(196 26% 24%)" opacity="0.72"/>
    <polygon points="45,496 25,640 65,640" fill="hsl(288 38% 26%)" opacity="0.87"/>
    <rect x="43" y="614" width="5" height="33" fill="hsl(196 26% 24%)" opacity="0.72"/>
  </g>

  <rect y="646" width="1600" height="254" fill="url(#fog)"/>

  <g>
    <polygon points="412,657 369,811 455,811" fill="hsl(278 36% 37%)" opacity="0.74"/>
    <rect x="407" y="783" width="10" height="35" fill="hsl(196 26% 24%)" opacity="0.72"/>
    <polygon points="1392,627 1361,799 1423,799" fill="hsl(288 38% 26%)" opacity="0.74"/>
    <rect x="1388" y="768" width="7" height="40" fill="hsl(196 26% 24%)" opacity="0.72"/>
    <polygon points="410,654 362,795 458,795" fill="hsl(288 38% 26%)" opacity="0.83"/>
    <rect x="404" y="770" width="12" height="32" fill="hsl(196 26% 24%)" opacity="0.72"/>
    <polygon points="403,638 353,777 453,777" fill="hsl(278 36% 37%)" opacity="0.90"/>
    <rect x="397" y="752" width="12" height="32" fill="hsl(196 26% 24%)" opacity="0.72"/>
    <polygon points="574,619 535,766 613,766" fill="hsl(278 36% 37%)" opacity="0.89"/>
    <rect x="569" y="740" width="9" height="34" fill="hsl(196 26% 24%)" opacity="0.72"/>
    <polygon points="1343,620 1295,805 1391,805" fill="hsl(278 36% 37%)" opacity="0.81"/>
    <rect x="1337" y="772" width="12" height="43" fill="hsl(196 26% 24%)" opacity="0.72"/>
    <polygon points="684,515 641,758 727,758" fill="hsl(278 36% 37%)" opacity="0.86"/>
    <rect x="679" y="714" width="10" height="56" fill="hsl(196 26% 24%)" opacity="0.72"/>
    <polygon points="462,516 433,759 491,759" fill="hsl(288 38% 26%)" opacity="0.80"/>
    <rect x="459" y="715" width="7" height="56" fill="hsl(196 26% 24%)" opacity="0.72"/>
    <polygon points="127,543 93,766 161,766" fill="hsl(278 36% 37%)" opacity="0.89"/>
    <rect x="123" y="726" width="8" height="51" fill="hsl(196 26% 24%)" opacity="0.72"/>
    <polygon points="1547,684 1499,816 1595,816" fill="hsl(288 38% 26%)" opacity="0.91"/>
    <rect x="1541" y="792" width="12" height="30" fill="hsl(196 26% 24%)" opacity="0.72"/>
    <polygon points="596,574 561,743 631,743" fill="hsl(278 36% 37%)" opacity="0.73"/>
    <rect x="592" y="713" width="8" height="39" fill="hsl(196 26% 24%)" opacity="0.72"/>
    <polygon points="721,569 689,744 753,744" fill="hsl(278 36% 37%)" opacity="0.90"/>
    <rect x="717" y="712" width="8" height="40" fill="hsl(196 26% 24%)" opacity="0.72"/>
    <polygon points="1161,598 1113,795 1209,795" fill="hsl(288 38% 26%)" opacity="0.70"/>
    <rect x="1155" y="760" width="12" height="45" fill="hsl(196 26% 24%)" opacity="0.72"/>
    <polygon points="650,582 598,771 702,771" fill="hsl(288 38% 26%)" opacity="0.89"/>
    <rect x="644" y="737" width="12" height="43" fill="hsl(196 26% 24%)" opacity="0.72"/>
    <polygon points="339,578 307,763 371,763" fill="hsl(278 36% 37%)" opacity="0.88"/>
    <rect x="335" y="730" width="8" height="43" fill="hsl(196 26% 24%)" opacity="0.72"/>
    <polygon points="1136,664 1091,811 1181,811" fill="hsl(288 38% 26%)" opacity="0.72"/>
    <rect x="1131" y="785" width="11" height="34" fill="hsl(196 26% 24%)" opacity="0.72"/>
  </g>

  <rect x="64" y="676" width="1472" height="184" rx="22" fill="#081517" opacity="0.54"/>
  <text x="118" y="726" fill="#d9e8c8" font-family="Poppins, Arial, sans-serif" font-size="28" font-weight="700">Devlet</text>
  <text x="118" y="792" fill="#ffffff" font-family="Poppins, Arial, sans-serif" font-size="66.0" font-weight="800">ISKI</text>
  

  <rect width="1600" height="900" fill="url(#vignette)"/>
</svg>
