<?xml version="1.0" encoding="UTF-8"?>
<svg xmlns="http://www.w3.org/2000/svg" viewBox="0 0 1600 900" role="img" aria-label="Istanbul Emniyet Mudurlugu">
  <defs>
    <linearGradient id="bg" x1="0" y1="0" x2="0" y2="1">
      <stop offset="0%" stop-color="hsl(318 40% 21%)"/>
      <stop offset="100%" stop-color="hsl(236 37% 40%)"/>
    </linearGradient>
    <linearGradient id="fog" x1="0" y1="0" x2="1" y2="0">
      <stop offset="0%" stop-color="hsl(198 20% 84%)" stop-opacity="0.22"/>
      <stop offset="50%" stop-color="#ffffff" stop-opacity="0.08"/>
      <stop offset="100%" stop-color="hsl(198 20% 84%)" stop-opacity="0.22"/>
    </linearGradient>
    <radialGradient id="vignette" cx="50%" cy="45%" r="70%">
      <stop offset="65%" stop-color="rgba(0,0,0,0)"/>
      <stop offset="100%" stop-color="rgba(0,0,0,0.35)"/>
    </radialGradient>
  </defs>

  <rect width="1600" height="900" fill="url(#bg)"/>
  <circle cx="1347" cy="139" r="86" fill="#f4efd4" opacity="0.34"/>

  <path d="M0 427 Q115 392 229 351 Q343 393 457 373 Q572 384 686 338 Q800 378 914 309 Q1029 382 1143 347 Q1257 386 1371 350 Q1486 372 1600 315 L1600 900 L0 900 Z" fill="hsl(253 28% 26%)" opacity="0.48"/>
  <path d="M0 539 Q115 508 229 472 Q343 485 457 454 Q572 488 686 418 Q800 490 914 422 Q1029 506 1143 482 Q1257 499 1371 454 Q1486 498 1600 459 L1600 900 L0 900 Z" fill="hsl(240 26% 30%)" opacity="0.62"/>
  <path d="M0 616 Q115 528 229 423 Q343 526 457 445 Q572 573 686 521 Q800 589 914 543 Q1029 518 1143 439 Q1257 554 1371 511 Q1486 568 1600 505 L1600 900 L0 900 Z" fill="hsl(228 24% 42%)" opacity="0.78"/>

  <g>
    <polygon points="877,493 846,601 908,601" fill="hsl(218 36% 35%)" opacity="0.84"/>
    <rect x="873" y="582" width="7" height="25" fill="hsl(136 26% 24%)" opacity="0.72"/>
    <polygon points="1381,536 1349,629 1413,629" fill="hsl(218 36% 35%)" opacity="0.71"/>
    <rect x="1377" y="612" width="8" height="21" fill="hsl(136 26% 24%)" opacity="0.72"/>
    <polygon points="198,500 166,662 230,662" fill="hsl(218 36% 35%)" opacity="0.82"/>
    <rect x="194" y="633" width="8" height="37" fill="hsl(136 26% 24%)" opacity="0.72"/>
    <polygon points="1098,516 1077,634 1119,634" fill="hsl(218 36% 35%)" opacity="0.76"/>
    <rect x="1095" y="613" width="5" height="27" fill="hsl(136 26% 24%)" opacity="0.72"/>
    <polygon points="1223,536 1200,641 1246,641" fill="hsl(228 38% 27%)" opacity="0.73"/>
    <rect x="1220" y="622" width="6" height="24" fill="hsl(136 26% 24%)" opacity="0.72"/>
    <polygon points="951,550 922,663 980,663" fill="hsl(228 38% 27%)" opacity="0.78"/>
    <rect x="948" y="643" width="7" height="26" fill="hsl(136 26% 24%)" opacity="0.72"/>
    <polygon points="296,439 277,602 315,602" fill="hsl(218 36% 35%)" opacity="0.75"/>
    <rect x="294" y="573" width="5" height="37" fill="hsl(136 26% 24%)" opacity="0.72"/>
    <polygon points="1277,536 1256,656 1298,656" fill="hsl(218 36% 35%)" opacity="0.69"/>
    <rect x="1274" y="634" width="5" height="28" fill="hsl(136 26% 24%)" opacity="0.72"/>
    <polygon points="1300,534 1280,660 1320,660" fill="hsl(228 38% 27%)" opacity="0.71"/>
    <rect x="1298" y="637" width="5" height="29" fill="hsl(136 26% 24%)" opacity="0.72"/>
    <polygon points="480,478 447,618 513,618" fill="hsl(228 38% 27%)" opacity="0.81"/>
    <rect x="476" y="593" width="8" height="32" fill="hsl(136 26% 24%)" opacity="0.72"/>
    <polygon points="1014,460 991,617 1037,617" fill="hsl(218 36% 35%)" opacity="0.85"/>
    <rect x="1011" y="589" width="6" height="36" fill="hsl(136 26% 24%)" opacity="0.72"/>
    <polygon points="311,497 285,610 337,610" fill="hsl(218 36% 35%)" opacity="0.72"/>
    <rect x="308" y="590" width="6" height="26" fill="hsl(136 26% 24%)" opacity="0.72"/>
    <polygon points="717,538 683,642 751,642" fill="hsl(228 38% 27%)" opacity="0.87"/>
    <rect x="713" y="623" width="8" height="24" fill="hsl(136 26% 24%)" opacity="0.72"/>
    <polygon points="1043,493 1009,629 1077,629" fill="hsl(228 38% 27%)" opacity="0.82"/>
    <rect x="1039" y="605" width="8" height="31" fill="hsl(136 26% 24%)" opacity="0.72"/>
    <polygon points="635,545 603,644 667,644" fill="hsl(228 38% 27%)" opacity="0.83"/>
    <rect x="631" y="626" width="8" height="23" fill="hsl(136 26% 24%)" opacity="0.72"/>
    <polygon points="182,500 158,611 206,611" fill="hsl(218 36% 35%)" opacity="0.76"/>
    <rect x="179" y="591" width="6" height="26" fill="hsl(136 26% 24%)" opacity="0.72"/>
    <polygon points="1074,510 1045,616 1103,616" fill="hsl(218 36% 35%)" opacity="0.71"/>
    <rect x="1071" y="597" width="7" height="24" fill="hsl(136 26% 24%)" opacity="0.72"/>
    <polygon points="1143,561 1124,659 1162,659" fill="hsl(218 36% 35%)" opacity="0.76"/>
    <rect x="1141" y="641" width="5" height="23" fill="hsl(136 26% 24%)" opacity="0.72"/>
  </g>

  <rect y="646" width="1600" height="254" fill="url(#fog)"/>

  <g>
    <polygon points="1128,539 1083,771 1173,771" fill="hsl(218 36% 35%)" opacity="0.81"/>
    <rect x="1123" y="729" width="11" height="53" fill="hsl(136 26% 24%)" opacity="0.72"/>
    <polygon points="313,600 264,758 362,758" fill="hsl(218 36% 35%)" opacity="0.74"/>
    <rect x="307" y="730" width="12" height="36" fill="hsl(136 26% 24%)" opacity="0.72"/>
    <polygon points="865,521 825,762 905,762" fill="hsl(228 38% 27%)" opacity="0.81"/>
    <rect x="860" y="719" width="10" height="55" fill="hsl(136 26% 24%)" opacity="0.72"/>
    <polygon points="752,647 714,813 790,813" fill="hsl(228 38% 27%)" opacity="0.80"/>
    <rect x="747" y="783" width="9" height="38" fill="hsl(136 26% 24%)" opacity="0.72"/>
    <polygon points="1440,625 1409,802 1471,802" fill="hsl(228 38% 27%)" opacity="0.88"/>
    <rect x="1436" y="770" width="7" height="41" fill="hsl(136 26% 24%)" opacity="0.72"/>
    <polygon points="419,664 388,800 450,800" fill="hsl(218 36% 35%)" opacity="0.85"/>
    <rect x="415" y="776" width="7" height="31" fill="hsl(136 26% 24%)" opacity="0.72"/>
    <polygon points="456,557 418,805 494,805" fill="hsl(218 36% 35%)" opacity="0.71"/>
    <rect x="451" y="760" width="9" height="57" fill="hsl(136 26% 24%)" opacity="0.72"/>
    <polygon points="1317,660 1270,803 1364,803" fill="hsl(218 36% 35%)" opacity="0.74"/>
    <rect x="1311" y="777" width="11" height="33" fill="hsl(136 26% 24%)" opacity="0.72"/>
    <polygon points="736,541 700,753 772,753" fill="hsl(218 36% 35%)" opacity="0.85"/>
    <rect x="732" y="715" width="9" height="49" fill="hsl(136 26% 24%)" opacity="0.72"/>
    <polygon points="880,661 835,803 925,803" fill="hsl(228 38% 27%)" opacity="0.71"/>
    <rect x="875" y="777" width="11" height="33" fill="hsl(136 26% 24%)" opacity="0.72"/>
    <polygon points="115,544 70,748 160,748" fill="hsl(218 36% 35%)" opacity="0.84"/>
    <rect x="110" y="711" width="11" height="47" fill="hsl(136 26% 24%)" opacity="0.72"/>
    <polygon points="1400,519 1366,765 1434,765" fill="hsl(228 38% 27%)" opacity="0.82"/>
    <rect x="1396" y="721" width="8" height="57" fill="hsl(136 26% 24%)" opacity="0.72"/>
    <polygon points="1494,586 1450,750 1538,750" fill="hsl(218 36% 35%)" opacity="0.70"/>
    <rect x="1489" y="720" width="11" height="38" fill="hsl(136 26% 24%)" opacity="0.72"/>
    <polygon points="286,662 253,808 319,808" fill="hsl(228 38% 27%)" opacity="0.91"/>
    <rect x="282" y="782" width="8" height="34" fill="hsl(136 26% 24%)" opacity="0.72"/>
    <polygon points="206,512 169,734 243,734" fill="hsl(218 36% 35%)" opacity="0.90"/>
    <rect x="202" y="694" width="9" height="51" fill="hsl(136 26% 24%)" opacity="0.72"/>
    <polygon points="1331,576 1297,798 1365,798" fill="hsl(228 38% 27%)" opacity="0.87"/>
    <rect x="1327" y="758" width="8" height="51" fill="hsl(136 26% 24%)" opacity="0.72"/>
  </g>

  <rect x="64" y="676" width="1472" height="184" rx="22" fill="#081517" opacity="0.54"/>
  <text x="118" y="726" fill="#d9e8c8" font-family="Poppins, Arial, sans-serif" font-size="28" font-weight="700">Devlet</text>
  <text x="118" y="792" fill="#ffffff" font-family="Poppins, Arial, sans-serif" font-size="60.4" font-weight="800">Istanbul Emniyet Mudurlugu</text>
  

  <rect width="1600" height="900" fill="url(#vignette)"/>
</svg>
