<?xml version="1.0" encoding="UTF-8"?>
<svg xmlns="http://www.w3.org/2000/svg" viewBox="0 0 1600 900" role="img" aria-label="Kar Kaynak">
  <defs>
    <linearGradient id="bg" x1="0" y1="0" x2="0" y2="1">
      <stop offset="0%" stop-color="hsl(21 36% 21%)"/>
      <stop offset="100%" stop-color="hsl(299 43% 39%)"/>
    </linearGradient>
    <linearGradient id="fog" x1="0" y1="0" x2="1" y2="0">
      <stop offset="0%" stop-color="hsl(261 20% 84%)" stop-opacity="0.22"/>
      <stop offset="50%" stop-color="#ffffff" stop-opacity="0.08"/>
      <stop offset="100%" stop-color="hsl(261 20% 84%)" stop-opacity="0.22"/>
    </linearGradient>
    <radialGradient id="vignette" cx="50%" cy="45%" r="70%">
      <stop offset="65%" stop-color="rgba(0,0,0,0)"/>
      <stop offset="100%" stop-color="rgba(0,0,0,0.35)"/>
    </radialGradient>
  </defs>

  <rect width="1600" height="900" fill="url(#bg)"/>
  <circle cx="1178" cy="242" r="74" fill="#f4efd4" opacity="0.34"/>

  <path d="M0 410 Q115 340 229 264 Q343 391 457 349 Q572 345 686 271 Q800 351 914 297 Q1029 340 1143 280 Q1257 391 1371 357 Q1486 347 1600 293 L1600 900 L0 900 Z" fill="hsl(316 28% 24%)" opacity="0.48"/>
  <path d="M0 538 Q115 498 229 445 Q343 456 457 371 Q572 442 686 359 Q800 505 914 450 Q1029 457 1143 383 Q1257 474 1371 401 Q1486 490 1600 461 L1600 900 L0 900 Z" fill="hsl(303 26% 36%)" opacity="0.62"/>
  <path d="M0 611 Q115 563 229 513 Q343 562 457 510 Q572 532 686 453 Q800 583 914 540 Q1029 553 1143 515 Q1257 543 1371 490 Q1486 536 1600 453 L1600 900 L0 900 Z" fill="hsl(291 24% 41%)" opacity="0.78"/>

  <g>
    <polygon points="1170,481 1139,643 1201,643" fill="hsl(281 36% 32%)" opacity="0.71"/>
    <rect x="1166" y="614" width="7" height="37" fill="hsl(199 26% 24%)" opacity="0.72"/>
    <polygon points="741,495 709,654 773,654" fill="hsl(291 38% 30%)" opacity="0.81"/>
    <rect x="737" y="625" width="8" height="37" fill="hsl(199 26% 24%)" opacity="0.72"/>
    <polygon points="480,506 461,653 499,653" fill="hsl(291 38% 30%)" opacity="0.87"/>
    <rect x="478" y="627" width="5" height="34" fill="hsl(199 26% 24%)" opacity="0.72"/>
    <polygon points="1303,445 1274,607 1332,607" fill="hsl(291 38% 30%)" opacity="0.77"/>
    <rect x="1300" y="578" width="7" height="37" fill="hsl(199 26% 24%)" opacity="0.72"/>
    <polygon points="214,508 188,637 240,637" fill="hsl(291 38% 30%)" opacity="0.91"/>
    <rect x="211" y="614" width="6" height="30" fill="hsl(199 26% 24%)" opacity="0.72"/>
    <polygon points="1562,502 1530,604 1594,604" fill="hsl(291 38% 30%)" opacity="0.69"/>
    <rect x="1558" y="586" width="8" height="23" fill="hsl(199 26% 24%)" opacity="0.72"/>
    <polygon points="1106,479 1085,605 1127,605" fill="hsl(291 38% 30%)" opacity="0.85"/>
    <rect x="1103" y="582" width="5" height="29" fill="hsl(199 26% 24%)" opacity="0.72"/>
    <polygon points="440,521 413,632 467,632" fill="hsl(281 36% 32%)" opacity="0.72"/>
    <rect x="437" y="612" width="6" height="26" fill="hsl(199 26% 24%)" opacity="0.72"/>
    <polygon points="965,523 943,619 987,619" fill="hsl(291 38% 30%)" opacity="0.86"/>
    <rect x="962" y="602" width="5" height="22" fill="hsl(199 26% 24%)" opacity="0.72"/>
    <polygon points="433,475 402,620 464,620" fill="hsl(281 36% 32%)" opacity="0.72"/>
    <rect x="429" y="594" width="7" height="33" fill="hsl(199 26% 24%)" opacity="0.72"/>
    <polygon points="428,484 404,608 452,608" fill="hsl(291 38% 30%)" opacity="0.73"/>
    <rect x="425" y="586" width="6" height="29" fill="hsl(199 26% 24%)" opacity="0.72"/>
    <polygon points="275,501 253,630 297,630" fill="hsl(281 36% 32%)" opacity="0.84"/>
    <rect x="272" y="607" width="5" height="30" fill="hsl(199 26% 24%)" opacity="0.72"/>
    <polygon points="1383,529 1351,641 1415,641" fill="hsl(281 36% 32%)" opacity="0.70"/>
    <rect x="1379" y="621" width="8" height="26" fill="hsl(199 26% 24%)" opacity="0.72"/>
    <polygon points="1497,503 1471,611 1523,611" fill="hsl(281 36% 32%)" opacity="0.71"/>
    <rect x="1494" y="592" width="6" height="25" fill="hsl(199 26% 24%)" opacity="0.72"/>
    <polygon points="1466,496 1442,629 1490,629" fill="hsl(291 38% 30%)" opacity="0.72"/>
    <rect x="1463" y="605" width="6" height="31" fill="hsl(199 26% 24%)" opacity="0.72"/>
    <polygon points="1424,519 1405,614 1443,614" fill="hsl(281 36% 32%)" opacity="0.68"/>
    <rect x="1422" y="597" width="5" height="22" fill="hsl(199 26% 24%)" opacity="0.72"/>
    <polygon points="1572,466 1543,624 1601,624" fill="hsl(281 36% 32%)" opacity="0.71"/>
    <rect x="1569" y="596" width="7" height="36" fill="hsl(199 26% 24%)" opacity="0.72"/>
    <polygon points="1412,473 1393,608 1431,608" fill="hsl(291 38% 30%)" opacity="0.75"/>
    <rect x="1410" y="584" width="5" height="31" fill="hsl(199 26% 24%)" opacity="0.72"/>
  </g>

  <rect y="646" width="1600" height="254" fill="url(#fog)"/>

  <g>
    <polygon points="1055,586 1020,793 1090,793" fill="hsl(281 36% 32%)" opacity="0.90"/>
    <rect x="1051" y="756" width="8" height="48" fill="hsl(199 26% 24%)" opacity="0.72"/>
    <polygon points="1281,601 1248,812 1314,812" fill="hsl(281 36% 32%)" opacity="0.85"/>
    <rect x="1277" y="774" width="8" height="49" fill="hsl(199 26% 24%)" opacity="0.72"/>
    <polygon points="1486,595 1435,799 1537,799" fill="hsl(281 36% 32%)" opacity="0.73"/>
    <rect x="1480" y="762" width="12" height="47" fill="hsl(199 26% 24%)" opacity="0.72"/>
    <polygon points="622,591 589,748 655,748" fill="hsl(291 38% 30%)" opacity="0.72"/>
    <rect x="618" y="720" width="8" height="36" fill="hsl(199 26% 24%)" opacity="0.72"/>
    <polygon points="49,626 2,787 96,787" fill="hsl(291 38% 30%)" opacity="0.86"/>
    <rect x="43" y="758" width="11" height="37" fill="hsl(199 26% 24%)" opacity="0.72"/>
    <polygon points="549,628 498,799 600,799" fill="hsl(281 36% 32%)" opacity="0.76"/>
    <rect x="543" y="768" width="12" height="39" fill="hsl(199 26% 24%)" opacity="0.72"/>
    <polygon points="1459,610 1409,768 1509,768" fill="hsl(281 36% 32%)" opacity="0.89"/>
    <rect x="1453" y="740" width="12" height="36" fill="hsl(199 26% 24%)" opacity="0.72"/>
    <polygon points="575,577 526,808 624,808" fill="hsl(291 38% 30%)" opacity="0.78"/>
    <rect x="569" y="766" width="12" height="53" fill="hsl(199 26% 24%)" opacity="0.72"/>
    <polygon points="563,625 518,788 608,788" fill="hsl(281 36% 32%)" opacity="0.81"/>
    <rect x="558" y="759" width="11" height="37" fill="hsl(199 26% 24%)" opacity="0.72"/>
    <polygon points="318,575 273,745 363,745" fill="hsl(291 38% 30%)" opacity="0.82"/>
    <rect x="313" y="714" width="11" height="39" fill="hsl(199 26% 24%)" opacity="0.72"/>
    <polygon points="1496,584 1444,804 1548,804" fill="hsl(291 38% 30%)" opacity="0.74"/>
    <rect x="1490" y="764" width="12" height="51" fill="hsl(199 26% 24%)" opacity="0.72"/>
    <polygon points="1199,547 1148,736 1250,736" fill="hsl(281 36% 32%)" opacity="0.77"/>
    <rect x="1193" y="702" width="12" height="43" fill="hsl(199 26% 24%)" opacity="0.72"/>
    <polygon points="251,586 214,731 288,731" fill="hsl(291 38% 30%)" opacity="0.81"/>
    <rect x="247" y="705" width="9" height="33" fill="hsl(199 26% 24%)" opacity="0.72"/>
    <polygon points="183,620 152,782 214,782" fill="hsl(291 38% 30%)" opacity="0.90"/>
    <rect x="179" y="753" width="7" height="37" fill="hsl(199 26% 24%)" opacity="0.72"/>
    <polygon points="1150,498 1100,748 1200,748" fill="hsl(281 36% 32%)" opacity="0.78"/>
    <rect x="1144" y="703" width="12" height="58" fill="hsl(199 26% 24%)" opacity="0.72"/>
    <polygon points="1412,624 1375,812 1449,812" fill="hsl(291 38% 30%)" opacity="0.91"/>
    <rect x="1408" y="778" width="9" height="43" fill="hsl(199 26% 24%)" opacity="0.72"/>
  </g>

  <rect x="64" y="676" width="1472" height="184" rx="22" fill="#081517" opacity="0.54"/>
  <text x="118" y="726" fill="#d9e8c8" font-family="Poppins, Arial, sans-serif" font-size="28" font-weight="700">Su Izinleri</text>
  <text x="118" y="792" fill="#ffffff" font-family="Poppins, Arial, sans-serif" font-size="66.0" font-weight="800">Kar Kaynak</text>
  

  <rect width="1600" height="900" fill="url(#vignette)"/>
</svg>
