<?xml version="1.0" encoding="UTF-8"?>
<svg xmlns="http://www.w3.org/2000/svg" viewBox="0 0 1600 900" role="img" aria-label="Karanfil Maden">
  <defs>
    <linearGradient id="bg" x1="0" y1="0" x2="0" y2="1">
      <stop offset="0%" stop-color="hsl(343 43% 23%)"/>
      <stop offset="100%" stop-color="hsl(261 41% 39%)"/>
    </linearGradient>
    <linearGradient id="fog" x1="0" y1="0" x2="1" y2="0">
      <stop offset="0%" stop-color="hsl(223 20% 84%)" stop-opacity="0.22"/>
      <stop offset="50%" stop-color="#ffffff" stop-opacity="0.08"/>
      <stop offset="100%" stop-color="hsl(223 20% 84%)" stop-opacity="0.22"/>
    </linearGradient>
    <radialGradient id="vignette" cx="50%" cy="45%" r="70%">
      <stop offset="65%" stop-color="rgba(0,0,0,0)"/>
      <stop offset="100%" stop-color="rgba(0,0,0,0.35)"/>
    </radialGradient>
  </defs>

  <rect width="1600" height="900" fill="url(#bg)"/>
  <circle cx="1223" cy="161" r="105" fill="#f4efd4" opacity="0.34"/>

  <path d="M0 412 Q115 377 229 333 Q343 356 457 296 Q572 359 686 299 Q800 366 914 313 Q1029 398 1143 364 Q1257 360 1371 314 Q1486 344 1600 279 L1600 900 L0 900 Z" fill="hsl(278 28% 23%)" opacity="0.48"/>
  <path d="M0 503 Q115 442 229 380 Q343 403 457 321 Q572 408 686 320 Q800 432 914 364 Q1029 466 1143 421 Q1257 418 1371 342 Q1486 442 1600 371 L1600 900 L0 900 Z" fill="hsl(265 26% 30%)" opacity="0.62"/>
  <path d="M0 621 Q115 594 229 547 Q343 591 457 558 Q572 535 686 448 Q800 575 914 510 Q1029 549 1143 499 Q1257 565 1371 528 Q1486 545 1600 466 L1600 900 L0 900 Z" fill="hsl(253 24% 38%)" opacity="0.78"/>

  <g>
    <polygon points="1120,493 1101,647 1139,647" fill="hsl(253 38% 30%)" opacity="0.75"/>
    <rect x="1118" y="619" width="5" height="35" fill="hsl(161 26% 24%)" opacity="0.72"/>
    <polygon points="752,508 722,662 782,662" fill="hsl(253 38% 30%)" opacity="0.90"/>
    <rect x="748" y="634" width="7" height="35" fill="hsl(161 26% 24%)" opacity="0.72"/>
    <polygon points="750,502 732,616 768,616" fill="hsl(253 38% 30%)" opacity="0.74"/>
    <rect x="748" y="595" width="4" height="26" fill="hsl(161 26% 24%)" opacity="0.72"/>
    <polygon points="789,531 765,658 813,658" fill="hsl(253 38% 30%)" opacity="0.92"/>
    <rect x="786" y="635" width="6" height="29" fill="hsl(161 26% 24%)" opacity="0.72"/>
    <polygon points="1518,554 1490,658 1546,658" fill="hsl(243 36% 37%)" opacity="0.70"/>
    <rect x="1515" y="639" width="7" height="24" fill="hsl(161 26% 24%)" opacity="0.72"/>
    <polygon points="1200,501 1173,645 1227,645" fill="hsl(253 38% 30%)" opacity="0.75"/>
    <rect x="1197" y="619" width="6" height="33" fill="hsl(161 26% 24%)" opacity="0.72"/>
    <polygon points="222,470 203,617 241,617" fill="hsl(243 36% 37%)" opacity="0.69"/>
    <rect x="220" y="591" width="5" height="34" fill="hsl(161 26% 24%)" opacity="0.72"/>
    <polygon points="175,524 149,649 201,649" fill="hsl(243 36% 37%)" opacity="0.78"/>
    <rect x="172" y="626" width="6" height="29" fill="hsl(161 26% 24%)" opacity="0.72"/>
    <polygon points="638,476 618,605 658,605" fill="hsl(243 36% 37%)" opacity="0.92"/>
    <rect x="636" y="582" width="5" height="30" fill="hsl(161 26% 24%)" opacity="0.72"/>
    <polygon points="811,503 791,649 831,649" fill="hsl(253 38% 30%)" opacity="0.85"/>
    <rect x="809" y="623" width="5" height="34" fill="hsl(161 26% 24%)" opacity="0.72"/>
    <polygon points="1033,564 1002,663 1064,663" fill="hsl(253 38% 30%)" opacity="0.87"/>
    <rect x="1029" y="645" width="7" height="23" fill="hsl(161 26% 24%)" opacity="0.72"/>
    <polygon points="253,523 232,644 274,644" fill="hsl(253 38% 30%)" opacity="0.74"/>
    <rect x="250" y="622" width="5" height="28" fill="hsl(161 26% 24%)" opacity="0.72"/>
    <polygon points="177,543 151,651 203,651" fill="hsl(253 38% 30%)" opacity="0.90"/>
    <rect x="174" y="632" width="6" height="25" fill="hsl(161 26% 24%)" opacity="0.72"/>
    <polygon points="1150,522 1124,636 1176,636" fill="hsl(243 36% 37%)" opacity="0.84"/>
    <rect x="1147" y="615" width="6" height="26" fill="hsl(161 26% 24%)" opacity="0.72"/>
    <polygon points="340,514 319,612 361,612" fill="hsl(243 36% 37%)" opacity="0.78"/>
    <rect x="337" y="594" width="5" height="23" fill="hsl(161 26% 24%)" opacity="0.72"/>
    <polygon points="1123,515 1100,632 1146,632" fill="hsl(253 38% 30%)" opacity="0.89"/>
    <rect x="1120" y="611" width="6" height="27" fill="hsl(161 26% 24%)" opacity="0.72"/>
    <polygon points="1064,507 1042,620 1086,620" fill="hsl(243 36% 37%)" opacity="0.77"/>
    <rect x="1061" y="600" width="5" height="26" fill="hsl(161 26% 24%)" opacity="0.72"/>
    <polygon points="937,486 911,626 963,626" fill="hsl(243 36% 37%)" opacity="0.85"/>
    <rect x="934" y="601" width="6" height="32" fill="hsl(161 26% 24%)" opacity="0.72"/>
  </g>

  <rect y="646" width="1600" height="254" fill="url(#fog)"/>

  <g>
    <polygon points="555,586 510,769 600,769" fill="hsl(253 38% 30%)" opacity="0.85"/>
    <rect x="550" y="736" width="11" height="42" fill="hsl(161 26% 24%)" opacity="0.72"/>
    <polygon points="1462,611 1417,790 1507,790" fill="hsl(253 38% 30%)" opacity="0.91"/>
    <rect x="1457" y="758" width="11" height="41" fill="hsl(161 26% 24%)" opacity="0.72"/>
    <polygon points="1515,511 1466,741 1564,741" fill="hsl(253 38% 30%)" opacity="0.76"/>
    <rect x="1509" y="700" width="12" height="53" fill="hsl(161 26% 24%)" opacity="0.72"/>
    <polygon points="1238,623 1199,799 1277,799" fill="hsl(253 38% 30%)" opacity="0.89"/>
    <rect x="1233" y="767" width="9" height="40" fill="hsl(161 26% 24%)" opacity="0.72"/>
    <polygon points="979,596 942,758 1016,758" fill="hsl(253 38% 30%)" opacity="0.70"/>
    <rect x="975" y="729" width="9" height="37" fill="hsl(161 26% 24%)" opacity="0.72"/>
    <polygon points="74,590 30,798 118,798" fill="hsl(253 38% 30%)" opacity="0.89"/>
    <rect x="69" y="761" width="11" height="48" fill="hsl(161 26% 24%)" opacity="0.72"/>
    <polygon points="1535,559 1487,786 1583,786" fill="hsl(253 38% 30%)" opacity="0.81"/>
    <rect x="1529" y="745" width="12" height="52" fill="hsl(161 26% 24%)" opacity="0.72"/>
    <polygon points="690,507 645,748 735,748" fill="hsl(243 36% 37%)" opacity="0.88"/>
    <rect x="685" y="705" width="11" height="55" fill="hsl(161 26% 24%)" opacity="0.72"/>
    <polygon points="379,491 336,733 422,733" fill="hsl(253 38% 30%)" opacity="0.71"/>
    <rect x="374" y="689" width="10" height="56" fill="hsl(161 26% 24%)" opacity="0.72"/>
    <polygon points="29,611 -16,777 74,777" fill="hsl(253 38% 30%)" opacity="0.76"/>
    <rect x="24" y="747" width="11" height="38" fill="hsl(161 26% 24%)" opacity="0.72"/>
    <polygon points="849,577 798,814 900,814" fill="hsl(253 38% 30%)" opacity="0.77"/>
    <rect x="843" y="771" width="12" height="55" fill="hsl(161 26% 24%)" opacity="0.72"/>
    <polygon points="963,658 923,792 1003,792" fill="hsl(253 38% 30%)" opacity="0.91"/>
    <rect x="958" y="768" width="10" height="31" fill="hsl(161 26% 24%)" opacity="0.72"/>
    <polygon points="1243,596 1204,815 1282,815" fill="hsl(253 38% 30%)" opacity="0.83"/>
    <rect x="1238" y="776" width="9" height="50" fill="hsl(161 26% 24%)" opacity="0.72"/>
    <polygon points="264,580 229,805 299,805" fill="hsl(243 36% 37%)" opacity="0.72"/>
    <rect x="260" y="764" width="8" height="52" fill="hsl(161 26% 24%)" opacity="0.72"/>
    <polygon points="952,639 924,773 980,773" fill="hsl(243 36% 37%)" opacity="0.89"/>
    <rect x="949" y="749" width="7" height="31" fill="hsl(161 26% 24%)" opacity="0.72"/>
    <polygon points="992,571 961,772 1023,772" fill="hsl(243 36% 37%)" opacity="0.82"/>
    <rect x="988" y="736" width="7" height="46" fill="hsl(161 26% 24%)" opacity="0.72"/>
  </g>

  <rect x="64" y="676" width="1472" height="184" rx="22" fill="#081517" opacity="0.54"/>
  <text x="118" y="726" fill="#d9e8c8" font-family="Poppins, Arial, sans-serif" font-size="28" font-weight="700">Maden Izinleri</text>
  <text x="118" y="792" fill="#ffffff" font-family="Poppins, Arial, sans-serif" font-size="66.0" font-weight="800">Karanfil Maden</text>
  

  <rect width="1600" height="900" fill="url(#vignette)"/>
</svg>
