<?xml version="1.0" encoding="UTF-8"?>
<svg xmlns="http://www.w3.org/2000/svg" viewBox="0 0 1600 900" role="img" aria-label="Karakaya Maden">
  <defs>
    <linearGradient id="bg" x1="0" y1="0" x2="0" y2="1">
      <stop offset="0%" stop-color="hsl(35 37% 23%)"/>
      <stop offset="100%" stop-color="hsl(313 37% 45%)"/>
    </linearGradient>
    <linearGradient id="fog" x1="0" y1="0" x2="1" y2="0">
      <stop offset="0%" stop-color="hsl(275 20% 84%)" stop-opacity="0.22"/>
      <stop offset="50%" stop-color="#ffffff" stop-opacity="0.08"/>
      <stop offset="100%" stop-color="hsl(275 20% 84%)" stop-opacity="0.22"/>
    </linearGradient>
    <radialGradient id="vignette" cx="50%" cy="45%" r="70%">
      <stop offset="65%" stop-color="rgba(0,0,0,0)"/>
      <stop offset="100%" stop-color="rgba(0,0,0,0.35)"/>
    </radialGradient>
  </defs>

  <rect width="1600" height="900" fill="url(#bg)"/>
  <circle cx="1173" cy="145" r="87" fill="#f4efd4" opacity="0.34"/>

  <path d="M0 419 Q115 375 229 311 Q343 385 457 348 Q572 368 686 313 Q800 386 914 364 Q1029 388 1143 342 Q1257 384 1371 338 Q1486 380 1600 326 L1600 900 L0 900 Z" fill="hsl(330 28% 26%)" opacity="0.48"/>
  <path d="M0 517 Q115 448 229 372 Q343 444 457 354 Q572 459 686 417 Q800 459 914 380 Q1029 415 1143 330 Q1257 464 1371 399 Q1486 450 1600 392 L1600 900 L0 900 Z" fill="hsl(317 26% 35%)" opacity="0.62"/>
  <path d="M0 615 Q115 571 229 537 Q343 562 457 514 Q572 525 686 458 Q800 555 914 490 Q1029 564 1143 522 Q1257 580 1371 549 Q1486 548 1600 493 L1600 900 L0 900 Z" fill="hsl(305 24% 38%)" opacity="0.78"/>

  <g>
    <polygon points="1437,537 1407,644 1467,644" fill="hsl(305 38% 29%)" opacity="0.69"/>
    <rect x="1433" y="625" width="7" height="25" fill="hsl(213 26% 24%)" opacity="0.72"/>
    <polygon points="728,488 695,620 761,620" fill="hsl(305 38% 29%)" opacity="0.91"/>
    <rect x="724" y="596" width="8" height="30" fill="hsl(213 26% 24%)" opacity="0.72"/>
    <polygon points="1105,457 1074,606 1136,606" fill="hsl(295 36% 37%)" opacity="0.78"/>
    <rect x="1101" y="579" width="7" height="34" fill="hsl(213 26% 24%)" opacity="0.72"/>
    <polygon points="1021,475 992,629 1050,629" fill="hsl(305 38% 29%)" opacity="0.84"/>
    <rect x="1018" y="601" width="7" height="35" fill="hsl(213 26% 24%)" opacity="0.72"/>
    <polygon points="259,519 233,612 285,612" fill="hsl(295 36% 37%)" opacity="0.76"/>
    <rect x="256" y="595" width="6" height="21" fill="hsl(213 26% 24%)" opacity="0.72"/>
    <polygon points="952,511 921,636 983,636" fill="hsl(295 36% 37%)" opacity="0.76"/>
    <rect x="948" y="613" width="7" height="29" fill="hsl(213 26% 24%)" opacity="0.72"/>
    <polygon points="1542,547 1518,644 1566,644" fill="hsl(295 36% 37%)" opacity="0.83"/>
    <rect x="1539" y="627" width="6" height="22" fill="hsl(213 26% 24%)" opacity="0.72"/>
    <polygon points="383,490 353,638 413,638" fill="hsl(295 36% 37%)" opacity="0.69"/>
    <rect x="379" y="611" width="7" height="34" fill="hsl(213 26% 24%)" opacity="0.72"/>
    <polygon points="224,499 199,643 249,643" fill="hsl(305 38% 29%)" opacity="0.88"/>
    <rect x="221" y="617" width="6" height="33" fill="hsl(213 26% 24%)" opacity="0.72"/>
    <polygon points="1209,474 1177,638 1241,638" fill="hsl(305 38% 29%)" opacity="0.87"/>
    <rect x="1205" y="608" width="8" height="38" fill="hsl(213 26% 24%)" opacity="0.72"/>
    <polygon points="1140,460 1117,601 1163,601" fill="hsl(305 38% 29%)" opacity="0.88"/>
    <rect x="1137" y="576" width="6" height="32" fill="hsl(213 26% 24%)" opacity="0.72"/>
    <polygon points="452,539 428,639 476,639" fill="hsl(305 38% 29%)" opacity="0.84"/>
    <rect x="449" y="621" width="6" height="23" fill="hsl(213 26% 24%)" opacity="0.72"/>
    <polygon points="374,505 352,645 396,645" fill="hsl(295 36% 37%)" opacity="0.88"/>
    <rect x="371" y="620" width="5" height="32" fill="hsl(213 26% 24%)" opacity="0.72"/>
    <polygon points="159,495 131,618 187,618" fill="hsl(295 36% 37%)" opacity="0.82"/>
    <rect x="156" y="596" width="7" height="28" fill="hsl(213 26% 24%)" opacity="0.72"/>
    <polygon points="986,519 966,644 1006,644" fill="hsl(295 36% 37%)" opacity="0.78"/>
    <rect x="984" y="621" width="5" height="29" fill="hsl(213 26% 24%)" opacity="0.72"/>
    <polygon points="1233,486 1211,621 1255,621" fill="hsl(305 38% 29%)" opacity="0.72"/>
    <rect x="1230" y="597" width="5" height="31" fill="hsl(213 26% 24%)" opacity="0.72"/>
    <polygon points="1271,508 1238,638 1304,638" fill="hsl(295 36% 37%)" opacity="0.91"/>
    <rect x="1267" y="615" width="8" height="30" fill="hsl(213 26% 24%)" opacity="0.72"/>
    <polygon points="1352,460 1329,608 1375,608" fill="hsl(305 38% 29%)" opacity="0.86"/>
    <rect x="1349" y="581" width="6" height="34" fill="hsl(213 26% 24%)" opacity="0.72"/>
  </g>

  <rect y="646" width="1600" height="254" fill="url(#fog)"/>

  <g>
    <polygon points="1074,658 1037,816 1111,816" fill="hsl(295 36% 37%)" opacity="0.87"/>
    <rect x="1070" y="788" width="9" height="36" fill="hsl(213 26% 24%)" opacity="0.72"/>
    <polygon points="257,546 223,753 291,753" fill="hsl(295 36% 37%)" opacity="0.80"/>
    <rect x="253" y="716" width="8" height="48" fill="hsl(213 26% 24%)" opacity="0.72"/>
    <polygon points="874,525 820,774 928,774" fill="hsl(305 38% 29%)" opacity="0.72"/>
    <rect x="868" y="729" width="13" height="57" fill="hsl(213 26% 24%)" opacity="0.72"/>
    <polygon points="381,604 340,787 422,787" fill="hsl(305 38% 29%)" opacity="0.91"/>
    <rect x="376" y="754" width="10" height="42" fill="hsl(213 26% 24%)" opacity="0.72"/>
    <polygon points="1418,669 1373,817 1463,817" fill="hsl(305 38% 29%)" opacity="0.69"/>
    <rect x="1413" y="790" width="11" height="34" fill="hsl(213 26% 24%)" opacity="0.72"/>
    <polygon points="591,619 552,754 630,754" fill="hsl(295 36% 37%)" opacity="0.78"/>
    <rect x="586" y="730" width="9" height="31" fill="hsl(213 26% 24%)" opacity="0.72"/>
    <polygon points="933,603 885,759 981,759" fill="hsl(295 36% 37%)" opacity="0.69"/>
    <rect x="927" y="731" width="12" height="36" fill="hsl(213 26% 24%)" opacity="0.72"/>
    <polygon points="881,598 847,790 915,790" fill="hsl(295 36% 37%)" opacity="0.81"/>
    <rect x="877" y="755" width="8" height="44" fill="hsl(213 26% 24%)" opacity="0.72"/>
    <polygon points="280,530 231,738 329,738" fill="hsl(305 38% 29%)" opacity="0.86"/>
    <rect x="274" y="701" width="12" height="48" fill="hsl(213 26% 24%)" opacity="0.72"/>
    <polygon points="1504,601 1454,761 1554,761" fill="hsl(295 36% 37%)" opacity="0.78"/>
    <rect x="1498" y="732" width="12" height="37" fill="hsl(213 26% 24%)" opacity="0.72"/>
    <polygon points="809,566 765,731 853,731" fill="hsl(295 36% 37%)" opacity="0.87"/>
    <rect x="804" y="701" width="11" height="38" fill="hsl(213 26% 24%)" opacity="0.72"/>
    <polygon points="1179,552 1139,792 1219,792" fill="hsl(305 38% 29%)" opacity="0.82"/>
    <rect x="1174" y="749" width="10" height="55" fill="hsl(213 26% 24%)" opacity="0.72"/>
    <polygon points="595,616 544,775 646,775" fill="hsl(295 36% 37%)" opacity="0.87"/>
    <rect x="589" y="746" width="12" height="37" fill="hsl(213 26% 24%)" opacity="0.72"/>
    <polygon points="1223,664 1185,814 1261,814" fill="hsl(305 38% 29%)" opacity="0.90"/>
    <rect x="1218" y="787" width="9" height="35" fill="hsl(213 26% 24%)" opacity="0.72"/>
    <polygon points="1257,648 1228,794 1286,794" fill="hsl(295 36% 37%)" opacity="0.87"/>
    <rect x="1254" y="768" width="7" height="34" fill="hsl(213 26% 24%)" opacity="0.72"/>
    <polygon points="1536,539 1493,741 1579,741" fill="hsl(295 36% 37%)" opacity="0.70"/>
    <rect x="1531" y="705" width="10" height="46" fill="hsl(213 26% 24%)" opacity="0.72"/>
  </g>

  <rect x="64" y="676" width="1472" height="184" rx="22" fill="#081517" opacity="0.54"/>
  <text x="118" y="726" fill="#d9e8c8" font-family="Poppins, Arial, sans-serif" font-size="28" font-weight="700">Maden Izinleri</text>
  <text x="118" y="792" fill="#ffffff" font-family="Poppins, Arial, sans-serif" font-size="66.0" font-weight="800">Karakaya Maden</text>
  

  <rect width="1600" height="900" fill="url(#vignette)"/>
</svg>
