<?xml version="1.0" encoding="UTF-8"?>
<svg xmlns="http://www.w3.org/2000/svg" viewBox="0 0 1600 900" role="img" aria-label="Kartal Grup">
  <defs>
    <linearGradient id="bg" x1="0" y1="0" x2="0" y2="1">
      <stop offset="0%" stop-color="hsl(37 47% 24%)"/>
      <stop offset="100%" stop-color="hsl(315 30% 45%)"/>
    </linearGradient>
    <linearGradient id="fog" x1="0" y1="0" x2="1" y2="0">
      <stop offset="0%" stop-color="hsl(277 20% 84%)" stop-opacity="0.22"/>
      <stop offset="50%" stop-color="#ffffff" stop-opacity="0.08"/>
      <stop offset="100%" stop-color="hsl(277 20% 84%)" stop-opacity="0.22"/>
    </linearGradient>
    <radialGradient id="vignette" cx="50%" cy="45%" r="70%">
      <stop offset="65%" stop-color="rgba(0,0,0,0)"/>
      <stop offset="100%" stop-color="rgba(0,0,0,0.35)"/>
    </radialGradient>
  </defs>

  <rect width="1600" height="900" fill="url(#bg)"/>
  <circle cx="1148" cy="264" r="102" fill="#f4efd4" opacity="0.34"/>

  <path d="M0 437 Q115 416 229 392 Q343 402 457 389 Q572 399 686 377 Q800 370 914 325 Q1029 397 1143 347 Q1257 376 1371 330 Q1486 402 1600 361 L1600 900 L0 900 Z" fill="hsl(332 28% 26%)" opacity="0.48"/>
  <path d="M0 524 Q115 446 229 389 Q343 445 457 373 Q572 487 686 461 Q800 454 914 386 Q1029 469 1143 409 Q1257 447 1371 357 Q1486 465 1600 414 L1600 900 L0 900 Z" fill="hsl(319 26% 33%)" opacity="0.62"/>
  <path d="M0 647 Q115 531 229 437 Q343 548 457 448 Q572 567 686 504 Q800 550 914 454 Q1029 576 1143 511 Q1257 592 1371 536 Q1486 619 1600 570 L1600 900 L0 900 Z" fill="hsl(307 24% 38%)" opacity="0.78"/>

  <g>
    <polygon points="1048,461 1026,601 1070,601" fill="hsl(307 38% 29%)" opacity="0.73"/>
    <rect x="1045" y="576" width="5" height="32" fill="hsl(215 26% 24%)" opacity="0.72"/>
    <polygon points="459,485 439,633 479,633" fill="hsl(307 38% 29%)" opacity="0.69"/>
    <rect x="457" y="606" width="5" height="34" fill="hsl(215 26% 24%)" opacity="0.72"/>
    <polygon points="523,471 491,616 555,616" fill="hsl(307 38% 29%)" opacity="0.68"/>
    <rect x="519" y="590" width="8" height="33" fill="hsl(215 26% 24%)" opacity="0.72"/>
    <polygon points="1562,537 1531,659 1593,659" fill="hsl(307 38% 29%)" opacity="0.81"/>
    <rect x="1558" y="637" width="7" height="28" fill="hsl(215 26% 24%)" opacity="0.72"/>
    <polygon points="1151,527 1120,659 1182,659" fill="hsl(307 38% 29%)" opacity="0.87"/>
    <rect x="1147" y="635" width="7" height="30" fill="hsl(215 26% 24%)" opacity="0.72"/>
    <polygon points="268,505 235,660 301,660" fill="hsl(297 36% 32%)" opacity="0.70"/>
    <rect x="264" y="632" width="8" height="36" fill="hsl(215 26% 24%)" opacity="0.72"/>
    <polygon points="1121,499 1093,635 1149,635" fill="hsl(307 38% 29%)" opacity="0.69"/>
    <rect x="1118" y="611" width="7" height="31" fill="hsl(215 26% 24%)" opacity="0.72"/>
    <polygon points="227,498 198,604 256,604" fill="hsl(307 38% 29%)" opacity="0.84"/>
    <rect x="224" y="585" width="7" height="24" fill="hsl(215 26% 24%)" opacity="0.72"/>
    <polygon points="599,515 567,623 631,623" fill="hsl(297 36% 32%)" opacity="0.71"/>
    <rect x="595" y="604" width="8" height="25" fill="hsl(215 26% 24%)" opacity="0.72"/>
    <polygon points="527,468 493,620 561,620" fill="hsl(307 38% 29%)" opacity="0.83"/>
    <rect x="523" y="593" width="8" height="35" fill="hsl(215 26% 24%)" opacity="0.72"/>
    <polygon points="1184,522 1153,642 1215,642" fill="hsl(297 36% 32%)" opacity="0.81"/>
    <rect x="1180" y="620" width="7" height="28" fill="hsl(215 26% 24%)" opacity="0.72"/>
    <polygon points="461,499 437,627 485,627" fill="hsl(297 36% 32%)" opacity="0.89"/>
    <rect x="458" y="604" width="6" height="29" fill="hsl(215 26% 24%)" opacity="0.72"/>
    <polygon points="53,558 31,652 75,652" fill="hsl(297 36% 32%)" opacity="0.91"/>
    <rect x="50" y="635" width="5" height="22" fill="hsl(215 26% 24%)" opacity="0.72"/>
    <polygon points="1213,486 1180,603 1246,603" fill="hsl(297 36% 32%)" opacity="0.91"/>
    <rect x="1209" y="582" width="8" height="27" fill="hsl(215 26% 24%)" opacity="0.72"/>
    <polygon points="1008,497 974,635 1042,635" fill="hsl(307 38% 29%)" opacity="0.84"/>
    <rect x="1004" y="610" width="8" height="32" fill="hsl(215 26% 24%)" opacity="0.72"/>
    <polygon points="1277,560 1254,659 1300,659" fill="hsl(297 36% 32%)" opacity="0.69"/>
    <rect x="1274" y="641" width="6" height="23" fill="hsl(215 26% 24%)" opacity="0.72"/>
    <polygon points="223,447 200,605 246,605" fill="hsl(297 36% 32%)" opacity="0.80"/>
    <rect x="220" y="577" width="6" height="36" fill="hsl(215 26% 24%)" opacity="0.72"/>
    <polygon points="315,493 294,607 336,607" fill="hsl(297 36% 32%)" opacity="0.73"/>
    <rect x="312" y="586" width="5" height="26" fill="hsl(215 26% 24%)" opacity="0.72"/>
  </g>

  <rect y="646" width="1600" height="254" fill="url(#fog)"/>

  <g>
    <polygon points="778,642 744,812 812,812" fill="hsl(307 38% 29%)" opacity="0.87"/>
    <rect x="774" y="781" width="8" height="39" fill="hsl(215 26% 24%)" opacity="0.72"/>
    <polygon points="1226,611 1195,752 1257,752" fill="hsl(297 36% 32%)" opacity="0.87"/>
    <rect x="1222" y="727" width="7" height="32" fill="hsl(215 26% 24%)" opacity="0.72"/>
    <polygon points="907,551 861,788 953,788" fill="hsl(307 38% 29%)" opacity="0.75"/>
    <rect x="901" y="745" width="11" height="55" fill="hsl(215 26% 24%)" opacity="0.72"/>
    <polygon points="656,608 627,812 685,812" fill="hsl(307 38% 29%)" opacity="0.92"/>
    <rect x="653" y="775" width="7" height="47" fill="hsl(215 26% 24%)" opacity="0.72"/>
    <polygon points="855,546 808,785 902,785" fill="hsl(297 36% 32%)" opacity="0.75"/>
    <rect x="849" y="742" width="11" height="55" fill="hsl(215 26% 24%)" opacity="0.72"/>
    <polygon points="1378,603 1334,777 1422,777" fill="hsl(297 36% 32%)" opacity="0.83"/>
    <rect x="1373" y="746" width="11" height="40" fill="hsl(215 26% 24%)" opacity="0.72"/>
    <polygon points="343,637 299,796 387,796" fill="hsl(297 36% 32%)" opacity="0.76"/>
    <rect x="338" y="767" width="11" height="37" fill="hsl(215 26% 24%)" opacity="0.72"/>
    <polygon points="1168,529 1118,767 1218,767" fill="hsl(307 38% 29%)" opacity="0.71"/>
    <rect x="1162" y="724" width="12" height="55" fill="hsl(215 26% 24%)" opacity="0.72"/>
    <polygon points="971,663 931,795 1011,795" fill="hsl(297 36% 32%)" opacity="0.72"/>
    <rect x="966" y="771" width="10" height="30" fill="hsl(215 26% 24%)" opacity="0.72"/>
    <polygon points="300,595 269,750 331,750" fill="hsl(297 36% 32%)" opacity="0.78"/>
    <rect x="296" y="722" width="7" height="36" fill="hsl(215 26% 24%)" opacity="0.72"/>
    <polygon points="530,595 487,752 573,752" fill="hsl(297 36% 32%)" opacity="0.79"/>
    <rect x="525" y="724" width="10" height="36" fill="hsl(215 26% 24%)" opacity="0.72"/>
    <polygon points="606,626 578,791 634,791" fill="hsl(297 36% 32%)" opacity="0.70"/>
    <rect x="603" y="761" width="7" height="38" fill="hsl(215 26% 24%)" opacity="0.72"/>
    <polygon points="117,654 72,818 162,818" fill="hsl(297 36% 32%)" opacity="0.68"/>
    <rect x="112" y="788" width="11" height="38" fill="hsl(215 26% 24%)" opacity="0.72"/>
    <polygon points="717,601 667,753 767,753" fill="hsl(307 38% 29%)" opacity="0.73"/>
    <rect x="711" y="726" width="12" height="35" fill="hsl(215 26% 24%)" opacity="0.72"/>
    <polygon points="662,612 634,744 690,744" fill="hsl(307 38% 29%)" opacity="0.89"/>
    <rect x="659" y="720" width="7" height="30" fill="hsl(215 26% 24%)" opacity="0.72"/>
    <polygon points="289,551 253,787 325,787" fill="hsl(307 38% 29%)" opacity="0.79"/>
    <rect x="285" y="745" width="9" height="54" fill="hsl(215 26% 24%)" opacity="0.72"/>
  </g>

  <rect x="64" y="676" width="1472" height="184" rx="22" fill="#081517" opacity="0.54"/>
  <text x="118" y="726" fill="#d9e8c8" font-family="Poppins, Arial, sans-serif" font-size="28" font-weight="700">Maden Izinleri</text>
  <text x="118" y="792" fill="#ffffff" font-family="Poppins, Arial, sans-serif" font-size="66.0" font-weight="800">Kartal Grup</text>
  

  <rect width="1600" height="900" fill="url(#vignette)"/>
</svg>
