<?xml version="1.0" encoding="UTF-8"?>
<svg xmlns="http://www.w3.org/2000/svg" viewBox="0 0 1600 900" role="img" aria-label="Kartal Maden">
  <defs>
    <linearGradient id="bg" x1="0" y1="0" x2="0" y2="1">
      <stop offset="0%" stop-color="hsl(43 47% 22%)"/>
      <stop offset="100%" stop-color="hsl(321 34% 41%)"/>
    </linearGradient>
    <linearGradient id="fog" x1="0" y1="0" x2="1" y2="0">
      <stop offset="0%" stop-color="hsl(283 20% 84%)" stop-opacity="0.22"/>
      <stop offset="50%" stop-color="#ffffff" stop-opacity="0.08"/>
      <stop offset="100%" stop-color="hsl(283 20% 84%)" stop-opacity="0.22"/>
    </linearGradient>
    <radialGradient id="vignette" cx="50%" cy="45%" r="70%">
      <stop offset="65%" stop-color="rgba(0,0,0,0)"/>
      <stop offset="100%" stop-color="rgba(0,0,0,0.35)"/>
    </radialGradient>
  </defs>

  <rect width="1600" height="900" fill="url(#bg)"/>
  <circle cx="1262" cy="165" r="89" fill="#f4efd4" opacity="0.34"/>

  <path d="M0 424 Q115 359 229 276 Q343 381 457 344 Q572 391 686 338 Q800 389 914 344 Q1029 378 1143 332 Q1257 394 1371 370 Q1486 393 1600 340 L1600 900 L0 900 Z" fill="hsl(338 28% 21%)" opacity="0.48"/>
  <path d="M0 507 Q115 458 229 404 Q343 436 457 359 Q572 445 686 378 Q800 435 914 368 Q1029 434 1143 344 Q1257 431 1371 348 Q1486 449 1600 414 L1600 900 L0 900 Z" fill="hsl(325 26% 33%)" opacity="0.62"/>
  <path d="M0 619 Q115 539 229 469 Q343 533 457 455 Q572 532 686 439 Q800 520 914 438 Q1029 537 1143 443 Q1257 541 1371 484 Q1486 561 1600 501 L1600 900 L0 900 Z" fill="hsl(313 24% 37%)" opacity="0.78"/>

  <g>
    <polygon points="535,515 513,607 557,607" fill="hsl(303 36% 34%)" opacity="0.90"/>
    <rect x="532" y="590" width="5" height="21" fill="hsl(221 26% 24%)" opacity="0.72"/>
    <polygon points="1456,524 1426,634 1486,634" fill="hsl(303 36% 34%)" opacity="0.80"/>
    <rect x="1452" y="614" width="7" height="25" fill="hsl(221 26% 24%)" opacity="0.72"/>
    <polygon points="1559,518 1536,639 1582,639" fill="hsl(313 38% 25%)" opacity="0.87"/>
    <rect x="1556" y="617" width="6" height="28" fill="hsl(221 26% 24%)" opacity="0.72"/>
    <polygon points="1577,510 1553,630 1601,630" fill="hsl(313 38% 25%)" opacity="0.69"/>
    <rect x="1574" y="608" width="6" height="28" fill="hsl(221 26% 24%)" opacity="0.72"/>
    <polygon points="693,464 670,607 716,607" fill="hsl(303 36% 34%)" opacity="0.78"/>
    <rect x="690" y="581" width="6" height="33" fill="hsl(221 26% 24%)" opacity="0.72"/>
    <polygon points="577,502 546,632 608,632" fill="hsl(313 38% 25%)" opacity="0.89"/>
    <rect x="573" y="609" width="7" height="30" fill="hsl(221 26% 24%)" opacity="0.72"/>
    <polygon points="317,510 286,632 348,632" fill="hsl(313 38% 25%)" opacity="0.88"/>
    <rect x="313" y="610" width="7" height="28" fill="hsl(221 26% 24%)" opacity="0.72"/>
    <polygon points="1129,494 1103,657 1155,657" fill="hsl(313 38% 25%)" opacity="0.81"/>
    <rect x="1126" y="628" width="6" height="37" fill="hsl(221 26% 24%)" opacity="0.72"/>
    <polygon points="1410,555 1383,659 1437,659" fill="hsl(313 38% 25%)" opacity="0.86"/>
    <rect x="1407" y="640" width="6" height="24" fill="hsl(221 26% 24%)" opacity="0.72"/>
    <polygon points="1474,549 1441,646 1507,646" fill="hsl(303 36% 34%)" opacity="0.75"/>
    <rect x="1470" y="629" width="8" height="22" fill="hsl(221 26% 24%)" opacity="0.72"/>
    <polygon points="205,456 181,601 229,601" fill="hsl(303 36% 34%)" opacity="0.88"/>
    <rect x="202" y="575" width="6" height="33" fill="hsl(221 26% 24%)" opacity="0.72"/>
    <polygon points="388,531 359,655 417,655" fill="hsl(303 36% 34%)" opacity="0.71"/>
    <rect x="385" y="633" width="7" height="29" fill="hsl(221 26% 24%)" opacity="0.72"/>
    <polygon points="453,467 432,621 474,621" fill="hsl(303 36% 34%)" opacity="0.91"/>
    <rect x="450" y="593" width="5" height="35" fill="hsl(221 26% 24%)" opacity="0.72"/>
    <polygon points="1449,547 1430,657 1468,657" fill="hsl(303 36% 34%)" opacity="0.86"/>
    <rect x="1447" y="637" width="5" height="25" fill="hsl(221 26% 24%)" opacity="0.72"/>
    <polygon points="1145,447 1123,604 1167,604" fill="hsl(313 38% 25%)" opacity="0.91"/>
    <rect x="1142" y="576" width="5" height="36" fill="hsl(221 26% 24%)" opacity="0.72"/>
    <polygon points="519,489 493,623 545,623" fill="hsl(313 38% 25%)" opacity="0.72"/>
    <rect x="516" y="599" width="6" height="31" fill="hsl(221 26% 24%)" opacity="0.72"/>
    <polygon points="1322,497 1299,662 1345,662" fill="hsl(313 38% 25%)" opacity="0.77"/>
    <rect x="1319" y="632" width="6" height="38" fill="hsl(221 26% 24%)" opacity="0.72"/>
    <polygon points="540,513 520,617 560,617" fill="hsl(303 36% 34%)" opacity="0.89"/>
    <rect x="538" y="598" width="5" height="24" fill="hsl(221 26% 24%)" opacity="0.72"/>
  </g>

  <rect y="646" width="1600" height="254" fill="url(#fog)"/>

  <g>
    <polygon points="1112,521 1059,748 1165,748" fill="hsl(313 38% 25%)" opacity="0.86"/>
    <rect x="1106" y="707" width="13" height="52" fill="hsl(221 26% 24%)" opacity="0.72"/>
    <polygon points="23,656 -23,813 69,813" fill="hsl(303 36% 34%)" opacity="0.69"/>
    <rect x="17" y="785" width="11" height="36" fill="hsl(221 26% 24%)" opacity="0.72"/>
    <polygon points="198,618 167,793 229,793" fill="hsl(303 36% 34%)" opacity="0.71"/>
    <rect x="194" y="761" width="7" height="40" fill="hsl(221 26% 24%)" opacity="0.72"/>
    <polygon points="1527,602 1489,786 1565,786" fill="hsl(313 38% 25%)" opacity="0.70"/>
    <rect x="1522" y="753" width="9" height="42" fill="hsl(221 26% 24%)" opacity="0.72"/>
    <polygon points="1009,658 972,817 1046,817" fill="hsl(313 38% 25%)" opacity="0.75"/>
    <rect x="1005" y="788" width="9" height="37" fill="hsl(221 26% 24%)" opacity="0.72"/>
    <polygon points="450,579 407,763 493,763" fill="hsl(303 36% 34%)" opacity="0.79"/>
    <rect x="445" y="730" width="10" height="42" fill="hsl(221 26% 24%)" opacity="0.72"/>
    <polygon points="856,628 820,786 892,786" fill="hsl(303 36% 34%)" opacity="0.82"/>
    <rect x="852" y="758" width="9" height="36" fill="hsl(221 26% 24%)" opacity="0.72"/>
    <polygon points="237,594 201,818 273,818" fill="hsl(303 36% 34%)" opacity="0.81"/>
    <rect x="233" y="778" width="9" height="52" fill="hsl(221 26% 24%)" opacity="0.72"/>
    <polygon points="210,550 166,791 254,791" fill="hsl(303 36% 34%)" opacity="0.77"/>
    <rect x="205" y="748" width="11" height="55" fill="hsl(221 26% 24%)" opacity="0.72"/>
    <polygon points="561,553 530,756 592,756" fill="hsl(313 38% 25%)" opacity="0.79"/>
    <rect x="557" y="719" width="7" height="47" fill="hsl(221 26% 24%)" opacity="0.72"/>
    <polygon points="645,576 611,774 679,774" fill="hsl(303 36% 34%)" opacity="0.85"/>
    <rect x="641" y="738" width="8" height="46" fill="hsl(221 26% 24%)" opacity="0.72"/>
    <polygon points="927,591 877,798 977,798" fill="hsl(313 38% 25%)" opacity="0.90"/>
    <rect x="921" y="761" width="12" height="48" fill="hsl(221 26% 24%)" opacity="0.72"/>
    <polygon points="925,542 879,746 971,746" fill="hsl(303 36% 34%)" opacity="0.82"/>
    <rect x="919" y="709" width="11" height="47" fill="hsl(221 26% 24%)" opacity="0.72"/>
    <polygon points="501,639 448,807 554,807" fill="hsl(313 38% 25%)" opacity="0.87"/>
    <rect x="495" y="777" width="13" height="39" fill="hsl(221 26% 24%)" opacity="0.72"/>
    <polygon points="1162,514 1115,746 1209,746" fill="hsl(303 36% 34%)" opacity="0.75"/>
    <rect x="1156" y="704" width="11" height="53" fill="hsl(221 26% 24%)" opacity="0.72"/>
    <polygon points="515,617 467,748 563,748" fill="hsl(313 38% 25%)" opacity="0.70"/>
    <rect x="509" y="724" width="12" height="30" fill="hsl(221 26% 24%)" opacity="0.72"/>
  </g>

  <rect x="64" y="676" width="1472" height="184" rx="22" fill="#081517" opacity="0.54"/>
  <text x="118" y="726" fill="#d9e8c8" font-family="Poppins, Arial, sans-serif" font-size="28" font-weight="700">Maden Izinleri</text>
  <text x="118" y="792" fill="#ffffff" font-family="Poppins, Arial, sans-serif" font-size="66.0" font-weight="800">Kartal Maden</text>
  

  <rect width="1600" height="900" fill="url(#vignette)"/>
</svg>
