<?xml version="1.0" encoding="UTF-8"?>
<svg xmlns="http://www.w3.org/2000/svg" viewBox="0 0 1600 900" role="img" aria-label="Kaya Turistik Tesisleri Titreyengol Otelcilik A.S.">
  <defs>
    <linearGradient id="bg" x1="0" y1="0" x2="0" y2="1">
      <stop offset="0%" stop-color="hsl(172 36% 24%)"/>
      <stop offset="100%" stop-color="hsl(90 40% 42%)"/>
    </linearGradient>
    <linearGradient id="fog" x1="0" y1="0" x2="1" y2="0">
      <stop offset="0%" stop-color="hsl(52 20% 84%)" stop-opacity="0.22"/>
      <stop offset="50%" stop-color="#ffffff" stop-opacity="0.08"/>
      <stop offset="100%" stop-color="hsl(52 20% 84%)" stop-opacity="0.22"/>
    </linearGradient>
    <radialGradient id="vignette" cx="50%" cy="45%" r="70%">
      <stop offset="65%" stop-color="rgba(0,0,0,0)"/>
      <stop offset="100%" stop-color="rgba(0,0,0,0.35)"/>
    </radialGradient>
  </defs>

  <rect width="1600" height="900" fill="url(#bg)"/>
  <circle cx="1311" cy="167" r="103" fill="#f4efd4" opacity="0.34"/>

  <path d="M0 418 Q115 368 229 335 Q343 372 457 334 Q572 389 686 349 Q800 353 914 285 Q1029 381 1143 343 Q1257 374 1371 321 Q1486 398 1600 360 L1600 900 L0 900 Z" fill="hsl(107 28% 26%)" opacity="0.48"/>
  <path d="M0 537 Q115 488 229 431 Q343 438 457 360 Q572 511 686 480 Q800 494 914 470 Q1029 472 1143 406 Q1257 475 1371 417 Q1486 465 1600 381 L1600 900 L0 900 Z" fill="hsl(94 26% 30%)" opacity="0.62"/>
  <path d="M0 649 Q115 578 229 497 Q343 563 457 471 Q572 614 686 583 Q800 610 914 565 Q1029 610 1143 586 Q1257 571 1371 491 Q1486 608 1600 543 L1600 900 L0 900 Z" fill="hsl(82 24% 42%)" opacity="0.78"/>

  <g>
    <polygon points="701,525 682,634 720,634" fill="hsl(82 38% 27%)" opacity="0.91"/>
    <rect x="699" y="614" width="5" height="25" fill="hsl(350 26% 24%)" opacity="0.72"/>
    <polygon points="1138,551 1109,645 1167,645" fill="hsl(72 36% 33%)" opacity="0.84"/>
    <rect x="1135" y="628" width="7" height="22" fill="hsl(350 26% 24%)" opacity="0.72"/>
    <polygon points="685,487 660,604 710,604" fill="hsl(72 36% 33%)" opacity="0.79"/>
    <rect x="682" y="583" width="6" height="27" fill="hsl(350 26% 24%)" opacity="0.72"/>
    <polygon points="1440,464 1420,616 1460,616" fill="hsl(72 36% 33%)" opacity="0.76"/>
    <rect x="1438" y="589" width="5" height="35" fill="hsl(350 26% 24%)" opacity="0.72"/>
    <polygon points="1296,469 1277,612 1315,612" fill="hsl(72 36% 33%)" opacity="0.83"/>
    <rect x="1294" y="586" width="5" height="33" fill="hsl(350 26% 24%)" opacity="0.72"/>
    <polygon points="1263,482 1234,639 1292,639" fill="hsl(72 36% 33%)" opacity="0.72"/>
    <rect x="1260" y="611" width="7" height="36" fill="hsl(350 26% 24%)" opacity="0.72"/>
    <polygon points="1049,442 1023,607 1075,607" fill="hsl(72 36% 33%)" opacity="0.78"/>
    <rect x="1046" y="577" width="6" height="38" fill="hsl(350 26% 24%)" opacity="0.72"/>
    <polygon points="290,495 267,605 313,605" fill="hsl(82 38% 27%)" opacity="0.74"/>
    <rect x="287" y="585" width="6" height="25" fill="hsl(350 26% 24%)" opacity="0.72"/>
    <polygon points="1450,509 1418,617 1482,617" fill="hsl(82 38% 27%)" opacity="0.73"/>
    <rect x="1446" y="598" width="8" height="25" fill="hsl(350 26% 24%)" opacity="0.72"/>
    <polygon points="449,561 427,657 471,657" fill="hsl(82 38% 27%)" opacity="0.70"/>
    <rect x="446" y="640" width="5" height="22" fill="hsl(350 26% 24%)" opacity="0.72"/>
    <polygon points="1034,533 1001,659 1067,659" fill="hsl(82 38% 27%)" opacity="0.74"/>
    <rect x="1030" y="636" width="8" height="29" fill="hsl(350 26% 24%)" opacity="0.72"/>
    <polygon points="419,463 393,624 445,624" fill="hsl(72 36% 33%)" opacity="0.87"/>
    <rect x="416" y="595" width="6" height="37" fill="hsl(350 26% 24%)" opacity="0.72"/>
    <polygon points="678,477 654,639 702,639" fill="hsl(72 36% 33%)" opacity="0.73"/>
    <rect x="675" y="610" width="6" height="37" fill="hsl(350 26% 24%)" opacity="0.72"/>
    <polygon points="1068,509 1045,634 1091,634" fill="hsl(72 36% 33%)" opacity="0.82"/>
    <rect x="1065" y="611" width="6" height="29" fill="hsl(350 26% 24%)" opacity="0.72"/>
    <polygon points="1501,514 1478,655 1524,655" fill="hsl(82 38% 27%)" opacity="0.73"/>
    <rect x="1498" y="630" width="6" height="32" fill="hsl(350 26% 24%)" opacity="0.72"/>
    <polygon points="844,508 815,645 873,645" fill="hsl(72 36% 33%)" opacity="0.88"/>
    <rect x="841" y="620" width="7" height="32" fill="hsl(350 26% 24%)" opacity="0.72"/>
    <polygon points="46,503 16,624 76,624" fill="hsl(72 36% 33%)" opacity="0.92"/>
    <rect x="42" y="602" width="7" height="28" fill="hsl(350 26% 24%)" opacity="0.72"/>
    <polygon points="720,507 694,658 746,658" fill="hsl(82 38% 27%)" opacity="0.87"/>
    <rect x="717" y="631" width="6" height="35" fill="hsl(350 26% 24%)" opacity="0.72"/>
  </g>

  <rect y="646" width="1600" height="254" fill="url(#fog)"/>

  <g>
    <polygon points="499,610 456,747 542,747" fill="hsl(82 38% 27%)" opacity="0.70"/>
    <rect x="494" y="722" width="10" height="32" fill="hsl(350 26% 24%)" opacity="0.72"/>
    <polygon points="1175,586 1124,752 1226,752" fill="hsl(82 38% 27%)" opacity="0.86"/>
    <rect x="1169" y="722" width="12" height="38" fill="hsl(350 26% 24%)" opacity="0.72"/>
    <polygon points="780,540 740,789 820,789" fill="hsl(72 36% 33%)" opacity="0.80"/>
    <rect x="775" y="744" width="10" height="57" fill="hsl(350 26% 24%)" opacity="0.72"/>
    <polygon points="908,542 877,751 939,751" fill="hsl(72 36% 33%)" opacity="0.83"/>
    <rect x="904" y="713" width="7" height="48" fill="hsl(350 26% 24%)" opacity="0.72"/>
    <polygon points="1032,572 1004,807 1060,807" fill="hsl(72 36% 33%)" opacity="0.74"/>
    <rect x="1029" y="765" width="7" height="54" fill="hsl(350 26% 24%)" opacity="0.72"/>
    <polygon points="1092,606 1047,796 1137,796" fill="hsl(72 36% 33%)" opacity="0.83"/>
    <rect x="1087" y="762" width="11" height="44" fill="hsl(350 26% 24%)" opacity="0.72"/>
    <polygon points="27,517 -20,763 74,763" fill="hsl(82 38% 27%)" opacity="0.77"/>
    <rect x="21" y="719" width="11" height="57" fill="hsl(350 26% 24%)" opacity="0.72"/>
    <polygon points="290,502 251,749 329,749" fill="hsl(72 36% 33%)" opacity="0.76"/>
    <rect x="285" y="705" width="9" height="57" fill="hsl(350 26% 24%)" opacity="0.72"/>
    <polygon points="593,547 547,733 639,733" fill="hsl(72 36% 33%)" opacity="0.91"/>
    <rect x="587" y="700" width="11" height="43" fill="hsl(350 26% 24%)" opacity="0.72"/>
    <polygon points="1308,543 1258,755 1358,755" fill="hsl(72 36% 33%)" opacity="0.69"/>
    <rect x="1302" y="717" width="12" height="49" fill="hsl(350 26% 24%)" opacity="0.72"/>
    <polygon points="865,614 836,778 894,778" fill="hsl(72 36% 33%)" opacity="0.75"/>
    <rect x="862" y="748" width="7" height="38" fill="hsl(350 26% 24%)" opacity="0.72"/>
    <polygon points="1113,543 1084,786 1142,786" fill="hsl(72 36% 33%)" opacity="0.90"/>
    <rect x="1110" y="742" width="7" height="56" fill="hsl(350 26% 24%)" opacity="0.72"/>
    <polygon points="961,543 928,773 994,773" fill="hsl(82 38% 27%)" opacity="0.68"/>
    <rect x="957" y="732" width="8" height="53" fill="hsl(350 26% 24%)" opacity="0.72"/>
    <polygon points="744,578 692,817 796,817" fill="hsl(82 38% 27%)" opacity="0.70"/>
    <rect x="738" y="774" width="12" height="55" fill="hsl(350 26% 24%)" opacity="0.72"/>
    <polygon points="115,546 85,771 145,771" fill="hsl(72 36% 33%)" opacity="0.70"/>
    <rect x="111" y="730" width="7" height="52" fill="hsl(350 26% 24%)" opacity="0.72"/>
    <polygon points="805,640 758,799 852,799" fill="hsl(72 36% 33%)" opacity="0.83"/>
    <rect x="799" y="770" width="11" height="37" fill="hsl(350 26% 24%)" opacity="0.72"/>
  </g>

  <rect x="64" y="676" width="1472" height="184" rx="22" fill="#081517" opacity="0.54"/>
  <text x="118" y="726" fill="#d9e8c8" font-family="Poppins, Arial, sans-serif" font-size="28" font-weight="700">Su Izinleri</text>
  <text x="118" y="768" fill="#ffffff" font-family="Poppins, Arial, sans-serif" font-size="43.6" font-weight="800">Kaya Turistik Tesisleri</text>
  <text x="118" y="828" fill="#ffffff" font-family="Poppins, Arial, sans-serif" font-size="43.6" font-weight="800">Titreyengol Otelcilik A.S.</text>

  <rect width="1600" height="900" fill="url(#vignette)"/>
</svg>
