<?xml version="1.0" encoding="UTF-8"?>
<svg xmlns="http://www.w3.org/2000/svg" viewBox="0 0 1600 900" role="img" aria-label="KBB">
  <defs>
    <linearGradient id="bg" x1="0" y1="0" x2="0" y2="1">
      <stop offset="0%" stop-color="hsl(258 37% 23%)"/>
      <stop offset="100%" stop-color="hsl(176 41% 40%)"/>
    </linearGradient>
    <linearGradient id="fog" x1="0" y1="0" x2="1" y2="0">
      <stop offset="0%" stop-color="hsl(138 20% 84%)" stop-opacity="0.22"/>
      <stop offset="50%" stop-color="#ffffff" stop-opacity="0.08"/>
      <stop offset="100%" stop-color="hsl(138 20% 84%)" stop-opacity="0.22"/>
    </linearGradient>
    <radialGradient id="vignette" cx="50%" cy="45%" r="70%">
      <stop offset="65%" stop-color="rgba(0,0,0,0)"/>
      <stop offset="100%" stop-color="rgba(0,0,0,0.35)"/>
    </radialGradient>
  </defs>

  <rect width="1600" height="900" fill="url(#bg)"/>
  <circle cx="1276" cy="278" r="84" fill="#f4efd4" opacity="0.34"/>

  <path d="M0 413 Q115 350 229 299 Q343 358 457 287 Q572 392 686 361 Q800 386 914 354 Q1029 356 1143 275 Q1257 350 1371 268 Q1486 360 1600 319 L1600 900 L0 900 Z" fill="hsl(193 28% 25%)" opacity="0.48"/>
  <path d="M0 525 Q115 494 229 447 Q343 455 457 381 Q572 479 686 434 Q800 462 914 393 Q1029 465 1143 414 Q1257 448 1371 392 Q1486 458 1600 368 L1600 900 L0 900 Z" fill="hsl(180 26% 34%)" opacity="0.62"/>
  <path d="M0 616 Q115 578 229 519 Q343 510 457 417 Q572 528 686 431 Q800 564 914 525 Q1029 550 1143 507 Q1257 523 1371 441 Q1486 529 1600 457 L1600 900 L0 900 Z" fill="hsl(168 24% 39%)" opacity="0.78"/>

  <g>
    <polygon points="1040,481 1016,621 1064,621" fill="hsl(168 38% 28%)" opacity="0.70"/>
    <rect x="1037" y="596" width="6" height="32" fill="hsl(76 26% 24%)" opacity="0.72"/>
    <polygon points="285,472 262,626 308,626" fill="hsl(158 36% 35%)" opacity="0.91"/>
    <rect x="282" y="598" width="6" height="35" fill="hsl(76 26% 24%)" opacity="0.72"/>
    <polygon points="1365,536 1343,635 1387,635" fill="hsl(158 36% 35%)" opacity="0.77"/>
    <rect x="1362" y="617" width="5" height="23" fill="hsl(76 26% 24%)" opacity="0.72"/>
    <polygon points="323,524 290,628 356,628" fill="hsl(158 36% 35%)" opacity="0.74"/>
    <rect x="319" y="609" width="8" height="24" fill="hsl(76 26% 24%)" opacity="0.72"/>
    <polygon points="187,484 165,618 209,618" fill="hsl(158 36% 35%)" opacity="0.68"/>
    <rect x="184" y="594" width="5" height="31" fill="hsl(76 26% 24%)" opacity="0.72"/>
    <polygon points="650,539 620,632 680,632" fill="hsl(168 38% 28%)" opacity="0.84"/>
    <rect x="646" y="615" width="7" height="21" fill="hsl(76 26% 24%)" opacity="0.72"/>
    <polygon points="1201,496 1169,658 1233,658" fill="hsl(158 36% 35%)" opacity="0.82"/>
    <rect x="1197" y="629" width="8" height="37" fill="hsl(76 26% 24%)" opacity="0.72"/>
    <polygon points="1533,541 1510,638 1556,638" fill="hsl(158 36% 35%)" opacity="0.83"/>
    <rect x="1530" y="621" width="6" height="22" fill="hsl(76 26% 24%)" opacity="0.72"/>
    <polygon points="267,496 233,613 301,613" fill="hsl(158 36% 35%)" opacity="0.77"/>
    <rect x="263" y="592" width="8" height="27" fill="hsl(76 26% 24%)" opacity="0.72"/>
    <polygon points="293,530 262,652 324,652" fill="hsl(158 36% 35%)" opacity="0.76"/>
    <rect x="289" y="630" width="7" height="28" fill="hsl(76 26% 24%)" opacity="0.72"/>
    <polygon points="487,519 469,628 505,628" fill="hsl(158 36% 35%)" opacity="0.82"/>
    <rect x="485" y="608" width="4" height="25" fill="hsl(76 26% 24%)" opacity="0.72"/>
    <polygon points="753,469 726,605 780,605" fill="hsl(168 38% 28%)" opacity="0.82"/>
    <rect x="750" y="581" width="6" height="31" fill="hsl(76 26% 24%)" opacity="0.72"/>
    <polygon points="724,509 700,611 748,611" fill="hsl(168 38% 28%)" opacity="0.69"/>
    <rect x="721" y="593" width="6" height="23" fill="hsl(76 26% 24%)" opacity="0.72"/>
    <polygon points="1496,496 1467,637 1525,637" fill="hsl(158 36% 35%)" opacity="0.75"/>
    <rect x="1493" y="612" width="7" height="32" fill="hsl(76 26% 24%)" opacity="0.72"/>
    <polygon points="321,446 289,605 353,605" fill="hsl(158 36% 35%)" opacity="0.72"/>
    <rect x="317" y="576" width="8" height="37" fill="hsl(76 26% 24%)" opacity="0.72"/>
    <polygon points="709,488 682,635 736,635" fill="hsl(168 38% 28%)" opacity="0.84"/>
    <rect x="706" y="609" width="6" height="34" fill="hsl(76 26% 24%)" opacity="0.72"/>
    <polygon points="1471,443 1446,607 1496,607" fill="hsl(158 36% 35%)" opacity="0.81"/>
    <rect x="1468" y="577" width="6" height="38" fill="hsl(76 26% 24%)" opacity="0.72"/>
    <polygon points="322,480 288,632 356,632" fill="hsl(168 38% 28%)" opacity="0.90"/>
    <rect x="318" y="605" width="8" height="35" fill="hsl(76 26% 24%)" opacity="0.72"/>
  </g>

  <rect y="646" width="1600" height="254" fill="url(#fog)"/>

  <g>
    <polygon points="1322,617 1273,802 1371,802" fill="hsl(158 36% 35%)" opacity="0.88"/>
    <rect x="1316" y="769" width="12" height="43" fill="hsl(76 26% 24%)" opacity="0.72"/>
    <polygon points="1493,507 1452,746 1534,746" fill="hsl(158 36% 35%)" opacity="0.71"/>
    <rect x="1488" y="703" width="10" height="55" fill="hsl(76 26% 24%)" opacity="0.72"/>
    <polygon points="1352,574 1322,762 1382,762" fill="hsl(158 36% 35%)" opacity="0.88"/>
    <rect x="1348" y="728" width="7" height="43" fill="hsl(76 26% 24%)" opacity="0.72"/>
    <polygon points="1527,519 1479,762 1575,762" fill="hsl(168 38% 28%)" opacity="0.73"/>
    <rect x="1521" y="718" width="12" height="56" fill="hsl(76 26% 24%)" opacity="0.72"/>
    <polygon points="1133,581 1104,804 1162,804" fill="hsl(158 36% 35%)" opacity="0.90"/>
    <rect x="1130" y="764" width="7" height="51" fill="hsl(76 26% 24%)" opacity="0.72"/>
    <polygon points="956,528 902,764 1010,764" fill="hsl(158 36% 35%)" opacity="0.79"/>
    <rect x="950" y="722" width="13" height="54" fill="hsl(76 26% 24%)" opacity="0.72"/>
    <polygon points="1025,563 973,788 1077,788" fill="hsl(158 36% 35%)" opacity="0.74"/>
    <rect x="1019" y="747" width="12" height="52" fill="hsl(76 26% 24%)" opacity="0.72"/>
    <polygon points="1567,558 1533,760 1601,760" fill="hsl(158 36% 35%)" opacity="0.91"/>
    <rect x="1563" y="724" width="8" height="46" fill="hsl(76 26% 24%)" opacity="0.72"/>
    <polygon points="431,650 377,792 485,792" fill="hsl(168 38% 28%)" opacity="0.88"/>
    <rect x="425" y="766" width="13" height="33" fill="hsl(76 26% 24%)" opacity="0.72"/>
    <polygon points="1102,599 1051,782 1153,782" fill="hsl(168 38% 28%)" opacity="0.77"/>
    <rect x="1096" y="749" width="12" height="42" fill="hsl(76 26% 24%)" opacity="0.72"/>
    <polygon points="1018,563 971,814 1065,814" fill="hsl(168 38% 28%)" opacity="0.73"/>
    <rect x="1012" y="769" width="11" height="58" fill="hsl(76 26% 24%)" opacity="0.72"/>
    <polygon points="1045,626 1009,798 1081,798" fill="hsl(168 38% 28%)" opacity="0.86"/>
    <rect x="1041" y="767" width="9" height="40" fill="hsl(76 26% 24%)" opacity="0.72"/>
    <polygon points="757,605 720,751 794,751" fill="hsl(168 38% 28%)" opacity="0.82"/>
    <rect x="753" y="725" width="9" height="34" fill="hsl(76 26% 24%)" opacity="0.72"/>
    <polygon points="298,576 256,752 340,752" fill="hsl(158 36% 35%)" opacity="0.78"/>
    <rect x="293" y="720" width="10" height="40" fill="hsl(76 26% 24%)" opacity="0.72"/>
    <polygon points="1203,611 1174,803 1232,803" fill="hsl(158 36% 35%)" opacity="0.89"/>
    <rect x="1200" y="768" width="7" height="44" fill="hsl(76 26% 24%)" opacity="0.72"/>
    <polygon points="1283,592 1248,802 1318,802" fill="hsl(168 38% 28%)" opacity="0.76"/>
    <rect x="1279" y="764" width="8" height="48" fill="hsl(76 26% 24%)" opacity="0.72"/>
  </g>

  <rect x="64" y="676" width="1472" height="184" rx="22" fill="#081517" opacity="0.54"/>
  <text x="118" y="726" fill="#d9e8c8" font-family="Poppins, Arial, sans-serif" font-size="28" font-weight="700">Devlet</text>
  <text x="118" y="792" fill="#ffffff" font-family="Poppins, Arial, sans-serif" font-size="66.0" font-weight="800">KBB</text>
  

  <rect width="1600" height="900" fill="url(#vignette)"/>
</svg>
