<?xml version="1.0" encoding="UTF-8"?>
<svg xmlns="http://www.w3.org/2000/svg" viewBox="0 0 1600 900" role="img" aria-label="KGM ATIS">
  <defs>
    <linearGradient id="bg" x1="0" y1="0" x2="0" y2="1">
      <stop offset="0%" stop-color="hsl(293 45% 24%)"/>
      <stop offset="100%" stop-color="hsl(211 35% 38%)"/>
    </linearGradient>
    <linearGradient id="fog" x1="0" y1="0" x2="1" y2="0">
      <stop offset="0%" stop-color="hsl(173 20% 84%)" stop-opacity="0.22"/>
      <stop offset="50%" stop-color="#ffffff" stop-opacity="0.08"/>
      <stop offset="100%" stop-color="hsl(173 20% 84%)" stop-opacity="0.22"/>
    </linearGradient>
    <radialGradient id="vignette" cx="50%" cy="45%" r="70%">
      <stop offset="65%" stop-color="rgba(0,0,0,0)"/>
      <stop offset="100%" stop-color="rgba(0,0,0,0.35)"/>
    </radialGradient>
  </defs>

  <rect width="1600" height="900" fill="url(#bg)"/>
  <circle cx="1124" cy="132" r="90" fill="#f4efd4" opacity="0.34"/>

  <path d="M0 424 Q115 366 229 304 Q343 370 457 320 Q572 363 686 314 Q800 380 914 317 Q1029 413 1143 380 Q1257 383 1371 358 Q1486 390 1600 357 L1600 900 L0 900 Z" fill="hsl(228 28% 25%)" opacity="0.48"/>
  <path d="M0 509 Q115 484 229 442 Q343 429 457 340 Q572 417 686 340 Q800 462 914 437 Q1029 437 1143 358 Q1257 435 1371 364 Q1486 437 1600 356 L1600 900 L0 900 Z" fill="hsl(215 26% 29%)" opacity="0.62"/>
  <path d="M0 611 Q115 560 229 509 Q343 588 457 550 Q572 545 686 475 Q800 562 914 513 Q1029 549 1143 486 Q1257 535 1371 467 Q1486 545 1600 483 L1600 900 L0 900 Z" fill="hsl(203 24% 43%)" opacity="0.78"/>

  <g>
    <polygon points="454,506 430,651 478,651" fill="hsl(203 38% 28%)" opacity="0.85"/>
    <rect x="451" y="625" width="6" height="33" fill="hsl(111 26% 24%)" opacity="0.72"/>
    <polygon points="191,522 163,624 219,624" fill="hsl(193 36% 33%)" opacity="0.83"/>
    <rect x="188" y="606" width="7" height="23" fill="hsl(111 26% 24%)" opacity="0.72"/>
    <polygon points="470,490 439,635 501,635" fill="hsl(203 38% 28%)" opacity="0.74"/>
    <rect x="466" y="609" width="7" height="33" fill="hsl(111 26% 24%)" opacity="0.72"/>
    <polygon points="691,550 666,654 716,654" fill="hsl(203 38% 28%)" opacity="0.87"/>
    <rect x="688" y="635" width="6" height="24" fill="hsl(111 26% 24%)" opacity="0.72"/>
    <polygon points="901,520 869,632 933,632" fill="hsl(193 36% 33%)" opacity="0.78"/>
    <rect x="897" y="612" width="8" height="26" fill="hsl(111 26% 24%)" opacity="0.72"/>
    <polygon points="656,512 626,639 686,639" fill="hsl(203 38% 28%)" opacity="0.92"/>
    <rect x="652" y="616" width="7" height="29" fill="hsl(111 26% 24%)" opacity="0.72"/>
    <polygon points="888,529 870,636 906,636" fill="hsl(193 36% 33%)" opacity="0.86"/>
    <rect x="886" y="617" width="4" height="25" fill="hsl(111 26% 24%)" opacity="0.72"/>
    <polygon points="1298,487 1267,637 1329,637" fill="hsl(203 38% 28%)" opacity="0.89"/>
    <rect x="1294" y="610" width="7" height="35" fill="hsl(111 26% 24%)" opacity="0.72"/>
    <polygon points="470,502 441,660 499,660" fill="hsl(193 36% 33%)" opacity="0.88"/>
    <rect x="467" y="632" width="7" height="36" fill="hsl(111 26% 24%)" opacity="0.72"/>
    <polygon points="409,506 387,617 431,617" fill="hsl(193 36% 33%)" opacity="0.69"/>
    <rect x="406" y="597" width="5" height="26" fill="hsl(111 26% 24%)" opacity="0.72"/>
    <polygon points="1305,509 1272,617 1338,617" fill="hsl(203 38% 28%)" opacity="0.70"/>
    <rect x="1301" y="598" width="8" height="25" fill="hsl(111 26% 24%)" opacity="0.72"/>
    <polygon points="434,485 408,632 460,632" fill="hsl(193 36% 33%)" opacity="0.77"/>
    <rect x="431" y="606" width="6" height="34" fill="hsl(111 26% 24%)" opacity="0.72"/>
    <polygon points="402,512 382,629 422,629" fill="hsl(193 36% 33%)" opacity="0.71"/>
    <rect x="400" y="608" width="5" height="27" fill="hsl(111 26% 24%)" opacity="0.72"/>
    <polygon points="858,442 825,606 891,606" fill="hsl(203 38% 28%)" opacity="0.77"/>
    <rect x="854" y="576" width="8" height="38" fill="hsl(111 26% 24%)" opacity="0.72"/>
    <polygon points="1073,467 1048,603 1098,603" fill="hsl(193 36% 33%)" opacity="0.68"/>
    <rect x="1070" y="579" width="6" height="31" fill="hsl(111 26% 24%)" opacity="0.72"/>
    <polygon points="387,563 357,656 417,656" fill="hsl(203 38% 28%)" opacity="0.85"/>
    <rect x="383" y="639" width="7" height="21" fill="hsl(111 26% 24%)" opacity="0.72"/>
    <polygon points="397,532 377,626 417,626" fill="hsl(203 38% 28%)" opacity="0.87"/>
    <rect x="395" y="609" width="5" height="22" fill="hsl(111 26% 24%)" opacity="0.72"/>
    <polygon points="131,518 102,629 160,629" fill="hsl(193 36% 33%)" opacity="0.72"/>
    <rect x="128" y="609" width="7" height="26" fill="hsl(111 26% 24%)" opacity="0.72"/>
  </g>

  <rect y="646" width="1600" height="254" fill="url(#fog)"/>

  <g>
    <polygon points="923,585 881,777 965,777" fill="hsl(203 38% 28%)" opacity="0.72"/>
    <rect x="918" y="742" width="10" height="44" fill="hsl(111 26% 24%)" opacity="0.72"/>
    <polygon points="1350,595 1300,820 1400,820" fill="hsl(203 38% 28%)" opacity="0.89"/>
    <rect x="1344" y="779" width="12" height="52" fill="hsl(111 26% 24%)" opacity="0.72"/>
    <polygon points="492,508 444,733 540,733" fill="hsl(203 38% 28%)" opacity="0.84"/>
    <rect x="486" y="692" width="12" height="52" fill="hsl(111 26% 24%)" opacity="0.72"/>
    <polygon points="799,682 759,812 839,812" fill="hsl(203 38% 28%)" opacity="0.71"/>
    <rect x="794" y="789" width="10" height="30" fill="hsl(111 26% 24%)" opacity="0.72"/>
    <polygon points="1033,573 986,790 1080,790" fill="hsl(193 36% 33%)" opacity="0.88"/>
    <rect x="1027" y="751" width="11" height="50" fill="hsl(111 26% 24%)" opacity="0.72"/>
    <polygon points="1341,595 1292,812 1390,812" fill="hsl(203 38% 28%)" opacity="0.86"/>
    <rect x="1335" y="773" width="12" height="50" fill="hsl(111 26% 24%)" opacity="0.72"/>
    <polygon points="251,565 217,809 285,809" fill="hsl(193 36% 33%)" opacity="0.83"/>
    <rect x="247" y="765" width="8" height="56" fill="hsl(111 26% 24%)" opacity="0.72"/>
    <polygon points="1440,597 1394,769 1486,769" fill="hsl(203 38% 28%)" opacity="0.69"/>
    <rect x="1434" y="738" width="11" height="40" fill="hsl(111 26% 24%)" opacity="0.72"/>
    <polygon points="1163,675 1112,810 1214,810" fill="hsl(203 38% 28%)" opacity="0.78"/>
    <rect x="1157" y="786" width="12" height="31" fill="hsl(111 26% 24%)" opacity="0.72"/>
    <polygon points="259,508 209,752 309,752" fill="hsl(193 36% 33%)" opacity="0.82"/>
    <rect x="253" y="708" width="12" height="56" fill="hsl(111 26% 24%)" opacity="0.72"/>
    <polygon points="419,579 380,808 458,808" fill="hsl(193 36% 33%)" opacity="0.75"/>
    <rect x="414" y="767" width="9" height="53" fill="hsl(111 26% 24%)" opacity="0.72"/>
    <polygon points="122,585 93,781 151,781" fill="hsl(203 38% 28%)" opacity="0.90"/>
    <rect x="119" y="746" width="7" height="45" fill="hsl(111 26% 24%)" opacity="0.72"/>
    <polygon points="933,581 882,794 984,794" fill="hsl(203 38% 28%)" opacity="0.73"/>
    <rect x="927" y="756" width="12" height="49" fill="hsl(111 26% 24%)" opacity="0.72"/>
    <polygon points="1019,564 978,792 1060,792" fill="hsl(203 38% 28%)" opacity="0.92"/>
    <rect x="1014" y="751" width="10" height="52" fill="hsl(111 26% 24%)" opacity="0.72"/>
    <polygon points="727,659 684,818 770,818" fill="hsl(203 38% 28%)" opacity="0.72"/>
    <rect x="722" y="789" width="10" height="37" fill="hsl(111 26% 24%)" opacity="0.72"/>
    <polygon points="841,586 791,775 891,775" fill="hsl(203 38% 28%)" opacity="0.72"/>
    <rect x="835" y="741" width="12" height="43" fill="hsl(111 26% 24%)" opacity="0.72"/>
  </g>

  <rect x="64" y="676" width="1472" height="184" rx="22" fill="#081517" opacity="0.54"/>
  <text x="118" y="726" fill="#d9e8c8" font-family="Poppins, Arial, sans-serif" font-size="28" font-weight="700">Devlet</text>
  <text x="118" y="792" fill="#ffffff" font-family="Poppins, Arial, sans-serif" font-size="66.0" font-weight="800">KGM ATIS</text>
  

  <rect width="1600" height="900" fill="url(#vignette)"/>
</svg>
