<?xml version="1.0" encoding="UTF-8"?>
<svg xmlns="http://www.w3.org/2000/svg" viewBox="0 0 1600 900" role="img" aria-label="KGM 2. BOLGE MUDURLUGU (2M)">
  <defs>
    <linearGradient id="bg" x1="0" y1="0" x2="0" y2="1">
      <stop offset="0%" stop-color="hsl(93 48% 20%)"/>
      <stop offset="100%" stop-color="hsl(11 32% 38%)"/>
    </linearGradient>
    <linearGradient id="fog" x1="0" y1="0" x2="1" y2="0">
      <stop offset="0%" stop-color="hsl(333 20% 84%)" stop-opacity="0.22"/>
      <stop offset="50%" stop-color="#ffffff" stop-opacity="0.08"/>
      <stop offset="100%" stop-color="hsl(333 20% 84%)" stop-opacity="0.22"/>
    </linearGradient>
    <radialGradient id="vignette" cx="50%" cy="45%" r="70%">
      <stop offset="65%" stop-color="rgba(0,0,0,0)"/>
      <stop offset="100%" stop-color="rgba(0,0,0,0.35)"/>
    </radialGradient>
  </defs>

  <rect width="1600" height="900" fill="url(#bg)"/>
  <circle cx="1353" cy="159" r="97" fill="#f4efd4" opacity="0.34"/>

  <path d="M0 431 Q115 355 229 286 Q343 365 457 301 Q572 359 686 294 Q800 416 914 379 Q1029 376 1143 333 Q1257 372 1371 327 Q1486 365 1600 313 L1600 900 L0 900 Z" fill="hsl(28 28% 23%)" opacity="0.48"/>
  <path d="M0 523 Q115 486 229 429 Q343 445 457 369 Q572 474 686 429 Q800 458 914 372 Q1029 498 1143 450 Q1257 444 1371 373 Q1486 436 1600 372 L1600 900 L0 900 Z" fill="hsl(15 26% 31%)" opacity="0.62"/>
  <path d="M0 643 Q115 575 229 502 Q343 577 457 492 Q572 595 686 524 Q800 581 914 512 Q1029 576 1143 515 Q1257 562 1371 460 Q1486 576 1600 501 L1600 900 L0 900 Z" fill="hsl(3 24% 37%)" opacity="0.78"/>

  <g>
    <polygon points="123,483 102,629 144,629" fill="hsl(353 36% 34%)" opacity="0.86"/>
    <rect x="120" y="603" width="5" height="34" fill="hsl(271 26% 24%)" opacity="0.72"/>
    <polygon points="64,518 37,652 91,652" fill="hsl(3 38% 27%)" opacity="0.69"/>
    <rect x="61" y="628" width="6" height="31" fill="hsl(271 26% 24%)" opacity="0.72"/>
    <polygon points="193,531 162,623 224,623" fill="hsl(353 36% 34%)" opacity="0.76"/>
    <rect x="189" y="606" width="7" height="21" fill="hsl(271 26% 24%)" opacity="0.72"/>
    <polygon points="284,469 252,633 316,633" fill="hsl(353 36% 34%)" opacity="0.87"/>
    <rect x="280" y="603" width="8" height="38" fill="hsl(271 26% 24%)" opacity="0.72"/>
    <polygon points="162,512 139,635 185,635" fill="hsl(3 38% 27%)" opacity="0.69"/>
    <rect x="159" y="613" width="6" height="28" fill="hsl(271 26% 24%)" opacity="0.72"/>
    <polygon points="1388,532 1361,655 1415,655" fill="hsl(353 36% 34%)" opacity="0.80"/>
    <rect x="1385" y="633" width="6" height="28" fill="hsl(271 26% 24%)" opacity="0.72"/>
    <polygon points="50,511 28,661 72,661" fill="hsl(353 36% 34%)" opacity="0.83"/>
    <rect x="47" y="634" width="5" height="35" fill="hsl(271 26% 24%)" opacity="0.72"/>
    <polygon points="1578,549 1557,655 1599,655" fill="hsl(3 38% 27%)" opacity="0.71"/>
    <rect x="1575" y="636" width="5" height="24" fill="hsl(271 26% 24%)" opacity="0.72"/>
    <polygon points="1252,565 1223,662 1281,662" fill="hsl(3 38% 27%)" opacity="0.78"/>
    <rect x="1249" y="645" width="7" height="22" fill="hsl(271 26% 24%)" opacity="0.72"/>
    <polygon points="218,532 189,663 247,663" fill="hsl(3 38% 27%)" opacity="0.83"/>
    <rect x="215" y="639" width="7" height="30" fill="hsl(271 26% 24%)" opacity="0.72"/>
    <polygon points="679,521 652,626 706,626" fill="hsl(3 38% 27%)" opacity="0.79"/>
    <rect x="676" y="607" width="6" height="24" fill="hsl(271 26% 24%)" opacity="0.72"/>
    <polygon points="521,494 489,641 553,641" fill="hsl(3 38% 27%)" opacity="0.90"/>
    <rect x="517" y="615" width="8" height="34" fill="hsl(271 26% 24%)" opacity="0.72"/>
    <polygon points="1568,512 1546,605 1590,605" fill="hsl(353 36% 34%)" opacity="0.69"/>
    <rect x="1565" y="588" width="5" height="21" fill="hsl(271 26% 24%)" opacity="0.72"/>
    <polygon points="68,463 50,605 86,605" fill="hsl(353 36% 34%)" opacity="0.82"/>
    <rect x="66" y="579" width="4" height="33" fill="hsl(271 26% 24%)" opacity="0.72"/>
    <polygon points="454,481 436,603 472,603" fill="hsl(3 38% 27%)" opacity="0.74"/>
    <rect x="452" y="581" width="4" height="28" fill="hsl(271 26% 24%)" opacity="0.72"/>
    <polygon points="887,561 869,654 905,654" fill="hsl(353 36% 34%)" opacity="0.82"/>
    <rect x="885" y="637" width="4" height="21" fill="hsl(271 26% 24%)" opacity="0.72"/>
    <polygon points="852,552 822,658 882,658" fill="hsl(353 36% 34%)" opacity="0.87"/>
    <rect x="848" y="639" width="7" height="24" fill="hsl(271 26% 24%)" opacity="0.72"/>
    <polygon points="1319,563 1296,662 1342,662" fill="hsl(3 38% 27%)" opacity="0.82"/>
    <rect x="1316" y="644" width="6" height="23" fill="hsl(271 26% 24%)" opacity="0.72"/>
  </g>

  <rect y="646" width="1600" height="254" fill="url(#fog)"/>

  <g>
    <polygon points="163,600 128,807 198,807" fill="hsl(353 36% 34%)" opacity="0.74"/>
    <rect x="159" y="770" width="8" height="48" fill="hsl(271 26% 24%)" opacity="0.72"/>
    <polygon points="670,556 617,789 723,789" fill="hsl(3 38% 27%)" opacity="0.75"/>
    <rect x="664" y="747" width="13" height="54" fill="hsl(271 26% 24%)" opacity="0.72"/>
    <polygon points="580,588 531,808 629,808" fill="hsl(3 38% 27%)" opacity="0.90"/>
    <rect x="574" y="768" width="12" height="51" fill="hsl(271 26% 24%)" opacity="0.72"/>
    <polygon points="704,558 663,795 745,795" fill="hsl(353 36% 34%)" opacity="0.84"/>
    <rect x="699" y="752" width="10" height="55" fill="hsl(271 26% 24%)" opacity="0.72"/>
    <polygon points="772,611 720,792 824,792" fill="hsl(353 36% 34%)" opacity="0.80"/>
    <rect x="766" y="759" width="12" height="42" fill="hsl(271 26% 24%)" opacity="0.72"/>
    <polygon points="550,604 510,797 590,797" fill="hsl(353 36% 34%)" opacity="0.85"/>
    <rect x="545" y="762" width="10" height="44" fill="hsl(271 26% 24%)" opacity="0.72"/>
    <polygon points="200,628 146,792 254,792" fill="hsl(3 38% 27%)" opacity="0.91"/>
    <rect x="194" y="762" width="13" height="38" fill="hsl(271 26% 24%)" opacity="0.72"/>
    <polygon points="444,649 394,819 494,819" fill="hsl(353 36% 34%)" opacity="0.87"/>
    <rect x="438" y="788" width="12" height="39" fill="hsl(271 26% 24%)" opacity="0.72"/>
    <polygon points="438,628 407,814 469,814" fill="hsl(3 38% 27%)" opacity="0.80"/>
    <rect x="434" y="781" width="7" height="43" fill="hsl(271 26% 24%)" opacity="0.72"/>
    <polygon points="1360,562 1311,766 1409,766" fill="hsl(3 38% 27%)" opacity="0.73"/>
    <rect x="1354" y="729" width="12" height="47" fill="hsl(271 26% 24%)" opacity="0.72"/>
    <polygon points="443,547 397,798 489,798" fill="hsl(353 36% 34%)" opacity="0.88"/>
    <rect x="437" y="753" width="11" height="58" fill="hsl(271 26% 24%)" opacity="0.72"/>
    <polygon points="428,570 396,771 460,771" fill="hsl(353 36% 34%)" opacity="0.88"/>
    <rect x="424" y="735" width="8" height="46" fill="hsl(271 26% 24%)" opacity="0.72"/>
    <polygon points="91,595 41,761 141,761" fill="hsl(3 38% 27%)" opacity="0.79"/>
    <rect x="85" y="731" width="12" height="38" fill="hsl(271 26% 24%)" opacity="0.72"/>
    <polygon points="638,539 608,730 668,730" fill="hsl(353 36% 34%)" opacity="0.71"/>
    <rect x="634" y="696" width="7" height="44" fill="hsl(271 26% 24%)" opacity="0.72"/>
    <polygon points="982,588 934,758 1030,758" fill="hsl(353 36% 34%)" opacity="0.84"/>
    <rect x="976" y="727" width="12" height="39" fill="hsl(271 26% 24%)" opacity="0.72"/>
    <polygon points="800,643 762,780 838,780" fill="hsl(3 38% 27%)" opacity="0.91"/>
    <rect x="795" y="755" width="9" height="32" fill="hsl(271 26% 24%)" opacity="0.72"/>
  </g>

  <rect x="64" y="676" width="1472" height="184" rx="22" fill="#081517" opacity="0.54"/>
  <text x="118" y="726" fill="#d9e8c8" font-family="Poppins, Arial, sans-serif" font-size="28" font-weight="700">Devlet</text>
  <text x="118" y="792" fill="#ffffff" font-family="Poppins, Arial, sans-serif" font-size="59.7" font-weight="800">KGM 2. BOLGE MUDURLUGU (2M)</text>
  

  <rect width="1600" height="900" fill="url(#vignette)"/>
</svg>
