<?xml version="1.0" encoding="UTF-8"?>
<svg xmlns="http://www.w3.org/2000/svg" viewBox="0 0 1600 900" role="img" aria-label="KGM 1. BOLGE MUDURLUGU">
  <defs>
    <linearGradient id="bg" x1="0" y1="0" x2="0" y2="1">
      <stop offset="0%" stop-color="hsl(215 34% 21%)"/>
      <stop offset="100%" stop-color="hsl(133 38% 38%)"/>
    </linearGradient>
    <linearGradient id="fog" x1="0" y1="0" x2="1" y2="0">
      <stop offset="0%" stop-color="hsl(95 20% 84%)" stop-opacity="0.22"/>
      <stop offset="50%" stop-color="#ffffff" stop-opacity="0.08"/>
      <stop offset="100%" stop-color="hsl(95 20% 84%)" stop-opacity="0.22"/>
    </linearGradient>
    <radialGradient id="vignette" cx="50%" cy="45%" r="70%">
      <stop offset="65%" stop-color="rgba(0,0,0,0)"/>
      <stop offset="100%" stop-color="rgba(0,0,0,0.35)"/>
    </radialGradient>
  </defs>

  <rect width="1600" height="900" fill="url(#bg)"/>
  <circle cx="1375" cy="214" r="69" fill="#f4efd4" opacity="0.34"/>

  <path d="M0 434 Q115 408 229 382 Q343 377 457 338 Q572 396 686 349 Q800 378 914 333 Q1029 374 1143 328 Q1257 381 1371 313 Q1486 411 1600 369 L1600 900 L0 900 Z" fill="hsl(150 28% 24%)" opacity="0.48"/>
  <path d="M0 537 Q115 493 229 431 Q343 468 457 394 Q572 485 686 449 Q800 453 914 376 Q1029 468 1143 413 Q1257 508 1371 457 Q1486 441 1600 360 L1600 900 L0 900 Z" fill="hsl(137 26% 35%)" opacity="0.62"/>
  <path d="M0 642 Q115 575 229 523 Q343 586 457 526 Q572 608 686 564 Q800 548 914 471 Q1029 616 1143 567 Q1257 613 1371 571 Q1486 597 1600 547 L1600 900 L0 900 Z" fill="hsl(125 24% 38%)" opacity="0.78"/>

  <g>
    <polygon points="271,507 237,648 305,648" fill="hsl(115 36% 36%)" opacity="0.76"/>
    <rect x="267" y="623" width="8" height="32" fill="hsl(33 26% 24%)" opacity="0.72"/>
    <polygon points="544,538 525,660 563,660" fill="hsl(115 36% 36%)" opacity="0.88"/>
    <rect x="542" y="638" width="5" height="28" fill="hsl(33 26% 24%)" opacity="0.72"/>
    <polygon points="1287,507 1259,663 1315,663" fill="hsl(125 38% 27%)" opacity="0.69"/>
    <rect x="1284" y="635" width="7" height="36" fill="hsl(33 26% 24%)" opacity="0.72"/>
    <polygon points="145,508 122,614 168,614" fill="hsl(115 36% 36%)" opacity="0.83"/>
    <rect x="142" y="595" width="6" height="24" fill="hsl(33 26% 24%)" opacity="0.72"/>
    <polygon points="1405,509 1381,630 1429,630" fill="hsl(125 38% 27%)" opacity="0.75"/>
    <rect x="1402" y="608" width="6" height="28" fill="hsl(33 26% 24%)" opacity="0.72"/>
    <polygon points="814,510 793,663 835,663" fill="hsl(125 38% 27%)" opacity="0.85"/>
    <rect x="811" y="635" width="5" height="35" fill="hsl(33 26% 24%)" opacity="0.72"/>
    <polygon points="491,526 473,638 509,638" fill="hsl(115 36% 36%)" opacity="0.76"/>
    <rect x="489" y="618" width="4" height="26" fill="hsl(33 26% 24%)" opacity="0.72"/>
    <polygon points="55,531 33,662 77,662" fill="hsl(115 36% 36%)" opacity="0.81"/>
    <rect x="52" y="638" width="5" height="30" fill="hsl(33 26% 24%)" opacity="0.72"/>
    <polygon points="757,452 733,615 781,615" fill="hsl(115 36% 36%)" opacity="0.90"/>
    <rect x="754" y="586" width="6" height="37" fill="hsl(33 26% 24%)" opacity="0.72"/>
    <polygon points="1566,472 1534,604 1598,604" fill="hsl(125 38% 27%)" opacity="0.78"/>
    <rect x="1562" y="580" width="8" height="30" fill="hsl(33 26% 24%)" opacity="0.72"/>
    <polygon points="872,476 849,608 895,608" fill="hsl(115 36% 36%)" opacity="0.69"/>
    <rect x="869" y="584" width="6" height="30" fill="hsl(33 26% 24%)" opacity="0.72"/>
    <polygon points="49,508 30,636 68,636" fill="hsl(115 36% 36%)" opacity="0.68"/>
    <rect x="47" y="613" width="5" height="29" fill="hsl(33 26% 24%)" opacity="0.72"/>
    <polygon points="1531,561 1497,654 1565,654" fill="hsl(115 36% 36%)" opacity="0.79"/>
    <rect x="1527" y="637" width="8" height="21" fill="hsl(33 26% 24%)" opacity="0.72"/>
    <polygon points="242,548 222,644 262,644" fill="hsl(125 38% 27%)" opacity="0.87"/>
    <rect x="240" y="627" width="5" height="22" fill="hsl(33 26% 24%)" opacity="0.72"/>
    <polygon points="1177,509 1154,610 1200,610" fill="hsl(115 36% 36%)" opacity="0.84"/>
    <rect x="1174" y="592" width="6" height="23" fill="hsl(33 26% 24%)" opacity="0.72"/>
    <polygon points="435,528 405,627 465,627" fill="hsl(115 36% 36%)" opacity="0.75"/>
    <rect x="431" y="609" width="7" height="23" fill="hsl(33 26% 24%)" opacity="0.72"/>
    <polygon points="389,484 357,614 421,614" fill="hsl(125 38% 27%)" opacity="0.71"/>
    <rect x="385" y="591" width="8" height="30" fill="hsl(33 26% 24%)" opacity="0.72"/>
    <polygon points="529,507 497,649 561,649" fill="hsl(125 38% 27%)" opacity="0.71"/>
    <rect x="525" y="623" width="8" height="33" fill="hsl(33 26% 24%)" opacity="0.72"/>
  </g>

  <rect y="646" width="1600" height="254" fill="url(#fog)"/>

  <g>
    <polygon points="355,516 319,740 391,740" fill="hsl(115 36% 36%)" opacity="0.79"/>
    <rect x="351" y="700" width="9" height="52" fill="hsl(33 26% 24%)" opacity="0.72"/>
    <polygon points="1383,548 1343,760 1423,760" fill="hsl(115 36% 36%)" opacity="0.69"/>
    <rect x="1378" y="722" width="10" height="49" fill="hsl(33 26% 24%)" opacity="0.72"/>
    <polygon points="497,577 468,753 526,753" fill="hsl(125 38% 27%)" opacity="0.83"/>
    <rect x="494" y="721" width="7" height="40" fill="hsl(33 26% 24%)" opacity="0.72"/>
    <polygon points="208,598 170,733 246,733" fill="hsl(125 38% 27%)" opacity="0.69"/>
    <rect x="203" y="709" width="9" height="31" fill="hsl(33 26% 24%)" opacity="0.72"/>
    <polygon points="484,513 453,753 515,753" fill="hsl(125 38% 27%)" opacity="0.83"/>
    <rect x="480" y="710" width="7" height="55" fill="hsl(33 26% 24%)" opacity="0.72"/>
    <polygon points="429,577 381,751 477,751" fill="hsl(125 38% 27%)" opacity="0.70"/>
    <rect x="423" y="720" width="12" height="40" fill="hsl(33 26% 24%)" opacity="0.72"/>
    <polygon points="865,649 827,784 903,784" fill="hsl(125 38% 27%)" opacity="0.75"/>
    <rect x="860" y="760" width="9" height="31" fill="hsl(33 26% 24%)" opacity="0.72"/>
    <polygon points="693,529 642,775 744,775" fill="hsl(115 36% 36%)" opacity="0.71"/>
    <rect x="687" y="731" width="12" height="57" fill="hsl(33 26% 24%)" opacity="0.72"/>
    <polygon points="1058,577 1023,817 1093,817" fill="hsl(115 36% 36%)" opacity="0.89"/>
    <rect x="1054" y="774" width="8" height="55" fill="hsl(33 26% 24%)" opacity="0.72"/>
    <polygon points="897,601 856,777 938,777" fill="hsl(115 36% 36%)" opacity="0.89"/>
    <rect x="892" y="745" width="10" height="40" fill="hsl(33 26% 24%)" opacity="0.72"/>
    <polygon points="783,567 755,745 811,745" fill="hsl(115 36% 36%)" opacity="0.79"/>
    <rect x="780" y="713" width="7" height="41" fill="hsl(33 26% 24%)" opacity="0.72"/>
    <polygon points="635,621 595,782 675,782" fill="hsl(115 36% 36%)" opacity="0.81"/>
    <rect x="630" y="753" width="10" height="37" fill="hsl(33 26% 24%)" opacity="0.72"/>
    <polygon points="1339,520 1290,767 1388,767" fill="hsl(125 38% 27%)" opacity="0.78"/>
    <rect x="1333" y="723" width="12" height="57" fill="hsl(33 26% 24%)" opacity="0.72"/>
    <polygon points="742,527 699,773 785,773" fill="hsl(125 38% 27%)" opacity="0.86"/>
    <rect x="737" y="729" width="10" height="57" fill="hsl(33 26% 24%)" opacity="0.72"/>
    <polygon points="976,509 929,750 1023,750" fill="hsl(115 36% 36%)" opacity="0.81"/>
    <rect x="970" y="707" width="11" height="55" fill="hsl(33 26% 24%)" opacity="0.72"/>
    <polygon points="224,582 183,737 265,737" fill="hsl(115 36% 36%)" opacity="0.68"/>
    <rect x="219" y="709" width="10" height="36" fill="hsl(33 26% 24%)" opacity="0.72"/>
  </g>

  <rect x="64" y="676" width="1472" height="184" rx="22" fill="#081517" opacity="0.54"/>
  <text x="118" y="726" fill="#d9e8c8" font-family="Poppins, Arial, sans-serif" font-size="28" font-weight="700">Devlet</text>
  <text x="118" y="792" fill="#ffffff" font-family="Poppins, Arial, sans-serif" font-size="63.2" font-weight="800">KGM 1. BOLGE MUDURLUGU</text>
  

  <rect width="1600" height="900" fill="url(#vignette)"/>
</svg>
