<?xml version="1.0" encoding="UTF-8"?>
<svg xmlns="http://www.w3.org/2000/svg" viewBox="0 0 1600 900" role="img" aria-label="Madkim">
  <defs>
    <linearGradient id="bg" x1="0" y1="0" x2="0" y2="1">
      <stop offset="0%" stop-color="hsl(242 47% 21%)"/>
      <stop offset="100%" stop-color="hsl(160 33% 41%)"/>
    </linearGradient>
    <linearGradient id="fog" x1="0" y1="0" x2="1" y2="0">
      <stop offset="0%" stop-color="hsl(122 20% 84%)" stop-opacity="0.22"/>
      <stop offset="50%" stop-color="#ffffff" stop-opacity="0.08"/>
      <stop offset="100%" stop-color="hsl(122 20% 84%)" stop-opacity="0.22"/>
    </linearGradient>
    <radialGradient id="vignette" cx="50%" cy="45%" r="70%">
      <stop offset="65%" stop-color="rgba(0,0,0,0)"/>
      <stop offset="100%" stop-color="rgba(0,0,0,0.35)"/>
    </radialGradient>
  </defs>

  <rect width="1600" height="900" fill="url(#bg)"/>
  <circle cx="1357" cy="145" r="67" fill="#f4efd4" opacity="0.34"/>

  <path d="M0 412 Q115 341 229 285 Q343 355 457 285 Q572 342 686 273 Q800 371 914 311 Q1029 379 1143 336 Q1257 355 1371 309 Q1486 360 1600 294 L1600 900 L0 900 Z" fill="hsl(177 28% 27%)" opacity="0.48"/>
  <path d="M0 504 Q115 429 229 357 Q343 413 457 343 Q572 438 686 386 Q800 466 914 432 Q1029 454 1143 398 Q1257 462 1371 420 Q1486 470 1600 446 L1600 900 L0 900 Z" fill="hsl(164 26% 31%)" opacity="0.62"/>
  <path d="M0 624 Q115 592 229 553 Q343 538 457 434 Q572 528 686 444 Q800 574 914 511 Q1029 576 1143 514 Q1257 558 1371 471 Q1486 569 1600 496 L1600 900 L0 900 Z" fill="hsl(152 24% 43%)" opacity="0.78"/>

  <g>
    <polygon points="1034,522 1007,626 1061,626" fill="hsl(152 38% 28%)" opacity="0.85"/>
    <rect x="1031" y="607" width="6" height="24" fill="hsl(60 26% 24%)" opacity="0.72"/>
    <polygon points="1538,506 1518,630 1558,630" fill="hsl(142 36% 35%)" opacity="0.87"/>
    <rect x="1536" y="608" width="5" height="29" fill="hsl(60 26% 24%)" opacity="0.72"/>
    <polygon points="653,504 628,636 678,636" fill="hsl(152 38% 28%)" opacity="0.78"/>
    <rect x="650" y="612" width="6" height="30" fill="hsl(60 26% 24%)" opacity="0.72"/>
    <polygon points="45,469 15,622 75,622" fill="hsl(152 38% 28%)" opacity="0.78"/>
    <rect x="41" y="594" width="7" height="35" fill="hsl(60 26% 24%)" opacity="0.72"/>
    <polygon points="888,504 863,630 913,630" fill="hsl(142 36% 35%)" opacity="0.69"/>
    <rect x="885" y="607" width="6" height="29" fill="hsl(60 26% 24%)" opacity="0.72"/>
    <polygon points="1196,495 1169,601 1223,601" fill="hsl(152 38% 28%)" opacity="0.82"/>
    <rect x="1193" y="582" width="6" height="24" fill="hsl(60 26% 24%)" opacity="0.72"/>
    <polygon points="638,531 605,623 671,623" fill="hsl(142 36% 35%)" opacity="0.75"/>
    <rect x="634" y="606" width="8" height="21" fill="hsl(60 26% 24%)" opacity="0.72"/>
    <polygon points="561,557 530,651 592,651" fill="hsl(152 38% 28%)" opacity="0.77"/>
    <rect x="557" y="634" width="7" height="22" fill="hsl(60 26% 24%)" opacity="0.72"/>
    <polygon points="635,504 615,647 655,647" fill="hsl(152 38% 28%)" opacity="0.83"/>
    <rect x="633" y="621" width="5" height="33" fill="hsl(60 26% 24%)" opacity="0.72"/>
    <polygon points="1264,491 1237,646 1291,646" fill="hsl(142 36% 35%)" opacity="0.89"/>
    <rect x="1261" y="618" width="6" height="36" fill="hsl(60 26% 24%)" opacity="0.72"/>
    <polygon points="1353,530 1331,662 1375,662" fill="hsl(142 36% 35%)" opacity="0.91"/>
    <rect x="1350" y="638" width="5" height="30" fill="hsl(60 26% 24%)" opacity="0.72"/>
    <polygon points="1521,488 1501,639 1541,639" fill="hsl(152 38% 28%)" opacity="0.91"/>
    <rect x="1519" y="612" width="5" height="35" fill="hsl(60 26% 24%)" opacity="0.72"/>
    <polygon points="948,498 916,605 980,605" fill="hsl(152 38% 28%)" opacity="0.70"/>
    <rect x="944" y="586" width="8" height="25" fill="hsl(60 26% 24%)" opacity="0.72"/>
    <polygon points="734,553 704,657 764,657" fill="hsl(142 36% 35%)" opacity="0.74"/>
    <rect x="730" y="638" width="7" height="24" fill="hsl(60 26% 24%)" opacity="0.72"/>
    <polygon points="1573,519 1542,615 1604,615" fill="hsl(152 38% 28%)" opacity="0.69"/>
    <rect x="1569" y="598" width="7" height="22" fill="hsl(60 26% 24%)" opacity="0.72"/>
    <polygon points="1467,501 1444,651 1490,651" fill="hsl(152 38% 28%)" opacity="0.70"/>
    <rect x="1464" y="624" width="6" height="35" fill="hsl(60 26% 24%)" opacity="0.72"/>
    <polygon points="776,525 748,628 804,628" fill="hsl(142 36% 35%)" opacity="0.71"/>
    <rect x="773" y="609" width="7" height="24" fill="hsl(60 26% 24%)" opacity="0.72"/>
    <polygon points="53,493 24,653 82,653" fill="hsl(152 38% 28%)" opacity="0.85"/>
    <rect x="50" y="624" width="7" height="37" fill="hsl(60 26% 24%)" opacity="0.72"/>
  </g>

  <rect y="646" width="1600" height="254" fill="url(#fog)"/>

  <g>
    <polygon points="610,609 565,796 655,796" fill="hsl(142 36% 35%)" opacity="0.90"/>
    <rect x="605" y="762" width="11" height="43" fill="hsl(60 26% 24%)" opacity="0.72"/>
    <polygon points="326,539 275,739 377,739" fill="hsl(142 36% 35%)" opacity="0.75"/>
    <rect x="320" y="703" width="12" height="46" fill="hsl(60 26% 24%)" opacity="0.72"/>
    <polygon points="667,537 632,757 702,757" fill="hsl(152 38% 28%)" opacity="0.77"/>
    <rect x="663" y="717" width="8" height="51" fill="hsl(60 26% 24%)" opacity="0.72"/>
    <polygon points="793,598 739,819 847,819" fill="hsl(142 36% 35%)" opacity="0.70"/>
    <rect x="787" y="779" width="13" height="51" fill="hsl(60 26% 24%)" opacity="0.72"/>
    <polygon points="1276,618 1223,809 1329,809" fill="hsl(152 38% 28%)" opacity="0.84"/>
    <rect x="1270" y="775" width="13" height="44" fill="hsl(60 26% 24%)" opacity="0.72"/>
    <polygon points="1104,629 1059,765 1149,765" fill="hsl(142 36% 35%)" opacity="0.72"/>
    <rect x="1099" y="741" width="11" height="31" fill="hsl(60 26% 24%)" opacity="0.72"/>
    <polygon points="107,513 55,748 159,748" fill="hsl(142 36% 35%)" opacity="0.78"/>
    <rect x="101" y="706" width="12" height="54" fill="hsl(60 26% 24%)" opacity="0.72"/>
    <polygon points="672,562 643,787 701,787" fill="hsl(142 36% 35%)" opacity="0.74"/>
    <rect x="669" y="746" width="7" height="52" fill="hsl(60 26% 24%)" opacity="0.72"/>
    <polygon points="1337,558 1290,784 1384,784" fill="hsl(152 38% 28%)" opacity="0.89"/>
    <rect x="1331" y="743" width="11" height="52" fill="hsl(60 26% 24%)" opacity="0.72"/>
    <polygon points="1508,559 1476,745 1540,745" fill="hsl(142 36% 35%)" opacity="0.83"/>
    <rect x="1504" y="712" width="8" height="43" fill="hsl(60 26% 24%)" opacity="0.72"/>
    <polygon points="1333,584 1283,735 1383,735" fill="hsl(152 38% 28%)" opacity="0.87"/>
    <rect x="1327" y="708" width="12" height="35" fill="hsl(60 26% 24%)" opacity="0.72"/>
    <polygon points="1236,671 1195,815 1277,815" fill="hsl(142 36% 35%)" opacity="0.87"/>
    <rect x="1231" y="789" width="10" height="33" fill="hsl(60 26% 24%)" opacity="0.72"/>
    <polygon points="706,586 661,749 751,749" fill="hsl(142 36% 35%)" opacity="0.90"/>
    <rect x="701" y="720" width="11" height="37" fill="hsl(60 26% 24%)" opacity="0.72"/>
    <polygon points="742,562 694,777 790,777" fill="hsl(152 38% 28%)" opacity="0.76"/>
    <rect x="736" y="738" width="12" height="49" fill="hsl(60 26% 24%)" opacity="0.72"/>
    <polygon points="64,625 11,809 117,809" fill="hsl(152 38% 28%)" opacity="0.73"/>
    <rect x="58" y="776" width="13" height="42" fill="hsl(60 26% 24%)" opacity="0.72"/>
    <polygon points="197,600 156,799 238,799" fill="hsl(142 36% 35%)" opacity="0.72"/>
    <rect x="192" y="763" width="10" height="46" fill="hsl(60 26% 24%)" opacity="0.72"/>
  </g>

  <rect x="64" y="676" width="1472" height="184" rx="22" fill="#081517" opacity="0.54"/>
  <text x="118" y="726" fill="#d9e8c8" font-family="Poppins, Arial, sans-serif" font-size="28" font-weight="700">Maden Izinleri</text>
  <text x="118" y="792" fill="#ffffff" font-family="Poppins, Arial, sans-serif" font-size="66.0" font-weight="800">Madkim</text>
  

  <rect width="1600" height="900" fill="url(#vignette)"/>
</svg>
