<?xml version="1.0" encoding="UTF-8"?>
<svg xmlns="http://www.w3.org/2000/svg" viewBox="0 0 1600 900" role="img" aria-label="Mako">
  <defs>
    <linearGradient id="bg" x1="0" y1="0" x2="0" y2="1">
      <stop offset="0%" stop-color="hsl(30 33% 23%)"/>
      <stop offset="100%" stop-color="hsl(308 32% 40%)"/>
    </linearGradient>
    <linearGradient id="fog" x1="0" y1="0" x2="1" y2="0">
      <stop offset="0%" stop-color="hsl(270 20% 84%)" stop-opacity="0.22"/>
      <stop offset="50%" stop-color="#ffffff" stop-opacity="0.08"/>
      <stop offset="100%" stop-color="hsl(270 20% 84%)" stop-opacity="0.22"/>
    </linearGradient>
    <radialGradient id="vignette" cx="50%" cy="45%" r="70%">
      <stop offset="65%" stop-color="rgba(0,0,0,0)"/>
      <stop offset="100%" stop-color="rgba(0,0,0,0.35)"/>
    </radialGradient>
  </defs>

  <rect width="1600" height="900" fill="url(#bg)"/>
  <circle cx="1097" cy="160" r="63" fill="#f4efd4" opacity="0.34"/>

  <path d="M0 441 Q115 373 229 323 Q343 374 457 296 Q572 374 686 308 Q800 379 914 330 Q1029 406 1143 391 Q1257 396 1371 329 Q1486 387 1600 342 L1600 900 L0 900 Z" fill="hsl(325 28% 24%)" opacity="0.48"/>
  <path d="M0 539 Q115 506 229 479 Q343 461 457 394 Q572 468 686 379 Q800 478 914 407 Q1029 476 1143 406 Q1257 468 1371 407 Q1486 473 1600 408 L1600 900 L0 900 Z" fill="hsl(312 26% 36%)" opacity="0.62"/>
  <path d="M0 629 Q115 559 229 509 Q343 592 457 554 Q572 590 686 556 Q800 576 914 531 Q1029 587 1143 565 Q1257 593 1371 560 Q1486 586 1600 537 L1600 900 L0 900 Z" fill="hsl(300 24% 43%)" opacity="0.78"/>

  <g>
    <polygon points="725,531 696,643 754,643" fill="hsl(300 38% 27%)" opacity="0.74"/>
    <rect x="722" y="623" width="7" height="26" fill="hsl(208 26% 24%)" opacity="0.72"/>
    <polygon points="1214,506 1191,622 1237,622" fill="hsl(300 38% 27%)" opacity="0.71"/>
    <rect x="1211" y="601" width="6" height="27" fill="hsl(208 26% 24%)" opacity="0.72"/>
    <polygon points="1344,531 1326,663 1362,663" fill="hsl(290 36% 34%)" opacity="0.82"/>
    <rect x="1342" y="639" width="4" height="30" fill="hsl(208 26% 24%)" opacity="0.72"/>
    <polygon points="1235,528 1217,644 1253,644" fill="hsl(290 36% 34%)" opacity="0.74"/>
    <rect x="1233" y="623" width="4" height="27" fill="hsl(208 26% 24%)" opacity="0.72"/>
    <polygon points="351,462 323,607 379,607" fill="hsl(290 36% 34%)" opacity="0.76"/>
    <rect x="348" y="581" width="7" height="33" fill="hsl(208 26% 24%)" opacity="0.72"/>
    <polygon points="1203,519 1173,618 1233,618" fill="hsl(290 36% 34%)" opacity="0.75"/>
    <rect x="1199" y="600" width="7" height="23" fill="hsl(208 26% 24%)" opacity="0.72"/>
    <polygon points="276,511 245,636 307,636" fill="hsl(290 36% 34%)" opacity="0.71"/>
    <rect x="272" y="613" width="7" height="29" fill="hsl(208 26% 24%)" opacity="0.72"/>
    <polygon points="832,542 808,643 856,643" fill="hsl(290 36% 34%)" opacity="0.76"/>
    <rect x="829" y="625" width="6" height="23" fill="hsl(208 26% 24%)" opacity="0.72"/>
    <polygon points="1532,522 1501,615 1563,615" fill="hsl(290 36% 34%)" opacity="0.87"/>
    <rect x="1528" y="598" width="7" height="21" fill="hsl(208 26% 24%)" opacity="0.72"/>
    <polygon points="369,457 350,610 388,610" fill="hsl(290 36% 34%)" opacity="0.76"/>
    <rect x="367" y="582" width="5" height="35" fill="hsl(208 26% 24%)" opacity="0.72"/>
    <polygon points="898,528 872,657 924,657" fill="hsl(300 38% 27%)" opacity="0.88"/>
    <rect x="895" y="634" width="6" height="30" fill="hsl(208 26% 24%)" opacity="0.72"/>
    <polygon points="156,515 131,644 181,644" fill="hsl(290 36% 34%)" opacity="0.88"/>
    <rect x="153" y="621" width="6" height="30" fill="hsl(208 26% 24%)" opacity="0.72"/>
    <polygon points="606,500 582,639 630,639" fill="hsl(300 38% 27%)" opacity="0.83"/>
    <rect x="603" y="614" width="6" height="32" fill="hsl(208 26% 24%)" opacity="0.72"/>
    <polygon points="75,495 47,637 103,637" fill="hsl(290 36% 34%)" opacity="0.81"/>
    <rect x="72" y="611" width="7" height="33" fill="hsl(208 26% 24%)" opacity="0.72"/>
    <polygon points="1103,494 1082,613 1124,613" fill="hsl(290 36% 34%)" opacity="0.78"/>
    <rect x="1100" y="592" width="5" height="27" fill="hsl(208 26% 24%)" opacity="0.72"/>
    <polygon points="59,552 38,645 80,645" fill="hsl(300 38% 27%)" opacity="0.72"/>
    <rect x="56" y="628" width="5" height="21" fill="hsl(208 26% 24%)" opacity="0.72"/>
    <polygon points="952,531 924,643 980,643" fill="hsl(300 38% 27%)" opacity="0.73"/>
    <rect x="949" y="623" width="7" height="26" fill="hsl(208 26% 24%)" opacity="0.72"/>
    <polygon points="1526,513 1502,652 1550,652" fill="hsl(300 38% 27%)" opacity="0.69"/>
    <rect x="1523" y="627" width="6" height="32" fill="hsl(208 26% 24%)" opacity="0.72"/>
  </g>

  <rect y="646" width="1600" height="254" fill="url(#fog)"/>

  <g>
    <polygon points="297,512 267,761 327,761" fill="hsl(300 38% 27%)" opacity="0.80"/>
    <rect x="293" y="716" width="7" height="57" fill="hsl(208 26% 24%)" opacity="0.72"/>
    <polygon points="1308,613 1266,778 1350,778" fill="hsl(290 36% 34%)" opacity="0.91"/>
    <rect x="1303" y="748" width="10" height="38" fill="hsl(208 26% 24%)" opacity="0.72"/>
    <polygon points="1415,493 1369,737 1461,737" fill="hsl(300 38% 27%)" opacity="0.70"/>
    <rect x="1409" y="693" width="11" height="56" fill="hsl(208 26% 24%)" opacity="0.72"/>
    <polygon points="1240,536 1192,766 1288,766" fill="hsl(300 38% 27%)" opacity="0.82"/>
    <rect x="1234" y="725" width="12" height="53" fill="hsl(208 26% 24%)" opacity="0.72"/>
    <polygon points="638,635 591,795 685,795" fill="hsl(290 36% 34%)" opacity="0.84"/>
    <rect x="632" y="766" width="11" height="37" fill="hsl(208 26% 24%)" opacity="0.72"/>
    <polygon points="735,541 699,785 771,785" fill="hsl(300 38% 27%)" opacity="0.80"/>
    <rect x="731" y="741" width="9" height="56" fill="hsl(208 26% 24%)" opacity="0.72"/>
    <polygon points="257,617 228,778 286,778" fill="hsl(300 38% 27%)" opacity="0.87"/>
    <rect x="254" y="749" width="7" height="37" fill="hsl(208 26% 24%)" opacity="0.72"/>
    <polygon points="534,586 492,746 576,746" fill="hsl(290 36% 34%)" opacity="0.76"/>
    <rect x="529" y="717" width="10" height="37" fill="hsl(208 26% 24%)" opacity="0.72"/>
    <polygon points="210,502 175,730 245,730" fill="hsl(290 36% 34%)" opacity="0.72"/>
    <rect x="206" y="689" width="8" height="52" fill="hsl(208 26% 24%)" opacity="0.72"/>
    <polygon points="1428,535 1383,733 1473,733" fill="hsl(300 38% 27%)" opacity="0.84"/>
    <rect x="1423" y="697" width="11" height="46" fill="hsl(208 26% 24%)" opacity="0.72"/>
    <polygon points="694,652 655,788 733,788" fill="hsl(290 36% 34%)" opacity="0.86"/>
    <rect x="689" y="764" width="9" height="31" fill="hsl(208 26% 24%)" opacity="0.72"/>
    <polygon points="620,630 588,796 652,796" fill="hsl(300 38% 27%)" opacity="0.88"/>
    <rect x="616" y="766" width="8" height="38" fill="hsl(208 26% 24%)" opacity="0.72"/>
    <polygon points="711,583 667,810 755,810" fill="hsl(300 38% 27%)" opacity="0.78"/>
    <rect x="706" y="769" width="11" height="52" fill="hsl(208 26% 24%)" opacity="0.72"/>
    <polygon points="1293,558 1263,762 1323,762" fill="hsl(290 36% 34%)" opacity="0.81"/>
    <rect x="1289" y="725" width="7" height="47" fill="hsl(208 26% 24%)" opacity="0.72"/>
    <polygon points="36,607 -13,741 85,741" fill="hsl(290 36% 34%)" opacity="0.73"/>
    <rect x="30" y="717" width="12" height="31" fill="hsl(208 26% 24%)" opacity="0.72"/>
    <polygon points="325,552 289,745 361,745" fill="hsl(290 36% 34%)" opacity="0.86"/>
    <rect x="321" y="710" width="9" height="44" fill="hsl(208 26% 24%)" opacity="0.72"/>
  </g>

  <rect x="64" y="676" width="1472" height="184" rx="22" fill="#081517" opacity="0.54"/>
  <text x="118" y="726" fill="#d9e8c8" font-family="Poppins, Arial, sans-serif" font-size="28" font-weight="700">Maden Izinleri</text>
  <text x="118" y="792" fill="#ffffff" font-family="Poppins, Arial, sans-serif" font-size="66.0" font-weight="800">Mako</text>
  

  <rect width="1600" height="900" fill="url(#vignette)"/>
</svg>
