<?xml version="1.0" encoding="UTF-8"?>
<svg xmlns="http://www.w3.org/2000/svg" viewBox="0 0 1600 900" role="img" aria-label="Matas">
  <defs>
    <linearGradient id="bg" x1="0" y1="0" x2="0" y2="1">
      <stop offset="0%" stop-color="hsl(232 38% 20%)"/>
      <stop offset="100%" stop-color="hsl(150 35% 46%)"/>
    </linearGradient>
    <linearGradient id="fog" x1="0" y1="0" x2="1" y2="0">
      <stop offset="0%" stop-color="hsl(112 20% 84%)" stop-opacity="0.22"/>
      <stop offset="50%" stop-color="#ffffff" stop-opacity="0.08"/>
      <stop offset="100%" stop-color="hsl(112 20% 84%)" stop-opacity="0.22"/>
    </linearGradient>
    <radialGradient id="vignette" cx="50%" cy="45%" r="70%">
      <stop offset="65%" stop-color="rgba(0,0,0,0)"/>
      <stop offset="100%" stop-color="rgba(0,0,0,0.35)"/>
    </radialGradient>
  </defs>

  <rect width="1600" height="900" fill="url(#bg)"/>
  <circle cx="1365" cy="225" r="90" fill="#f4efd4" opacity="0.34"/>

  <path d="M0 421 Q115 387 229 373 Q343 390 457 368 Q572 390 686 358 Q800 369 914 321 Q1029 357 1143 310 Q1257 379 1371 350 Q1486 404 1600 364 L1600 900 L0 900 Z" fill="hsl(167 28% 24%)" opacity="0.48"/>
  <path d="M0 501 Q115 430 229 341 Q343 451 457 412 Q572 447 686 405 Q800 434 914 384 Q1029 427 1143 373 Q1257 456 1371 403 Q1486 428 1600 365 L1600 900 L0 900 Z" fill="hsl(154 26% 31%)" opacity="0.62"/>
  <path d="M0 637 Q115 589 229 554 Q343 574 457 497 Q572 549 686 442 Q800 543 914 469 Q1029 556 1143 476 Q1257 590 1371 563 Q1486 535 1600 438 L1600 900 L0 900 Z" fill="hsl(142 24% 43%)" opacity="0.78"/>

  <g>
    <polygon points="1079,497 1049,612 1109,612" fill="hsl(142 38% 26%)" opacity="0.87"/>
    <rect x="1075" y="591" width="7" height="26" fill="hsl(50 26% 24%)" opacity="0.72"/>
    <polygon points="493,512 468,611 518,611" fill="hsl(142 38% 26%)" opacity="0.71"/>
    <rect x="490" y="593" width="6" height="23" fill="hsl(50 26% 24%)" opacity="0.72"/>
    <polygon points="791,509 768,648 814,648" fill="hsl(132 36% 33%)" opacity="0.69"/>
    <rect x="788" y="623" width="6" height="32" fill="hsl(50 26% 24%)" opacity="0.72"/>
    <polygon points="938,491 906,617 970,617" fill="hsl(142 38% 26%)" opacity="0.85"/>
    <rect x="934" y="594" width="8" height="29" fill="hsl(50 26% 24%)" opacity="0.72"/>
    <polygon points="940,459 918,625 962,625" fill="hsl(132 36% 33%)" opacity="0.86"/>
    <rect x="937" y="595" width="5" height="38" fill="hsl(50 26% 24%)" opacity="0.72"/>
    <polygon points="1124,569 1100,662 1148,662" fill="hsl(142 38% 26%)" opacity="0.75"/>
    <rect x="1121" y="645" width="6" height="21" fill="hsl(50 26% 24%)" opacity="0.72"/>
    <polygon points="745,448 716,605 774,605" fill="hsl(142 38% 26%)" opacity="0.73"/>
    <rect x="742" y="577" width="7" height="36" fill="hsl(50 26% 24%)" opacity="0.72"/>
    <polygon points="1555,498 1525,663 1585,663" fill="hsl(132 36% 33%)" opacity="0.77"/>
    <rect x="1551" y="633" width="7" height="38" fill="hsl(50 26% 24%)" opacity="0.72"/>
    <polygon points="824,503 792,645 856,645" fill="hsl(142 38% 26%)" opacity="0.82"/>
    <rect x="820" y="619" width="8" height="33" fill="hsl(50 26% 24%)" opacity="0.72"/>
    <polygon points="1026,483 1007,615 1045,615" fill="hsl(142 38% 26%)" opacity="0.77"/>
    <rect x="1024" y="591" width="5" height="30" fill="hsl(50 26% 24%)" opacity="0.72"/>
    <polygon points="1124,480 1102,630 1146,630" fill="hsl(142 38% 26%)" opacity="0.83"/>
    <rect x="1121" y="603" width="5" height="35" fill="hsl(50 26% 24%)" opacity="0.72"/>
    <polygon points="791,502 762,647 820,647" fill="hsl(142 38% 26%)" opacity="0.80"/>
    <rect x="788" y="621" width="7" height="33" fill="hsl(50 26% 24%)" opacity="0.72"/>
    <polygon points="1531,474 1508,609 1554,609" fill="hsl(132 36% 33%)" opacity="0.69"/>
    <rect x="1528" y="585" width="6" height="31" fill="hsl(50 26% 24%)" opacity="0.72"/>
    <polygon points="1168,463 1142,625 1194,625" fill="hsl(142 38% 26%)" opacity="0.75"/>
    <rect x="1165" y="596" width="6" height="37" fill="hsl(50 26% 24%)" opacity="0.72"/>
    <polygon points="738,557 714,653 762,653" fill="hsl(142 38% 26%)" opacity="0.90"/>
    <rect x="735" y="636" width="6" height="22" fill="hsl(50 26% 24%)" opacity="0.72"/>
    <polygon points="1324,487 1291,630 1357,630" fill="hsl(142 38% 26%)" opacity="0.84"/>
    <rect x="1320" y="604" width="8" height="33" fill="hsl(50 26% 24%)" opacity="0.72"/>
    <polygon points="1509,538 1489,655 1529,655" fill="hsl(132 36% 33%)" opacity="0.90"/>
    <rect x="1507" y="634" width="5" height="27" fill="hsl(50 26% 24%)" opacity="0.72"/>
    <polygon points="275,525 242,658 308,658" fill="hsl(142 38% 26%)" opacity="0.70"/>
    <rect x="271" y="634" width="8" height="31" fill="hsl(50 26% 24%)" opacity="0.72"/>
  </g>

  <rect y="646" width="1600" height="254" fill="url(#fog)"/>

  <g>
    <polygon points="881,538 842,733 920,733" fill="hsl(142 38% 26%)" opacity="0.70"/>
    <rect x="876" y="698" width="9" height="45" fill="hsl(50 26% 24%)" opacity="0.72"/>
    <polygon points="1554,584 1521,791 1587,791" fill="hsl(142 38% 26%)" opacity="0.79"/>
    <rect x="1550" y="754" width="8" height="48" fill="hsl(50 26% 24%)" opacity="0.72"/>
    <polygon points="128,607 88,780 168,780" fill="hsl(132 36% 33%)" opacity="0.81"/>
    <rect x="123" y="749" width="10" height="40" fill="hsl(50 26% 24%)" opacity="0.72"/>
    <polygon points="804,625 763,770 845,770" fill="hsl(142 38% 26%)" opacity="0.90"/>
    <rect x="799" y="744" width="10" height="33" fill="hsl(50 26% 24%)" opacity="0.72"/>
    <polygon points="711,553 673,752 749,752" fill="hsl(132 36% 33%)" opacity="0.84"/>
    <rect x="706" y="716" width="9" height="46" fill="hsl(50 26% 24%)" opacity="0.72"/>
    <polygon points="1241,649 1189,803 1293,803" fill="hsl(142 38% 26%)" opacity="0.73"/>
    <rect x="1235" y="775" width="12" height="35" fill="hsl(50 26% 24%)" opacity="0.72"/>
    <polygon points="418,602 377,743 459,743" fill="hsl(142 38% 26%)" opacity="0.69"/>
    <rect x="413" y="718" width="10" height="32" fill="hsl(50 26% 24%)" opacity="0.72"/>
    <polygon points="1360,609 1331,811 1389,811" fill="hsl(142 38% 26%)" opacity="0.77"/>
    <rect x="1357" y="775" width="7" height="46" fill="hsl(50 26% 24%)" opacity="0.72"/>
    <polygon points="194,567 154,763 234,763" fill="hsl(132 36% 33%)" opacity="0.84"/>
    <rect x="189" y="728" width="10" height="45" fill="hsl(50 26% 24%)" opacity="0.72"/>
    <polygon points="1294,614 1247,810 1341,810" fill="hsl(142 38% 26%)" opacity="0.77"/>
    <rect x="1288" y="775" width="11" height="45" fill="hsl(50 26% 24%)" opacity="0.72"/>
    <polygon points="1571,509 1519,746 1623,746" fill="hsl(142 38% 26%)" opacity="0.79"/>
    <rect x="1565" y="703" width="12" height="55" fill="hsl(50 26% 24%)" opacity="0.72"/>
    <polygon points="841,610 804,775 878,775" fill="hsl(132 36% 33%)" opacity="0.81"/>
    <rect x="837" y="745" width="9" height="38" fill="hsl(50 26% 24%)" opacity="0.72"/>
    <polygon points="1579,609 1525,814 1633,814" fill="hsl(142 38% 26%)" opacity="0.76"/>
    <rect x="1573" y="777" width="13" height="47" fill="hsl(50 26% 24%)" opacity="0.72"/>
    <polygon points="657,563 607,786 707,786" fill="hsl(142 38% 26%)" opacity="0.72"/>
    <rect x="651" y="746" width="12" height="51" fill="hsl(50 26% 24%)" opacity="0.72"/>
    <polygon points="1526,537 1495,741 1557,741" fill="hsl(142 38% 26%)" opacity="0.72"/>
    <rect x="1522" y="704" width="7" height="47" fill="hsl(50 26% 24%)" opacity="0.72"/>
    <polygon points="887,685 836,818 938,818" fill="hsl(142 38% 26%)" opacity="0.72"/>
    <rect x="881" y="794" width="12" height="31" fill="hsl(50 26% 24%)" opacity="0.72"/>
  </g>

  <rect x="64" y="676" width="1472" height="184" rx="22" fill="#081517" opacity="0.54"/>
  <text x="118" y="726" fill="#d9e8c8" font-family="Poppins, Arial, sans-serif" font-size="28" font-weight="700">Maden Izinleri</text>
  <text x="118" y="792" fill="#ffffff" font-family="Poppins, Arial, sans-serif" font-size="66.0" font-weight="800">Matas</text>
  

  <rect width="1600" height="900" fill="url(#vignette)"/>
</svg>
