<?xml version="1.0" encoding="UTF-8"?>
<svg xmlns="http://www.w3.org/2000/svg" viewBox="0 0 1600 900" role="img" aria-label="Mehmet Ali Meral Yuklenicisi">
  <defs>
    <linearGradient id="bg" x1="0" y1="0" x2="0" y2="1">
      <stop offset="0%" stop-color="hsl(210 37% 22%)"/>
      <stop offset="100%" stop-color="hsl(128 43% 38%)"/>
    </linearGradient>
    <linearGradient id="fog" x1="0" y1="0" x2="1" y2="0">
      <stop offset="0%" stop-color="hsl(90 20% 84%)" stop-opacity="0.22"/>
      <stop offset="50%" stop-color="#ffffff" stop-opacity="0.08"/>
      <stop offset="100%" stop-color="hsl(90 20% 84%)" stop-opacity="0.22"/>
    </linearGradient>
    <radialGradient id="vignette" cx="50%" cy="45%" r="70%">
      <stop offset="65%" stop-color="rgba(0,0,0,0)"/>
      <stop offset="100%" stop-color="rgba(0,0,0,0.35)"/>
    </radialGradient>
  </defs>

  <rect width="1600" height="900" fill="url(#bg)"/>
  <circle cx="1300" cy="257" r="71" fill="#f4efd4" opacity="0.34"/>

  <path d="M0 438 Q115 390 229 339 Q343 390 457 345 Q572 401 686 376 Q800 384 914 350 Q1029 398 1143 339 Q1257 406 1371 373 Q1486 375 1600 298 L1600 900 L0 900 Z" fill="hsl(145 28% 27%)" opacity="0.48"/>
  <path d="M0 531 Q115 494 229 473 Q343 513 457 472 Q572 489 686 433 Q800 464 914 418 Q1029 477 1143 436 Q1257 462 1371 401 Q1486 501 1600 452 L1600 900 L0 900 Z" fill="hsl(132 26% 35%)" opacity="0.62"/>
  <path d="M0 618 Q115 585 229 553 Q343 565 457 525 Q572 592 686 556 Q800 539 914 472 Q1029 576 1143 525 Q1257 569 1371 518 Q1486 583 1600 541 L1600 900 L0 900 Z" fill="hsl(120 24% 38%)" opacity="0.78"/>

  <g>
    <polygon points="459,466 438,618 480,618" fill="hsl(120 38% 29%)" opacity="0.85"/>
    <rect x="456" y="591" width="5" height="35" fill="hsl(28 26% 24%)" opacity="0.72"/>
    <polygon points="981,516 958,658 1004,658" fill="hsl(120 38% 29%)" opacity="0.69"/>
    <rect x="978" y="632" width="6" height="33" fill="hsl(28 26% 24%)" opacity="0.72"/>
    <polygon points="113,492 94,620 132,620" fill="hsl(110 36% 34%)" opacity="0.88"/>
    <rect x="111" y="597" width="5" height="29" fill="hsl(28 26% 24%)" opacity="0.72"/>
    <polygon points="488,510 464,663 512,663" fill="hsl(120 38% 29%)" opacity="0.86"/>
    <rect x="485" y="635" width="6" height="35" fill="hsl(28 26% 24%)" opacity="0.72"/>
    <polygon points="303,463 284,623 322,623" fill="hsl(110 36% 34%)" opacity="0.82"/>
    <rect x="301" y="594" width="5" height="37" fill="hsl(28 26% 24%)" opacity="0.72"/>
    <polygon points="65,536 32,637 98,637" fill="hsl(110 36% 34%)" opacity="0.83"/>
    <rect x="61" y="619" width="8" height="23" fill="hsl(28 26% 24%)" opacity="0.72"/>
    <polygon points="911,486 888,633 934,633" fill="hsl(110 36% 34%)" opacity="0.86"/>
    <rect x="908" y="607" width="6" height="34" fill="hsl(28 26% 24%)" opacity="0.72"/>
    <polygon points="740,517 712,633 768,633" fill="hsl(110 36% 34%)" opacity="0.76"/>
    <rect x="737" y="612" width="7" height="27" fill="hsl(28 26% 24%)" opacity="0.72"/>
    <polygon points="113,492 93,625 133,625" fill="hsl(110 36% 34%)" opacity="0.86"/>
    <rect x="111" y="601" width="5" height="31" fill="hsl(28 26% 24%)" opacity="0.72"/>
    <polygon points="111,475 91,622 131,622" fill="hsl(110 36% 34%)" opacity="0.89"/>
    <rect x="109" y="596" width="5" height="34" fill="hsl(28 26% 24%)" opacity="0.72"/>
    <polygon points="1014,547 989,662 1039,662" fill="hsl(120 38% 29%)" opacity="0.72"/>
    <rect x="1011" y="641" width="6" height="26" fill="hsl(28 26% 24%)" opacity="0.72"/>
    <polygon points="543,510 519,648 567,648" fill="hsl(120 38% 29%)" opacity="0.74"/>
    <rect x="540" y="623" width="6" height="32" fill="hsl(28 26% 24%)" opacity="0.72"/>
    <polygon points="803,555 772,649 834,649" fill="hsl(110 36% 34%)" opacity="0.82"/>
    <rect x="799" y="632" width="7" height="22" fill="hsl(28 26% 24%)" opacity="0.72"/>
    <polygon points="1043,497 1013,656 1073,656" fill="hsl(110 36% 34%)" opacity="0.84"/>
    <rect x="1039" y="627" width="7" height="37" fill="hsl(28 26% 24%)" opacity="0.72"/>
    <polygon points="1209,511 1179,608 1239,608" fill="hsl(120 38% 29%)" opacity="0.73"/>
    <rect x="1205" y="591" width="7" height="22" fill="hsl(28 26% 24%)" opacity="0.72"/>
    <polygon points="665,511 643,611 687,611" fill="hsl(110 36% 34%)" opacity="0.84"/>
    <rect x="662" y="593" width="5" height="23" fill="hsl(28 26% 24%)" opacity="0.72"/>
    <polygon points="951,498 927,640 975,640" fill="hsl(110 36% 34%)" opacity="0.84"/>
    <rect x="948" y="614" width="6" height="33" fill="hsl(28 26% 24%)" opacity="0.72"/>
    <polygon points="1435,522 1413,636 1457,636" fill="hsl(110 36% 34%)" opacity="0.81"/>
    <rect x="1432" y="615" width="5" height="26" fill="hsl(28 26% 24%)" opacity="0.72"/>
  </g>

  <rect y="646" width="1600" height="254" fill="url(#fog)"/>

  <g>
    <polygon points="719,637 684,802 754,802" fill="hsl(110 36% 34%)" opacity="0.82"/>
    <rect x="715" y="772" width="8" height="38" fill="hsl(28 26% 24%)" opacity="0.72"/>
    <polygon points="100,611 47,761 153,761" fill="hsl(120 38% 29%)" opacity="0.89"/>
    <rect x="94" y="734" width="13" height="35" fill="hsl(28 26% 24%)" opacity="0.72"/>
    <polygon points="1389,637 1359,796 1419,796" fill="hsl(120 38% 29%)" opacity="0.75"/>
    <rect x="1385" y="767" width="7" height="37" fill="hsl(28 26% 24%)" opacity="0.72"/>
    <polygon points="1307,576 1275,818 1339,818" fill="hsl(120 38% 29%)" opacity="0.71"/>
    <rect x="1303" y="774" width="8" height="56" fill="hsl(28 26% 24%)" opacity="0.72"/>
    <polygon points="1511,658 1467,791 1555,791" fill="hsl(120 38% 29%)" opacity="0.70"/>
    <rect x="1506" y="767" width="11" height="31" fill="hsl(28 26% 24%)" opacity="0.72"/>
    <polygon points="364,596 313,790 415,790" fill="hsl(110 36% 34%)" opacity="0.82"/>
    <rect x="358" y="755" width="12" height="45" fill="hsl(28 26% 24%)" opacity="0.72"/>
    <polygon points="268,612 220,802 316,802" fill="hsl(120 38% 29%)" opacity="0.72"/>
    <rect x="262" y="768" width="12" height="44" fill="hsl(28 26% 24%)" opacity="0.72"/>
    <polygon points="1574,553 1530,762 1618,762" fill="hsl(120 38% 29%)" opacity="0.88"/>
    <rect x="1569" y="724" width="11" height="48" fill="hsl(28 26% 24%)" opacity="0.72"/>
    <polygon points="1577,556 1530,752 1624,752" fill="hsl(120 38% 29%)" opacity="0.81"/>
    <rect x="1571" y="717" width="11" height="45" fill="hsl(28 26% 24%)" opacity="0.72"/>
    <polygon points="226,563 191,756 261,756" fill="hsl(110 36% 34%)" opacity="0.86"/>
    <rect x="222" y="721" width="8" height="44" fill="hsl(28 26% 24%)" opacity="0.72"/>
    <polygon points="881,597 842,817 920,817" fill="hsl(110 36% 34%)" opacity="0.78"/>
    <rect x="876" y="777" width="9" height="51" fill="hsl(28 26% 24%)" opacity="0.72"/>
    <polygon points="991,591 953,803 1029,803" fill="hsl(120 38% 29%)" opacity="0.78"/>
    <rect x="986" y="765" width="9" height="49" fill="hsl(28 26% 24%)" opacity="0.72"/>
    <polygon points="526,567 491,812 561,812" fill="hsl(110 36% 34%)" opacity="0.78"/>
    <rect x="522" y="768" width="8" height="56" fill="hsl(28 26% 24%)" opacity="0.72"/>
    <polygon points="1287,564 1246,793 1328,793" fill="hsl(120 38% 29%)" opacity="0.80"/>
    <rect x="1282" y="752" width="10" height="53" fill="hsl(28 26% 24%)" opacity="0.72"/>
    <polygon points="1501,569 1454,785 1548,785" fill="hsl(120 38% 29%)" opacity="0.85"/>
    <rect x="1495" y="746" width="11" height="50" fill="hsl(28 26% 24%)" opacity="0.72"/>
    <polygon points="1271,617 1226,757 1316,757" fill="hsl(120 38% 29%)" opacity="0.70"/>
    <rect x="1266" y="732" width="11" height="32" fill="hsl(28 26% 24%)" opacity="0.72"/>
  </g>

  <rect x="64" y="676" width="1472" height="184" rx="22" fill="#081517" opacity="0.54"/>
  <text x="118" y="726" fill="#d9e8c8" font-family="Poppins, Arial, sans-serif" font-size="28" font-weight="700">Diger Projeler</text>
  <text x="118" y="792" fill="#ffffff" font-family="Poppins, Arial, sans-serif" font-size="59.0" font-weight="800">Mehmet Ali Meral Yuklenicisi</text>
  

  <rect width="1600" height="900" fill="url(#vignette)"/>
</svg>
