<?xml version="1.0" encoding="UTF-8"?>
<svg xmlns="http://www.w3.org/2000/svg" viewBox="0 0 1600 900" role="img" aria-label="Mehmet Ali Meral">
  <defs>
    <linearGradient id="bg" x1="0" y1="0" x2="0" y2="1">
      <stop offset="0%" stop-color="hsl(95 40% 23%)"/>
      <stop offset="100%" stop-color="hsl(13 33% 43%)"/>
    </linearGradient>
    <linearGradient id="fog" x1="0" y1="0" x2="1" y2="0">
      <stop offset="0%" stop-color="hsl(335 20% 84%)" stop-opacity="0.22"/>
      <stop offset="50%" stop-color="#ffffff" stop-opacity="0.08"/>
      <stop offset="100%" stop-color="hsl(335 20% 84%)" stop-opacity="0.22"/>
    </linearGradient>
    <radialGradient id="vignette" cx="50%" cy="45%" r="70%">
      <stop offset="65%" stop-color="rgba(0,0,0,0)"/>
      <stop offset="100%" stop-color="rgba(0,0,0,0.35)"/>
    </radialGradient>
  </defs>

  <rect width="1600" height="900" fill="url(#bg)"/>
  <circle cx="1370" cy="275" r="95" fill="#f4efd4" opacity="0.34"/>

  <path d="M0 427 Q115 391 229 358 Q343 377 457 313 Q572 372 686 323 Q800 381 914 315 Q1029 387 1143 325 Q1257 365 1371 316 Q1486 363 1600 291 L1600 900 L0 900 Z" fill="hsl(30 28% 24%)" opacity="0.48"/>
  <path d="M0 525 Q115 474 229 445 Q343 468 457 404 Q572 504 686 469 Q800 485 914 466 Q1029 496 1143 448 Q1257 462 1371 385 Q1486 445 1600 385 L1600 900 L0 900 Z" fill="hsl(17 26% 29%)" opacity="0.62"/>
  <path d="M0 625 Q115 597 229 549 Q343 594 457 554 Q572 553 686 497 Q800 592 914 556 Q1029 599 1143 552 Q1257 586 1371 563 Q1486 537 1600 470 L1600 900 L0 900 Z" fill="hsl(5 24% 38%)" opacity="0.78"/>

  <g>
    <polygon points="957,495 928,611 986,611" fill="hsl(5 38% 26%)" opacity="0.78"/>
    <rect x="954" y="590" width="7" height="27" fill="hsl(273 26% 24%)" opacity="0.72"/>
    <polygon points="47,505 19,606 75,606" fill="hsl(5 38% 26%)" opacity="0.81"/>
    <rect x="44" y="588" width="7" height="23" fill="hsl(273 26% 24%)" opacity="0.72"/>
    <polygon points="1232,538 1204,637 1260,637" fill="hsl(5 38% 26%)" opacity="0.85"/>
    <rect x="1229" y="619" width="7" height="23" fill="hsl(273 26% 24%)" opacity="0.72"/>
    <polygon points="460,513 441,611 479,611" fill="hsl(355 36% 37%)" opacity="0.77"/>
    <rect x="458" y="593" width="5" height="23" fill="hsl(273 26% 24%)" opacity="0.72"/>
    <polygon points="443,508 425,635 461,635" fill="hsl(355 36% 37%)" opacity="0.76"/>
    <rect x="441" y="612" width="4" height="29" fill="hsl(273 26% 24%)" opacity="0.72"/>
    <polygon points="674,464 640,604 708,604" fill="hsl(355 36% 37%)" opacity="0.91"/>
    <rect x="670" y="579" width="8" height="32" fill="hsl(273 26% 24%)" opacity="0.72"/>
    <polygon points="923,520 903,628 943,628" fill="hsl(5 38% 26%)" opacity="0.84"/>
    <rect x="921" y="609" width="5" height="25" fill="hsl(273 26% 24%)" opacity="0.72"/>
    <polygon points="765,547 737,657 793,657" fill="hsl(5 38% 26%)" opacity="0.84"/>
    <rect x="762" y="637" width="7" height="25" fill="hsl(273 26% 24%)" opacity="0.72"/>
    <polygon points="374,493 355,653 393,653" fill="hsl(355 36% 37%)" opacity="0.89"/>
    <rect x="372" y="624" width="5" height="37" fill="hsl(273 26% 24%)" opacity="0.72"/>
    <polygon points="895,488 874,617 916,617" fill="hsl(5 38% 26%)" opacity="0.89"/>
    <rect x="892" y="594" width="5" height="30" fill="hsl(273 26% 24%)" opacity="0.72"/>
    <polygon points="1179,509 1148,653 1210,653" fill="hsl(355 36% 37%)" opacity="0.71"/>
    <rect x="1175" y="627" width="7" height="33" fill="hsl(273 26% 24%)" opacity="0.72"/>
    <polygon points="1034,559 1009,653 1059,653" fill="hsl(355 36% 37%)" opacity="0.73"/>
    <rect x="1031" y="636" width="6" height="22" fill="hsl(273 26% 24%)" opacity="0.72"/>
    <polygon points="1003,513 984,631 1022,631" fill="hsl(355 36% 37%)" opacity="0.75"/>
    <rect x="1001" y="610" width="5" height="27" fill="hsl(273 26% 24%)" opacity="0.72"/>
    <polygon points="1350,531 1323,652 1377,652" fill="hsl(5 38% 26%)" opacity="0.89"/>
    <rect x="1347" y="630" width="6" height="28" fill="hsl(273 26% 24%)" opacity="0.72"/>
    <polygon points="529,448 506,601 552,601" fill="hsl(355 36% 37%)" opacity="0.91"/>
    <rect x="526" y="573" width="6" height="35" fill="hsl(273 26% 24%)" opacity="0.72"/>
    <polygon points="303,509 269,654 337,654" fill="hsl(355 36% 37%)" opacity="0.84"/>
    <rect x="299" y="628" width="8" height="33" fill="hsl(273 26% 24%)" opacity="0.72"/>
    <polygon points="1247,540 1219,653 1275,653" fill="hsl(5 38% 26%)" opacity="0.80"/>
    <rect x="1244" y="633" width="7" height="26" fill="hsl(273 26% 24%)" opacity="0.72"/>
    <polygon points="1344,481 1313,646 1375,646" fill="hsl(355 36% 37%)" opacity="0.73"/>
    <rect x="1340" y="616" width="7" height="38" fill="hsl(273 26% 24%)" opacity="0.72"/>
  </g>

  <rect y="646" width="1600" height="254" fill="url(#fog)"/>

  <g>
    <polygon points="1482,525 1442,758 1522,758" fill="hsl(5 38% 26%)" opacity="0.75"/>
    <rect x="1477" y="716" width="10" height="54" fill="hsl(273 26% 24%)" opacity="0.72"/>
    <polygon points="1385,581 1337,795 1433,795" fill="hsl(5 38% 26%)" opacity="0.90"/>
    <rect x="1379" y="756" width="12" height="49" fill="hsl(273 26% 24%)" opacity="0.72"/>
    <polygon points="723,571 678,790 768,790" fill="hsl(355 36% 37%)" opacity="0.75"/>
    <rect x="718" y="751" width="11" height="50" fill="hsl(273 26% 24%)" opacity="0.72"/>
    <polygon points="1553,642 1525,794 1581,794" fill="hsl(355 36% 37%)" opacity="0.89"/>
    <rect x="1550" y="767" width="7" height="35" fill="hsl(273 26% 24%)" opacity="0.72"/>
    <polygon points="941,556 896,803 986,803" fill="hsl(355 36% 37%)" opacity="0.87"/>
    <rect x="936" y="759" width="11" height="57" fill="hsl(273 26% 24%)" opacity="0.72"/>
    <polygon points="1073,577 1028,795 1118,795" fill="hsl(355 36% 37%)" opacity="0.84"/>
    <rect x="1068" y="756" width="11" height="50" fill="hsl(273 26% 24%)" opacity="0.72"/>
    <polygon points="530,648 478,811 582,811" fill="hsl(5 38% 26%)" opacity="0.82"/>
    <rect x="524" y="782" width="12" height="37" fill="hsl(273 26% 24%)" opacity="0.72"/>
    <polygon points="284,572 250,792 318,792" fill="hsl(5 38% 26%)" opacity="0.83"/>
    <rect x="280" y="752" width="8" height="51" fill="hsl(273 26% 24%)" opacity="0.72"/>
    <polygon points="305,666 271,818 339,818" fill="hsl(5 38% 26%)" opacity="0.75"/>
    <rect x="301" y="791" width="8" height="35" fill="hsl(273 26% 24%)" opacity="0.72"/>
    <polygon points="1445,598 1400,761 1490,761" fill="hsl(5 38% 26%)" opacity="0.73"/>
    <rect x="1440" y="732" width="11" height="37" fill="hsl(273 26% 24%)" opacity="0.72"/>
    <polygon points="58,613 21,807 95,807" fill="hsl(5 38% 26%)" opacity="0.69"/>
    <rect x="54" y="772" width="9" height="45" fill="hsl(273 26% 24%)" opacity="0.72"/>
    <polygon points="1017,555 969,771 1065,771" fill="hsl(5 38% 26%)" opacity="0.75"/>
    <rect x="1011" y="732" width="12" height="50" fill="hsl(273 26% 24%)" opacity="0.72"/>
    <polygon points="481,579 428,791 534,791" fill="hsl(355 36% 37%)" opacity="0.82"/>
    <rect x="475" y="753" width="13" height="49" fill="hsl(273 26% 24%)" opacity="0.72"/>
    <polygon points="34,585 -19,770 87,770" fill="hsl(5 38% 26%)" opacity="0.68"/>
    <rect x="28" y="737" width="13" height="43" fill="hsl(273 26% 24%)" opacity="0.72"/>
    <polygon points="1090,566 1038,774 1142,774" fill="hsl(355 36% 37%)" opacity="0.82"/>
    <rect x="1084" y="737" width="12" height="48" fill="hsl(273 26% 24%)" opacity="0.72"/>
    <polygon points="1058,582 1025,780 1091,780" fill="hsl(355 36% 37%)" opacity="0.73"/>
    <rect x="1054" y="744" width="8" height="46" fill="hsl(273 26% 24%)" opacity="0.72"/>
  </g>

  <rect x="64" y="676" width="1472" height="184" rx="22" fill="#081517" opacity="0.54"/>
  <text x="118" y="726" fill="#d9e8c8" font-family="Poppins, Arial, sans-serif" font-size="28" font-weight="700">Diger Projeler</text>
  <text x="118" y="792" fill="#ffffff" font-family="Poppins, Arial, sans-serif" font-size="66.0" font-weight="800">Mehmet Ali Meral</text>
  

  <rect width="1600" height="900" fill="url(#vignette)"/>
</svg>
