<?xml version="1.0" encoding="UTF-8"?>
<svg xmlns="http://www.w3.org/2000/svg" viewBox="0 0 1600 900" role="img" aria-label="Milak Enerji">
  <defs>
    <linearGradient id="bg" x1="0" y1="0" x2="0" y2="1">
      <stop offset="0%" stop-color="hsl(100 38% 25%)"/>
      <stop offset="100%" stop-color="hsl(18 35% 42%)"/>
    </linearGradient>
    <linearGradient id="fog" x1="0" y1="0" x2="1" y2="0">
      <stop offset="0%" stop-color="hsl(340 20% 84%)" stop-opacity="0.22"/>
      <stop offset="50%" stop-color="#ffffff" stop-opacity="0.08"/>
      <stop offset="100%" stop-color="hsl(340 20% 84%)" stop-opacity="0.22"/>
    </linearGradient>
    <radialGradient id="vignette" cx="50%" cy="45%" r="70%">
      <stop offset="65%" stop-color="rgba(0,0,0,0)"/>
      <stop offset="100%" stop-color="rgba(0,0,0,0.35)"/>
    </radialGradient>
  </defs>

  <rect width="1600" height="900" fill="url(#bg)"/>
  <circle cx="1426" cy="156" r="88" fill="#f4efd4" opacity="0.34"/>

  <path d="M0 414 Q115 355 229 320 Q343 361 457 328 Q572 334 686 275 Q800 357 914 308 Q1029 383 1143 345 Q1257 359 1371 301 Q1486 348 1600 286 L1600 900 L0 900 Z" fill="hsl(35 28% 23%)" opacity="0.48"/>
  <path d="M0 536 Q115 506 229 485 Q343 468 457 389 Q572 465 686 393 Q800 474 914 425 Q1029 468 1143 395 Q1257 501 1371 476 Q1486 460 1600 406 L1600 900 L0 900 Z" fill="hsl(22 26% 30%)" opacity="0.62"/>
  <path d="M0 618 Q115 522 229 431 Q343 520 457 402 Q572 576 686 520 Q800 585 914 539 Q1029 567 1143 535 Q1257 567 1371 520 Q1486 540 1600 471 L1600 900 L0 900 Z" fill="hsl(10 24% 37%)" opacity="0.78"/>

  <g>
    <polygon points="896,512 873,658 919,658" fill="hsl(10 38% 27%)" opacity="0.75"/>
    <rect x="893" y="632" width="6" height="34" fill="hsl(278 26% 24%)" opacity="0.72"/>
    <polygon points="1542,490 1511,654 1573,654" fill="hsl(0 36% 32%)" opacity="0.76"/>
    <rect x="1538" y="624" width="7" height="38" fill="hsl(278 26% 24%)" opacity="0.72"/>
    <polygon points="1529,510 1505,649 1553,649" fill="hsl(10 38% 27%)" opacity="0.81"/>
    <rect x="1526" y="624" width="6" height="32" fill="hsl(278 26% 24%)" opacity="0.72"/>
    <polygon points="418,546 397,647 439,647" fill="hsl(10 38% 27%)" opacity="0.91"/>
    <rect x="415" y="629" width="5" height="23" fill="hsl(278 26% 24%)" opacity="0.72"/>
    <polygon points="391,497 362,615 420,615" fill="hsl(10 38% 27%)" opacity="0.90"/>
    <rect x="388" y="594" width="7" height="27" fill="hsl(278 26% 24%)" opacity="0.72"/>
    <polygon points="1406,481 1387,620 1425,620" fill="hsl(10 38% 27%)" opacity="0.90"/>
    <rect x="1404" y="595" width="5" height="32" fill="hsl(278 26% 24%)" opacity="0.72"/>
    <polygon points="656,515 629,650 683,650" fill="hsl(0 36% 32%)" opacity="0.76"/>
    <rect x="653" y="626" width="6" height="31" fill="hsl(278 26% 24%)" opacity="0.72"/>
    <polygon points="546,522 517,623 575,623" fill="hsl(10 38% 27%)" opacity="0.81"/>
    <rect x="543" y="605" width="7" height="23" fill="hsl(278 26% 24%)" opacity="0.72"/>
    <polygon points="580,529 549,630 611,630" fill="hsl(0 36% 32%)" opacity="0.88"/>
    <rect x="576" y="612" width="7" height="23" fill="hsl(278 26% 24%)" opacity="0.72"/>
    <polygon points="1255,486 1228,619 1282,619" fill="hsl(0 36% 32%)" opacity="0.89"/>
    <rect x="1252" y="595" width="6" height="31" fill="hsl(278 26% 24%)" opacity="0.72"/>
    <polygon points="286,481 253,603 319,603" fill="hsl(0 36% 32%)" opacity="0.81"/>
    <rect x="282" y="581" width="8" height="28" fill="hsl(278 26% 24%)" opacity="0.72"/>
    <polygon points="194,514 168,643 220,643" fill="hsl(0 36% 32%)" opacity="0.82"/>
    <rect x="191" y="620" width="6" height="30" fill="hsl(278 26% 24%)" opacity="0.72"/>
    <polygon points="1323,494 1298,631 1348,631" fill="hsl(10 38% 27%)" opacity="0.91"/>
    <rect x="1320" y="606" width="6" height="32" fill="hsl(278 26% 24%)" opacity="0.72"/>
    <polygon points="383,471 359,621 407,621" fill="hsl(0 36% 32%)" opacity="0.74"/>
    <rect x="380" y="594" width="6" height="35" fill="hsl(278 26% 24%)" opacity="0.72"/>
    <polygon points="257,505 228,612 286,612" fill="hsl(0 36% 32%)" opacity="0.83"/>
    <rect x="254" y="593" width="7" height="25" fill="hsl(278 26% 24%)" opacity="0.72"/>
    <polygon points="555,447 526,610 584,610" fill="hsl(10 38% 27%)" opacity="0.73"/>
    <rect x="552" y="581" width="7" height="37" fill="hsl(278 26% 24%)" opacity="0.72"/>
    <polygon points="75,483 50,622 100,622" fill="hsl(10 38% 27%)" opacity="0.69"/>
    <rect x="72" y="597" width="6" height="32" fill="hsl(278 26% 24%)" opacity="0.72"/>
    <polygon points="994,511 976,624 1012,624" fill="hsl(10 38% 27%)" opacity="0.83"/>
    <rect x="992" y="604" width="4" height="26" fill="hsl(278 26% 24%)" opacity="0.72"/>
  </g>

  <rect y="646" width="1600" height="254" fill="url(#fog)"/>

  <g>
    <polygon points="246,557 198,795 294,795" fill="hsl(10 38% 27%)" opacity="0.91"/>
    <rect x="240" y="752" width="12" height="55" fill="hsl(278 26% 24%)" opacity="0.72"/>
    <polygon points="287,623 234,812 340,812" fill="hsl(10 38% 27%)" opacity="0.86"/>
    <rect x="281" y="778" width="13" height="43" fill="hsl(278 26% 24%)" opacity="0.72"/>
    <polygon points="239,634 196,773 282,773" fill="hsl(10 38% 27%)" opacity="0.73"/>
    <rect x="234" y="748" width="10" height="32" fill="hsl(278 26% 24%)" opacity="0.72"/>
    <polygon points="1526,547 1491,749 1561,749" fill="hsl(10 38% 27%)" opacity="0.83"/>
    <rect x="1522" y="713" width="8" height="46" fill="hsl(278 26% 24%)" opacity="0.72"/>
    <polygon points="625,544 579,785 671,785" fill="hsl(0 36% 32%)" opacity="0.88"/>
    <rect x="619" y="742" width="11" height="55" fill="hsl(278 26% 24%)" opacity="0.72"/>
    <polygon points="730,537 680,756 780,756" fill="hsl(10 38% 27%)" opacity="0.84"/>
    <rect x="724" y="717" width="12" height="50" fill="hsl(278 26% 24%)" opacity="0.72"/>
    <polygon points="1065,585 1016,776 1114,776" fill="hsl(0 36% 32%)" opacity="0.87"/>
    <rect x="1059" y="742" width="12" height="44" fill="hsl(278 26% 24%)" opacity="0.72"/>
    <polygon points="871,549 827,792 915,792" fill="hsl(10 38% 27%)" opacity="0.83"/>
    <rect x="866" y="748" width="11" height="56" fill="hsl(278 26% 24%)" opacity="0.72"/>
    <polygon points="611,517 561,755 661,755" fill="hsl(0 36% 32%)" opacity="0.75"/>
    <rect x="605" y="712" width="12" height="55" fill="hsl(278 26% 24%)" opacity="0.72"/>
    <polygon points="1509,663 1471,801 1547,801" fill="hsl(10 38% 27%)" opacity="0.86"/>
    <rect x="1504" y="776" width="9" height="32" fill="hsl(278 26% 24%)" opacity="0.72"/>
    <polygon points="1232,487 1187,733 1277,733" fill="hsl(10 38% 27%)" opacity="0.86"/>
    <rect x="1227" y="689" width="11" height="57" fill="hsl(278 26% 24%)" opacity="0.72"/>
    <polygon points="877,481 824,731 930,731" fill="hsl(0 36% 32%)" opacity="0.71"/>
    <rect x="871" y="686" width="13" height="58" fill="hsl(278 26% 24%)" opacity="0.72"/>
    <polygon points="379,622 347,764 411,764" fill="hsl(0 36% 32%)" opacity="0.78"/>
    <rect x="375" y="738" width="8" height="33" fill="hsl(278 26% 24%)" opacity="0.72"/>
    <polygon points="1180,549 1129,745 1231,745" fill="hsl(0 36% 32%)" opacity="0.80"/>
    <rect x="1174" y="710" width="12" height="45" fill="hsl(278 26% 24%)" opacity="0.72"/>
    <polygon points="1570,565 1528,814 1612,814" fill="hsl(0 36% 32%)" opacity="0.84"/>
    <rect x="1565" y="769" width="10" height="57" fill="hsl(278 26% 24%)" opacity="0.72"/>
    <polygon points="992,586 962,809 1022,809" fill="hsl(0 36% 32%)" opacity="0.79"/>
    <rect x="988" y="769" width="7" height="51" fill="hsl(278 26% 24%)" opacity="0.72"/>
  </g>

  <rect x="64" y="676" width="1472" height="184" rx="22" fill="#081517" opacity="0.54"/>
  <text x="118" y="726" fill="#d9e8c8" font-family="Poppins, Arial, sans-serif" font-size="28" font-weight="700">RES</text>
  <text x="118" y="792" fill="#ffffff" font-family="Poppins, Arial, sans-serif" font-size="66.0" font-weight="800">Milak Enerji</text>
  

  <rect width="1600" height="900" fill="url(#vignette)"/>
</svg>
