<?xml version="1.0" encoding="UTF-8"?>
<svg xmlns="http://www.w3.org/2000/svg" viewBox="0 0 1600 900" role="img" aria-label="Netsis Grup Muh. Mus. Ins. Tic. Ltd. Sti.">
  <defs>
    <linearGradient id="bg" x1="0" y1="0" x2="0" y2="1">
      <stop offset="0%" stop-color="hsl(250 33% 23%)"/>
      <stop offset="100%" stop-color="hsl(168 38% 40%)"/>
    </linearGradient>
    <linearGradient id="fog" x1="0" y1="0" x2="1" y2="0">
      <stop offset="0%" stop-color="hsl(130 20% 84%)" stop-opacity="0.22"/>
      <stop offset="50%" stop-color="#ffffff" stop-opacity="0.08"/>
      <stop offset="100%" stop-color="hsl(130 20% 84%)" stop-opacity="0.22"/>
    </linearGradient>
    <radialGradient id="vignette" cx="50%" cy="45%" r="70%">
      <stop offset="65%" stop-color="rgba(0,0,0,0)"/>
      <stop offset="100%" stop-color="rgba(0,0,0,0.35)"/>
    </radialGradient>
  </defs>

  <rect width="1600" height="900" fill="url(#bg)"/>
  <circle cx="1355" cy="176" r="103" fill="#f4efd4" opacity="0.34"/>

  <path d="M0 417 Q115 361 229 281 Q343 360 457 292 Q572 352 686 308 Q800 342 914 260 Q1029 375 1143 325 Q1257 347 1371 272 Q1486 388 1600 364 L1600 900 L0 900 Z" fill="hsl(185 28% 25%)" opacity="0.48"/>
  <path d="M0 528 Q115 462 229 387 Q343 429 457 343 Q572 474 686 410 Q800 442 914 367 Q1029 482 1143 458 Q1257 448 1371 388 Q1486 455 1600 382 L1600 900 L0 900 Z" fill="hsl(172 26% 30%)" opacity="0.62"/>
  <path d="M0 628 Q115 560 229 500 Q343 557 457 489 Q572 536 686 463 Q800 583 914 550 Q1029 579 1143 552 Q1257 516 1371 419 Q1486 530 1600 425 L1600 900 L0 900 Z" fill="hsl(160 24% 37%)" opacity="0.78"/>

  <g>
    <polygon points="420,495 397,613 443,613" fill="hsl(160 38% 26%)" opacity="0.78"/>
    <rect x="417" y="592" width="6" height="27" fill="hsl(68 26% 24%)" opacity="0.72"/>
    <polygon points="353,514 320,645 386,645" fill="hsl(150 36% 35%)" opacity="0.71"/>
    <rect x="349" y="621" width="8" height="30" fill="hsl(68 26% 24%)" opacity="0.72"/>
    <polygon points="871,528 837,624 905,624" fill="hsl(150 36% 35%)" opacity="0.69"/>
    <rect x="867" y="607" width="8" height="22" fill="hsl(68 26% 24%)" opacity="0.72"/>
    <polygon points="1429,524 1398,654 1460,654" fill="hsl(150 36% 35%)" opacity="0.73"/>
    <rect x="1425" y="631" width="7" height="30" fill="hsl(68 26% 24%)" opacity="0.72"/>
    <polygon points="1297,448 1273,600 1321,600" fill="hsl(160 38% 26%)" opacity="0.69"/>
    <rect x="1294" y="573" width="6" height="35" fill="hsl(68 26% 24%)" opacity="0.72"/>
    <polygon points="41,527 16,634 66,634" fill="hsl(160 38% 26%)" opacity="0.89"/>
    <rect x="38" y="615" width="6" height="25" fill="hsl(68 26% 24%)" opacity="0.72"/>
    <polygon points="752,537 722,658 782,658" fill="hsl(160 38% 26%)" opacity="0.75"/>
    <rect x="748" y="636" width="7" height="28" fill="hsl(68 26% 24%)" opacity="0.72"/>
    <polygon points="138,515 112,610 164,610" fill="hsl(160 38% 26%)" opacity="0.83"/>
    <rect x="135" y="593" width="6" height="22" fill="hsl(68 26% 24%)" opacity="0.72"/>
    <polygon points="1280,461 1260,619 1300,619" fill="hsl(160 38% 26%)" opacity="0.77"/>
    <rect x="1278" y="591" width="5" height="36" fill="hsl(68 26% 24%)" opacity="0.72"/>
    <polygon points="938,559 908,656 968,656" fill="hsl(150 36% 35%)" opacity="0.76"/>
    <rect x="934" y="639" width="7" height="22" fill="hsl(68 26% 24%)" opacity="0.72"/>
    <polygon points="1360,520 1337,643 1383,643" fill="hsl(150 36% 35%)" opacity="0.69"/>
    <rect x="1357" y="621" width="6" height="28" fill="hsl(68 26% 24%)" opacity="0.72"/>
    <polygon points="529,527 505,632 553,632" fill="hsl(160 38% 26%)" opacity="0.90"/>
    <rect x="526" y="613" width="6" height="24" fill="hsl(68 26% 24%)" opacity="0.72"/>
    <polygon points="1118,508 1085,626 1151,626" fill="hsl(160 38% 26%)" opacity="0.74"/>
    <rect x="1114" y="605" width="8" height="27" fill="hsl(68 26% 24%)" opacity="0.72"/>
    <polygon points="1465,534 1431,652 1499,652" fill="hsl(160 38% 26%)" opacity="0.69"/>
    <rect x="1461" y="631" width="8" height="27" fill="hsl(68 26% 24%)" opacity="0.72"/>
    <polygon points="1282,468 1250,607 1314,607" fill="hsl(150 36% 35%)" opacity="0.78"/>
    <rect x="1278" y="582" width="8" height="32" fill="hsl(68 26% 24%)" opacity="0.72"/>
    <polygon points="191,483 162,613 220,613" fill="hsl(150 36% 35%)" opacity="0.74"/>
    <rect x="188" y="590" width="7" height="30" fill="hsl(68 26% 24%)" opacity="0.72"/>
    <polygon points="799,478 773,625 825,625" fill="hsl(160 38% 26%)" opacity="0.92"/>
    <rect x="796" y="599" width="6" height="34" fill="hsl(68 26% 24%)" opacity="0.72"/>
    <polygon points="624,525 603,645 645,645" fill="hsl(160 38% 26%)" opacity="0.75"/>
    <rect x="621" y="623" width="5" height="28" fill="hsl(68 26% 24%)" opacity="0.72"/>
  </g>

  <rect y="646" width="1600" height="254" fill="url(#fog)"/>

  <g>
    <polygon points="145,630 100,772 190,772" fill="hsl(150 36% 35%)" opacity="0.78"/>
    <rect x="140" y="746" width="11" height="33" fill="hsl(68 26% 24%)" opacity="0.72"/>
    <polygon points="358,545 328,755 388,755" fill="hsl(150 36% 35%)" opacity="0.82"/>
    <rect x="354" y="717" width="7" height="48" fill="hsl(68 26% 24%)" opacity="0.72"/>
    <polygon points="1106,549 1076,780 1136,780" fill="hsl(150 36% 35%)" opacity="0.90"/>
    <rect x="1102" y="738" width="7" height="53" fill="hsl(68 26% 24%)" opacity="0.72"/>
    <polygon points="398,569 359,744 437,744" fill="hsl(160 38% 26%)" opacity="0.68"/>
    <rect x="393" y="712" width="9" height="40" fill="hsl(68 26% 24%)" opacity="0.72"/>
    <polygon points="314,575 267,819 361,819" fill="hsl(160 38% 26%)" opacity="0.69"/>
    <rect x="308" y="775" width="11" height="56" fill="hsl(68 26% 24%)" opacity="0.72"/>
    <polygon points="762,586 720,753 804,753" fill="hsl(150 36% 35%)" opacity="0.72"/>
    <rect x="757" y="723" width="10" height="38" fill="hsl(68 26% 24%)" opacity="0.72"/>
    <polygon points="1523,585 1470,743 1576,743" fill="hsl(150 36% 35%)" opacity="0.90"/>
    <rect x="1517" y="715" width="13" height="36" fill="hsl(68 26% 24%)" opacity="0.72"/>
    <polygon points="1505,554 1465,764 1545,764" fill="hsl(150 36% 35%)" opacity="0.81"/>
    <rect x="1500" y="726" width="10" height="48" fill="hsl(68 26% 24%)" opacity="0.72"/>
    <polygon points="1032,617 1001,800 1063,800" fill="hsl(160 38% 26%)" opacity="0.86"/>
    <rect x="1028" y="767" width="7" height="42" fill="hsl(68 26% 24%)" opacity="0.72"/>
    <polygon points="998,563 961,769 1035,769" fill="hsl(160 38% 26%)" opacity="0.81"/>
    <rect x="994" y="732" width="9" height="47" fill="hsl(68 26% 24%)" opacity="0.72"/>
    <polygon points="146,586 93,752 199,752" fill="hsl(160 38% 26%)" opacity="0.70"/>
    <rect x="140" y="722" width="13" height="38" fill="hsl(68 26% 24%)" opacity="0.72"/>
    <polygon points="1053,621 1022,785 1084,785" fill="hsl(160 38% 26%)" opacity="0.87"/>
    <rect x="1049" y="755" width="7" height="38" fill="hsl(68 26% 24%)" opacity="0.72"/>
    <polygon points="1201,673 1150,805 1252,805" fill="hsl(160 38% 26%)" opacity="0.69"/>
    <rect x="1195" y="781" width="12" height="30" fill="hsl(68 26% 24%)" opacity="0.72"/>
    <polygon points="435,586 398,739 472,739" fill="hsl(160 38% 26%)" opacity="0.80"/>
    <rect x="431" y="711" width="9" height="35" fill="hsl(68 26% 24%)" opacity="0.72"/>
    <polygon points="769,641 726,779 812,779" fill="hsl(150 36% 35%)" opacity="0.77"/>
    <rect x="764" y="754" width="10" height="32" fill="hsl(68 26% 24%)" opacity="0.72"/>
    <polygon points="667,594 635,751 699,751" fill="hsl(160 38% 26%)" opacity="0.85"/>
    <rect x="663" y="723" width="8" height="36" fill="hsl(68 26% 24%)" opacity="0.72"/>
  </g>

  <rect x="64" y="676" width="1472" height="184" rx="22" fill="#081517" opacity="0.54"/>
  <text x="118" y="726" fill="#d9e8c8" font-family="Poppins, Arial, sans-serif" font-size="28" font-weight="700">Diger Projeler</text>
  <text x="118" y="768" fill="#ffffff" font-family="Poppins, Arial, sans-serif" font-size="49.9" font-weight="800">Netsis Grup Muh. Mus. Ins.</text>
  <text x="118" y="828" fill="#ffffff" font-family="Poppins, Arial, sans-serif" font-size="49.9" font-weight="800">Tic. Ltd. Sti.</text>

  <rect width="1600" height="900" fill="url(#vignette)"/>
</svg>
