<?xml version="1.0" encoding="UTF-8"?>
<svg xmlns="http://www.w3.org/2000/svg" viewBox="0 0 1600 900" role="img" aria-label="Osman Topcu">
  <defs>
    <linearGradient id="bg" x1="0" y1="0" x2="0" y2="1">
      <stop offset="0%" stop-color="hsl(22 48% 20%)"/>
      <stop offset="100%" stop-color="hsl(300 41% 39%)"/>
    </linearGradient>
    <linearGradient id="fog" x1="0" y1="0" x2="1" y2="0">
      <stop offset="0%" stop-color="hsl(262 20% 84%)" stop-opacity="0.22"/>
      <stop offset="50%" stop-color="#ffffff" stop-opacity="0.08"/>
      <stop offset="100%" stop-color="hsl(262 20% 84%)" stop-opacity="0.22"/>
    </linearGradient>
    <radialGradient id="vignette" cx="50%" cy="45%" r="70%">
      <stop offset="65%" stop-color="rgba(0,0,0,0)"/>
      <stop offset="100%" stop-color="rgba(0,0,0,0.35)"/>
    </radialGradient>
  </defs>

  <rect width="1600" height="900" fill="url(#bg)"/>
  <circle cx="1413" cy="119" r="65" fill="#f4efd4" opacity="0.34"/>

  <path d="M0 413 Q115 364 229 308 Q343 345 457 291 Q572 370 686 312 Q800 342 914 280 Q1029 334 1143 278 Q1257 345 1371 260 Q1486 364 1600 337 L1600 900 L0 900 Z" fill="hsl(317 28% 23%)" opacity="0.48"/>
  <path d="M0 521 Q115 433 229 369 Q343 447 457 392 Q572 451 686 394 Q800 452 914 369 Q1029 454 1143 377 Q1257 470 1371 411 Q1486 475 1600 409 L1600 900 L0 900 Z" fill="hsl(304 26% 36%)" opacity="0.62"/>
  <path d="M0 632 Q115 550 229 477 Q343 528 457 421 Q572 561 686 503 Q800 600 914 560 Q1029 558 1143 463 Q1257 526 1371 437 Q1486 551 1600 464 L1600 900 L0 900 Z" fill="hsl(292 24% 42%)" opacity="0.78"/>

  <g>
    <polygon points="232,490 208,652 256,652" fill="hsl(292 38% 29%)" opacity="0.71"/>
    <rect x="229" y="623" width="6" height="37" fill="hsl(200 26% 24%)" opacity="0.72"/>
    <polygon points="924,458 903,604 945,604" fill="hsl(292 38% 29%)" opacity="0.76"/>
    <rect x="921" y="578" width="5" height="34" fill="hsl(200 26% 24%)" opacity="0.72"/>
    <polygon points="1458,463 1431,614 1485,614" fill="hsl(282 36% 34%)" opacity="0.81"/>
    <rect x="1455" y="587" width="6" height="35" fill="hsl(200 26% 24%)" opacity="0.72"/>
    <polygon points="1000,527 967,630 1033,630" fill="hsl(282 36% 34%)" opacity="0.89"/>
    <rect x="996" y="611" width="8" height="24" fill="hsl(200 26% 24%)" opacity="0.72"/>
    <polygon points="1100,470 1080,605 1120,605" fill="hsl(282 36% 34%)" opacity="0.69"/>
    <rect x="1098" y="581" width="5" height="31" fill="hsl(200 26% 24%)" opacity="0.72"/>
    <polygon points="209,513 179,615 239,615" fill="hsl(282 36% 34%)" opacity="0.90"/>
    <rect x="205" y="597" width="7" height="23" fill="hsl(200 26% 24%)" opacity="0.72"/>
    <polygon points="754,524 725,660 783,660" fill="hsl(292 38% 29%)" opacity="0.86"/>
    <rect x="751" y="636" width="7" height="31" fill="hsl(200 26% 24%)" opacity="0.72"/>
    <polygon points="415,484 396,615 434,615" fill="hsl(282 36% 34%)" opacity="0.85"/>
    <rect x="413" y="591" width="5" height="30" fill="hsl(200 26% 24%)" opacity="0.72"/>
    <polygon points="1048,486 1026,651 1070,651" fill="hsl(282 36% 34%)" opacity="0.86"/>
    <rect x="1045" y="621" width="5" height="38" fill="hsl(200 26% 24%)" opacity="0.72"/>
    <polygon points="1202,536 1175,647 1229,647" fill="hsl(292 38% 29%)" opacity="0.68"/>
    <rect x="1199" y="627" width="6" height="26" fill="hsl(200 26% 24%)" opacity="0.72"/>
    <polygon points="534,486 508,623 560,623" fill="hsl(282 36% 34%)" opacity="0.89"/>
    <rect x="531" y="598" width="6" height="32" fill="hsl(200 26% 24%)" opacity="0.72"/>
    <polygon points="378,442 360,603 396,603" fill="hsl(292 38% 29%)" opacity="0.77"/>
    <rect x="376" y="574" width="4" height="37" fill="hsl(200 26% 24%)" opacity="0.72"/>
    <polygon points="226,521 205,618 247,618" fill="hsl(292 38% 29%)" opacity="0.70"/>
    <rect x="223" y="601" width="5" height="22" fill="hsl(200 26% 24%)" opacity="0.72"/>
    <polygon points="96,514 65,648 127,648" fill="hsl(292 38% 29%)" opacity="0.86"/>
    <rect x="92" y="624" width="7" height="31" fill="hsl(200 26% 24%)" opacity="0.72"/>
    <polygon points="221,503 191,639 251,639" fill="hsl(292 38% 29%)" opacity="0.84"/>
    <rect x="217" y="615" width="7" height="31" fill="hsl(200 26% 24%)" opacity="0.72"/>
    <polygon points="306,469 286,634 326,634" fill="hsl(292 38% 29%)" opacity="0.81"/>
    <rect x="304" y="604" width="5" height="38" fill="hsl(200 26% 24%)" opacity="0.72"/>
    <polygon points="1496,519 1478,616 1514,616" fill="hsl(282 36% 34%)" opacity="0.84"/>
    <rect x="1494" y="599" width="4" height="22" fill="hsl(200 26% 24%)" opacity="0.72"/>
    <polygon points="1385,535 1363,656 1407,656" fill="hsl(292 38% 29%)" opacity="0.83"/>
    <rect x="1382" y="634" width="5" height="28" fill="hsl(200 26% 24%)" opacity="0.72"/>
  </g>

  <rect y="646" width="1600" height="254" fill="url(#fog)"/>

  <g>
    <polygon points="1334,573 1298,811 1370,811" fill="hsl(282 36% 34%)" opacity="0.89"/>
    <rect x="1330" y="768" width="9" height="55" fill="hsl(200 26% 24%)" opacity="0.72"/>
    <polygon points="767,532 737,734 797,734" fill="hsl(282 36% 34%)" opacity="0.87"/>
    <rect x="763" y="698" width="7" height="46" fill="hsl(200 26% 24%)" opacity="0.72"/>
    <polygon points="1149,514 1106,739 1192,739" fill="hsl(292 38% 29%)" opacity="0.76"/>
    <rect x="1144" y="698" width="10" height="52" fill="hsl(200 26% 24%)" opacity="0.72"/>
    <polygon points="747,540 698,744 796,744" fill="hsl(282 36% 34%)" opacity="0.91"/>
    <rect x="741" y="707" width="12" height="47" fill="hsl(200 26% 24%)" opacity="0.72"/>
    <polygon points="1190,540 1152,784 1228,784" fill="hsl(292 38% 29%)" opacity="0.78"/>
    <rect x="1185" y="740" width="9" height="56" fill="hsl(200 26% 24%)" opacity="0.72"/>
    <polygon points="1427,562 1393,775 1461,775" fill="hsl(292 38% 29%)" opacity="0.90"/>
    <rect x="1423" y="737" width="8" height="49" fill="hsl(200 26% 24%)" opacity="0.72"/>
    <polygon points="391,632 358,819 424,819" fill="hsl(292 38% 29%)" opacity="0.85"/>
    <rect x="387" y="785" width="8" height="43" fill="hsl(200 26% 24%)" opacity="0.72"/>
    <polygon points="992,611 952,753 1032,753" fill="hsl(282 36% 34%)" opacity="0.89"/>
    <rect x="987" y="727" width="10" height="33" fill="hsl(200 26% 24%)" opacity="0.72"/>
    <polygon points="390,631 340,783 440,783" fill="hsl(282 36% 34%)" opacity="0.85"/>
    <rect x="384" y="756" width="12" height="35" fill="hsl(200 26% 24%)" opacity="0.72"/>
    <polygon points="349,604 302,810 396,810" fill="hsl(282 36% 34%)" opacity="0.91"/>
    <rect x="343" y="773" width="11" height="47" fill="hsl(200 26% 24%)" opacity="0.72"/>
    <polygon points="450,481 410,730 490,730" fill="hsl(292 38% 29%)" opacity="0.83"/>
    <rect x="445" y="685" width="10" height="57" fill="hsl(200 26% 24%)" opacity="0.72"/>
    <polygon points="1153,653 1125,819 1181,819" fill="hsl(282 36% 34%)" opacity="0.73"/>
    <rect x="1150" y="789" width="7" height="38" fill="hsl(200 26% 24%)" opacity="0.72"/>
    <polygon points="899,584 856,766 942,766" fill="hsl(282 36% 34%)" opacity="0.91"/>
    <rect x="894" y="733" width="10" height="42" fill="hsl(200 26% 24%)" opacity="0.72"/>
    <polygon points="356,633 310,787 402,787" fill="hsl(282 36% 34%)" opacity="0.70"/>
    <rect x="350" y="759" width="11" height="35" fill="hsl(200 26% 24%)" opacity="0.72"/>
    <polygon points="1392,639 1338,777 1446,777" fill="hsl(282 36% 34%)" opacity="0.72"/>
    <rect x="1386" y="752" width="13" height="32" fill="hsl(200 26% 24%)" opacity="0.72"/>
    <polygon points="1278,542 1232,739 1324,739" fill="hsl(292 38% 29%)" opacity="0.90"/>
    <rect x="1272" y="704" width="11" height="45" fill="hsl(200 26% 24%)" opacity="0.72"/>
  </g>

  <rect x="64" y="676" width="1472" height="184" rx="22" fill="#081517" opacity="0.54"/>
  <text x="118" y="726" fill="#d9e8c8" font-family="Poppins, Arial, sans-serif" font-size="28" font-weight="700">Diger Projeler</text>
  <text x="118" y="792" fill="#ffffff" font-family="Poppins, Arial, sans-serif" font-size="66.0" font-weight="800">Osman Topcu</text>
  

  <rect width="1600" height="900" fill="url(#vignette)"/>
</svg>
