<?xml version="1.0" encoding="UTF-8"?>
<svg xmlns="http://www.w3.org/2000/svg" viewBox="0 0 1600 900" role="img" aria-label="Oztas">
  <defs>
    <linearGradient id="bg" x1="0" y1="0" x2="0" y2="1">
      <stop offset="0%" stop-color="hsl(314 38% 23%)"/>
      <stop offset="100%" stop-color="hsl(232 40% 40%)"/>
    </linearGradient>
    <linearGradient id="fog" x1="0" y1="0" x2="1" y2="0">
      <stop offset="0%" stop-color="hsl(194 20% 84%)" stop-opacity="0.22"/>
      <stop offset="50%" stop-color="#ffffff" stop-opacity="0.08"/>
      <stop offset="100%" stop-color="hsl(194 20% 84%)" stop-opacity="0.22"/>
    </linearGradient>
    <radialGradient id="vignette" cx="50%" cy="45%" r="70%">
      <stop offset="65%" stop-color="rgba(0,0,0,0)"/>
      <stop offset="100%" stop-color="rgba(0,0,0,0.35)"/>
    </radialGradient>
  </defs>

  <rect width="1600" height="900" fill="url(#bg)"/>
  <circle cx="1433" cy="153" r="70" fill="#f4efd4" opacity="0.34"/>

  <path d="M0 444 Q115 375 229 326 Q343 382 457 305 Q572 417 686 386 Q800 380 914 314 Q1029 431 1143 396 Q1257 411 1371 389 Q1486 368 1600 310 L1600 900 L0 900 Z" fill="hsl(249 28% 23%)" opacity="0.48"/>
  <path d="M0 527 Q115 473 229 409 Q343 496 457 450 Q572 461 686 409 Q800 481 914 448 Q1029 448 1143 347 Q1257 470 1371 402 Q1486 464 1600 402 L1600 900 L0 900 Z" fill="hsl(236 26% 34%)" opacity="0.62"/>
  <path d="M0 617 Q115 555 229 478 Q343 528 457 419 Q572 519 686 428 Q800 526 914 437 Q1029 564 1143 517 Q1257 579 1371 546 Q1486 590 1600 551 L1600 900 L0 900 Z" fill="hsl(224 24% 38%)" opacity="0.78"/>

  <g>
    <polygon points="931,529 909,638 953,638" fill="hsl(214 36% 35%)" opacity="0.85"/>
    <rect x="928" y="618" width="5" height="25" fill="hsl(132 26% 24%)" opacity="0.72"/>
    <polygon points="45,509 17,624 73,624" fill="hsl(224 38% 26%)" opacity="0.86"/>
    <rect x="42" y="603" width="7" height="26" fill="hsl(132 26% 24%)" opacity="0.72"/>
    <polygon points="545,459 512,620 578,620" fill="hsl(214 36% 35%)" opacity="0.91"/>
    <rect x="541" y="591" width="8" height="37" fill="hsl(132 26% 24%)" opacity="0.72"/>
    <polygon points="277,485 250,646 304,646" fill="hsl(224 38% 26%)" opacity="0.75"/>
    <rect x="274" y="617" width="6" height="37" fill="hsl(132 26% 24%)" opacity="0.72"/>
    <polygon points="823,477 795,611 851,611" fill="hsl(224 38% 26%)" opacity="0.90"/>
    <rect x="820" y="587" width="7" height="31" fill="hsl(132 26% 24%)" opacity="0.72"/>
    <polygon points="1228,480 1197,606 1259,606" fill="hsl(214 36% 35%)" opacity="0.68"/>
    <rect x="1224" y="583" width="7" height="29" fill="hsl(132 26% 24%)" opacity="0.72"/>
    <polygon points="645,487 625,642 665,642" fill="hsl(224 38% 26%)" opacity="0.77"/>
    <rect x="643" y="614" width="5" height="36" fill="hsl(132 26% 24%)" opacity="0.72"/>
    <polygon points="493,500 472,661 514,661" fill="hsl(214 36% 35%)" opacity="0.90"/>
    <rect x="490" y="632" width="5" height="37" fill="hsl(132 26% 24%)" opacity="0.72"/>
    <polygon points="644,524 616,633 672,633" fill="hsl(224 38% 26%)" opacity="0.76"/>
    <rect x="641" y="613" width="7" height="25" fill="hsl(132 26% 24%)" opacity="0.72"/>
    <polygon points="1199,475 1166,619 1232,619" fill="hsl(224 38% 26%)" opacity="0.71"/>
    <rect x="1195" y="593" width="8" height="33" fill="hsl(132 26% 24%)" opacity="0.72"/>
    <polygon points="952,491 932,625 972,625" fill="hsl(214 36% 35%)" opacity="0.77"/>
    <rect x="950" y="601" width="5" height="31" fill="hsl(132 26% 24%)" opacity="0.72"/>
    <polygon points="277,515 243,619 311,619" fill="hsl(214 36% 35%)" opacity="0.76"/>
    <rect x="273" y="600" width="8" height="24" fill="hsl(132 26% 24%)" opacity="0.72"/>
    <polygon points="1027,499 1007,604 1047,604" fill="hsl(214 36% 35%)" opacity="0.85"/>
    <rect x="1025" y="585" width="5" height="24" fill="hsl(132 26% 24%)" opacity="0.72"/>
    <polygon points="171,463 148,608 194,608" fill="hsl(214 36% 35%)" opacity="0.81"/>
    <rect x="168" y="582" width="6" height="33" fill="hsl(132 26% 24%)" opacity="0.72"/>
    <polygon points="625,539 594,653 656,653" fill="hsl(224 38% 26%)" opacity="0.82"/>
    <rect x="621" y="632" width="7" height="26" fill="hsl(132 26% 24%)" opacity="0.72"/>
    <polygon points="333,535 301,644 365,644" fill="hsl(224 38% 26%)" opacity="0.78"/>
    <rect x="329" y="624" width="8" height="25" fill="hsl(132 26% 24%)" opacity="0.72"/>
    <polygon points="623,472 591,617 655,617" fill="hsl(214 36% 35%)" opacity="0.81"/>
    <rect x="619" y="591" width="8" height="33" fill="hsl(132 26% 24%)" opacity="0.72"/>
    <polygon points="1061,452 1038,605 1084,605" fill="hsl(224 38% 26%)" opacity="0.89"/>
    <rect x="1058" y="577" width="6" height="35" fill="hsl(132 26% 24%)" opacity="0.72"/>
  </g>

  <rect y="646" width="1600" height="254" fill="url(#fog)"/>

  <g>
    <polygon points="506,629 453,761 559,761" fill="hsl(214 36% 35%)" opacity="0.74"/>
    <rect x="500" y="737" width="13" height="30" fill="hsl(132 26% 24%)" opacity="0.72"/>
    <polygon points="82,609 38,789 126,789" fill="hsl(214 36% 35%)" opacity="0.79"/>
    <rect x="77" y="757" width="11" height="41" fill="hsl(132 26% 24%)" opacity="0.72"/>
    <polygon points="1066,596 1030,752 1102,752" fill="hsl(224 38% 26%)" opacity="0.75"/>
    <rect x="1062" y="724" width="9" height="36" fill="hsl(132 26% 24%)" opacity="0.72"/>
    <polygon points="767,602 725,748 809,748" fill="hsl(214 36% 35%)" opacity="0.78"/>
    <rect x="762" y="722" width="10" height="34" fill="hsl(132 26% 24%)" opacity="0.72"/>
    <polygon points="1415,629 1372,767 1458,767" fill="hsl(214 36% 35%)" opacity="0.91"/>
    <rect x="1410" y="742" width="10" height="32" fill="hsl(132 26% 24%)" opacity="0.72"/>
    <polygon points="1225,526 1171,752 1279,752" fill="hsl(214 36% 35%)" opacity="0.89"/>
    <rect x="1219" y="711" width="13" height="52" fill="hsl(132 26% 24%)" opacity="0.72"/>
    <polygon points="1324,674 1288,807 1360,807" fill="hsl(224 38% 26%)" opacity="0.71"/>
    <rect x="1320" y="783" width="9" height="31" fill="hsl(132 26% 24%)" opacity="0.72"/>
    <polygon points="593,563 557,793 629,793" fill="hsl(224 38% 26%)" opacity="0.90"/>
    <rect x="589" y="752" width="9" height="53" fill="hsl(132 26% 24%)" opacity="0.72"/>
    <polygon points="231,656 199,814 263,814" fill="hsl(214 36% 35%)" opacity="0.71"/>
    <rect x="227" y="786" width="8" height="36" fill="hsl(132 26% 24%)" opacity="0.72"/>
    <polygon points="401,630 352,794 450,794" fill="hsl(214 36% 35%)" opacity="0.80"/>
    <rect x="395" y="764" width="12" height="38" fill="hsl(132 26% 24%)" opacity="0.72"/>
    <polygon points="447,504 401,733 493,733" fill="hsl(214 36% 35%)" opacity="0.73"/>
    <rect x="441" y="692" width="11" height="53" fill="hsl(132 26% 24%)" opacity="0.72"/>
    <polygon points="741,552 706,754 776,754" fill="hsl(214 36% 35%)" opacity="0.80"/>
    <rect x="737" y="718" width="8" height="46" fill="hsl(132 26% 24%)" opacity="0.72"/>
    <polygon points="878,672 839,806 917,806" fill="hsl(224 38% 26%)" opacity="0.76"/>
    <rect x="873" y="782" width="9" height="31" fill="hsl(132 26% 24%)" opacity="0.72"/>
    <polygon points="835,657 781,793 889,793" fill="hsl(214 36% 35%)" opacity="0.86"/>
    <rect x="829" y="769" width="13" height="31" fill="hsl(132 26% 24%)" opacity="0.72"/>
    <polygon points="362,572 313,786 411,786" fill="hsl(224 38% 26%)" opacity="0.80"/>
    <rect x="356" y="747" width="12" height="49" fill="hsl(132 26% 24%)" opacity="0.72"/>
    <polygon points="1317,544 1280,733 1354,733" fill="hsl(214 36% 35%)" opacity="0.76"/>
    <rect x="1313" y="699" width="9" height="43" fill="hsl(132 26% 24%)" opacity="0.72"/>
  </g>

  <rect x="64" y="676" width="1472" height="184" rx="22" fill="#081517" opacity="0.54"/>
  <text x="118" y="726" fill="#d9e8c8" font-family="Poppins, Arial, sans-serif" font-size="28" font-weight="700">Maden Izinleri</text>
  <text x="118" y="792" fill="#ffffff" font-family="Poppins, Arial, sans-serif" font-size="66.0" font-weight="800">Oztas</text>
  

  <rect width="1600" height="900" fill="url(#vignette)"/>
</svg>
