<?xml version="1.0" encoding="UTF-8"?>
<svg xmlns="http://www.w3.org/2000/svg" viewBox="0 0 1600 900" role="img" aria-label="Rafet Durmaz">
  <defs>
    <linearGradient id="bg" x1="0" y1="0" x2="0" y2="1">
      <stop offset="0%" stop-color="hsl(320 48% 20%)"/>
      <stop offset="100%" stop-color="hsl(238 42% 44%)"/>
    </linearGradient>
    <linearGradient id="fog" x1="0" y1="0" x2="1" y2="0">
      <stop offset="0%" stop-color="hsl(200 20% 84%)" stop-opacity="0.22"/>
      <stop offset="50%" stop-color="#ffffff" stop-opacity="0.08"/>
      <stop offset="100%" stop-color="hsl(200 20% 84%)" stop-opacity="0.22"/>
    </linearGradient>
    <radialGradient id="vignette" cx="50%" cy="45%" r="70%">
      <stop offset="65%" stop-color="rgba(0,0,0,0)"/>
      <stop offset="100%" stop-color="rgba(0,0,0,0.35)"/>
    </radialGradient>
  </defs>

  <rect width="1600" height="900" fill="url(#bg)"/>
  <circle cx="1438" cy="247" r="101" fill="#f4efd4" opacity="0.34"/>

  <path d="M0 411 Q115 365 229 337 Q343 352 457 296 Q572 359 686 301 Q800 355 914 321 Q1029 379 1143 333 Q1257 350 1371 301 Q1486 366 1600 306 L1600 900 L0 900 Z" fill="hsl(255 28% 23%)" opacity="0.48"/>
  <path d="M0 504 Q115 469 229 426 Q343 428 457 337 Q572 464 686 447 Q800 434 914 387 Q1029 419 1143 338 Q1257 430 1371 376 Q1486 464 1600 413 L1600 900 L0 900 Z" fill="hsl(242 26% 31%)" opacity="0.62"/>
  <path d="M0 631 Q115 535 229 455 Q343 569 457 519 Q572 539 686 433 Q800 560 914 508 Q1029 574 1143 512 Q1257 561 1371 484 Q1486 573 1600 506 L1600 900 L0 900 Z" fill="hsl(230 24% 39%)" opacity="0.78"/>

  <g>
    <polygon points="1328,491 1304,611 1352,611" fill="hsl(220 36% 33%)" opacity="0.84"/>
    <rect x="1325" y="589" width="6" height="28" fill="hsl(138 26% 24%)" opacity="0.72"/>
    <polygon points="361,517 334,644 388,644" fill="hsl(220 36% 33%)" opacity="0.88"/>
    <rect x="358" y="621" width="6" height="29" fill="hsl(138 26% 24%)" opacity="0.72"/>
    <polygon points="221,517 195,640 247,640" fill="hsl(230 38% 27%)" opacity="0.75"/>
    <rect x="218" y="618" width="6" height="28" fill="hsl(138 26% 24%)" opacity="0.72"/>
    <polygon points="379,501 354,655 404,655" fill="hsl(220 36% 33%)" opacity="0.82"/>
    <rect x="376" y="627" width="6" height="35" fill="hsl(138 26% 24%)" opacity="0.72"/>
    <polygon points="200,493 173,642 227,642" fill="hsl(230 38% 27%)" opacity="0.88"/>
    <rect x="197" y="615" width="6" height="34" fill="hsl(138 26% 24%)" opacity="0.72"/>
    <polygon points="558,463 532,609 584,609" fill="hsl(230 38% 27%)" opacity="0.82"/>
    <rect x="555" y="583" width="6" height="34" fill="hsl(138 26% 24%)" opacity="0.72"/>
    <polygon points="647,452 618,608 676,608" fill="hsl(230 38% 27%)" opacity="0.69"/>
    <rect x="644" y="580" width="7" height="36" fill="hsl(138 26% 24%)" opacity="0.72"/>
    <polygon points="1160,490 1127,629 1193,629" fill="hsl(220 36% 33%)" opacity="0.73"/>
    <rect x="1156" y="604" width="8" height="32" fill="hsl(138 26% 24%)" opacity="0.72"/>
    <polygon points="280,458 253,619 307,619" fill="hsl(220 36% 33%)" opacity="0.73"/>
    <rect x="277" y="590" width="6" height="37" fill="hsl(138 26% 24%)" opacity="0.72"/>
    <polygon points="813,544 793,652 833,652" fill="hsl(220 36% 33%)" opacity="0.80"/>
    <rect x="811" y="633" width="5" height="25" fill="hsl(138 26% 24%)" opacity="0.72"/>
    <polygon points="1345,448 1318,609 1372,609" fill="hsl(220 36% 33%)" opacity="0.80"/>
    <rect x="1342" y="580" width="6" height="37" fill="hsl(138 26% 24%)" opacity="0.72"/>
    <polygon points="776,502 753,624 799,624" fill="hsl(220 36% 33%)" opacity="0.88"/>
    <rect x="773" y="602" width="6" height="28" fill="hsl(138 26% 24%)" opacity="0.72"/>
    <polygon points="1354,542 1324,654 1384,654" fill="hsl(220 36% 33%)" opacity="0.68"/>
    <rect x="1350" y="634" width="7" height="26" fill="hsl(138 26% 24%)" opacity="0.72"/>
    <polygon points="894,495 869,643 919,643" fill="hsl(220 36% 33%)" opacity="0.74"/>
    <rect x="891" y="616" width="6" height="34" fill="hsl(138 26% 24%)" opacity="0.72"/>
    <polygon points="740,465 710,621 770,621" fill="hsl(220 36% 33%)" opacity="0.77"/>
    <rect x="736" y="593" width="7" height="36" fill="hsl(138 26% 24%)" opacity="0.72"/>
    <polygon points="1208,508 1180,614 1236,614" fill="hsl(230 38% 27%)" opacity="0.91"/>
    <rect x="1205" y="595" width="7" height="24" fill="hsl(138 26% 24%)" opacity="0.72"/>
    <polygon points="1424,464 1403,618 1445,618" fill="hsl(220 36% 33%)" opacity="0.83"/>
    <rect x="1421" y="590" width="5" height="35" fill="hsl(138 26% 24%)" opacity="0.72"/>
    <polygon points="241,493 208,651 274,651" fill="hsl(230 38% 27%)" opacity="0.82"/>
    <rect x="237" y="623" width="8" height="36" fill="hsl(138 26% 24%)" opacity="0.72"/>
  </g>

  <rect y="646" width="1600" height="254" fill="url(#fog)"/>

  <g>
    <polygon points="1405,547 1376,747 1434,747" fill="hsl(230 38% 27%)" opacity="0.79"/>
    <rect x="1402" y="711" width="7" height="46" fill="hsl(138 26% 24%)" opacity="0.72"/>
    <polygon points="1072,589 1041,815 1103,815" fill="hsl(230 38% 27%)" opacity="0.89"/>
    <rect x="1068" y="774" width="7" height="52" fill="hsl(138 26% 24%)" opacity="0.72"/>
    <polygon points="1380,585 1348,814 1412,814" fill="hsl(230 38% 27%)" opacity="0.74"/>
    <rect x="1376" y="773" width="8" height="53" fill="hsl(138 26% 24%)" opacity="0.72"/>
    <polygon points="1350,554 1314,759 1386,759" fill="hsl(230 38% 27%)" opacity="0.69"/>
    <rect x="1346" y="722" width="9" height="47" fill="hsl(138 26% 24%)" opacity="0.72"/>
    <polygon points="558,637 511,820 605,820" fill="hsl(220 36% 33%)" opacity="0.76"/>
    <rect x="552" y="787" width="11" height="42" fill="hsl(138 26% 24%)" opacity="0.72"/>
    <polygon points="1450,541 1420,774 1480,774" fill="hsl(220 36% 33%)" opacity="0.73"/>
    <rect x="1446" y="732" width="7" height="54" fill="hsl(138 26% 24%)" opacity="0.72"/>
    <polygon points="1175,571 1145,764 1205,764" fill="hsl(230 38% 27%)" opacity="0.92"/>
    <rect x="1171" y="729" width="7" height="44" fill="hsl(138 26% 24%)" opacity="0.72"/>
    <polygon points="194,543 156,730 232,730" fill="hsl(230 38% 27%)" opacity="0.86"/>
    <rect x="189" y="696" width="9" height="43" fill="hsl(138 26% 24%)" opacity="0.72"/>
    <polygon points="191,529 156,746 226,746" fill="hsl(220 36% 33%)" opacity="0.77"/>
    <rect x="187" y="707" width="8" height="50" fill="hsl(138 26% 24%)" opacity="0.72"/>
    <polygon points="1104,585 1071,742 1137,742" fill="hsl(230 38% 27%)" opacity="0.80"/>
    <rect x="1100" y="714" width="8" height="36" fill="hsl(138 26% 24%)" opacity="0.72"/>
    <polygon points="553,538 500,731 606,731" fill="hsl(220 36% 33%)" opacity="0.81"/>
    <rect x="547" y="696" width="13" height="44" fill="hsl(138 26% 24%)" opacity="0.72"/>
    <polygon points="1291,553 1240,734 1342,734" fill="hsl(230 38% 27%)" opacity="0.78"/>
    <rect x="1285" y="701" width="12" height="42" fill="hsl(138 26% 24%)" opacity="0.72"/>
    <polygon points="1218,602 1188,816 1248,816" fill="hsl(230 38% 27%)" opacity="0.85"/>
    <rect x="1214" y="777" width="7" height="49" fill="hsl(138 26% 24%)" opacity="0.72"/>
    <polygon points="36,599 3,803 69,803" fill="hsl(220 36% 33%)" opacity="0.77"/>
    <rect x="32" y="766" width="8" height="47" fill="hsl(138 26% 24%)" opacity="0.72"/>
    <polygon points="905,549 875,755 935,755" fill="hsl(230 38% 27%)" opacity="0.77"/>
    <rect x="901" y="718" width="7" height="47" fill="hsl(138 26% 24%)" opacity="0.72"/>
    <polygon points="1361,584 1320,813 1402,813" fill="hsl(220 36% 33%)" opacity="0.83"/>
    <rect x="1356" y="772" width="10" height="53" fill="hsl(138 26% 24%)" opacity="0.72"/>
  </g>

  <rect x="64" y="676" width="1472" height="184" rx="22" fill="#081517" opacity="0.54"/>
  <text x="118" y="726" fill="#d9e8c8" font-family="Poppins, Arial, sans-serif" font-size="28" font-weight="700">Diger Projeler</text>
  <text x="118" y="792" fill="#ffffff" font-family="Poppins, Arial, sans-serif" font-size="66.0" font-weight="800">Rafet Durmaz</text>
  

  <rect width="1600" height="900" fill="url(#vignette)"/>
</svg>
