<?xml version="1.0" encoding="UTF-8"?>
<svg xmlns="http://www.w3.org/2000/svg" viewBox="0 0 1600 900" role="img" aria-label="Sanko Enerji">
  <defs>
    <linearGradient id="bg" x1="0" y1="0" x2="0" y2="1">
      <stop offset="0%" stop-color="hsl(152 46% 24%)"/>
      <stop offset="100%" stop-color="hsl(70 38% 42%)"/>
    </linearGradient>
    <linearGradient id="fog" x1="0" y1="0" x2="1" y2="0">
      <stop offset="0%" stop-color="hsl(32 20% 84%)" stop-opacity="0.22"/>
      <stop offset="50%" stop-color="#ffffff" stop-opacity="0.08"/>
      <stop offset="100%" stop-color="hsl(32 20% 84%)" stop-opacity="0.22"/>
    </linearGradient>
    <radialGradient id="vignette" cx="50%" cy="45%" r="70%">
      <stop offset="65%" stop-color="rgba(0,0,0,0)"/>
      <stop offset="100%" stop-color="rgba(0,0,0,0.35)"/>
    </radialGradient>
  </defs>

  <rect width="1600" height="900" fill="url(#bg)"/>
  <circle cx="1302" cy="123" r="75" fill="#f4efd4" opacity="0.34"/>

  <path d="M0 422 Q115 351 229 280 Q343 403 457 373 Q572 396 686 354 Q800 363 914 322 Q1029 348 1143 297 Q1257 373 1371 311 Q1486 378 1600 328 L1600 900 L0 900 Z" fill="hsl(87 28% 27%)" opacity="0.48"/>
  <path d="M0 511 Q115 470 229 407 Q343 450 457 373 Q572 479 686 437 Q800 459 914 405 Q1029 447 1143 383 Q1257 472 1371 421 Q1486 466 1600 405 L1600 900 L0 900 Z" fill="hsl(74 26% 29%)" opacity="0.62"/>
  <path d="M0 653 Q115 588 229 534 Q343 596 457 543 Q572 567 686 462 Q800 539 914 439 Q1029 580 1143 486 Q1257 578 1371 487 Q1486 619 1600 562 L1600 900 L0 900 Z" fill="hsl(62 24% 42%)" opacity="0.78"/>

  <g>
    <polygon points="994,504 973,629 1015,629" fill="hsl(62 38% 28%)" opacity="0.82"/>
    <rect x="991" y="606" width="5" height="29" fill="hsl(330 26% 24%)" opacity="0.72"/>
    <polygon points="1403,506 1372,607 1434,607" fill="hsl(52 36% 34%)" opacity="0.77"/>
    <rect x="1399" y="589" width="7" height="23" fill="hsl(330 26% 24%)" opacity="0.72"/>
    <polygon points="1195,477 1163,603 1227,603" fill="hsl(62 38% 28%)" opacity="0.80"/>
    <rect x="1191" y="580" width="8" height="29" fill="hsl(330 26% 24%)" opacity="0.72"/>
    <polygon points="1241,511 1210,618 1272,618" fill="hsl(62 38% 28%)" opacity="0.70"/>
    <rect x="1237" y="599" width="7" height="25" fill="hsl(330 26% 24%)" opacity="0.72"/>
    <polygon points="498,555 469,653 527,653" fill="hsl(52 36% 34%)" opacity="0.72"/>
    <rect x="495" y="635" width="7" height="23" fill="hsl(330 26% 24%)" opacity="0.72"/>
    <polygon points="1499,493 1479,636 1519,636" fill="hsl(52 36% 34%)" opacity="0.74"/>
    <rect x="1497" y="610" width="5" height="33" fill="hsl(330 26% 24%)" opacity="0.72"/>
    <polygon points="916,513 889,655 943,655" fill="hsl(62 38% 28%)" opacity="0.75"/>
    <rect x="913" y="629" width="6" height="33" fill="hsl(330 26% 24%)" opacity="0.72"/>
    <polygon points="1494,489 1470,649 1518,649" fill="hsl(62 38% 28%)" opacity="0.68"/>
    <rect x="1491" y="620" width="6" height="37" fill="hsl(330 26% 24%)" opacity="0.72"/>
    <polygon points="1330,535 1305,635 1355,635" fill="hsl(62 38% 28%)" opacity="0.84"/>
    <rect x="1327" y="617" width="6" height="23" fill="hsl(330 26% 24%)" opacity="0.72"/>
    <polygon points="1560,455 1528,608 1592,608" fill="hsl(52 36% 34%)" opacity="0.89"/>
    <rect x="1556" y="580" width="8" height="35" fill="hsl(330 26% 24%)" opacity="0.72"/>
    <polygon points="429,467 404,600 454,600" fill="hsl(52 36% 34%)" opacity="0.74"/>
    <rect x="426" y="576" width="6" height="31" fill="hsl(330 26% 24%)" opacity="0.72"/>
    <polygon points="216,492 189,607 243,607" fill="hsl(62 38% 28%)" opacity="0.81"/>
    <rect x="213" y="586" width="6" height="26" fill="hsl(330 26% 24%)" opacity="0.72"/>
    <polygon points="854,539 831,661 877,661" fill="hsl(52 36% 34%)" opacity="0.88"/>
    <rect x="851" y="639" width="6" height="28" fill="hsl(330 26% 24%)" opacity="0.72"/>
    <polygon points="111,449 81,610 141,610" fill="hsl(52 36% 34%)" opacity="0.69"/>
    <rect x="107" y="581" width="7" height="37" fill="hsl(330 26% 24%)" opacity="0.72"/>
    <polygon points="344,504 323,602 365,602" fill="hsl(52 36% 34%)" opacity="0.75"/>
    <rect x="341" y="584" width="5" height="23" fill="hsl(330 26% 24%)" opacity="0.72"/>
    <polygon points="232,484 202,608 262,608" fill="hsl(52 36% 34%)" opacity="0.80"/>
    <rect x="228" y="586" width="7" height="29" fill="hsl(330 26% 24%)" opacity="0.72"/>
    <polygon points="651,481 624,632 678,632" fill="hsl(62 38% 28%)" opacity="0.86"/>
    <rect x="648" y="605" width="6" height="35" fill="hsl(330 26% 24%)" opacity="0.72"/>
    <polygon points="357,506 325,643 389,643" fill="hsl(62 38% 28%)" opacity="0.80"/>
    <rect x="353" y="618" width="8" height="32" fill="hsl(330 26% 24%)" opacity="0.72"/>
  </g>

  <rect y="646" width="1600" height="254" fill="url(#fog)"/>

  <g>
    <polygon points="364,618 332,819 396,819" fill="hsl(52 36% 34%)" opacity="0.71"/>
    <rect x="360" y="783" width="8" height="46" fill="hsl(330 26% 24%)" opacity="0.72"/>
    <polygon points="279,500 247,738 311,738" fill="hsl(52 36% 34%)" opacity="0.73"/>
    <rect x="275" y="695" width="8" height="55" fill="hsl(330 26% 24%)" opacity="0.72"/>
    <polygon points="1512,613 1478,776 1546,776" fill="hsl(52 36% 34%)" opacity="0.90"/>
    <rect x="1508" y="747" width="8" height="37" fill="hsl(330 26% 24%)" opacity="0.72"/>
    <polygon points="660,663 616,818 704,818" fill="hsl(52 36% 34%)" opacity="0.75"/>
    <rect x="655" y="790" width="11" height="36" fill="hsl(330 26% 24%)" opacity="0.72"/>
    <polygon points="382,540 343,751 421,751" fill="hsl(62 38% 28%)" opacity="0.77"/>
    <rect x="377" y="713" width="9" height="49" fill="hsl(330 26% 24%)" opacity="0.72"/>
    <polygon points="787,570 750,789 824,789" fill="hsl(62 38% 28%)" opacity="0.83"/>
    <rect x="783" y="750" width="9" height="50" fill="hsl(330 26% 24%)" opacity="0.72"/>
    <polygon points="449,520 403,742 495,742" fill="hsl(62 38% 28%)" opacity="0.86"/>
    <rect x="443" y="702" width="11" height="51" fill="hsl(330 26% 24%)" opacity="0.72"/>
    <polygon points="119,509 91,760 147,760" fill="hsl(52 36% 34%)" opacity="0.82"/>
    <rect x="116" y="715" width="7" height="58" fill="hsl(330 26% 24%)" opacity="0.72"/>
    <polygon points="565,544 519,793 611,793" fill="hsl(62 38% 28%)" opacity="0.77"/>
    <rect x="559" y="748" width="11" height="57" fill="hsl(330 26% 24%)" opacity="0.72"/>
    <polygon points="946,553 893,788 999,788" fill="hsl(62 38% 28%)" opacity="0.81"/>
    <rect x="940" y="746" width="13" height="54" fill="hsl(330 26% 24%)" opacity="0.72"/>
    <polygon points="1101,616 1069,816 1133,816" fill="hsl(62 38% 28%)" opacity="0.84"/>
    <rect x="1097" y="780" width="8" height="46" fill="hsl(330 26% 24%)" opacity="0.72"/>
    <polygon points="1157,565 1110,770 1204,770" fill="hsl(52 36% 34%)" opacity="0.70"/>
    <rect x="1151" y="733" width="11" height="47" fill="hsl(330 26% 24%)" opacity="0.72"/>
    <polygon points="1508,642 1456,814 1560,814" fill="hsl(62 38% 28%)" opacity="0.84"/>
    <rect x="1502" y="783" width="12" height="40" fill="hsl(330 26% 24%)" opacity="0.72"/>
    <polygon points="124,631 72,781 176,781" fill="hsl(62 38% 28%)" opacity="0.69"/>
    <rect x="118" y="754" width="12" height="35" fill="hsl(330 26% 24%)" opacity="0.72"/>
    <polygon points="1359,642 1327,781 1391,781" fill="hsl(52 36% 34%)" opacity="0.81"/>
    <rect x="1355" y="756" width="8" height="32" fill="hsl(330 26% 24%)" opacity="0.72"/>
    <polygon points="810,601 761,803 859,803" fill="hsl(52 36% 34%)" opacity="0.81"/>
    <rect x="804" y="767" width="12" height="46" fill="hsl(330 26% 24%)" opacity="0.72"/>
  </g>

  <rect x="64" y="676" width="1472" height="184" rx="22" fill="#081517" opacity="0.54"/>
  <text x="118" y="726" fill="#d9e8c8" font-family="Poppins, Arial, sans-serif" font-size="28" font-weight="700">RES</text>
  <text x="118" y="792" fill="#ffffff" font-family="Poppins, Arial, sans-serif" font-size="66.0" font-weight="800">Sanko Enerji</text>
  

  <rect width="1600" height="900" fill="url(#vignette)"/>
</svg>
