<?xml version="1.0" encoding="UTF-8"?>
<svg xmlns="http://www.w3.org/2000/svg" viewBox="0 0 1600 900" role="img" aria-label="Sariyer Belediyesi">
  <defs>
    <linearGradient id="bg" x1="0" y1="0" x2="0" y2="1">
      <stop offset="0%" stop-color="hsl(253 39% 24%)"/>
      <stop offset="100%" stop-color="hsl(171 43% 42%)"/>
    </linearGradient>
    <linearGradient id="fog" x1="0" y1="0" x2="1" y2="0">
      <stop offset="0%" stop-color="hsl(133 20% 84%)" stop-opacity="0.22"/>
      <stop offset="50%" stop-color="#ffffff" stop-opacity="0.08"/>
      <stop offset="100%" stop-color="hsl(133 20% 84%)" stop-opacity="0.22"/>
    </linearGradient>
    <radialGradient id="vignette" cx="50%" cy="45%" r="70%">
      <stop offset="65%" stop-color="rgba(0,0,0,0)"/>
      <stop offset="100%" stop-color="rgba(0,0,0,0.35)"/>
    </radialGradient>
  </defs>

  <rect width="1600" height="900" fill="url(#bg)"/>
  <circle cx="1168" cy="195" r="70" fill="#f4efd4" opacity="0.34"/>

  <path d="M0 440 Q115 370 229 324 Q343 426 457 395 Q572 397 686 337 Q800 376 914 316 Q1029 383 1143 349 Q1257 383 1371 327 Q1486 396 1600 354 L1600 900 L0 900 Z" fill="hsl(188 28% 26%)" opacity="0.48"/>
  <path d="M0 502 Q115 450 229 409 Q343 467 457 418 Q572 474 686 434 Q800 431 914 370 Q1029 438 1143 355 Q1257 446 1371 370 Q1486 458 1600 408 L1600 900 L0 900 Z" fill="hsl(175 26% 30%)" opacity="0.62"/>
  <path d="M0 633 Q115 583 229 543 Q343 582 457 514 Q572 546 686 478 Q800 545 914 470 Q1029 578 1143 530 Q1257 548 1371 480 Q1486 586 1600 560 L1600 900 L0 900 Z" fill="hsl(163 24% 45%)" opacity="0.78"/>

  <g>
    <polygon points="1386,501 1360,650 1412,650" fill="hsl(153 36% 37%)" opacity="0.70"/>
    <rect x="1383" y="623" width="6" height="34" fill="hsl(71 26% 24%)" opacity="0.72"/>
    <polygon points="68,472 45,601 91,601" fill="hsl(153 36% 37%)" opacity="0.69"/>
    <rect x="65" y="578" width="6" height="30" fill="hsl(71 26% 24%)" opacity="0.72"/>
    <polygon points="244,508 210,610 278,610" fill="hsl(153 36% 37%)" opacity="0.84"/>
    <rect x="240" y="592" width="8" height="23" fill="hsl(71 26% 24%)" opacity="0.72"/>
    <polygon points="965,465 938,607 992,607" fill="hsl(153 36% 37%)" opacity="0.89"/>
    <rect x="962" y="581" width="6" height="33" fill="hsl(71 26% 24%)" opacity="0.72"/>
    <polygon points="688,556 664,659 712,659" fill="hsl(163 38% 27%)" opacity="0.91"/>
    <rect x="685" y="640" width="6" height="24" fill="hsl(71 26% 24%)" opacity="0.72"/>
    <polygon points="94,499 65,661 123,661" fill="hsl(153 36% 37%)" opacity="0.77"/>
    <rect x="91" y="632" width="7" height="37" fill="hsl(71 26% 24%)" opacity="0.72"/>
    <polygon points="1388,539 1368,652 1408,652" fill="hsl(163 38% 27%)" opacity="0.78"/>
    <rect x="1386" y="632" width="5" height="26" fill="hsl(71 26% 24%)" opacity="0.72"/>
    <polygon points="1233,480 1214,618 1252,618" fill="hsl(163 38% 27%)" opacity="0.73"/>
    <rect x="1231" y="593" width="5" height="32" fill="hsl(71 26% 24%)" opacity="0.72"/>
    <polygon points="182,519 156,649 208,649" fill="hsl(163 38% 27%)" opacity="0.85"/>
    <rect x="179" y="626" width="6" height="30" fill="hsl(71 26% 24%)" opacity="0.72"/>
    <polygon points="1533,499 1504,655 1562,655" fill="hsl(163 38% 27%)" opacity="0.73"/>
    <rect x="1530" y="627" width="7" height="36" fill="hsl(71 26% 24%)" opacity="0.72"/>
    <polygon points="1022,525 989,635 1055,635" fill="hsl(153 36% 37%)" opacity="0.71"/>
    <rect x="1018" y="615" width="8" height="25" fill="hsl(71 26% 24%)" opacity="0.72"/>
    <polygon points="31,513 5,621 57,621" fill="hsl(163 38% 27%)" opacity="0.68"/>
    <rect x="28" y="602" width="6" height="25" fill="hsl(71 26% 24%)" opacity="0.72"/>
    <polygon points="65,483 31,604 99,604" fill="hsl(153 36% 37%)" opacity="0.68"/>
    <rect x="61" y="582" width="8" height="28" fill="hsl(71 26% 24%)" opacity="0.72"/>
    <polygon points="229,520 196,656 262,656" fill="hsl(153 36% 37%)" opacity="0.86"/>
    <rect x="225" y="632" width="8" height="31" fill="hsl(71 26% 24%)" opacity="0.72"/>
    <polygon points="1283,517 1253,655 1313,655" fill="hsl(163 38% 27%)" opacity="0.89"/>
    <rect x="1279" y="630" width="7" height="32" fill="hsl(71 26% 24%)" opacity="0.72"/>
    <polygon points="1109,508 1079,603 1139,603" fill="hsl(153 36% 37%)" opacity="0.85"/>
    <rect x="1105" y="586" width="7" height="22" fill="hsl(71 26% 24%)" opacity="0.72"/>
    <polygon points="831,487 799,627 863,627" fill="hsl(153 36% 37%)" opacity="0.69"/>
    <rect x="827" y="602" width="8" height="32" fill="hsl(71 26% 24%)" opacity="0.72"/>
    <polygon points="1337,534 1314,627 1360,627" fill="hsl(153 36% 37%)" opacity="0.80"/>
    <rect x="1334" y="610" width="6" height="21" fill="hsl(71 26% 24%)" opacity="0.72"/>
  </g>

  <rect y="646" width="1600" height="254" fill="url(#fog)"/>

  <g>
    <polygon points="1573,587 1523,805 1623,805" fill="hsl(153 36% 37%)" opacity="0.84"/>
    <rect x="1567" y="766" width="12" height="50" fill="hsl(71 26% 24%)" opacity="0.72"/>
    <polygon points="982,631 934,767 1030,767" fill="hsl(163 38% 27%)" opacity="0.82"/>
    <rect x="976" y="743" width="12" height="31" fill="hsl(71 26% 24%)" opacity="0.72"/>
    <polygon points="822,665 771,796 873,796" fill="hsl(163 38% 27%)" opacity="0.83"/>
    <rect x="816" y="772" width="12" height="30" fill="hsl(71 26% 24%)" opacity="0.72"/>
    <polygon points="1108,536 1064,767 1152,767" fill="hsl(163 38% 27%)" opacity="0.79"/>
    <rect x="1103" y="725" width="11" height="53" fill="hsl(71 26% 24%)" opacity="0.72"/>
    <polygon points="697,640 666,775 728,775" fill="hsl(153 36% 37%)" opacity="0.78"/>
    <rect x="693" y="751" width="7" height="31" fill="hsl(71 26% 24%)" opacity="0.72"/>
    <polygon points="144,501 103,751 185,751" fill="hsl(153 36% 37%)" opacity="0.87"/>
    <rect x="139" y="706" width="10" height="58" fill="hsl(71 26% 24%)" opacity="0.72"/>
    <polygon points="622,498 571,737 673,737" fill="hsl(163 38% 27%)" opacity="0.91"/>
    <rect x="616" y="694" width="12" height="55" fill="hsl(71 26% 24%)" opacity="0.72"/>
    <polygon points="918,647 869,820 967,820" fill="hsl(163 38% 27%)" opacity="0.79"/>
    <rect x="912" y="789" width="12" height="40" fill="hsl(71 26% 24%)" opacity="0.72"/>
    <polygon points="1016,560 986,757 1046,757" fill="hsl(153 36% 37%)" opacity="0.85"/>
    <rect x="1012" y="722" width="7" height="45" fill="hsl(71 26% 24%)" opacity="0.72"/>
    <polygon points="351,530 309,780 393,780" fill="hsl(163 38% 27%)" opacity="0.73"/>
    <rect x="346" y="735" width="10" height="58" fill="hsl(71 26% 24%)" opacity="0.72"/>
    <polygon points="663,635 635,773 691,773" fill="hsl(153 36% 37%)" opacity="0.78"/>
    <rect x="660" y="748" width="7" height="32" fill="hsl(71 26% 24%)" opacity="0.72"/>
    <polygon points="639,540 604,731 674,731" fill="hsl(163 38% 27%)" opacity="0.73"/>
    <rect x="635" y="697" width="8" height="44" fill="hsl(71 26% 24%)" opacity="0.72"/>
    <polygon points="936,522 883,749 989,749" fill="hsl(163 38% 27%)" opacity="0.81"/>
    <rect x="930" y="708" width="13" height="52" fill="hsl(71 26% 24%)" opacity="0.72"/>
    <polygon points="96,583 50,759 142,759" fill="hsl(163 38% 27%)" opacity="0.91"/>
    <rect x="90" y="727" width="11" height="40" fill="hsl(71 26% 24%)" opacity="0.72"/>
    <polygon points="241,527 209,746 273,746" fill="hsl(153 36% 37%)" opacity="0.78"/>
    <rect x="237" y="707" width="8" height="50" fill="hsl(71 26% 24%)" opacity="0.72"/>
    <polygon points="1447,515 1406,755 1488,755" fill="hsl(163 38% 27%)" opacity="0.72"/>
    <rect x="1442" y="712" width="10" height="55" fill="hsl(71 26% 24%)" opacity="0.72"/>
  </g>

  <rect x="64" y="676" width="1472" height="184" rx="22" fill="#081517" opacity="0.54"/>
  <text x="118" y="726" fill="#d9e8c8" font-family="Poppins, Arial, sans-serif" font-size="28" font-weight="700">Devlet</text>
  <text x="118" y="792" fill="#ffffff" font-family="Poppins, Arial, sans-serif" font-size="66.0" font-weight="800">Sariyer Belediyesi</text>
  

  <rect width="1600" height="900" fill="url(#vignette)"/>
</svg>
