<?xml version="1.0" encoding="UTF-8"?>
<svg xmlns="http://www.w3.org/2000/svg" viewBox="0 0 1600 900" role="img" aria-label="SYCS Insaat">
  <defs>
    <linearGradient id="bg" x1="0" y1="0" x2="0" y2="1">
      <stop offset="0%" stop-color="hsl(34 37% 20%)"/>
      <stop offset="100%" stop-color="hsl(312 34% 40%)"/>
    </linearGradient>
    <linearGradient id="fog" x1="0" y1="0" x2="1" y2="0">
      <stop offset="0%" stop-color="hsl(274 20% 84%)" stop-opacity="0.22"/>
      <stop offset="50%" stop-color="#ffffff" stop-opacity="0.08"/>
      <stop offset="100%" stop-color="hsl(274 20% 84%)" stop-opacity="0.22"/>
    </linearGradient>
    <radialGradient id="vignette" cx="50%" cy="45%" r="70%">
      <stop offset="65%" stop-color="rgba(0,0,0,0)"/>
      <stop offset="100%" stop-color="rgba(0,0,0,0.35)"/>
    </radialGradient>
  </defs>

  <rect width="1600" height="900" fill="url(#bg)"/>
  <circle cx="1093" cy="233" r="66" fill="#f4efd4" opacity="0.34"/>

  <path d="M0 446 Q115 411 229 399 Q343 403 457 342 Q572 404 686 342 Q800 434 914 398 Q1029 424 1143 385 Q1257 406 1371 387 Q1486 393 1600 362 L1600 900 L0 900 Z" fill="hsl(329 28% 26%)" opacity="0.48"/>
  <path d="M0 530 Q115 479 229 413 Q343 493 457 461 Q572 475 686 403 Q800 502 914 456 Q1029 466 1143 415 Q1257 452 1371 392 Q1486 502 1600 476 L1600 900 L0 900 Z" fill="hsl(316 26% 33%)" opacity="0.62"/>
  <path d="M0 653 Q115 559 229 466 Q343 614 457 573 Q572 606 686 578 Q800 556 914 456 Q1029 609 1143 549 Q1257 615 1371 579 Q1486 588 1600 512 L1600 900 L0 900 Z" fill="hsl(304 24% 38%)" opacity="0.78"/>

  <g>
    <polygon points="123,515 105,659 141,659" fill="hsl(294 36% 33%)" opacity="0.69"/>
    <rect x="121" y="633" width="4" height="33" fill="hsl(212 26% 24%)" opacity="0.72"/>
    <polygon points="272,470 239,625 305,625" fill="hsl(294 36% 33%)" opacity="0.79"/>
    <rect x="268" y="597" width="8" height="36" fill="hsl(212 26% 24%)" opacity="0.72"/>
    <polygon points="1095,494 1069,618 1121,618" fill="hsl(294 36% 33%)" opacity="0.79"/>
    <rect x="1092" y="596" width="6" height="29" fill="hsl(212 26% 24%)" opacity="0.72"/>
    <polygon points="167,530 134,629 200,629" fill="hsl(294 36% 33%)" opacity="0.79"/>
    <rect x="163" y="611" width="8" height="23" fill="hsl(212 26% 24%)" opacity="0.72"/>
    <polygon points="419,524 390,631 448,631" fill="hsl(294 36% 33%)" opacity="0.79"/>
    <rect x="416" y="612" width="7" height="25" fill="hsl(212 26% 24%)" opacity="0.72"/>
    <polygon points="682,491 648,648 716,648" fill="hsl(304 38% 30%)" opacity="0.91"/>
    <rect x="678" y="620" width="8" height="36" fill="hsl(212 26% 24%)" opacity="0.72"/>
    <polygon points="1542,478 1511,603 1573,603" fill="hsl(294 36% 33%)" opacity="0.86"/>
    <rect x="1538" y="580" width="7" height="29" fill="hsl(212 26% 24%)" opacity="0.72"/>
    <polygon points="631,511 604,653 658,653" fill="hsl(294 36% 33%)" opacity="0.78"/>
    <rect x="628" y="627" width="6" height="33" fill="hsl(212 26% 24%)" opacity="0.72"/>
    <polygon points="593,502 562,632 624,632" fill="hsl(304 38% 30%)" opacity="0.91"/>
    <rect x="589" y="609" width="7" height="30" fill="hsl(212 26% 24%)" opacity="0.72"/>
    <polygon points="1307,511 1285,631 1329,631" fill="hsl(294 36% 33%)" opacity="0.72"/>
    <rect x="1304" y="609" width="5" height="28" fill="hsl(212 26% 24%)" opacity="0.72"/>
    <polygon points="711,521 680,623 742,623" fill="hsl(294 36% 33%)" opacity="0.91"/>
    <rect x="707" y="605" width="7" height="23" fill="hsl(212 26% 24%)" opacity="0.72"/>
    <polygon points="1562,459 1544,610 1580,610" fill="hsl(304 38% 30%)" opacity="0.75"/>
    <rect x="1560" y="583" width="4" height="35" fill="hsl(212 26% 24%)" opacity="0.72"/>
    <polygon points="228,500 203,627 253,627" fill="hsl(294 36% 33%)" opacity="0.92"/>
    <rect x="225" y="604" width="6" height="29" fill="hsl(212 26% 24%)" opacity="0.72"/>
    <polygon points="707,527 673,654 741,654" fill="hsl(304 38% 30%)" opacity="0.75"/>
    <rect x="703" y="631" width="8" height="29" fill="hsl(212 26% 24%)" opacity="0.72"/>
    <polygon points="1494,482 1471,615 1517,615" fill="hsl(304 38% 30%)" opacity="0.84"/>
    <rect x="1491" y="591" width="6" height="31" fill="hsl(212 26% 24%)" opacity="0.72"/>
    <polygon points="972,504 946,638 998,638" fill="hsl(294 36% 33%)" opacity="0.76"/>
    <rect x="969" y="614" width="6" height="31" fill="hsl(212 26% 24%)" opacity="0.72"/>
    <polygon points="1279,449 1253,603 1305,603" fill="hsl(294 36% 33%)" opacity="0.83"/>
    <rect x="1276" y="575" width="6" height="35" fill="hsl(212 26% 24%)" opacity="0.72"/>
    <polygon points="934,484 912,614 956,614" fill="hsl(304 38% 30%)" opacity="0.92"/>
    <rect x="931" y="591" width="5" height="30" fill="hsl(212 26% 24%)" opacity="0.72"/>
  </g>

  <rect y="646" width="1600" height="254" fill="url(#fog)"/>

  <g>
    <polygon points="483,653 451,791 515,791" fill="hsl(294 36% 33%)" opacity="0.90"/>
    <rect x="479" y="766" width="8" height="32" fill="hsl(212 26% 24%)" opacity="0.72"/>
    <polygon points="179,670 136,807 222,807" fill="hsl(304 38% 30%)" opacity="0.85"/>
    <rect x="174" y="782" width="10" height="32" fill="hsl(212 26% 24%)" opacity="0.72"/>
    <polygon points="936,679 898,814 974,814" fill="hsl(304 38% 30%)" opacity="0.87"/>
    <rect x="931" y="790" width="9" height="31" fill="hsl(212 26% 24%)" opacity="0.72"/>
    <polygon points="1157,591 1119,811 1195,811" fill="hsl(294 36% 33%)" opacity="0.88"/>
    <rect x="1152" y="771" width="9" height="51" fill="hsl(212 26% 24%)" opacity="0.72"/>
    <polygon points="853,492 800,736 906,736" fill="hsl(294 36% 33%)" opacity="0.72"/>
    <rect x="847" y="692" width="13" height="56" fill="hsl(212 26% 24%)" opacity="0.72"/>
    <polygon points="1455,522 1420,759 1490,759" fill="hsl(304 38% 30%)" opacity="0.79"/>
    <rect x="1451" y="716" width="8" height="55" fill="hsl(212 26% 24%)" opacity="0.72"/>
    <polygon points="948,498 916,731 980,731" fill="hsl(304 38% 30%)" opacity="0.74"/>
    <rect x="944" y="689" width="8" height="54" fill="hsl(212 26% 24%)" opacity="0.72"/>
    <polygon points="692,635 647,772 737,772" fill="hsl(304 38% 30%)" opacity="0.69"/>
    <rect x="687" y="747" width="11" height="32" fill="hsl(212 26% 24%)" opacity="0.72"/>
    <polygon points="1165,626 1125,776 1205,776" fill="hsl(294 36% 33%)" opacity="0.70"/>
    <rect x="1160" y="749" width="10" height="35" fill="hsl(212 26% 24%)" opacity="0.72"/>
    <polygon points="990,616 949,814 1031,814" fill="hsl(294 36% 33%)" opacity="0.72"/>
    <rect x="985" y="778" width="10" height="46" fill="hsl(212 26% 24%)" opacity="0.72"/>
    <polygon points="633,604 594,774 672,774" fill="hsl(294 36% 33%)" opacity="0.75"/>
    <rect x="628" y="743" width="9" height="39" fill="hsl(212 26% 24%)" opacity="0.72"/>
    <polygon points="453,626 404,819 502,819" fill="hsl(294 36% 33%)" opacity="0.89"/>
    <rect x="447" y="784" width="12" height="44" fill="hsl(212 26% 24%)" opacity="0.72"/>
    <polygon points="168,580 116,756 220,756" fill="hsl(304 38% 30%)" opacity="0.87"/>
    <rect x="162" y="724" width="12" height="40" fill="hsl(212 26% 24%)" opacity="0.72"/>
    <polygon points="1120,550 1088,793 1152,793" fill="hsl(304 38% 30%)" opacity="0.70"/>
    <rect x="1116" y="749" width="8" height="56" fill="hsl(212 26% 24%)" opacity="0.72"/>
    <polygon points="1051,611 1003,754 1099,754" fill="hsl(304 38% 30%)" opacity="0.72"/>
    <rect x="1045" y="728" width="12" height="33" fill="hsl(212 26% 24%)" opacity="0.72"/>
    <polygon points="1441,598 1407,762 1475,762" fill="hsl(304 38% 30%)" opacity="0.78"/>
    <rect x="1437" y="732" width="8" height="38" fill="hsl(212 26% 24%)" opacity="0.72"/>
  </g>

  <rect x="64" y="676" width="1472" height="184" rx="22" fill="#081517" opacity="0.54"/>
  <text x="118" y="726" fill="#d9e8c8" font-family="Poppins, Arial, sans-serif" font-size="28" font-weight="700">RES</text>
  <text x="118" y="792" fill="#ffffff" font-family="Poppins, Arial, sans-serif" font-size="66.0" font-weight="800">SYCS Insaat</text>
  

  <rect width="1600" height="900" fill="url(#vignette)"/>
</svg>
