<?xml version="1.0" encoding="UTF-8"?>
<svg xmlns="http://www.w3.org/2000/svg" viewBox="0 0 1600 900" role="img" aria-label="Tamer Tatli">
  <defs>
    <linearGradient id="bg" x1="0" y1="0" x2="0" y2="1">
      <stop offset="0%" stop-color="hsl(314 45% 25%)"/>
      <stop offset="100%" stop-color="hsl(232 40% 38%)"/>
    </linearGradient>
    <linearGradient id="fog" x1="0" y1="0" x2="1" y2="0">
      <stop offset="0%" stop-color="hsl(194 20% 84%)" stop-opacity="0.22"/>
      <stop offset="50%" stop-color="#ffffff" stop-opacity="0.08"/>
      <stop offset="100%" stop-color="hsl(194 20% 84%)" stop-opacity="0.22"/>
    </linearGradient>
    <radialGradient id="vignette" cx="50%" cy="45%" r="70%">
      <stop offset="65%" stop-color="rgba(0,0,0,0)"/>
      <stop offset="100%" stop-color="rgba(0,0,0,0.35)"/>
    </radialGradient>
  </defs>

  <rect width="1600" height="900" fill="url(#bg)"/>
  <circle cx="1345" cy="175" r="99" fill="#f4efd4" opacity="0.34"/>

  <path d="M0 432 Q115 403 229 386 Q343 402 457 360 Q572 406 686 362 Q800 382 914 352 Q1029 412 1143 377 Q1257 412 1371 389 Q1486 384 1600 336 L1600 900 L0 900 Z" fill="hsl(249 28% 23%)" opacity="0.48"/>
  <path d="M0 535 Q115 488 229 419 Q343 451 457 384 Q572 450 686 381 Q800 457 914 393 Q1029 479 1143 436 Q1257 449 1371 368 Q1486 494 1600 466 L1600 900 L0 900 Z" fill="hsl(236 26% 34%)" opacity="0.62"/>
  <path d="M0 633 Q115 584 229 545 Q343 604 457 555 Q572 575 686 523 Q800 595 914 549 Q1029 592 1143 559 Q1257 595 1371 558 Q1486 551 1600 487 L1600 900 L0 900 Z" fill="hsl(224 24% 42%)" opacity="0.78"/>

  <g>
    <polygon points="1502,541 1469,651 1535,651" fill="hsl(224 38% 26%)" opacity="0.79"/>
    <rect x="1498" y="631" width="8" height="25" fill="hsl(132 26% 24%)" opacity="0.72"/>
    <polygon points="266,515 234,659 298,659" fill="hsl(224 38% 26%)" opacity="0.88"/>
    <rect x="262" y="633" width="8" height="33" fill="hsl(132 26% 24%)" opacity="0.72"/>
    <polygon points="874,518 844,655 904,655" fill="hsl(214 36% 32%)" opacity="0.79"/>
    <rect x="870" y="630" width="7" height="32" fill="hsl(132 26% 24%)" opacity="0.72"/>
    <polygon points="1145,496 1120,655 1170,655" fill="hsl(214 36% 32%)" opacity="0.89"/>
    <rect x="1142" y="626" width="6" height="37" fill="hsl(132 26% 24%)" opacity="0.72"/>
    <polygon points="1517,495 1495,628 1539,628" fill="hsl(224 38% 26%)" opacity="0.70"/>
    <rect x="1514" y="604" width="5" height="31" fill="hsl(132 26% 24%)" opacity="0.72"/>
    <polygon points="172,525 143,631 201,631" fill="hsl(224 38% 26%)" opacity="0.88"/>
    <rect x="169" y="612" width="7" height="24" fill="hsl(132 26% 24%)" opacity="0.72"/>
    <polygon points="1185,476 1167,630 1203,630" fill="hsl(214 36% 32%)" opacity="0.72"/>
    <rect x="1183" y="602" width="4" height="35" fill="hsl(132 26% 24%)" opacity="0.72"/>
    <polygon points="239,488 206,617 272,617" fill="hsl(224 38% 26%)" opacity="0.79"/>
    <rect x="235" y="594" width="8" height="30" fill="hsl(132 26% 24%)" opacity="0.72"/>
    <polygon points="68,506 42,608 94,608" fill="hsl(214 36% 32%)" opacity="0.70"/>
    <rect x="65" y="590" width="6" height="23" fill="hsl(132 26% 24%)" opacity="0.72"/>
    <polygon points="88,526 67,620 109,620" fill="hsl(214 36% 32%)" opacity="0.69"/>
    <rect x="85" y="603" width="5" height="22" fill="hsl(132 26% 24%)" opacity="0.72"/>
    <polygon points="977,522 946,636 1008,636" fill="hsl(214 36% 32%)" opacity="0.85"/>
    <rect x="973" y="615" width="7" height="26" fill="hsl(132 26% 24%)" opacity="0.72"/>
    <polygon points="601,505 571,616 631,616" fill="hsl(214 36% 32%)" opacity="0.78"/>
    <rect x="597" y="596" width="7" height="26" fill="hsl(132 26% 24%)" opacity="0.72"/>
    <polygon points="30,564 1,660 59,660" fill="hsl(214 36% 32%)" opacity="0.84"/>
    <rect x="27" y="643" width="7" height="22" fill="hsl(132 26% 24%)" opacity="0.72"/>
    <polygon points="1410,524 1380,633 1440,633" fill="hsl(214 36% 32%)" opacity="0.80"/>
    <rect x="1406" y="613" width="7" height="25" fill="hsl(132 26% 24%)" opacity="0.72"/>
    <polygon points="1116,528 1090,640 1142,640" fill="hsl(214 36% 32%)" opacity="0.74"/>
    <rect x="1113" y="620" width="6" height="26" fill="hsl(132 26% 24%)" opacity="0.72"/>
    <polygon points="1151,509 1126,663 1176,663" fill="hsl(214 36% 32%)" opacity="0.82"/>
    <rect x="1148" y="635" width="6" height="35" fill="hsl(132 26% 24%)" opacity="0.72"/>
    <polygon points="775,546 749,655 801,655" fill="hsl(224 38% 26%)" opacity="0.78"/>
    <rect x="772" y="635" width="6" height="25" fill="hsl(132 26% 24%)" opacity="0.72"/>
    <polygon points="684,478 662,606 706,606" fill="hsl(214 36% 32%)" opacity="0.87"/>
    <rect x="681" y="583" width="5" height="29" fill="hsl(132 26% 24%)" opacity="0.72"/>
  </g>

  <rect y="646" width="1600" height="254" fill="url(#fog)"/>

  <g>
    <polygon points="1073,491 1039,737 1107,737" fill="hsl(224 38% 26%)" opacity="0.85"/>
    <rect x="1069" y="693" width="8" height="57" fill="hsl(132 26% 24%)" opacity="0.72"/>
    <polygon points="787,599 753,764 821,764" fill="hsl(224 38% 26%)" opacity="0.79"/>
    <rect x="783" y="734" width="8" height="38" fill="hsl(132 26% 24%)" opacity="0.72"/>
    <polygon points="261,625 232,814 290,814" fill="hsl(214 36% 32%)" opacity="0.72"/>
    <rect x="258" y="780" width="7" height="43" fill="hsl(132 26% 24%)" opacity="0.72"/>
    <polygon points="928,562 888,797 968,797" fill="hsl(224 38% 26%)" opacity="0.91"/>
    <rect x="923" y="755" width="10" height="54" fill="hsl(132 26% 24%)" opacity="0.72"/>
    <polygon points="869,582 826,782 912,782" fill="hsl(224 38% 26%)" opacity="0.72"/>
    <rect x="864" y="746" width="10" height="46" fill="hsl(132 26% 24%)" opacity="0.72"/>
    <polygon points="1527,567 1492,779 1562,779" fill="hsl(214 36% 32%)" opacity="0.78"/>
    <rect x="1523" y="741" width="8" height="49" fill="hsl(132 26% 24%)" opacity="0.72"/>
    <polygon points="447,642 408,812 486,812" fill="hsl(214 36% 32%)" opacity="0.88"/>
    <rect x="442" y="781" width="9" height="39" fill="hsl(132 26% 24%)" opacity="0.72"/>
    <polygon points="90,629 40,811 140,811" fill="hsl(214 36% 32%)" opacity="0.76"/>
    <rect x="84" y="778" width="12" height="42" fill="hsl(132 26% 24%)" opacity="0.72"/>
    <polygon points="379,541 336,756 422,756" fill="hsl(224 38% 26%)" opacity="0.78"/>
    <rect x="374" y="717" width="10" height="49" fill="hsl(132 26% 24%)" opacity="0.72"/>
    <polygon points="157,630 118,814 196,814" fill="hsl(214 36% 32%)" opacity="0.77"/>
    <rect x="152" y="781" width="9" height="42" fill="hsl(132 26% 24%)" opacity="0.72"/>
    <polygon points="1482,596 1444,794 1520,794" fill="hsl(214 36% 32%)" opacity="0.70"/>
    <rect x="1477" y="758" width="9" height="46" fill="hsl(132 26% 24%)" opacity="0.72"/>
    <polygon points="205,534 163,781 247,781" fill="hsl(224 38% 26%)" opacity="0.80"/>
    <rect x="200" y="737" width="10" height="57" fill="hsl(132 26% 24%)" opacity="0.72"/>
    <polygon points="925,593 885,784 965,784" fill="hsl(214 36% 32%)" opacity="0.91"/>
    <rect x="920" y="750" width="10" height="44" fill="hsl(132 26% 24%)" opacity="0.72"/>
    <polygon points="81,613 42,799 120,799" fill="hsl(214 36% 32%)" opacity="0.89"/>
    <rect x="76" y="766" width="9" height="43" fill="hsl(132 26% 24%)" opacity="0.72"/>
    <polygon points="517,527 477,740 557,740" fill="hsl(224 38% 26%)" opacity="0.87"/>
    <rect x="512" y="702" width="10" height="49" fill="hsl(132 26% 24%)" opacity="0.72"/>
    <polygon points="200,553 150,775 250,775" fill="hsl(224 38% 26%)" opacity="0.82"/>
    <rect x="194" y="735" width="12" height="51" fill="hsl(132 26% 24%)" opacity="0.72"/>
  </g>

  <rect x="64" y="676" width="1472" height="184" rx="22" fill="#081517" opacity="0.54"/>
  <text x="118" y="726" fill="#d9e8c8" font-family="Poppins, Arial, sans-serif" font-size="28" font-weight="700">Diger Projeler</text>
  <text x="118" y="792" fill="#ffffff" font-family="Poppins, Arial, sans-serif" font-size="66.0" font-weight="800">Tamer Tatli</text>
  

  <rect width="1600" height="900" fill="url(#vignette)"/>
</svg>
