<?xml version="1.0" encoding="UTF-8"?>
<svg xmlns="http://www.w3.org/2000/svg" viewBox="0 0 1600 900" role="img" aria-label="Tastan Maden">
  <defs>
    <linearGradient id="bg" x1="0" y1="0" x2="0" y2="1">
      <stop offset="0%" stop-color="hsl(343 34% 23%)"/>
      <stop offset="100%" stop-color="hsl(261 32% 39%)"/>
    </linearGradient>
    <linearGradient id="fog" x1="0" y1="0" x2="1" y2="0">
      <stop offset="0%" stop-color="hsl(223 20% 84%)" stop-opacity="0.22"/>
      <stop offset="50%" stop-color="#ffffff" stop-opacity="0.08"/>
      <stop offset="100%" stop-color="hsl(223 20% 84%)" stop-opacity="0.22"/>
    </linearGradient>
    <radialGradient id="vignette" cx="50%" cy="45%" r="70%">
      <stop offset="65%" stop-color="rgba(0,0,0,0)"/>
      <stop offset="100%" stop-color="rgba(0,0,0,0.35)"/>
    </radialGradient>
  </defs>

  <rect width="1600" height="900" fill="url(#bg)"/>
  <circle cx="1217" cy="186" r="71" fill="#f4efd4" opacity="0.34"/>

  <path d="M0 434 Q115 395 229 360 Q343 398 457 353 Q572 393 686 361 Q800 387 914 334 Q1029 386 1143 360 Q1257 391 1371 339 Q1486 389 1600 328 L1600 900 L0 900 Z" fill="hsl(278 28% 27%)" opacity="0.48"/>
  <path d="M0 535 Q115 497 229 436 Q343 470 457 417 Q572 472 686 423 Q800 503 914 447 Q1029 456 1143 356 Q1257 473 1371 413 Q1486 462 1600 385 L1600 900 L0 900 Z" fill="hsl(265 26% 31%)" opacity="0.62"/>
  <path d="M0 627 Q115 585 229 545 Q343 575 457 505 Q572 576 686 538 Q800 548 914 475 Q1029 570 1143 522 Q1257 601 1371 576 Q1486 565 1600 491 L1600 900 L0 900 Z" fill="hsl(253 24% 42%)" opacity="0.78"/>

  <g>
    <polygon points="343,534 314,644 372,644" fill="hsl(243 36% 36%)" opacity="0.89"/>
    <rect x="340" y="624" width="7" height="25" fill="hsl(161 26% 24%)" opacity="0.72"/>
    <polygon points="682,513 662,649 702,649" fill="hsl(253 38% 28%)" opacity="0.90"/>
    <rect x="680" y="625" width="5" height="31" fill="hsl(161 26% 24%)" opacity="0.72"/>
    <polygon points="325,451 299,613 351,613" fill="hsl(253 38% 28%)" opacity="0.81"/>
    <rect x="322" y="584" width="6" height="37" fill="hsl(161 26% 24%)" opacity="0.72"/>
    <polygon points="1252,487 1232,646 1272,646" fill="hsl(253 38% 28%)" opacity="0.89"/>
    <rect x="1250" y="617" width="5" height="37" fill="hsl(161 26% 24%)" opacity="0.72"/>
    <polygon points="343,502 315,660 371,660" fill="hsl(253 38% 28%)" opacity="0.86"/>
    <rect x="340" y="632" width="7" height="36" fill="hsl(161 26% 24%)" opacity="0.72"/>
    <polygon points="957,490 928,607 986,607" fill="hsl(253 38% 28%)" opacity="0.81"/>
    <rect x="954" y="586" width="7" height="27" fill="hsl(161 26% 24%)" opacity="0.72"/>
    <polygon points="707,501 688,663 726,663" fill="hsl(243 36% 36%)" opacity="0.77"/>
    <rect x="705" y="634" width="5" height="37" fill="hsl(161 26% 24%)" opacity="0.72"/>
    <polygon points="1579,546 1553,664 1605,664" fill="hsl(243 36% 36%)" opacity="0.75"/>
    <rect x="1576" y="643" width="6" height="27" fill="hsl(161 26% 24%)" opacity="0.72"/>
    <polygon points="580,467 560,605 600,605" fill="hsl(253 38% 28%)" opacity="0.92"/>
    <rect x="578" y="580" width="5" height="32" fill="hsl(161 26% 24%)" opacity="0.72"/>
    <polygon points="1406,451 1378,615 1434,615" fill="hsl(243 36% 36%)" opacity="0.69"/>
    <rect x="1403" y="585" width="7" height="38" fill="hsl(161 26% 24%)" opacity="0.72"/>
    <polygon points="249,540 226,655 272,655" fill="hsl(253 38% 28%)" opacity="0.82"/>
    <rect x="246" y="634" width="6" height="26" fill="hsl(161 26% 24%)" opacity="0.72"/>
    <polygon points="1577,541 1557,644 1597,644" fill="hsl(243 36% 36%)" opacity="0.80"/>
    <rect x="1575" y="625" width="5" height="24" fill="hsl(161 26% 24%)" opacity="0.72"/>
    <polygon points="522,537 494,661 550,661" fill="hsl(243 36% 36%)" opacity="0.76"/>
    <rect x="519" y="639" width="7" height="29" fill="hsl(161 26% 24%)" opacity="0.72"/>
    <polygon points="1028,530 1001,622 1055,622" fill="hsl(253 38% 28%)" opacity="0.89"/>
    <rect x="1025" y="605" width="6" height="21" fill="hsl(161 26% 24%)" opacity="0.72"/>
    <polygon points="406,496 376,639 436,639" fill="hsl(253 38% 28%)" opacity="0.81"/>
    <rect x="402" y="613" width="7" height="33" fill="hsl(161 26% 24%)" opacity="0.72"/>
    <polygon points="1498,488 1477,602 1519,602" fill="hsl(243 36% 36%)" opacity="0.85"/>
    <rect x="1495" y="581" width="5" height="26" fill="hsl(161 26% 24%)" opacity="0.72"/>
    <polygon points="1186,508 1168,629 1204,629" fill="hsl(253 38% 28%)" opacity="0.71"/>
    <rect x="1184" y="607" width="4" height="28" fill="hsl(161 26% 24%)" opacity="0.72"/>
    <polygon points="654,521 621,638 687,638" fill="hsl(253 38% 28%)" opacity="0.89"/>
    <rect x="650" y="617" width="8" height="27" fill="hsl(161 26% 24%)" opacity="0.72"/>
  </g>

  <rect y="646" width="1600" height="254" fill="url(#fog)"/>

  <g>
    <polygon points="216,606 180,813 252,813" fill="hsl(253 38% 28%)" opacity="0.73"/>
    <rect x="212" y="776" width="9" height="48" fill="hsl(161 26% 24%)" opacity="0.72"/>
    <polygon points="412,611 365,759 459,759" fill="hsl(253 38% 28%)" opacity="0.70"/>
    <rect x="406" y="732" width="11" height="34" fill="hsl(161 26% 24%)" opacity="0.72"/>
    <polygon points="412,523 376,771 448,771" fill="hsl(243 36% 36%)" opacity="0.88"/>
    <rect x="408" y="726" width="9" height="57" fill="hsl(161 26% 24%)" opacity="0.72"/>
    <polygon points="1367,602 1318,797 1416,797" fill="hsl(253 38% 28%)" opacity="0.79"/>
    <rect x="1361" y="762" width="12" height="45" fill="hsl(161 26% 24%)" opacity="0.72"/>
    <polygon points="197,607 146,818 248,818" fill="hsl(243 36% 36%)" opacity="0.71"/>
    <rect x="191" y="780" width="12" height="49" fill="hsl(161 26% 24%)" opacity="0.72"/>
    <polygon points="1239,615 1210,762 1268,762" fill="hsl(243 36% 36%)" opacity="0.68"/>
    <rect x="1236" y="736" width="7" height="34" fill="hsl(161 26% 24%)" opacity="0.72"/>
    <polygon points="1446,561 1407,775 1485,775" fill="hsl(243 36% 36%)" opacity="0.90"/>
    <rect x="1441" y="736" width="9" height="49" fill="hsl(161 26% 24%)" opacity="0.72"/>
    <polygon points="1250,632 1202,779 1298,779" fill="hsl(253 38% 28%)" opacity="0.79"/>
    <rect x="1244" y="753" width="12" height="34" fill="hsl(161 26% 24%)" opacity="0.72"/>
    <polygon points="860,522 807,745 913,745" fill="hsl(253 38% 28%)" opacity="0.91"/>
    <rect x="854" y="705" width="13" height="51" fill="hsl(161 26% 24%)" opacity="0.72"/>
    <polygon points="1465,649 1426,808 1504,808" fill="hsl(253 38% 28%)" opacity="0.90"/>
    <rect x="1460" y="779" width="9" height="37" fill="hsl(161 26% 24%)" opacity="0.72"/>
    <polygon points="936,611 893,786 979,786" fill="hsl(243 36% 36%)" opacity="0.68"/>
    <rect x="931" y="754" width="10" height="40" fill="hsl(161 26% 24%)" opacity="0.72"/>
    <polygon points="920,651 875,807 965,807" fill="hsl(243 36% 36%)" opacity="0.80"/>
    <rect x="915" y="779" width="11" height="36" fill="hsl(161 26% 24%)" opacity="0.72"/>
    <polygon points="1297,560 1243,731 1351,731" fill="hsl(253 38% 28%)" opacity="0.68"/>
    <rect x="1291" y="700" width="13" height="39" fill="hsl(161 26% 24%)" opacity="0.72"/>
    <polygon points="1309,543 1274,742 1344,742" fill="hsl(253 38% 28%)" opacity="0.76"/>
    <rect x="1305" y="706" width="8" height="46" fill="hsl(161 26% 24%)" opacity="0.72"/>
    <polygon points="1523,533 1488,751 1558,751" fill="hsl(243 36% 36%)" opacity="0.71"/>
    <rect x="1519" y="712" width="8" height="50" fill="hsl(161 26% 24%)" opacity="0.72"/>
    <polygon points="1340,645 1293,816 1387,816" fill="hsl(243 36% 36%)" opacity="0.90"/>
    <rect x="1334" y="785" width="11" height="39" fill="hsl(161 26% 24%)" opacity="0.72"/>
  </g>

  <rect x="64" y="676" width="1472" height="184" rx="22" fill="#081517" opacity="0.54"/>
  <text x="118" y="726" fill="#d9e8c8" font-family="Poppins, Arial, sans-serif" font-size="28" font-weight="700">Maden Izinleri</text>
  <text x="118" y="792" fill="#ffffff" font-family="Poppins, Arial, sans-serif" font-size="66.0" font-weight="800">Tastan Maden</text>
  

  <rect width="1600" height="900" fill="url(#vignette)"/>
</svg>
