<?xml version="1.0" encoding="UTF-8"?>
<svg xmlns="http://www.w3.org/2000/svg" viewBox="0 0 1600 900" role="img" aria-label="TEDAS">
  <defs>
    <linearGradient id="bg" x1="0" y1="0" x2="0" y2="1">
      <stop offset="0%" stop-color="hsl(314 36% 25%)"/>
      <stop offset="100%" stop-color="hsl(232 35% 42%)"/>
    </linearGradient>
    <linearGradient id="fog" x1="0" y1="0" x2="1" y2="0">
      <stop offset="0%" stop-color="hsl(194 20% 84%)" stop-opacity="0.22"/>
      <stop offset="50%" stop-color="#ffffff" stop-opacity="0.08"/>
      <stop offset="100%" stop-color="hsl(194 20% 84%)" stop-opacity="0.22"/>
    </linearGradient>
    <radialGradient id="vignette" cx="50%" cy="45%" r="70%">
      <stop offset="65%" stop-color="rgba(0,0,0,0)"/>
      <stop offset="100%" stop-color="rgba(0,0,0,0.35)"/>
    </radialGradient>
  </defs>

  <rect width="1600" height="900" fill="url(#bg)"/>
  <circle cx="1368" cy="189" r="108" fill="#f4efd4" opacity="0.34"/>

  <path d="M0 419 Q115 380 229 347 Q343 348 457 287 Q572 384 686 358 Q800 383 914 368 Q1029 363 1143 325 Q1257 337 1371 275 Q1486 380 1600 351 L1600 900 L0 900 Z" fill="hsl(249 28% 27%)" opacity="0.48"/>
  <path d="M0 524 Q115 471 229 437 Q343 471 457 411 Q572 477 686 426 Q800 430 914 332 Q1029 483 1143 441 Q1257 466 1371 413 Q1486 479 1600 430 L1600 900 L0 900 Z" fill="hsl(236 26% 34%)" opacity="0.62"/>
  <path d="M0 624 Q115 564 229 502 Q343 556 457 487 Q572 593 686 557 Q800 594 914 559 Q1029 553 1143 461 Q1257 564 1371 486 Q1486 579 1600 525 L1600 900 L0 900 Z" fill="hsl(224 24% 45%)" opacity="0.78"/>

  <g>
    <polygon points="1245,467 1213,622 1277,622" fill="hsl(224 38% 29%)" opacity="0.84"/>
    <rect x="1241" y="594" width="8" height="36" fill="hsl(132 26% 24%)" opacity="0.72"/>
    <polygon points="1546,470 1525,627 1567,627" fill="hsl(224 38% 29%)" opacity="0.89"/>
    <rect x="1543" y="599" width="5" height="36" fill="hsl(132 26% 24%)" opacity="0.72"/>
    <polygon points="276,521 251,618 301,618" fill="hsl(214 36% 34%)" opacity="0.83"/>
    <rect x="273" y="601" width="6" height="22" fill="hsl(132 26% 24%)" opacity="0.72"/>
    <polygon points="1061,455 1041,619 1081,619" fill="hsl(214 36% 34%)" opacity="0.84"/>
    <rect x="1059" y="589" width="5" height="38" fill="hsl(132 26% 24%)" opacity="0.72"/>
    <polygon points="1361,473 1331,605 1391,605" fill="hsl(224 38% 29%)" opacity="0.82"/>
    <rect x="1357" y="581" width="7" height="30" fill="hsl(132 26% 24%)" opacity="0.72"/>
    <polygon points="1407,526 1388,644 1426,644" fill="hsl(214 36% 34%)" opacity="0.74"/>
    <rect x="1405" y="623" width="5" height="27" fill="hsl(132 26% 24%)" opacity="0.72"/>
    <polygon points="1221,538 1198,630 1244,630" fill="hsl(224 38% 29%)" opacity="0.80"/>
    <rect x="1218" y="613" width="6" height="21" fill="hsl(132 26% 24%)" opacity="0.72"/>
    <polygon points="560,442 530,603 590,603" fill="hsl(224 38% 29%)" opacity="0.74"/>
    <rect x="556" y="574" width="7" height="37" fill="hsl(132 26% 24%)" opacity="0.72"/>
    <polygon points="682,494 664,610 700,610" fill="hsl(214 36% 34%)" opacity="0.79"/>
    <rect x="680" y="589" width="4" height="27" fill="hsl(132 26% 24%)" opacity="0.72"/>
    <polygon points="1562,567 1541,660 1583,660" fill="hsl(214 36% 34%)" opacity="0.72"/>
    <rect x="1559" y="643" width="5" height="21" fill="hsl(132 26% 24%)" opacity="0.72"/>
    <polygon points="709,463 687,623 731,623" fill="hsl(214 36% 34%)" opacity="0.73"/>
    <rect x="706" y="594" width="5" height="37" fill="hsl(132 26% 24%)" opacity="0.72"/>
    <polygon points="656,501 630,610 682,610" fill="hsl(224 38% 29%)" opacity="0.83"/>
    <rect x="653" y="590" width="6" height="25" fill="hsl(132 26% 24%)" opacity="0.72"/>
    <polygon points="1177,504 1150,621 1204,621" fill="hsl(224 38% 29%)" opacity="0.77"/>
    <rect x="1174" y="600" width="6" height="27" fill="hsl(132 26% 24%)" opacity="0.72"/>
    <polygon points="528,524 502,651 554,651" fill="hsl(224 38% 29%)" opacity="0.78"/>
    <rect x="525" y="628" width="6" height="29" fill="hsl(132 26% 24%)" opacity="0.72"/>
    <polygon points="714,548 687,647 741,647" fill="hsl(224 38% 29%)" opacity="0.78"/>
    <rect x="711" y="629" width="6" height="23" fill="hsl(132 26% 24%)" opacity="0.72"/>
    <polygon points="763,462 741,604 785,604" fill="hsl(224 38% 29%)" opacity="0.69"/>
    <rect x="760" y="578" width="5" height="33" fill="hsl(132 26% 24%)" opacity="0.72"/>
    <polygon points="1217,549 1187,650 1247,650" fill="hsl(214 36% 34%)" opacity="0.85"/>
    <rect x="1213" y="632" width="7" height="23" fill="hsl(132 26% 24%)" opacity="0.72"/>
    <polygon points="685,523 658,641 712,641" fill="hsl(224 38% 29%)" opacity="0.77"/>
    <rect x="682" y="620" width="6" height="27" fill="hsl(132 26% 24%)" opacity="0.72"/>
  </g>

  <rect y="646" width="1600" height="254" fill="url(#fog)"/>

  <g>
    <polygon points="533,522 500,768 566,768" fill="hsl(224 38% 29%)" opacity="0.80"/>
    <rect x="529" y="724" width="8" height="57" fill="hsl(132 26% 24%)" opacity="0.72"/>
    <polygon points="1217,620 1176,754 1258,754" fill="hsl(224 38% 29%)" opacity="0.75"/>
    <rect x="1212" y="730" width="10" height="31" fill="hsl(132 26% 24%)" opacity="0.72"/>
    <polygon points="499,604 446,781 552,781" fill="hsl(214 36% 34%)" opacity="0.75"/>
    <rect x="493" y="749" width="13" height="41" fill="hsl(132 26% 24%)" opacity="0.72"/>
    <polygon points="1448,605 1413,804 1483,804" fill="hsl(224 38% 29%)" opacity="0.89"/>
    <rect x="1444" y="768" width="8" height="46" fill="hsl(132 26% 24%)" opacity="0.72"/>
    <polygon points="444,537 409,780 479,780" fill="hsl(214 36% 34%)" opacity="0.71"/>
    <rect x="440" y="736" width="8" height="56" fill="hsl(132 26% 24%)" opacity="0.72"/>
    <polygon points="313,577 269,793 357,793" fill="hsl(224 38% 29%)" opacity="0.87"/>
    <rect x="308" y="754" width="11" height="50" fill="hsl(132 26% 24%)" opacity="0.72"/>
    <polygon points="949,573 902,786 996,786" fill="hsl(214 36% 34%)" opacity="0.87"/>
    <rect x="943" y="748" width="11" height="49" fill="hsl(132 26% 24%)" opacity="0.72"/>
    <polygon points="1143,640 1113,806 1173,806" fill="hsl(224 38% 29%)" opacity="0.78"/>
    <rect x="1139" y="776" width="7" height="38" fill="hsl(132 26% 24%)" opacity="0.72"/>
    <polygon points="277,616 234,749 320,749" fill="hsl(214 36% 34%)" opacity="0.77"/>
    <rect x="272" y="725" width="10" height="31" fill="hsl(132 26% 24%)" opacity="0.72"/>
    <polygon points="546,585 513,809 579,809" fill="hsl(224 38% 29%)" opacity="0.76"/>
    <rect x="542" y="769" width="8" height="52" fill="hsl(132 26% 24%)" opacity="0.72"/>
    <polygon points="1397,640 1353,791 1441,791" fill="hsl(224 38% 29%)" opacity="0.77"/>
    <rect x="1392" y="764" width="11" height="35" fill="hsl(132 26% 24%)" opacity="0.72"/>
    <polygon points="1136,612 1085,765 1187,765" fill="hsl(214 36% 34%)" opacity="0.74"/>
    <rect x="1130" y="737" width="12" height="35" fill="hsl(132 26% 24%)" opacity="0.72"/>
    <polygon points="596,578 544,778 648,778" fill="hsl(224 38% 29%)" opacity="0.76"/>
    <rect x="590" y="742" width="12" height="46" fill="hsl(132 26% 24%)" opacity="0.72"/>
    <polygon points="651,605 615,810 687,810" fill="hsl(224 38% 29%)" opacity="0.71"/>
    <rect x="647" y="773" width="9" height="47" fill="hsl(132 26% 24%)" opacity="0.72"/>
    <polygon points="212,533 167,757 257,757" fill="hsl(224 38% 29%)" opacity="0.83"/>
    <rect x="207" y="717" width="11" height="52" fill="hsl(132 26% 24%)" opacity="0.72"/>
    <polygon points="231,596 202,785 260,785" fill="hsl(214 36% 34%)" opacity="0.77"/>
    <rect x="228" y="751" width="7" height="43" fill="hsl(132 26% 24%)" opacity="0.72"/>
  </g>

  <rect x="64" y="676" width="1472" height="184" rx="22" fill="#081517" opacity="0.54"/>
  <text x="118" y="726" fill="#d9e8c8" font-family="Poppins, Arial, sans-serif" font-size="28" font-weight="700">Devlet</text>
  <text x="118" y="792" fill="#ffffff" font-family="Poppins, Arial, sans-serif" font-size="66.0" font-weight="800">TEDAS</text>
  

  <rect width="1600" height="900" fill="url(#vignette)"/>
</svg>
