<?xml version="1.0" encoding="UTF-8"?>
<svg xmlns="http://www.w3.org/2000/svg" viewBox="0 0 1600 900" role="img" aria-label="TEIAS">
  <defs>
    <linearGradient id="bg" x1="0" y1="0" x2="0" y2="1">
      <stop offset="0%" stop-color="hsl(348 34% 22%)"/>
      <stop offset="100%" stop-color="hsl(266 38% 41%)"/>
    </linearGradient>
    <linearGradient id="fog" x1="0" y1="0" x2="1" y2="0">
      <stop offset="0%" stop-color="hsl(228 20% 84%)" stop-opacity="0.22"/>
      <stop offset="50%" stop-color="#ffffff" stop-opacity="0.08"/>
      <stop offset="100%" stop-color="hsl(228 20% 84%)" stop-opacity="0.22"/>
    </linearGradient>
    <radialGradient id="vignette" cx="50%" cy="45%" r="70%">
      <stop offset="65%" stop-color="rgba(0,0,0,0)"/>
      <stop offset="100%" stop-color="rgba(0,0,0,0.35)"/>
    </radialGradient>
  </defs>

  <rect width="1600" height="900" fill="url(#bg)"/>
  <circle cx="1221" cy="275" r="99" fill="#f4efd4" opacity="0.34"/>

  <path d="M0 422 Q115 388 229 332 Q343 375 457 315 Q572 373 686 338 Q800 368 914 329 Q1029 400 1143 358 Q1257 352 1371 291 Q1486 378 1600 312 L1600 900 L0 900 Z" fill="hsl(283 28% 26%)" opacity="0.48"/>
  <path d="M0 517 Q115 457 229 410 Q343 475 457 432 Q572 467 686 427 Q800 470 914 423 Q1029 484 1143 432 Q1257 453 1371 405 Q1486 460 1600 394 L1600 900 L0 900 Z" fill="hsl(270 26% 34%)" opacity="0.62"/>
  <path d="M0 632 Q115 579 229 534 Q343 590 457 555 Q572 534 686 458 Q800 538 914 430 Q1029 553 1143 452 Q1257 539 1371 428 Q1486 570 1600 514 L1600 900 L0 900 Z" fill="hsl(258 24% 40%)" opacity="0.78"/>

  <g>
    <polygon points="711,443 690,605 732,605" fill="hsl(248 36% 33%)" opacity="0.87"/>
    <rect x="708" y="576" width="5" height="37" fill="hsl(166 26% 24%)" opacity="0.72"/>
    <polygon points="387,472 363,601 411,601" fill="hsl(248 36% 33%)" opacity="0.75"/>
    <rect x="384" y="578" width="6" height="30" fill="hsl(166 26% 24%)" opacity="0.72"/>
    <polygon points="753,513 727,643 779,643" fill="hsl(248 36% 33%)" opacity="0.83"/>
    <rect x="750" y="620" width="6" height="30" fill="hsl(166 26% 24%)" opacity="0.72"/>
    <polygon points="1238,470 1206,621 1270,621" fill="hsl(258 38% 28%)" opacity="0.72"/>
    <rect x="1234" y="594" width="8" height="35" fill="hsl(166 26% 24%)" opacity="0.72"/>
    <polygon points="154,479 124,637 184,637" fill="hsl(248 36% 33%)" opacity="0.69"/>
    <rect x="150" y="609" width="7" height="36" fill="hsl(166 26% 24%)" opacity="0.72"/>
    <polygon points="410,505 391,617 429,617" fill="hsl(258 38% 28%)" opacity="0.69"/>
    <rect x="408" y="597" width="5" height="26" fill="hsl(166 26% 24%)" opacity="0.72"/>
    <polygon points="100,494 76,628 124,628" fill="hsl(248 36% 33%)" opacity="0.74"/>
    <rect x="97" y="604" width="6" height="31" fill="hsl(166 26% 24%)" opacity="0.72"/>
    <polygon points="1285,487 1260,644 1310,644" fill="hsl(258 38% 28%)" opacity="0.69"/>
    <rect x="1282" y="616" width="6" height="36" fill="hsl(166 26% 24%)" opacity="0.72"/>
    <polygon points="91,480 57,608 125,608" fill="hsl(258 38% 28%)" opacity="0.83"/>
    <rect x="87" y="585" width="8" height="29" fill="hsl(166 26% 24%)" opacity="0.72"/>
    <polygon points="836,525 815,639 857,639" fill="hsl(258 38% 28%)" opacity="0.81"/>
    <rect x="833" y="618" width="5" height="26" fill="hsl(166 26% 24%)" opacity="0.72"/>
    <polygon points="541,482 512,624 570,624" fill="hsl(258 38% 28%)" opacity="0.86"/>
    <rect x="538" y="598" width="7" height="33" fill="hsl(166 26% 24%)" opacity="0.72"/>
    <polygon points="1186,481 1164,620 1208,620" fill="hsl(248 36% 33%)" opacity="0.86"/>
    <rect x="1183" y="595" width="5" height="32" fill="hsl(166 26% 24%)" opacity="0.72"/>
    <polygon points="570,489 546,630 594,630" fill="hsl(258 38% 28%)" opacity="0.92"/>
    <rect x="567" y="605" width="6" height="32" fill="hsl(166 26% 24%)" opacity="0.72"/>
    <polygon points="730,465 705,617 755,617" fill="hsl(258 38% 28%)" opacity="0.87"/>
    <rect x="727" y="590" width="6" height="35" fill="hsl(166 26% 24%)" opacity="0.72"/>
    <polygon points="508,551 478,658 538,658" fill="hsl(258 38% 28%)" opacity="0.90"/>
    <rect x="504" y="639" width="7" height="25" fill="hsl(166 26% 24%)" opacity="0.72"/>
    <polygon points="440,506 407,654 473,654" fill="hsl(248 36% 33%)" opacity="0.81"/>
    <rect x="436" y="627" width="8" height="34" fill="hsl(166 26% 24%)" opacity="0.72"/>
    <polygon points="92,495 67,639 117,639" fill="hsl(248 36% 33%)" opacity="0.86"/>
    <rect x="89" y="613" width="6" height="33" fill="hsl(166 26% 24%)" opacity="0.72"/>
    <polygon points="740,538 718,657 762,657" fill="hsl(248 36% 33%)" opacity="0.87"/>
    <rect x="737" y="636" width="5" height="27" fill="hsl(166 26% 24%)" opacity="0.72"/>
  </g>

  <rect y="646" width="1600" height="254" fill="url(#fog)"/>

  <g>
    <polygon points="243,587 190,755 296,755" fill="hsl(248 36% 33%)" opacity="0.83"/>
    <rect x="237" y="725" width="13" height="39" fill="hsl(166 26% 24%)" opacity="0.72"/>
    <polygon points="448,577 413,807 483,807" fill="hsl(248 36% 33%)" opacity="0.77"/>
    <rect x="444" y="766" width="8" height="53" fill="hsl(166 26% 24%)" opacity="0.72"/>
    <polygon points="1077,529 1025,745 1129,745" fill="hsl(248 36% 33%)" opacity="0.89"/>
    <rect x="1071" y="706" width="12" height="50" fill="hsl(166 26% 24%)" opacity="0.72"/>
    <polygon points="1007,550 974,776 1040,776" fill="hsl(248 36% 33%)" opacity="0.69"/>
    <rect x="1003" y="735" width="8" height="52" fill="hsl(166 26% 24%)" opacity="0.72"/>
    <polygon points="1111,515 1078,737 1144,737" fill="hsl(258 38% 28%)" opacity="0.87"/>
    <rect x="1107" y="697" width="8" height="51" fill="hsl(166 26% 24%)" opacity="0.72"/>
    <polygon points="1402,562 1353,763 1451,763" fill="hsl(248 36% 33%)" opacity="0.78"/>
    <rect x="1396" y="727" width="12" height="46" fill="hsl(166 26% 24%)" opacity="0.72"/>
    <polygon points="33,549 -21,763 87,763" fill="hsl(258 38% 28%)" opacity="0.79"/>
    <rect x="27" y="724" width="13" height="49" fill="hsl(166 26% 24%)" opacity="0.72"/>
    <polygon points="781,642 752,810 810,810" fill="hsl(258 38% 28%)" opacity="0.80"/>
    <rect x="778" y="780" width="7" height="39" fill="hsl(166 26% 24%)" opacity="0.72"/>
    <polygon points="523,617 470,799 576,799" fill="hsl(248 36% 33%)" opacity="0.71"/>
    <rect x="517" y="766" width="13" height="42" fill="hsl(166 26% 24%)" opacity="0.72"/>
    <polygon points="223,609 192,788 254,788" fill="hsl(258 38% 28%)" opacity="0.73"/>
    <rect x="219" y="756" width="7" height="41" fill="hsl(166 26% 24%)" opacity="0.72"/>
    <polygon points="1577,635 1533,788 1621,788" fill="hsl(248 36% 33%)" opacity="0.77"/>
    <rect x="1572" y="760" width="11" height="35" fill="hsl(166 26% 24%)" opacity="0.72"/>
    <polygon points="737,632 701,804 773,804" fill="hsl(248 36% 33%)" opacity="0.89"/>
    <rect x="733" y="773" width="9" height="40" fill="hsl(166 26% 24%)" opacity="0.72"/>
    <polygon points="921,642 871,793 971,793" fill="hsl(248 36% 33%)" opacity="0.76"/>
    <rect x="915" y="766" width="12" height="35" fill="hsl(166 26% 24%)" opacity="0.72"/>
    <polygon points="1057,574 1017,731 1097,731" fill="hsl(258 38% 28%)" opacity="0.85"/>
    <rect x="1052" y="703" width="10" height="36" fill="hsl(166 26% 24%)" opacity="0.72"/>
    <polygon points="185,511 136,750 234,750" fill="hsl(248 36% 33%)" opacity="0.71"/>
    <rect x="179" y="707" width="12" height="55" fill="hsl(166 26% 24%)" opacity="0.72"/>
    <polygon points="1101,625 1057,786 1145,786" fill="hsl(248 36% 33%)" opacity="0.76"/>
    <rect x="1096" y="757" width="11" height="37" fill="hsl(166 26% 24%)" opacity="0.72"/>
  </g>

  <rect x="64" y="676" width="1472" height="184" rx="22" fill="#081517" opacity="0.54"/>
  <text x="118" y="726" fill="#d9e8c8" font-family="Poppins, Arial, sans-serif" font-size="28" font-weight="700">Devlet</text>
  <text x="118" y="792" fill="#ffffff" font-family="Poppins, Arial, sans-serif" font-size="66.0" font-weight="800">TEIAS</text>
  

  <rect width="1600" height="900" fill="url(#vignette)"/>
</svg>
