<?xml version="1.0" encoding="UTF-8"?>
<svg xmlns="http://www.w3.org/2000/svg" viewBox="0 0 1600 900" role="img" aria-label="Tracim">
  <defs>
    <linearGradient id="bg" x1="0" y1="0" x2="0" y2="1">
      <stop offset="0%" stop-color="hsl(274 38% 20%)"/>
      <stop offset="100%" stop-color="hsl(192 41% 39%)"/>
    </linearGradient>
    <linearGradient id="fog" x1="0" y1="0" x2="1" y2="0">
      <stop offset="0%" stop-color="hsl(154 20% 84%)" stop-opacity="0.22"/>
      <stop offset="50%" stop-color="#ffffff" stop-opacity="0.08"/>
      <stop offset="100%" stop-color="hsl(154 20% 84%)" stop-opacity="0.22"/>
    </linearGradient>
    <radialGradient id="vignette" cx="50%" cy="45%" r="70%">
      <stop offset="65%" stop-color="rgba(0,0,0,0)"/>
      <stop offset="100%" stop-color="rgba(0,0,0,0.35)"/>
    </radialGradient>
  </defs>

  <rect width="1600" height="900" fill="url(#bg)"/>
  <circle cx="1151" cy="155" r="69" fill="#f4efd4" opacity="0.34"/>

  <path d="M0 439 Q115 370 229 315 Q343 407 457 371 Q572 402 686 349 Q800 393 914 351 Q1029 383 1143 307 Q1257 392 1371 342 Q1486 383 1600 324 L1600 900 L0 900 Z" fill="hsl(209 28% 25%)" opacity="0.48"/>
  <path d="M0 516 Q115 463 229 400 Q343 454 457 383 Q572 462 686 417 Q800 454 914 387 Q1029 457 1143 395 Q1257 422 1371 344 Q1486 449 1600 402 L1600 900 L0 900 Z" fill="hsl(196 26% 30%)" opacity="0.62"/>
  <path d="M0 616 Q115 588 229 552 Q343 570 457 542 Q572 545 686 488 Q800 578 914 522 Q1029 585 1143 562 Q1257 582 1371 553 Q1486 563 1600 531 L1600 900 L0 900 Z" fill="hsl(184 24% 44%)" opacity="0.78"/>

  <g>
    <polygon points="275,521 250,621 300,621" fill="hsl(174 36% 35%)" opacity="0.89"/>
    <rect x="272" y="603" width="6" height="23" fill="hsl(92 26% 24%)" opacity="0.72"/>
    <polygon points="310,484 277,623 343,623" fill="hsl(174 36% 35%)" opacity="0.71"/>
    <rect x="306" y="598" width="8" height="32" fill="hsl(92 26% 24%)" opacity="0.72"/>
    <polygon points="1533,478 1510,624 1556,624" fill="hsl(184 38% 26%)" opacity="0.74"/>
    <rect x="1530" y="598" width="6" height="34" fill="hsl(92 26% 24%)" opacity="0.72"/>
    <polygon points="110,559 80,653 140,653" fill="hsl(184 38% 26%)" opacity="0.90"/>
    <rect x="106" y="636" width="7" height="22" fill="hsl(92 26% 24%)" opacity="0.72"/>
    <polygon points="1387,472 1367,613 1407,613" fill="hsl(174 36% 35%)" opacity="0.78"/>
    <rect x="1385" y="588" width="5" height="32" fill="hsl(92 26% 24%)" opacity="0.72"/>
    <polygon points="92,503 67,616 117,616" fill="hsl(184 38% 26%)" opacity="0.82"/>
    <rect x="89" y="596" width="6" height="26" fill="hsl(92 26% 24%)" opacity="0.72"/>
    <polygon points="1015,498 991,662 1039,662" fill="hsl(184 38% 26%)" opacity="0.73"/>
    <rect x="1012" y="632" width="6" height="38" fill="hsl(92 26% 24%)" opacity="0.72"/>
    <polygon points="1227,488 1205,630 1249,630" fill="hsl(184 38% 26%)" opacity="0.72"/>
    <rect x="1224" y="604" width="5" height="33" fill="hsl(92 26% 24%)" opacity="0.72"/>
    <polygon points="1020,469 1001,601 1039,601" fill="hsl(184 38% 26%)" opacity="0.90"/>
    <rect x="1018" y="577" width="5" height="30" fill="hsl(92 26% 24%)" opacity="0.72"/>
    <polygon points="907,507 882,642 932,642" fill="hsl(184 38% 26%)" opacity="0.85"/>
    <rect x="904" y="618" width="6" height="31" fill="hsl(92 26% 24%)" opacity="0.72"/>
    <polygon points="1566,509 1537,631 1595,631" fill="hsl(184 38% 26%)" opacity="0.70"/>
    <rect x="1563" y="609" width="7" height="28" fill="hsl(92 26% 24%)" opacity="0.72"/>
    <polygon points="1172,484 1147,618 1197,618" fill="hsl(184 38% 26%)" opacity="0.70"/>
    <rect x="1169" y="594" width="6" height="31" fill="hsl(92 26% 24%)" opacity="0.72"/>
    <polygon points="1557,488 1524,632 1590,632" fill="hsl(174 36% 35%)" opacity="0.85"/>
    <rect x="1553" y="606" width="8" height="33" fill="hsl(92 26% 24%)" opacity="0.72"/>
    <polygon points="1463,502 1438,656 1488,656" fill="hsl(184 38% 26%)" opacity="0.76"/>
    <rect x="1460" y="628" width="6" height="35" fill="hsl(92 26% 24%)" opacity="0.72"/>
    <polygon points="1160,546 1140,642 1180,642" fill="hsl(174 36% 35%)" opacity="0.69"/>
    <rect x="1158" y="625" width="5" height="22" fill="hsl(92 26% 24%)" opacity="0.72"/>
    <polygon points="554,446 525,606 583,606" fill="hsl(174 36% 35%)" opacity="0.76"/>
    <rect x="551" y="577" width="7" height="37" fill="hsl(92 26% 24%)" opacity="0.72"/>
    <polygon points="1125,476 1104,631 1146,631" fill="hsl(184 38% 26%)" opacity="0.85"/>
    <rect x="1122" y="603" width="5" height="36" fill="hsl(92 26% 24%)" opacity="0.72"/>
    <polygon points="1288,475 1255,619 1321,619" fill="hsl(174 36% 35%)" opacity="0.81"/>
    <rect x="1284" y="593" width="8" height="33" fill="hsl(92 26% 24%)" opacity="0.72"/>
  </g>

  <rect y="646" width="1600" height="254" fill="url(#fog)"/>

  <g>
    <polygon points="1375,553 1334,765 1416,765" fill="hsl(184 38% 26%)" opacity="0.85"/>
    <rect x="1370" y="727" width="10" height="49" fill="hsl(92 26% 24%)" opacity="0.72"/>
    <polygon points="1328,517 1286,745 1370,745" fill="hsl(174 36% 35%)" opacity="0.86"/>
    <rect x="1323" y="704" width="10" height="52" fill="hsl(92 26% 24%)" opacity="0.72"/>
    <polygon points="1049,521 1007,739 1091,739" fill="hsl(184 38% 26%)" opacity="0.86"/>
    <rect x="1044" y="700" width="10" height="50" fill="hsl(92 26% 24%)" opacity="0.72"/>
    <polygon points="391,562 362,737 420,737" fill="hsl(184 38% 26%)" opacity="0.85"/>
    <rect x="388" y="705" width="7" height="40" fill="hsl(92 26% 24%)" opacity="0.72"/>
    <polygon points="1063,584 1013,760 1113,760" fill="hsl(184 38% 26%)" opacity="0.90"/>
    <rect x="1057" y="728" width="12" height="40" fill="hsl(92 26% 24%)" opacity="0.72"/>
    <polygon points="800,544 765,749 835,749" fill="hsl(174 36% 35%)" opacity="0.83"/>
    <rect x="796" y="712" width="8" height="47" fill="hsl(92 26% 24%)" opacity="0.72"/>
    <polygon points="91,588 52,804 130,804" fill="hsl(174 36% 35%)" opacity="0.87"/>
    <rect x="86" y="765" width="9" height="50" fill="hsl(92 26% 24%)" opacity="0.72"/>
    <polygon points="584,562 555,790 613,790" fill="hsl(174 36% 35%)" opacity="0.92"/>
    <rect x="581" y="749" width="7" height="52" fill="hsl(92 26% 24%)" opacity="0.72"/>
    <polygon points="848,639 805,785 891,785" fill="hsl(174 36% 35%)" opacity="0.85"/>
    <rect x="843" y="759" width="10" height="34" fill="hsl(92 26% 24%)" opacity="0.72"/>
    <polygon points="203,549 164,779 242,779" fill="hsl(174 36% 35%)" opacity="0.83"/>
    <rect x="198" y="738" width="9" height="53" fill="hsl(92 26% 24%)" opacity="0.72"/>
    <polygon points="947,544 911,784 983,784" fill="hsl(184 38% 26%)" opacity="0.71"/>
    <rect x="943" y="741" width="9" height="55" fill="hsl(92 26% 24%)" opacity="0.72"/>
    <polygon points="1444,601 1399,745 1489,745" fill="hsl(184 38% 26%)" opacity="0.88"/>
    <rect x="1439" y="719" width="11" height="33" fill="hsl(92 26% 24%)" opacity="0.72"/>
    <polygon points="129,581 94,794 164,794" fill="hsl(174 36% 35%)" opacity="0.78"/>
    <rect x="125" y="756" width="8" height="49" fill="hsl(92 26% 24%)" opacity="0.72"/>
    <polygon points="287,533 245,769 329,769" fill="hsl(174 36% 35%)" opacity="0.75"/>
    <rect x="282" y="727" width="10" height="54" fill="hsl(92 26% 24%)" opacity="0.72"/>
    <polygon points="882,583 847,757 917,757" fill="hsl(174 36% 35%)" opacity="0.91"/>
    <rect x="878" y="726" width="8" height="40" fill="hsl(92 26% 24%)" opacity="0.72"/>
    <polygon points="1032,518 981,738 1083,738" fill="hsl(174 36% 35%)" opacity="0.79"/>
    <rect x="1026" y="698" width="12" height="51" fill="hsl(92 26% 24%)" opacity="0.72"/>
  </g>

  <rect x="64" y="676" width="1472" height="184" rx="22" fill="#081517" opacity="0.54"/>
  <text x="118" y="726" fill="#d9e8c8" font-family="Poppins, Arial, sans-serif" font-size="28" font-weight="700">Maden Izinleri</text>
  <text x="118" y="792" fill="#ffffff" font-family="Poppins, Arial, sans-serif" font-size="66.0" font-weight="800">Tracim</text>
  

  <rect width="1600" height="900" fill="url(#vignette)"/>
</svg>
