<?xml version="1.0" encoding="UTF-8"?>
<svg xmlns="http://www.w3.org/2000/svg" viewBox="0 0 1600 900" role="img" aria-label="Traktas">
  <defs>
    <linearGradient id="bg" x1="0" y1="0" x2="0" y2="1">
      <stop offset="0%" stop-color="hsl(16 36% 24%)"/>
      <stop offset="100%" stop-color="hsl(294 32% 43%)"/>
    </linearGradient>
    <linearGradient id="fog" x1="0" y1="0" x2="1" y2="0">
      <stop offset="0%" stop-color="hsl(256 20% 84%)" stop-opacity="0.22"/>
      <stop offset="50%" stop-color="#ffffff" stop-opacity="0.08"/>
      <stop offset="100%" stop-color="hsl(256 20% 84%)" stop-opacity="0.22"/>
    </linearGradient>
    <radialGradient id="vignette" cx="50%" cy="45%" r="70%">
      <stop offset="65%" stop-color="rgba(0,0,0,0)"/>
      <stop offset="100%" stop-color="rgba(0,0,0,0.35)"/>
    </radialGradient>
  </defs>

  <rect width="1600" height="900" fill="url(#bg)"/>
  <circle cx="1200" cy="266" r="75" fill="#f4efd4" opacity="0.34"/>

  <path d="M0 442 Q115 392 229 324 Q343 390 457 335 Q572 368 686 290 Q800 384 914 306 Q1029 357 1143 291 Q1257 398 1371 339 Q1486 401 1600 363 L1600 900 L0 900 Z" fill="hsl(311 28% 26%)" opacity="0.48"/>
  <path d="M0 528 Q115 468 229 404 Q343 481 457 442 Q572 504 686 463 Q800 495 914 475 Q1029 486 1143 441 Q1257 496 1371 470 Q1486 474 1600 440 L1600 900 L0 900 Z" fill="hsl(298 26% 35%)" opacity="0.62"/>
  <path d="M0 645 Q115 568 229 511 Q343 572 457 476 Q572 568 686 491 Q800 569 914 515 Q1029 602 1143 557 Q1257 589 1371 516 Q1486 579 1600 505 L1600 900 L0 900 Z" fill="hsl(286 24% 42%)" opacity="0.78"/>

  <g>
    <polygon points="245,499 219,624 271,624" fill="hsl(286 38% 26%)" opacity="0.73"/>
    <rect x="242" y="601" width="6" height="29" fill="hsl(194 26% 24%)" opacity="0.72"/>
    <polygon points="96,536 76,654 116,654" fill="hsl(276 36% 37%)" opacity="0.68"/>
    <rect x="94" y="633" width="5" height="27" fill="hsl(194 26% 24%)" opacity="0.72"/>
    <polygon points="20,515 -3,641 43,641" fill="hsl(286 38% 26%)" opacity="0.91"/>
    <rect x="17" y="618" width="6" height="29" fill="hsl(194 26% 24%)" opacity="0.72"/>
    <polygon points="426,470 396,617 456,617" fill="hsl(276 36% 37%)" opacity="0.75"/>
    <rect x="422" y="591" width="7" height="34" fill="hsl(194 26% 24%)" opacity="0.72"/>
    <polygon points="1330,471 1299,618 1361,618" fill="hsl(286 38% 26%)" opacity="0.72"/>
    <rect x="1326" y="592" width="7" height="34" fill="hsl(194 26% 24%)" opacity="0.72"/>
    <polygon points="652,470 622,623 682,623" fill="hsl(286 38% 26%)" opacity="0.84"/>
    <rect x="648" y="595" width="7" height="35" fill="hsl(194 26% 24%)" opacity="0.72"/>
    <polygon points="839,450 811,612 867,612" fill="hsl(286 38% 26%)" opacity="0.87"/>
    <rect x="836" y="583" width="7" height="37" fill="hsl(194 26% 24%)" opacity="0.72"/>
    <polygon points="1262,490 1235,626 1289,626" fill="hsl(286 38% 26%)" opacity="0.77"/>
    <rect x="1259" y="602" width="6" height="31" fill="hsl(194 26% 24%)" opacity="0.72"/>
    <polygon points="594,522 569,625 619,625" fill="hsl(286 38% 26%)" opacity="0.73"/>
    <rect x="591" y="606" width="6" height="24" fill="hsl(194 26% 24%)" opacity="0.72"/>
    <polygon points="841,538 819,664 863,664" fill="hsl(286 38% 26%)" opacity="0.86"/>
    <rect x="838" y="641" width="5" height="29" fill="hsl(194 26% 24%)" opacity="0.72"/>
    <polygon points="607,513 586,658 628,658" fill="hsl(276 36% 37%)" opacity="0.73"/>
    <rect x="604" y="632" width="5" height="33" fill="hsl(194 26% 24%)" opacity="0.72"/>
    <polygon points="131,527 97,650 165,650" fill="hsl(286 38% 26%)" opacity="0.74"/>
    <rect x="127" y="628" width="8" height="28" fill="hsl(194 26% 24%)" opacity="0.72"/>
    <polygon points="668,472 646,630 690,630" fill="hsl(276 36% 37%)" opacity="0.87"/>
    <rect x="665" y="602" width="5" height="36" fill="hsl(194 26% 24%)" opacity="0.72"/>
    <polygon points="1308,445 1284,605 1332,605" fill="hsl(286 38% 26%)" opacity="0.81"/>
    <rect x="1305" y="576" width="6" height="37" fill="hsl(194 26% 24%)" opacity="0.72"/>
    <polygon points="492,492 470,649 514,649" fill="hsl(276 36% 37%)" opacity="0.86"/>
    <rect x="489" y="621" width="5" height="36" fill="hsl(194 26% 24%)" opacity="0.72"/>
    <polygon points="693,514 675,637 711,637" fill="hsl(276 36% 37%)" opacity="0.89"/>
    <rect x="691" y="615" width="4" height="28" fill="hsl(194 26% 24%)" opacity="0.72"/>
    <polygon points="850,510 817,616 883,616" fill="hsl(276 36% 37%)" opacity="0.76"/>
    <rect x="846" y="597" width="8" height="24" fill="hsl(194 26% 24%)" opacity="0.72"/>
    <polygon points="255,530 227,642 283,642" fill="hsl(286 38% 26%)" opacity="0.74"/>
    <rect x="252" y="622" width="7" height="26" fill="hsl(194 26% 24%)" opacity="0.72"/>
  </g>

  <rect y="646" width="1600" height="254" fill="url(#fog)"/>

  <g>
    <polygon points="303,596 255,785 351,785" fill="hsl(286 38% 26%)" opacity="0.71"/>
    <rect x="297" y="751" width="12" height="43" fill="hsl(194 26% 24%)" opacity="0.72"/>
    <polygon points="1468,593 1422,766 1514,766" fill="hsl(276 36% 37%)" opacity="0.88"/>
    <rect x="1462" y="735" width="11" height="40" fill="hsl(194 26% 24%)" opacity="0.72"/>
    <polygon points="106,586 77,780 135,780" fill="hsl(276 36% 37%)" opacity="0.91"/>
    <rect x="103" y="745" width="7" height="45" fill="hsl(194 26% 24%)" opacity="0.72"/>
    <polygon points="220,592 187,779 253,779" fill="hsl(286 38% 26%)" opacity="0.82"/>
    <rect x="216" y="745" width="8" height="43" fill="hsl(194 26% 24%)" opacity="0.72"/>
    <polygon points="1317,542 1282,743 1352,743" fill="hsl(276 36% 37%)" opacity="0.80"/>
    <rect x="1313" y="707" width="8" height="46" fill="hsl(194 26% 24%)" opacity="0.72"/>
    <polygon points="944,583 914,753 974,753" fill="hsl(286 38% 26%)" opacity="0.70"/>
    <rect x="940" y="722" width="7" height="39" fill="hsl(194 26% 24%)" opacity="0.72"/>
    <polygon points="149,655 107,795 191,795" fill="hsl(286 38% 26%)" opacity="0.91"/>
    <rect x="144" y="770" width="10" height="32" fill="hsl(194 26% 24%)" opacity="0.72"/>
    <polygon points="124,626 86,787 162,787" fill="hsl(276 36% 37%)" opacity="0.74"/>
    <rect x="119" y="758" width="9" height="37" fill="hsl(194 26% 24%)" opacity="0.72"/>
    <polygon points="115,568 87,778 143,778" fill="hsl(286 38% 26%)" opacity="0.88"/>
    <rect x="112" y="740" width="7" height="48" fill="hsl(194 26% 24%)" opacity="0.72"/>
    <polygon points="1455,544 1403,747 1507,747" fill="hsl(286 38% 26%)" opacity="0.73"/>
    <rect x="1449" y="710" width="12" height="47" fill="hsl(194 26% 24%)" opacity="0.72"/>
    <polygon points="516,532 466,775 566,775" fill="hsl(276 36% 37%)" opacity="0.75"/>
    <rect x="510" y="731" width="12" height="56" fill="hsl(194 26% 24%)" opacity="0.72"/>
    <polygon points="584,557 541,742 627,742" fill="hsl(276 36% 37%)" opacity="0.85"/>
    <rect x="579" y="709" width="10" height="43" fill="hsl(194 26% 24%)" opacity="0.72"/>
    <polygon points="535,634 504,785 566,785" fill="hsl(286 38% 26%)" opacity="0.73"/>
    <rect x="531" y="758" width="7" height="35" fill="hsl(194 26% 24%)" opacity="0.72"/>
    <polygon points="1456,630 1413,815 1499,815" fill="hsl(286 38% 26%)" opacity="0.79"/>
    <rect x="1451" y="782" width="10" height="43" fill="hsl(194 26% 24%)" opacity="0.72"/>
    <polygon points="1542,619 1488,812 1596,812" fill="hsl(286 38% 26%)" opacity="0.90"/>
    <rect x="1536" y="777" width="13" height="44" fill="hsl(194 26% 24%)" opacity="0.72"/>
    <polygon points="991,594 950,739 1032,739" fill="hsl(286 38% 26%)" opacity="0.89"/>
    <rect x="986" y="713" width="10" height="33" fill="hsl(194 26% 24%)" opacity="0.72"/>
  </g>

  <rect x="64" y="676" width="1472" height="184" rx="22" fill="#081517" opacity="0.54"/>
  <text x="118" y="726" fill="#d9e8c8" font-family="Poppins, Arial, sans-serif" font-size="28" font-weight="700">Maden Izinleri</text>
  <text x="118" y="792" fill="#ffffff" font-family="Poppins, Arial, sans-serif" font-size="66.0" font-weight="800">Traktas</text>
  

  <rect width="1600" height="900" fill="url(#vignette)"/>
</svg>
