<?xml version="1.0" encoding="UTF-8"?>
<svg xmlns="http://www.w3.org/2000/svg" viewBox="0 0 1600 900" role="img" aria-label="Turknet A.S.">
  <defs>
    <linearGradient id="bg" x1="0" y1="0" x2="0" y2="1">
      <stop offset="0%" stop-color="hsl(317 44% 21%)"/>
      <stop offset="100%" stop-color="hsl(235 42% 46%)"/>
    </linearGradient>
    <linearGradient id="fog" x1="0" y1="0" x2="1" y2="0">
      <stop offset="0%" stop-color="hsl(197 20% 84%)" stop-opacity="0.22"/>
      <stop offset="50%" stop-color="#ffffff" stop-opacity="0.08"/>
      <stop offset="100%" stop-color="hsl(197 20% 84%)" stop-opacity="0.22"/>
    </linearGradient>
    <radialGradient id="vignette" cx="50%" cy="45%" r="70%">
      <stop offset="65%" stop-color="rgba(0,0,0,0)"/>
      <stop offset="100%" stop-color="rgba(0,0,0,0.35)"/>
    </radialGradient>
  </defs>

  <rect width="1600" height="900" fill="url(#bg)"/>
  <circle cx="1290" cy="277" r="75" fill="#f4efd4" opacity="0.34"/>

  <path d="M0 423 Q115 391 229 376 Q343 377 457 352 Q572 374 686 319 Q800 375 914 322 Q1029 375 1143 342 Q1257 354 1371 297 Q1486 385 1600 362 L1600 900 L0 900 Z" fill="hsl(252 28% 25%)" opacity="0.48"/>
  <path d="M0 503 Q115 451 229 417 Q343 427 457 355 Q572 420 686 357 Q800 469 914 438 Q1029 444 1143 382 Q1257 434 1371 383 Q1486 455 1600 384 L1600 900 L0 900 Z" fill="hsl(239 26% 35%)" opacity="0.62"/>
  <path d="M0 630 Q115 605 229 563 Q343 545 457 472 Q572 600 686 551 Q800 579 914 538 Q1029 583 1143 517 Q1257 594 1371 569 Q1486 610 1600 567 L1600 900 L0 900 Z" fill="hsl(227 24% 43%)" opacity="0.78"/>

  <g>
    <polygon points="1471,464 1443,609 1499,609" fill="hsl(217 36% 36%)" opacity="0.77"/>
    <rect x="1468" y="583" width="7" height="33" fill="hsl(135 26% 24%)" opacity="0.72"/>
    <polygon points="1206,508 1177,646 1235,646" fill="hsl(217 36% 36%)" opacity="0.85"/>
    <rect x="1203" y="621" width="7" height="32" fill="hsl(135 26% 24%)" opacity="0.72"/>
    <polygon points="1097,493 1077,643 1117,643" fill="hsl(227 38% 28%)" opacity="0.72"/>
    <rect x="1095" y="616" width="5" height="35" fill="hsl(135 26% 24%)" opacity="0.72"/>
    <polygon points="257,483 223,610 291,610" fill="hsl(217 36% 36%)" opacity="0.71"/>
    <rect x="253" y="587" width="8" height="29" fill="hsl(135 26% 24%)" opacity="0.72"/>
    <polygon points="1154,478 1130,632 1178,632" fill="hsl(217 36% 36%)" opacity="0.90"/>
    <rect x="1151" y="604" width="6" height="35" fill="hsl(135 26% 24%)" opacity="0.72"/>
    <polygon points="1358,469 1324,630 1392,630" fill="hsl(217 36% 36%)" opacity="0.76"/>
    <rect x="1354" y="601" width="8" height="37" fill="hsl(135 26% 24%)" opacity="0.72"/>
    <polygon points="1071,538 1047,631 1095,631" fill="hsl(217 36% 36%)" opacity="0.82"/>
    <rect x="1068" y="614" width="6" height="21" fill="hsl(135 26% 24%)" opacity="0.72"/>
    <polygon points="584,502 562,601 606,601" fill="hsl(227 38% 28%)" opacity="0.74"/>
    <rect x="581" y="583" width="5" height="23" fill="hsl(135 26% 24%)" opacity="0.72"/>
    <polygon points="841,513 812,658 870,658" fill="hsl(217 36% 36%)" opacity="0.80"/>
    <rect x="838" y="632" width="7" height="33" fill="hsl(135 26% 24%)" opacity="0.72"/>
    <polygon points="1293,510 1274,620 1312,620" fill="hsl(217 36% 36%)" opacity="0.86"/>
    <rect x="1291" y="600" width="5" height="25" fill="hsl(135 26% 24%)" opacity="0.72"/>
    <polygon points="743,507 725,600 761,600" fill="hsl(217 36% 36%)" opacity="0.80"/>
    <rect x="741" y="583" width="4" height="21" fill="hsl(135 26% 24%)" opacity="0.72"/>
    <polygon points="539,504 509,626 569,626" fill="hsl(227 38% 28%)" opacity="0.82"/>
    <rect x="535" y="604" width="7" height="28" fill="hsl(135 26% 24%)" opacity="0.72"/>
    <polygon points="844,508 811,613 877,613" fill="hsl(227 38% 28%)" opacity="0.82"/>
    <rect x="840" y="594" width="8" height="24" fill="hsl(135 26% 24%)" opacity="0.72"/>
    <polygon points="1323,508 1298,618 1348,618" fill="hsl(227 38% 28%)" opacity="0.86"/>
    <rect x="1320" y="598" width="6" height="25" fill="hsl(135 26% 24%)" opacity="0.72"/>
    <polygon points="268,495 235,631 301,631" fill="hsl(227 38% 28%)" opacity="0.89"/>
    <rect x="264" y="607" width="8" height="31" fill="hsl(135 26% 24%)" opacity="0.72"/>
    <polygon points="1186,473 1155,613 1217,613" fill="hsl(227 38% 28%)" opacity="0.79"/>
    <rect x="1182" y="588" width="7" height="32" fill="hsl(135 26% 24%)" opacity="0.72"/>
    <polygon points="1067,550 1043,650 1091,650" fill="hsl(217 36% 36%)" opacity="0.77"/>
    <rect x="1064" y="632" width="6" height="23" fill="hsl(135 26% 24%)" opacity="0.72"/>
    <polygon points="966,527 947,630 985,630" fill="hsl(217 36% 36%)" opacity="0.85"/>
    <rect x="964" y="611" width="5" height="24" fill="hsl(135 26% 24%)" opacity="0.72"/>
  </g>

  <rect y="646" width="1600" height="254" fill="url(#fog)"/>

  <g>
    <polygon points="415,607 378,764 452,764" fill="hsl(217 36% 36%)" opacity="0.84"/>
    <rect x="411" y="736" width="9" height="36" fill="hsl(135 26% 24%)" opacity="0.72"/>
    <polygon points="551,505 502,751 600,751" fill="hsl(227 38% 28%)" opacity="0.78"/>
    <rect x="545" y="707" width="12" height="57" fill="hsl(135 26% 24%)" opacity="0.72"/>
    <polygon points="35,560 -13,791 83,791" fill="hsl(217 36% 36%)" opacity="0.71"/>
    <rect x="29" y="749" width="12" height="53" fill="hsl(135 26% 24%)" opacity="0.72"/>
    <polygon points="494,563 453,764 535,764" fill="hsl(227 38% 28%)" opacity="0.69"/>
    <rect x="489" y="728" width="10" height="46" fill="hsl(135 26% 24%)" opacity="0.72"/>
    <polygon points="1512,577 1483,786 1541,786" fill="hsl(227 38% 28%)" opacity="0.70"/>
    <rect x="1509" y="748" width="7" height="48" fill="hsl(135 26% 24%)" opacity="0.72"/>
    <polygon points="915,562 866,772 964,772" fill="hsl(217 36% 36%)" opacity="0.87"/>
    <rect x="909" y="734" width="12" height="48" fill="hsl(135 26% 24%)" opacity="0.72"/>
    <polygon points="750,517 712,734 788,734" fill="hsl(217 36% 36%)" opacity="0.73"/>
    <rect x="745" y="695" width="9" height="50" fill="hsl(135 26% 24%)" opacity="0.72"/>
    <polygon points="503,612 449,816 557,816" fill="hsl(217 36% 36%)" opacity="0.83"/>
    <rect x="497" y="779" width="13" height="47" fill="hsl(135 26% 24%)" opacity="0.72"/>
    <polygon points="1225,598 1196,747 1254,747" fill="hsl(227 38% 28%)" opacity="0.81"/>
    <rect x="1222" y="720" width="7" height="34" fill="hsl(135 26% 24%)" opacity="0.72"/>
    <polygon points="340,609 286,809 394,809" fill="hsl(217 36% 36%)" opacity="0.74"/>
    <rect x="334" y="773" width="13" height="46" fill="hsl(135 26% 24%)" opacity="0.72"/>
    <polygon points="1413,586 1377,789 1449,789" fill="hsl(217 36% 36%)" opacity="0.80"/>
    <rect x="1409" y="752" width="9" height="47" fill="hsl(135 26% 24%)" opacity="0.72"/>
    <polygon points="1286,558 1239,757 1333,757" fill="hsl(227 38% 28%)" opacity="0.91"/>
    <rect x="1280" y="721" width="11" height="46" fill="hsl(135 26% 24%)" opacity="0.72"/>
    <polygon points="688,617 658,789 718,789" fill="hsl(217 36% 36%)" opacity="0.77"/>
    <rect x="684" y="758" width="7" height="40" fill="hsl(135 26% 24%)" opacity="0.72"/>
    <polygon points="711,581 673,758 749,758" fill="hsl(227 38% 28%)" opacity="0.82"/>
    <rect x="706" y="726" width="9" height="41" fill="hsl(135 26% 24%)" opacity="0.72"/>
    <polygon points="1515,560 1484,785 1546,785" fill="hsl(217 36% 36%)" opacity="0.80"/>
    <rect x="1511" y="744" width="7" height="52" fill="hsl(135 26% 24%)" opacity="0.72"/>
    <polygon points="1030,563 983,766 1077,766" fill="hsl(217 36% 36%)" opacity="0.84"/>
    <rect x="1024" y="729" width="11" height="47" fill="hsl(135 26% 24%)" opacity="0.72"/>
  </g>

  <rect x="64" y="676" width="1472" height="184" rx="22" fill="#081517" opacity="0.54"/>
  <text x="118" y="726" fill="#d9e8c8" font-family="Poppins, Arial, sans-serif" font-size="28" font-weight="700">Diger Projeler</text>
  <text x="118" y="792" fill="#ffffff" font-family="Poppins, Arial, sans-serif" font-size="66.0" font-weight="800">Turknet A.S.</text>
  

  <rect width="1600" height="900" fill="url(#vignette)"/>
</svg>
