<?xml version="1.0" encoding="UTF-8"?>
<svg xmlns="http://www.w3.org/2000/svg" viewBox="0 0 1600 900" role="img" aria-label="Ugur Kartal">
  <defs>
    <linearGradient id="bg" x1="0" y1="0" x2="0" y2="1">
      <stop offset="0%" stop-color="hsl(235 42% 22%)"/>
      <stop offset="100%" stop-color="hsl(153 35% 43%)"/>
    </linearGradient>
    <linearGradient id="fog" x1="0" y1="0" x2="1" y2="0">
      <stop offset="0%" stop-color="hsl(115 20% 84%)" stop-opacity="0.22"/>
      <stop offset="50%" stop-color="#ffffff" stop-opacity="0.08"/>
      <stop offset="100%" stop-color="hsl(115 20% 84%)" stop-opacity="0.22"/>
    </linearGradient>
    <radialGradient id="vignette" cx="50%" cy="45%" r="70%">
      <stop offset="65%" stop-color="rgba(0,0,0,0)"/>
      <stop offset="100%" stop-color="rgba(0,0,0,0.35)"/>
    </radialGradient>
  </defs>

  <rect width="1600" height="900" fill="url(#bg)"/>
  <circle cx="1326" cy="252" r="75" fill="#f4efd4" opacity="0.34"/>

  <path d="M0 418 Q115 372 229 325 Q343 399 457 367 Q572 399 686 372 Q800 386 914 371 Q1029 361 1143 298 Q1257 389 1371 344 Q1486 385 1600 358 L1600 900 L0 900 Z" fill="hsl(170 28% 25%)" opacity="0.48"/>
  <path d="M0 526 Q115 470 229 426 Q343 490 457 463 Q572 508 686 468 Q800 486 914 452 Q1029 498 1143 451 Q1257 452 1371 390 Q1486 510 1600 476 L1600 900 L0 900 Z" fill="hsl(157 26% 30%)" opacity="0.62"/>
  <path d="M0 619 Q115 544 229 470 Q343 547 457 469 Q572 583 686 526 Q800 546 914 462 Q1029 556 1143 474 Q1257 529 1371 449 Q1486 538 1600 439 L1600 900 L0 900 Z" fill="hsl(145 24% 42%)" opacity="0.78"/>

  <g>
    <polygon points="454,497 420,633 488,633" fill="hsl(135 36% 32%)" opacity="0.73"/>
    <rect x="450" y="609" width="8" height="31" fill="hsl(53 26% 24%)" opacity="0.72"/>
    <polygon points="882,528 856,644 908,644" fill="hsl(145 38% 26%)" opacity="0.74"/>
    <rect x="879" y="623" width="6" height="27" fill="hsl(53 26% 24%)" opacity="0.72"/>
    <polygon points="199,494 169,609 229,609" fill="hsl(135 36% 32%)" opacity="0.70"/>
    <rect x="195" y="588" width="7" height="26" fill="hsl(53 26% 24%)" opacity="0.72"/>
    <polygon points="249,472 227,632 271,632" fill="hsl(145 38% 26%)" opacity="0.71"/>
    <rect x="246" y="603" width="5" height="37" fill="hsl(53 26% 24%)" opacity="0.72"/>
    <polygon points="1561,480 1534,643 1588,643" fill="hsl(145 38% 26%)" opacity="0.80"/>
    <rect x="1558" y="614" width="6" height="37" fill="hsl(53 26% 24%)" opacity="0.72"/>
    <polygon points="1372,452 1353,617 1391,617" fill="hsl(145 38% 26%)" opacity="0.84"/>
    <rect x="1370" y="587" width="5" height="38" fill="hsl(53 26% 24%)" opacity="0.72"/>
    <polygon points="992,512 972,641 1012,641" fill="hsl(145 38% 26%)" opacity="0.78"/>
    <rect x="990" y="618" width="5" height="30" fill="hsl(53 26% 24%)" opacity="0.72"/>
    <polygon points="400,526 372,647 428,647" fill="hsl(135 36% 32%)" opacity="0.78"/>
    <rect x="397" y="625" width="7" height="28" fill="hsl(53 26% 24%)" opacity="0.72"/>
    <polygon points="1185,516 1152,613 1218,613" fill="hsl(145 38% 26%)" opacity="0.80"/>
    <rect x="1181" y="596" width="8" height="22" fill="hsl(53 26% 24%)" opacity="0.72"/>
    <polygon points="643,501 619,656 667,656" fill="hsl(135 36% 32%)" opacity="0.69"/>
    <rect x="640" y="628" width="6" height="36" fill="hsl(53 26% 24%)" opacity="0.72"/>
    <polygon points="603,489 583,613 623,613" fill="hsl(145 38% 26%)" opacity="0.75"/>
    <rect x="601" y="591" width="5" height="29" fill="hsl(53 26% 24%)" opacity="0.72"/>
    <polygon points="1573,497 1547,606 1599,606" fill="hsl(145 38% 26%)" opacity="0.79"/>
    <rect x="1570" y="586" width="6" height="25" fill="hsl(53 26% 24%)" opacity="0.72"/>
    <polygon points="751,501 733,662 769,662" fill="hsl(135 36% 32%)" opacity="0.92"/>
    <rect x="749" y="633" width="4" height="37" fill="hsl(53 26% 24%)" opacity="0.72"/>
    <polygon points="1454,509 1427,650 1481,650" fill="hsl(135 36% 32%)" opacity="0.80"/>
    <rect x="1451" y="625" width="6" height="32" fill="hsl(53 26% 24%)" opacity="0.72"/>
    <polygon points="1362,529 1344,657 1380,657" fill="hsl(145 38% 26%)" opacity="0.71"/>
    <rect x="1360" y="634" width="4" height="29" fill="hsl(53 26% 24%)" opacity="0.72"/>
    <polygon points="939,455 911,611 967,611" fill="hsl(145 38% 26%)" opacity="0.71"/>
    <rect x="936" y="583" width="7" height="36" fill="hsl(53 26% 24%)" opacity="0.72"/>
    <polygon points="1443,530 1419,639 1467,639" fill="hsl(135 36% 32%)" opacity="0.75"/>
    <rect x="1440" y="619" width="6" height="25" fill="hsl(53 26% 24%)" opacity="0.72"/>
    <polygon points="1131,539 1102,657 1160,657" fill="hsl(135 36% 32%)" opacity="0.88"/>
    <rect x="1128" y="636" width="7" height="27" fill="hsl(53 26% 24%)" opacity="0.72"/>
  </g>

  <rect y="646" width="1600" height="254" fill="url(#fog)"/>

  <g>
    <polygon points="834,576 800,756 868,756" fill="hsl(145 38% 26%)" opacity="0.91"/>
    <rect x="830" y="724" width="8" height="41" fill="hsl(53 26% 24%)" opacity="0.72"/>
    <polygon points="36,619 4,761 68,761" fill="hsl(135 36% 32%)" opacity="0.86"/>
    <rect x="32" y="735" width="8" height="33" fill="hsl(53 26% 24%)" opacity="0.72"/>
    <polygon points="112,578 59,806 165,806" fill="hsl(145 38% 26%)" opacity="0.72"/>
    <rect x="106" y="765" width="13" height="52" fill="hsl(53 26% 24%)" opacity="0.72"/>
    <polygon points="1571,640 1522,780 1620,780" fill="hsl(145 38% 26%)" opacity="0.88"/>
    <rect x="1565" y="755" width="12" height="32" fill="hsl(53 26% 24%)" opacity="0.72"/>
    <polygon points="141,578 106,733 176,733" fill="hsl(145 38% 26%)" opacity="0.87"/>
    <rect x="137" y="705" width="8" height="36" fill="hsl(53 26% 24%)" opacity="0.72"/>
    <polygon points="975,590 942,767 1008,767" fill="hsl(135 36% 32%)" opacity="0.75"/>
    <rect x="971" y="735" width="8" height="41" fill="hsl(53 26% 24%)" opacity="0.72"/>
    <polygon points="341,646 297,818 385,818" fill="hsl(145 38% 26%)" opacity="0.75"/>
    <rect x="336" y="787" width="11" height="40" fill="hsl(53 26% 24%)" opacity="0.72"/>
    <polygon points="1550,571 1499,819 1601,819" fill="hsl(145 38% 26%)" opacity="0.91"/>
    <rect x="1544" y="774" width="12" height="57" fill="hsl(53 26% 24%)" opacity="0.72"/>
    <polygon points="695,541 643,779 747,779" fill="hsl(145 38% 26%)" opacity="0.77"/>
    <rect x="689" y="736" width="12" height="55" fill="hsl(53 26% 24%)" opacity="0.72"/>
    <polygon points="263,612 228,743 298,743" fill="hsl(135 36% 32%)" opacity="0.87"/>
    <rect x="259" y="719" width="8" height="30" fill="hsl(53 26% 24%)" opacity="0.72"/>
    <polygon points="569,632 516,764 622,764" fill="hsl(145 38% 26%)" opacity="0.89"/>
    <rect x="563" y="740" width="13" height="30" fill="hsl(53 26% 24%)" opacity="0.72"/>
    <polygon points="1341,539 1310,761 1372,761" fill="hsl(145 38% 26%)" opacity="0.76"/>
    <rect x="1337" y="721" width="7" height="51" fill="hsl(53 26% 24%)" opacity="0.72"/>
    <polygon points="370,510 341,732 399,732" fill="hsl(135 36% 32%)" opacity="0.88"/>
    <rect x="367" y="692" width="7" height="51" fill="hsl(53 26% 24%)" opacity="0.72"/>
    <polygon points="979,565 950,794 1008,794" fill="hsl(135 36% 32%)" opacity="0.85"/>
    <rect x="976" y="753" width="7" height="53" fill="hsl(53 26% 24%)" opacity="0.72"/>
    <polygon points="25,662 -3,815 53,815" fill="hsl(145 38% 26%)" opacity="0.77"/>
    <rect x="22" y="787" width="7" height="35" fill="hsl(53 26% 24%)" opacity="0.72"/>
    <polygon points="1096,584 1049,786 1143,786" fill="hsl(145 38% 26%)" opacity="0.84"/>
    <rect x="1090" y="750" width="11" height="46" fill="hsl(53 26% 24%)" opacity="0.72"/>
  </g>

  <rect x="64" y="676" width="1472" height="184" rx="22" fill="#081517" opacity="0.54"/>
  <text x="118" y="726" fill="#d9e8c8" font-family="Poppins, Arial, sans-serif" font-size="28" font-weight="700">Maden Izinleri</text>
  <text x="118" y="792" fill="#ffffff" font-family="Poppins, Arial, sans-serif" font-size="66.0" font-weight="800">Ugur Kartal</text>
  

  <rect width="1600" height="900" fill="url(#vignette)"/>
</svg>
