<?xml version="1.0" encoding="UTF-8"?>
<svg xmlns="http://www.w3.org/2000/svg" viewBox="0 0 1600 900" role="img" aria-label="Varol Beton">
  <defs>
    <linearGradient id="bg" x1="0" y1="0" x2="0" y2="1">
      <stop offset="0%" stop-color="hsl(253 37% 24%)"/>
      <stop offset="100%" stop-color="hsl(171 36% 38%)"/>
    </linearGradient>
    <linearGradient id="fog" x1="0" y1="0" x2="1" y2="0">
      <stop offset="0%" stop-color="hsl(133 20% 84%)" stop-opacity="0.22"/>
      <stop offset="50%" stop-color="#ffffff" stop-opacity="0.08"/>
      <stop offset="100%" stop-color="hsl(133 20% 84%)" stop-opacity="0.22"/>
    </linearGradient>
    <radialGradient id="vignette" cx="50%" cy="45%" r="70%">
      <stop offset="65%" stop-color="rgba(0,0,0,0)"/>
      <stop offset="100%" stop-color="rgba(0,0,0,0.35)"/>
    </radialGradient>
  </defs>

  <rect width="1600" height="900" fill="url(#bg)"/>
  <circle cx="1390" cy="178" r="86" fill="#f4efd4" opacity="0.34"/>

  <path d="M0 417 Q115 401 229 363 Q343 379 457 338 Q572 391 686 357 Q800 378 914 344 Q1029 393 1143 350 Q1257 400 1371 372 Q1486 388 1600 341 L1600 900 L0 900 Z" fill="hsl(188 28% 22%)" opacity="0.48"/>
  <path d="M0 500 Q115 435 229 380 Q343 444 457 405 Q572 466 686 417 Q800 447 914 377 Q1029 476 1143 439 Q1257 433 1371 362 Q1486 460 1600 414 L1600 900 L0 900 Z" fill="hsl(175 26% 29%)" opacity="0.62"/>
  <path d="M0 619 Q115 573 229 529 Q343 536 457 445 Q572 513 686 420 Q800 559 914 476 Q1029 565 1143 496 Q1257 548 1371 459 Q1486 551 1600 479 L1600 900 L0 900 Z" fill="hsl(163 24% 38%)" opacity="0.78"/>

  <g>
    <polygon points="1094,518 1067,651 1121,651" fill="hsl(153 36% 37%)" opacity="0.88"/>
    <rect x="1091" y="627" width="6" height="31" fill="hsl(71 26% 24%)" opacity="0.72"/>
    <polygon points="908,493 881,623 935,623" fill="hsl(153 36% 37%)" opacity="0.91"/>
    <rect x="905" y="600" width="6" height="30" fill="hsl(71 26% 24%)" opacity="0.72"/>
    <polygon points="225,536 204,634 246,634" fill="hsl(153 36% 37%)" opacity="0.70"/>
    <rect x="222" y="616" width="5" height="23" fill="hsl(71 26% 24%)" opacity="0.72"/>
    <polygon points="132,487 107,630 157,630" fill="hsl(153 36% 37%)" opacity="0.74"/>
    <rect x="129" y="604" width="6" height="33" fill="hsl(71 26% 24%)" opacity="0.72"/>
    <polygon points="495,506 473,651 517,651" fill="hsl(153 36% 37%)" opacity="0.81"/>
    <rect x="492" y="625" width="5" height="33" fill="hsl(71 26% 24%)" opacity="0.72"/>
    <polygon points="295,514 274,654 316,654" fill="hsl(163 38% 28%)" opacity="0.76"/>
    <rect x="292" y="629" width="5" height="32" fill="hsl(71 26% 24%)" opacity="0.72"/>
    <polygon points="322,463 301,624 343,624" fill="hsl(163 38% 28%)" opacity="0.72"/>
    <rect x="319" y="595" width="5" height="37" fill="hsl(71 26% 24%)" opacity="0.72"/>
    <polygon points="860,545 827,644 893,644" fill="hsl(163 38% 28%)" opacity="0.86"/>
    <rect x="856" y="626" width="8" height="23" fill="hsl(71 26% 24%)" opacity="0.72"/>
    <polygon points="1147,537 1121,639 1173,639" fill="hsl(163 38% 28%)" opacity="0.73"/>
    <rect x="1144" y="621" width="6" height="23" fill="hsl(71 26% 24%)" opacity="0.72"/>
    <polygon points="611,523 579,627 643,627" fill="hsl(153 36% 37%)" opacity="0.80"/>
    <rect x="607" y="608" width="8" height="24" fill="hsl(71 26% 24%)" opacity="0.72"/>
    <polygon points="754,538 732,647 776,647" fill="hsl(153 36% 37%)" opacity="0.70"/>
    <rect x="751" y="627" width="5" height="25" fill="hsl(71 26% 24%)" opacity="0.72"/>
    <polygon points="1106,489 1073,629 1139,629" fill="hsl(163 38% 28%)" opacity="0.76"/>
    <rect x="1102" y="604" width="8" height="32" fill="hsl(71 26% 24%)" opacity="0.72"/>
    <polygon points="893,480 869,632 917,632" fill="hsl(153 36% 37%)" opacity="0.75"/>
    <rect x="890" y="605" width="6" height="35" fill="hsl(71 26% 24%)" opacity="0.72"/>
    <polygon points="1336,518 1311,630 1361,630" fill="hsl(153 36% 37%)" opacity="0.78"/>
    <rect x="1333" y="610" width="6" height="26" fill="hsl(71 26% 24%)" opacity="0.72"/>
    <polygon points="154,504 128,663 180,663" fill="hsl(163 38% 28%)" opacity="0.92"/>
    <rect x="151" y="634" width="6" height="37" fill="hsl(71 26% 24%)" opacity="0.72"/>
    <polygon points="1247,464 1227,623 1267,623" fill="hsl(153 36% 37%)" opacity="0.73"/>
    <rect x="1245" y="594" width="5" height="37" fill="hsl(71 26% 24%)" opacity="0.72"/>
    <polygon points="955,559 934,653 976,653" fill="hsl(163 38% 28%)" opacity="0.89"/>
    <rect x="952" y="636" width="5" height="22" fill="hsl(71 26% 24%)" opacity="0.72"/>
    <polygon points="1472,494 1439,605 1505,605" fill="hsl(153 36% 37%)" opacity="0.75"/>
    <rect x="1468" y="585" width="8" height="26" fill="hsl(71 26% 24%)" opacity="0.72"/>
  </g>

  <rect y="646" width="1600" height="254" fill="url(#fog)"/>

  <g>
    <polygon points="68,530 26,732 110,732" fill="hsl(163 38% 28%)" opacity="0.86"/>
    <rect x="63" y="696" width="10" height="46" fill="hsl(71 26% 24%)" opacity="0.72"/>
    <polygon points="1316,580 1271,803 1361,803" fill="hsl(153 36% 37%)" opacity="0.84"/>
    <rect x="1311" y="763" width="11" height="51" fill="hsl(71 26% 24%)" opacity="0.72"/>
    <polygon points="318,533 272,734 364,734" fill="hsl(153 36% 37%)" opacity="0.91"/>
    <rect x="312" y="698" width="11" height="46" fill="hsl(71 26% 24%)" opacity="0.72"/>
    <polygon points="192,626 139,769 245,769" fill="hsl(163 38% 28%)" opacity="0.90"/>
    <rect x="186" y="743" width="13" height="33" fill="hsl(71 26% 24%)" opacity="0.72"/>
    <polygon points="1449,626 1403,758 1495,758" fill="hsl(163 38% 28%)" opacity="0.77"/>
    <rect x="1443" y="734" width="11" height="30" fill="hsl(71 26% 24%)" opacity="0.72"/>
    <polygon points="1196,648 1161,790 1231,790" fill="hsl(163 38% 28%)" opacity="0.85"/>
    <rect x="1192" y="764" width="8" height="33" fill="hsl(71 26% 24%)" opacity="0.72"/>
    <polygon points="182,537 141,737 223,737" fill="hsl(163 38% 28%)" opacity="0.92"/>
    <rect x="177" y="701" width="10" height="46" fill="hsl(71 26% 24%)" opacity="0.72"/>
    <polygon points="689,565 639,787 739,787" fill="hsl(163 38% 28%)" opacity="0.88"/>
    <rect x="683" y="747" width="12" height="51" fill="hsl(71 26% 24%)" opacity="0.72"/>
    <polygon points="828,589 774,766 882,766" fill="hsl(163 38% 28%)" opacity="0.90"/>
    <rect x="822" y="734" width="13" height="41" fill="hsl(71 26% 24%)" opacity="0.72"/>
    <polygon points="928,610 874,786 982,786" fill="hsl(163 38% 28%)" opacity="0.69"/>
    <rect x="922" y="754" width="13" height="40" fill="hsl(71 26% 24%)" opacity="0.72"/>
    <polygon points="1154,588 1101,798 1207,798" fill="hsl(153 36% 37%)" opacity="0.87"/>
    <rect x="1148" y="760" width="13" height="48" fill="hsl(71 26% 24%)" opacity="0.72"/>
    <polygon points="683,561 644,792 722,792" fill="hsl(163 38% 28%)" opacity="0.78"/>
    <rect x="678" y="750" width="9" height="53" fill="hsl(71 26% 24%)" opacity="0.72"/>
    <polygon points="920,597 886,814 954,814" fill="hsl(153 36% 37%)" opacity="0.73"/>
    <rect x="916" y="775" width="8" height="50" fill="hsl(71 26% 24%)" opacity="0.72"/>
    <polygon points="629,610 587,798 671,798" fill="hsl(153 36% 37%)" opacity="0.81"/>
    <rect x="624" y="764" width="10" height="43" fill="hsl(71 26% 24%)" opacity="0.72"/>
    <polygon points="760,507 715,748 805,748" fill="hsl(153 36% 37%)" opacity="0.86"/>
    <rect x="755" y="705" width="11" height="55" fill="hsl(71 26% 24%)" opacity="0.72"/>
    <polygon points="783,591 732,759 834,759" fill="hsl(153 36% 37%)" opacity="0.81"/>
    <rect x="777" y="729" width="12" height="39" fill="hsl(71 26% 24%)" opacity="0.72"/>
  </g>

  <rect x="64" y="676" width="1472" height="184" rx="22" fill="#081517" opacity="0.54"/>
  <text x="118" y="726" fill="#d9e8c8" font-family="Poppins, Arial, sans-serif" font-size="28" font-weight="700">Maden Izinleri</text>
  <text x="118" y="792" fill="#ffffff" font-family="Poppins, Arial, sans-serif" font-size="66.0" font-weight="800">Varol Beton</text>
  

  <rect width="1600" height="900" fill="url(#vignette)"/>
</svg>
