<?xml version="1.0" encoding="UTF-8"?>
<svg xmlns="http://www.w3.org/2000/svg" viewBox="0 0 1600 900" role="img" aria-label="Yunus Gida">
  <defs>
    <linearGradient id="bg" x1="0" y1="0" x2="0" y2="1">
      <stop offset="0%" stop-color="hsl(289 46% 25%)"/>
      <stop offset="100%" stop-color="hsl(207 32% 38%)"/>
    </linearGradient>
    <linearGradient id="fog" x1="0" y1="0" x2="1" y2="0">
      <stop offset="0%" stop-color="hsl(169 20% 84%)" stop-opacity="0.22"/>
      <stop offset="50%" stop-color="#ffffff" stop-opacity="0.08"/>
      <stop offset="100%" stop-color="hsl(169 20% 84%)" stop-opacity="0.22"/>
    </linearGradient>
    <radialGradient id="vignette" cx="50%" cy="45%" r="70%">
      <stop offset="65%" stop-color="rgba(0,0,0,0)"/>
      <stop offset="100%" stop-color="rgba(0,0,0,0.35)"/>
    </radialGradient>
  </defs>

  <rect width="1600" height="900" fill="url(#bg)"/>
  <circle cx="1181" cy="119" r="86" fill="#f4efd4" opacity="0.34"/>

  <path d="M0 433 Q115 380 229 311 Q343 396 457 339 Q572 384 686 357 Q800 414 914 373 Q1029 378 1143 329 Q1257 389 1371 347 Q1486 408 1600 370 L1600 900 L0 900 Z" fill="hsl(224 28% 24%)" opacity="0.48"/>
  <path d="M0 515 Q115 457 229 392 Q343 459 457 383 Q572 483 686 428 Q800 480 914 446 Q1029 444 1143 353 Q1257 469 1371 440 Q1486 443 1600 348 L1600 900 L0 900 Z" fill="hsl(211 26% 30%)" opacity="0.62"/>
  <path d="M0 638 Q115 606 229 572 Q343 556 457 471 Q572 578 686 501 Q800 582 914 548 Q1029 548 1143 468 Q1257 582 1371 540 Q1486 607 1600 571 L1600 900 L0 900 Z" fill="hsl(199 24% 40%)" opacity="0.78"/>

  <g>
    <polygon points="735,511 716,636 754,636" fill="hsl(199 38% 27%)" opacity="0.73"/>
    <rect x="733" y="613" width="5" height="29" fill="hsl(107 26% 24%)" opacity="0.72"/>
    <polygon points="1460,515 1426,646 1494,646" fill="hsl(199 38% 27%)" opacity="0.89"/>
    <rect x="1456" y="622" width="8" height="30" fill="hsl(107 26% 24%)" opacity="0.72"/>
    <polygon points="431,488 402,622 460,622" fill="hsl(199 38% 27%)" opacity="0.83"/>
    <rect x="428" y="598" width="7" height="31" fill="hsl(107 26% 24%)" opacity="0.72"/>
    <polygon points="1386,497 1363,647 1409,647" fill="hsl(199 38% 27%)" opacity="0.84"/>
    <rect x="1383" y="620" width="6" height="35" fill="hsl(107 26% 24%)" opacity="0.72"/>
    <polygon points="1152,544 1128,642 1176,642" fill="hsl(199 38% 27%)" opacity="0.75"/>
    <rect x="1149" y="624" width="6" height="23" fill="hsl(107 26% 24%)" opacity="0.72"/>
    <polygon points="971,488 948,612 994,612" fill="hsl(199 38% 27%)" opacity="0.78"/>
    <rect x="968" y="590" width="6" height="29" fill="hsl(107 26% 24%)" opacity="0.72"/>
    <polygon points="273,512 248,621 298,621" fill="hsl(189 36% 37%)" opacity="0.69"/>
    <rect x="270" y="601" width="6" height="25" fill="hsl(107 26% 24%)" opacity="0.72"/>
    <polygon points="83,503 52,611 114,611" fill="hsl(199 38% 27%)" opacity="0.75"/>
    <rect x="79" y="592" width="7" height="25" fill="hsl(107 26% 24%)" opacity="0.72"/>
    <polygon points="542,497 522,629 562,629" fill="hsl(189 36% 37%)" opacity="0.87"/>
    <rect x="540" y="605" width="5" height="30" fill="hsl(107 26% 24%)" opacity="0.72"/>
    <polygon points="811,510 780,658 842,658" fill="hsl(199 38% 27%)" opacity="0.82"/>
    <rect x="807" y="631" width="7" height="34" fill="hsl(107 26% 24%)" opacity="0.72"/>
    <polygon points="545,492 516,652 574,652" fill="hsl(189 36% 37%)" opacity="0.73"/>
    <rect x="542" y="623" width="7" height="37" fill="hsl(107 26% 24%)" opacity="0.72"/>
    <polygon points="407,489 387,606 427,606" fill="hsl(189 36% 37%)" opacity="0.86"/>
    <rect x="405" y="585" width="5" height="27" fill="hsl(107 26% 24%)" opacity="0.72"/>
    <polygon points="210,513 183,637 237,637" fill="hsl(189 36% 37%)" opacity="0.78"/>
    <rect x="207" y="615" width="6" height="29" fill="hsl(107 26% 24%)" opacity="0.72"/>
    <polygon points="1449,564 1430,657 1468,657" fill="hsl(189 36% 37%)" opacity="0.76"/>
    <rect x="1447" y="640" width="5" height="21" fill="hsl(107 26% 24%)" opacity="0.72"/>
    <polygon points="1287,503 1257,657 1317,657" fill="hsl(189 36% 37%)" opacity="0.79"/>
    <rect x="1283" y="629" width="7" height="35" fill="hsl(107 26% 24%)" opacity="0.72"/>
    <polygon points="890,503 861,630 919,630" fill="hsl(189 36% 37%)" opacity="0.77"/>
    <rect x="887" y="607" width="7" height="29" fill="hsl(107 26% 24%)" opacity="0.72"/>
    <polygon points="422,543 399,662 445,662" fill="hsl(199 38% 27%)" opacity="0.74"/>
    <rect x="419" y="641" width="6" height="27" fill="hsl(107 26% 24%)" opacity="0.72"/>
    <polygon points="784,525 753,622 815,622" fill="hsl(199 38% 27%)" opacity="0.69"/>
    <rect x="780" y="605" width="7" height="22" fill="hsl(107 26% 24%)" opacity="0.72"/>
  </g>

  <rect y="646" width="1600" height="254" fill="url(#fog)"/>

  <g>
    <polygon points="653,532 602,774 704,774" fill="hsl(199 38% 27%)" opacity="0.76"/>
    <rect x="647" y="730" width="12" height="56" fill="hsl(107 26% 24%)" opacity="0.72"/>
    <polygon points="1292,549 1240,782 1344,782" fill="hsl(199 38% 27%)" opacity="0.73"/>
    <rect x="1286" y="740" width="12" height="54" fill="hsl(107 26% 24%)" opacity="0.72"/>
    <polygon points="1157,564 1120,741 1194,741" fill="hsl(189 36% 37%)" opacity="0.69"/>
    <rect x="1153" y="709" width="9" height="41" fill="hsl(107 26% 24%)" opacity="0.72"/>
    <polygon points="1267,602 1238,757 1296,757" fill="hsl(189 36% 37%)" opacity="0.81"/>
    <rect x="1264" y="729" width="7" height="36" fill="hsl(107 26% 24%)" opacity="0.72"/>
    <polygon points="1096,667 1057,818 1135,818" fill="hsl(199 38% 27%)" opacity="0.74"/>
    <rect x="1091" y="791" width="9" height="35" fill="hsl(107 26% 24%)" opacity="0.72"/>
    <polygon points="274,530 223,737 325,737" fill="hsl(199 38% 27%)" opacity="0.72"/>
    <rect x="268" y="700" width="12" height="48" fill="hsl(107 26% 24%)" opacity="0.72"/>
    <polygon points="268,645 222,793 314,793" fill="hsl(189 36% 37%)" opacity="0.81"/>
    <rect x="262" y="766" width="11" height="34" fill="hsl(107 26% 24%)" opacity="0.72"/>
    <polygon points="435,650 400,804 470,804" fill="hsl(199 38% 27%)" opacity="0.80"/>
    <rect x="431" y="776" width="8" height="35" fill="hsl(107 26% 24%)" opacity="0.72"/>
    <polygon points="204,670 171,803 237,803" fill="hsl(189 36% 37%)" opacity="0.72"/>
    <rect x="200" y="779" width="8" height="31" fill="hsl(107 26% 24%)" opacity="0.72"/>
    <polygon points="35,573 -14,754 84,754" fill="hsl(189 36% 37%)" opacity="0.86"/>
    <rect x="29" y="721" width="12" height="42" fill="hsl(107 26% 24%)" opacity="0.72"/>
    <polygon points="353,554 303,775 403,775" fill="hsl(199 38% 27%)" opacity="0.90"/>
    <rect x="347" y="735" width="12" height="51" fill="hsl(107 26% 24%)" opacity="0.72"/>
    <polygon points="1085,643 1040,819 1130,819" fill="hsl(199 38% 27%)" opacity="0.79"/>
    <rect x="1080" y="787" width="11" height="40" fill="hsl(107 26% 24%)" opacity="0.72"/>
    <polygon points="1515,535 1477,738 1553,738" fill="hsl(199 38% 27%)" opacity="0.78"/>
    <rect x="1510" y="701" width="9" height="47" fill="hsl(107 26% 24%)" opacity="0.72"/>
    <polygon points="611,567 572,804 650,804" fill="hsl(199 38% 27%)" opacity="0.81"/>
    <rect x="606" y="761" width="9" height="55" fill="hsl(107 26% 24%)" opacity="0.72"/>
    <polygon points="276,497 243,747 309,747" fill="hsl(189 36% 37%)" opacity="0.82"/>
    <rect x="272" y="702" width="8" height="58" fill="hsl(107 26% 24%)" opacity="0.72"/>
    <polygon points="460,575 423,788 497,788" fill="hsl(199 38% 27%)" opacity="0.86"/>
    <rect x="456" y="750" width="9" height="49" fill="hsl(107 26% 24%)" opacity="0.72"/>
  </g>

  <rect x="64" y="676" width="1472" height="184" rx="22" fill="#081517" opacity="0.54"/>
  <text x="118" y="726" fill="#d9e8c8" font-family="Poppins, Arial, sans-serif" font-size="28" font-weight="700">Maden Izinleri</text>
  <text x="118" y="792" fill="#ffffff" font-family="Poppins, Arial, sans-serif" font-size="66.0" font-weight="800">Yunus Gida</text>
  

  <rect width="1600" height="900" fill="url(#vignette)"/>
</svg>
